<svg xmlns="http://www.w3.org/2000/svg" viewBox="0 0 484.99 378.84"><path d="M.18,222.68C-4.74,135.09,90.59,80.09,114.34,60.62c24.87-20.34,78-31.87,148.75-45.29C381.16,3,483.07,38.12,485,143.08c.26,57.25-14.92,83.28-45.15,125.62C409,311.86,369,357.26,299.41,372.72,187.53,397.6,7.15,346.47.18,222.68Z" style="fill:#f0e2d8"/><rect x="30.67" y="84.26" width="158.13" height="230.45" transform="translate(-0.24 0.13) rotate(-0.07)" style="fill:#f2f2f2"/><rect x="267.82" y="50.5" width="158.13" height="230.45" transform="translate(-0.2 0.42) rotate(-0.07)" style="fill:#f2f2f2"/><path d="M268,281.48l-79,32.71-.28-230.46,79-32.71Z" style="fill:#e0dedc"/><path d="M456,282.57l.94,6.08-.23,2.15-3.32.28-1.54-3.61-.43-4.9Z" style="fill:#e0dfdd"/><path d="M457.25,286.83l1.41,3.34a1.88,1.88,0,0,1-1.35,2.64l-15.52,2.07a.43.43,0,0,1-.46-.48c.08-1.14,1.13-4,8.59-7.45l.7-.06a2.18,2.18,0,0,1,1.76.7l2,2.14a1.2,1.2,0,0,0,1,.38,1.23,1.23,0,0,0,1.06-1l.51-2.27A.17.17,0,0,1,457.25,286.83Z" style="fill:#233c40"/><path d="M433.92,282.75l.27,6.14-.47,2.11-3.33-.08-1.14-3.76.12-4.92Z" style="fill:#e0dfdd"/><path d="M424.33,243l3,40.42,7.28.18s1.48-36.36,1-37.53S440,216.15,440,216.15L450.44,284l7.46.19-1.85-35.29-1.93-52.5-14.22.17-2.34,0h-.16l-9.57.11-.95,12.55Z" style="fill:#1c3b40"/><path d="M434.69,287.12l1,3.47a1.88,1.88,0,0,1-1.64,2.48l-15.65.34a.44.44,0,0,1-.41-.53c.22-1.13,1.57-3.85,9.37-6.46l.7,0a2.16,2.16,0,0,1,1.67.89l1.77,2.35a1.19,1.19,0,0,0,.91.48,1.22,1.22,0,0,0,1.16-.85l.76-2.2A.17.17,0,0,1,434.69,287.12Z" style="fill:#233c40"/><path d="M436.34,161.14a5.67,5.67,0,0,0,2.35.34,11,11,0,0,0,1.86-.27l-2.23-3Z" style="fill:#e1e1e2"/><path d="M433.79,157.8a.62.62,0,0,0,0,.09l.09.34v0a4.12,4.12,0,0,0,2.45,2.89l2-2.88,2.23,3a11.89,11.89,0,0,0,5.09-2.81,12.61,12.61,0,0,0,1.18-1.22l-.26-.07-2.26-.64-.2-1.29-.27-1.75h0l-1.28-1.77s-.6,4.61-6.52,3.82l0,.2h0l.12,1.33Z" style="fill:#f6d3c8"/><path d="M432.8,205.87,429,204.82s.26-1.62,3.64-.42" style="fill:#f6d3c8"/><path d="M433.54,204.83l-3.85-1s.26-1.63,3.64-.43" style="fill:#9e7c4a"/><path d="M434.61,203.67l-3.84-1s.26-1.63,3.64-.43" style="fill:#9e7c4a"/><path d="M436.12,200.44l-3.93.68s-.45-1.58,3.12-1.92" style="fill:#f6d3c8"/><path d="M431.58,204a8,8,0,0,1,1.77-1.46,1.34,1.34,0,0,0,.68-1.21c0-.4,0-.8-.07-1.19a2,2,0,0,1,1.26-.93,2,2,0,0,1,1.4.2l12.47-7.17,2.52,5.21-13.86,5.85a2.55,2.55,0,0,0-.71.46L435.69,205a3.68,3.68,0,0,1-1.5.85,3.61,3.61,0,0,1-2.83-.41" style="fill:#f6d3c8"/><path d="M454.63,175.78l-.53,21.49-26.29.16s-2.13-33.44-.57-33.29,26.61,1.74,26.61,1.74Z" style="fill:#a5c4c6"/><path d="M457,187.46l-19.34,10.66,3.27,5.48c11.77-4.35,26.91-10.63,26.9-11.35a95.17,95.17,0,0,0-4.18-24.62,13.73,13.73,0,0,0-10.39-9.19l-6.42-1.26a11.86,11.86,0,0,1-8.13,4.3c-3.52.17-4.59-2.1-4.9-3.68a8.62,8.62,0,0,0-6.75,9.42l1.25,10.86,22.63-5.44Z" style="fill:#a5c4c6"/><path d="M438.32,158.26l2.23,3,1.14,1.5a29.17,29.17,0,0,0,3.95-4.31c.4-.54.72-1,.92-1.29s.27-.42.27-.42l-2.49-2a2.25,2.25,0,0,1-.24.46C442.75,157.25,438.32,158.26,438.32,158.26Z" style="fill:#f8f8f9"/><path d="M449.41,200.79a14.48,14.48,0,0,0,3.3,5.57,16.48,16.48,0,0,0,1.37,1.27c.13.1,0,.33-.14.22a14.81,14.81,0,0,1-4.1-5.22,14.24,14.24,0,0,1-.69-1.78C449.1,200.69,449.36,200.63,449.41,200.79Z" style="fill:#3a3a3d"/><path d="M433.79,157.8a.62.62,0,0,0,0,.09l.09.34v0a17.39,17.39,0,0,0,1.49,4.3l1-1.41,2-2.88a4.14,4.14,0,0,1-2.27-2.59h0Z" style="fill:#f8f8f9"/><path d="M435.93,154.26v.16l.08.88v.17c5.92.79,6.52-3.82,6.52-3.82l1.28,1.77-.8-5.1a2.11,2.11,0,0,1-1.44-.12,8.18,8.18,0,0,1-1.49,3.08,7.84,7.84,0,0,1-2.63,2.18Z" style="fill:#9e7c4a"/><path d="M454.76,162.3a19.25,19.25,0,0,1,2-2.36c.12-.12.31.07.19.2a19,19,0,0,0-1.76,2.05,9,9,0,0,0-1.2,2.33,13.8,13.8,0,0,0-.55,5.07c0,1,.17,2,.3,3,0,.17-.24.24-.26.07C453,169.17,452.71,165.34,454.76,162.3Z" style="fill:#f8f8f9"/><path d="M454,175.5a43.65,43.65,0,0,1,.51,5.6c0,.17-.26.16-.27,0a44.56,44.56,0,0,0-.5-5.53C453.66,175.4,453.92,175.33,454,175.5Z" style="fill:#f8f8f9"/><path d="M437.93,197.88l1.73-.85,14.66-8.13,0-1.31.06.57s-13.82,8.38-14.74,8.87" style="fill:#111e20"/><path d="M430.52,180.86a40.4,40.4,0,0,1-4.07-1.17l-3.07-1,1.76-13.51a7.94,7.94,0,0,1,5.77-6.64l2.48-.69S430.43,180.68,430.52,180.86Z" style="fill:#a5c4c6"/><path d="M428.16,164.66c-.34,3.16-2,5.12-1.56,5.07a3,3,0,0,1,1,.11L426,178.53l-2.8-.88,1.6-12.32a7.35,7.35,0,0,1,1.72-3.82A3.25,3.25,0,0,1,428.16,164.66Z" style="fill:#111e20"/><path d="M416.94,160.86c-.12-1.2-.45-4-.45-4a3.54,3.54,0,0,1,1.59,3l2.24.37s4.8,3.27,4.82,3.32a26.87,26.87,0,0,1-1.08,2.89c-.08,0-2.83.44-2.83.44l-2.57-2.54-.58-2.05-.65-.53A1.31,1.31,0,0,1,416.94,160.86Z" style="fill:#9e7c4a"/><path d="M422.51,160.14c-.16,0-6.83-7.11-6.83-7.11l-2.87,1.7L422,165l2.51-2.24Z" style="fill:#282d41"/><path d="M412.66,161a6.47,6.47,0,1,0-6.31-6.63A6.48,6.48,0,0,0,412.66,161Z" style="fill:#fff;opacity:0.4;isolation:isolate"/><path d="M411.61,158.52a4.21,4.21,0,1,0-2.83-5.24A4.21,4.21,0,0,0,411.61,158.52Z" style="fill:#fff;opacity:0.6000000000000001;isolation:isolate"/><path d="M412.26,156.36a2,2,0,1,0-1.31-2.43A1.94,1.94,0,0,0,412.26,156.36Z" style="fill:#aab2aa"/><path d="M418.31,163.6l-1.38-.91a.92.92,0,0,1-.28-1.25l2.09-3.48s.93,1.1-.73,3.44l2.75,2Z" style="fill:#f6d3c8"/><path d="M418.74,158s.93,1.1-.73,3.44l1.26.92" style="fill:none;stroke:#9e7c4a;stroke-miterlimit:10"/><path d="M423.3,183.67l2.22-14.88a2.35,2.35,0,0,1,.27-.81l.89-1.62a3.71,3.71,0,0,0,.45-1.66,3.6,3.6,0,0,0-1.1-2.64l-2.87-2.77s-1.26,1.06,1.5,3.35a7.94,7.94,0,0,0-1,2.08,1.34,1.34,0,0,1-1,.95l-1.17.24a6.17,6.17,0,0,0-2.25-1.46l.44-.87s1.59.8,2.52,0l-2.63-1.19a.73.73,0,0,0-1,.35l-.74,1.55a.75.75,0,0,0,.13.83l3.45,3.54-3.84,13.87Z" style="fill:#f6d3c8"/><path d="M417.9,179.58c.06-.33,2.58-9.37,2.58-9.37l5.6-.28L425,177Z" style="fill:#a5c4c6"/><path d="M440.94,163.74a4.68,4.68,0,0,1-5-.23c-.14-.1-.28.13-.14.23a5,5,0,0,0,5.23.24A.14.14,0,0,0,440.94,163.74Z" style="fill:#fff"/><path d="M446.58,158.59a29.21,29.21,0,0,0-1.81,2.45c-.09.14.14.28.23.14a29.66,29.66,0,0,1,1.77-2.4C446.88,158.65,446.7,158.45,446.58,158.59Z" style="fill:#fff"/><path d="M433.31,159.9c0-.23-.06-.45-.1-.68a.13.13,0,1,0-.26.06c0,.23.07.46.1.68a.13.13,0,0,0,.26-.06Z" style="fill:#fff"/><path d="M466.48,186.22a4.86,4.86,0,0,0-3.26.93,2.49,2.49,0,0,0-.71,1.78,21.33,21.33,0,0,0,.17,2.38c.09,1,.17,1.93.26,2.9,0,.17.28.18.27,0-.14-1.58-.32-3.15-.42-4.73a2.82,2.82,0,0,1,.43-2,2.58,2.58,0,0,1,1.35-.81,8.11,8.11,0,0,1,1.9-.24C466.64,186.48,466.65,186.22,466.48,186.22Z" style="fill:#fff"/><path d="M447.09,139.19l-1.47,3.26-3.3,7.31L434,148.41l-3.81.17h-.08l-.14-.81L429.5,145l.57-3-.13-.49-.3-1.11.18-.69,1.24-4.73.11-.39,10-.55Z" style="fill:#f6d3c8"/><path d="M451.4,143.52c-.15,1.74-.87,2.53-1.69,2.86h0a1.18,1.18,0,0,1-.3.1,4.1,4.1,0,0,1-2.25-.14,9.12,9.12,0,0,1-2.3,3.77,12.24,12.24,0,0,1-4.09,2.67l-2.39,1-1,.43h0a5.55,5.55,0,0,1-2.81.33,5,5,0,0,1-2.39-1,3.46,3.46,0,0,1-1.24-1.89l-.45-2.08c-.08-.37-.15-.69-.23-1l3.81-.17,8.34,1.35,3.3-7.31a5.41,5.41,0,0,1-.24,1.38,3.85,3.85,0,0,1,2.31-2.16,3.28,3.28,0,0,1,1.44,0C450.3,141.14,451.61,141.09,451.4,143.52Z" style="fill:#f6d3c8"/><path d="M449.52,143.32s-1.44,0-2,2" style="fill:none;stroke:#9e7c4a;stroke-miterlimit:10;stroke-width:0.5px"/><path d="M448.72,145.07l-.79-.74" style="fill:none;stroke:#9e7c4a;stroke-miterlimit:10;stroke-width:0.5px"/><path d="M418.34,177.93,414.66,192a2.59,2.59,0,0,0,.46,2.17l.12.18c1.39,1.92,4.89,2.33,7.13.83l1.1-.74A3.17,3.17,0,0,0,425,191.9v-4L425,177" style="fill:#a5c4c6"/><polyline points="426.41 178.1 425.03 177.66 425.15 190.28 428.23 180.1" style="fill:#a5c4c6"/><path d="M440.47,129.86c.3.12,3.79,1.56,3.61,3.55a2.77,2.77,0,0,1-1.14,1.73c-1.75,1.28-3.47,0-7.79.52a20,20,0,0,0-3.85.76c-2.16.66-2.92,1.33-3.39,1-.9-.63-.23-3.4,1.35-5.23C431.83,129.21,437,128.46,440.47,129.86Z" style="fill:#2e3233"/><path d="M444.77,133a4.08,4.08,0,0,0-3.27.19,2.06,2.06,0,0,0-1,1.85c.33,1.68,4.34,1.81,4.54,3.39a13,13,0,0,1-.07,1.94,9.15,9.15,0,0,0-.18,1.2c0,.88.28,2.3,1,2.48.9.22,2.36-2.1,3-3.34.88-1.72,1.48-2.9,1.06-4.26C449.08,134,445.69,133.21,444.77,133Z" style="fill:#2e3233"/><path d="M434.8,147.11a6.48,6.48,0,0,1-.22-1,2,2,0,0,0-.1-.38l-.09-.13a.84.84,0,0,0-.81,0,1.11,1.11,0,0,0-.36.32c-.08.12-.18.34-.26.46-.15.31-.14.58-.07.65a1.6,1.6,0,0,0,.57.39c.57.24.88.48,1.34-.27l.09,0a1,1,0,0,1-.48,1.16,1.76,1.76,0,0,1-1.34,0,1.72,1.72,0,0,1-1-1,1,1,0,0,1,.06-.8,1.65,1.65,0,0,1,.42-.48c.29-.2.53-.49.84-.71a1.59,1.59,0,0,1,1.19-.49.87.87,0,0,1,.62.58,1.39,1.39,0,0,1,0,.66,2.57,2.57,0,0,1-.39,1.06Z" style="fill:#e0c39d"/><path d="M433.3,141.51a7.12,7.12,0,0,1-.63.66,1.87,1.87,0,0,1-.42.35c-.22.13-.4.23-.43-.07s.06-1-.06-1.14-.35-.05-.56.29a1.1,1.1,0,0,0-.18.48.33.33,0,0,0,.09.28c.13.15.29.26.31.18s-.06-.27-.3-.46a4.83,4.83,0,0,0-1.24-.67h0a.72.72,0,0,1-.29-.22,2.19,2.19,0,0,1-.56-1.44,1.32,1.32,0,0,1,.55-1,1.58,1.58,0,0,1,1.29-.11,1.15,1.15,0,0,1,.62.31,1.44,1.44,0,0,1,.32.58c.12.43.2.69.42.62s.6-.58.89-.74.41.09.51.35a1.88,1.88,0,0,1,0,.57,3.67,3.67,0,0,1-.16.88.76.76,0,0,1-.18.33Z" style="fill:#e0c39d"/><path d="M440.73,143.36h-.89l-.52,0c-.22,0-.36.12-.16-.06a1.6,1.6,0,0,0,.49-.89c0-.17-.27,0-.46.35a2.21,2.21,0,0,1-.5.76c-.14.15-.27.32-.41.26a1.41,1.41,0,0,1-.51-.51,11.78,11.78,0,0,1-.79-1.24h0a.73.73,0,0,1-.09-.38,3.29,3.29,0,0,1,.4-1.48,1.32,1.32,0,0,1,.7-.64,1,1,0,0,1,.79.22,1.74,1.74,0,0,1,.71.85c.21.41.37.65.71.65s1-.3,1.45-.16a.77.77,0,0,1,.49.94,1.24,1.24,0,0,1-.28.61,2.21,2.21,0,0,1-.73.59.72.72,0,0,1-.34.09Z" style="fill:#e0c39d"/><path d="M434.17,150.22c.16-.19.86.08,1.25.12s.87-.07,1,.11-.21.45-.67.52a2.31,2.31,0,0,1-1-.09C434.36,150.72,434,150.39,434.17,150.22Z" style="fill:#e0c39d"/><path d="M431.94,143.06c-.27.82-.38,1.23-.7,1.2s-.53-.62-.47-1.32.38-1.23.7-1.2S432.14,142.45,431.94,143.06Z" style="fill:#2e3233"/><path d="M439.12,144.11c-.27.82-.37,1.23-.7,1.2s-.53-.62-.47-1.32.38-1.23.71-1.2S439.33,143.5,439.12,144.11Z" style="fill:#2e3233"/><path d="M433.06,152.93c-2.74-.49-3.72-3.59-4-6.11a31.46,31.46,0,0,1,.43-9c0-.14-.2-.17-.22,0a31.58,31.58,0,0,0-.54,7.52c.1,2.14.33,4.51,1.71,6.22a4.36,4.36,0,0,0,2.57,1.61C433.18,153.19,433.2,153,433.06,152.93Z" style="fill:#d3a467"/><path d="M433.87,142.76a.11.11,0,1,0-.22,0,4,4,0,0,1-.58,2.84c-.08.13.1.27.18.14A4.16,4.16,0,0,0,433.87,142.76Z" style="fill:#d3a467"/><path d="M439.13,141.08A12.74,12.74,0,0,1,437,141c-.15,0-.17.21,0,.24a11.88,11.88,0,0,0,2.15.11C439.25,141.31,439.27,141.07,439.13,141.08Z" style="fill:#d3a467"/><path d="M440,141.49a5.27,5.27,0,0,1-.89-.1.11.11,0,0,0-.12.11.13.13,0,0,0,.1.13,6.54,6.54,0,0,0,.89.09.11.11,0,0,0,.12-.1A.11.11,0,0,0,440,141.49Z" style="fill:#d3a467"/><path d="M440.71,141.87l-.75-.08a.11.11,0,0,0-.12.11.13.13,0,0,0,.1.13l.75.07a.11.11,0,0,0,.12-.1C440.81,141.93,440.77,141.87,440.71,141.87Z" style="fill:#d3a467"/><path d="M441.52,142.68a5.57,5.57,0,0,0-1-.42.11.11,0,0,0-.14.07.11.11,0,0,0,.06.15,6.34,6.34,0,0,1,1,.42.11.11,0,0,0,.15-.06A.13.13,0,0,0,441.52,142.68Z" style="fill:#d3a467"/><path d="M432.49,140.66l-.73-.33a.1.1,0,0,0-.14.07.12.12,0,0,0,.06.15l.72.33a.11.11,0,0,0,.15-.06A.14.14,0,0,0,432.49,140.66Z" style="fill:#d3a467"/><path d="M432.22,140.85a15.8,15.8,0,0,1-1.89-.81c-.12-.07-.2.13-.09.21l-.26-.1a.12.12,0,0,0-.08.22l.58.22a.11.11,0,0,0,.14-.07.14.14,0,0,0,0-.09,14.39,14.39,0,0,0,1.52.64C432.27,141.12,432.36,140.89,432.22,140.85Z" style="fill:#d3a467"/><path d="M431.62,144.62l-1.29-.17c-.14,0-.16.22,0,.24l1.29.17C431.74,144.88,431.76,144.64,431.62,144.62Z" style="fill:#d3a467"/><path d="M439.51,145.67a4.4,4.4,0,0,1-.89-.07c-.12,0-.14.22,0,.24a5.22,5.22,0,0,0,.88.07.12.12,0,0,0,.11-.11C439.59,145.74,439.56,145.67,439.51,145.67Z" style="fill:#d3a467"/><path d="M157.14,126.36c.17,2.08.41,4.22.54,5.35.07.51.1.81.1.81h1.27v-4.21l8.13,4.82h6.07a1,1,0,0,0-.06-.44c-.22-.62-1.1-1.77-4.56-2.6,0,0-4.44-2-4.46-8.57l-5.41.41-.23.2A5.3,5.3,0,0,0,157.14,126.36Z" style="fill:#d39a50"/><path d="M157.14,126.36c.17,2.08.41,4.22.54,5.35l1.37.79v-4.19l8.13,4.82h6.07a1,1,0,0,0-.06-.44l-5.92-.34-8.3-5.61a3.1,3.1,0,0,1-.2-.95,5.58,5.58,0,0,1,1-3.31l-1.23-.35A5.26,5.26,0,0,0,157.14,126.36Z" style="fill:#3a3a3d"/><path d="M148.53,127.16c.08.9.16,1.82.25,2.67.22,2.28.46,4.13.46,4.13h1.4V129.3l9,5.32h6.7a1.18,1.18,0,0,0,0-.25c-.1-.59-.79-2.07-5.09-3.11a7.49,7.49,0,0,1-2.16-1.69,10,10,0,0,1-1.89-3,11.79,11.79,0,0,1-.8-3.41c0-.16,0-.34,0-.51s0-.54,0-.82l-5.89.45h-.09a2.86,2.86,0,0,0-.38.37A5.92,5.92,0,0,0,148.53,127.16Z" style="fill:#d39a50"/><path d="M148.53,127.16c.08.9.16,1.82.25,2.67.22,2.28.46,4.13.46,4.13h1.4V129.3l9,5.32h6.7a1.18,1.18,0,0,0,0-.25l-6.52-.32-9.58-5.57-1-.56c-.5-1.73.86-4.2.86-4.2l.26,0,6-.55c0-.16,0-.34,0-.51s0-.54,0-.82l-5.89.45h-.09a2.86,2.86,0,0,0-.38.37A5.92,5.92,0,0,0,148.53,127.16Z" style="fill:#283d40"/><path d="M151.63,124c.18-.06.26.23.08.28a.36.36,0,0,0-.23.33.26.26,0,0,0,.07.2.69.69,0,0,0,.24.18.5.5,0,0,0,.55,0,.44.44,0,0,0,.18-.43.5.5,0,0,0-.39-.4.15.15,0,0,1,.08-.28.82.82,0,0,1,.58.53.75.75,0,0,1-.21.77.72.72,0,0,1-.36.18.87.87,0,0,1-.48-.06.79.79,0,0,1-.55-.62A.65.65,0,0,1,151.63,124Z" style="fill:#fff"/><path d="M151.3,127.08c0-.18.33-.1.29.08a.67.67,0,0,0,.08.5.59.59,0,0,0,.17.18l.11.06h.1a.54.54,0,0,0,.45-.16.37.37,0,0,0,.08-.42.5.5,0,0,0-.17-.21.39.39,0,0,0-.25-.06.14.14,0,0,1-.18-.1.15.15,0,0,1,.1-.18.71.71,0,0,1,.72,1,.82.82,0,0,1-.63.37.78.78,0,0,1-.67-.29A1,1,0,0,1,151.3,127.08Z" style="fill:#fff"/><path d="M160.46,125.52c.11-1,.21-2,.32-2.94,0-.18.31-.18.29,0-.1.91-.2,1.82-.29,2.73-.08.68-.27,1.57.22,2.15.12.14-.09.35-.21.2A2.7,2.7,0,0,1,160.46,125.52Z" style="fill:#fff"/><path d="M120.89,83.64l28.24,11.72-.69,2.5a22.64,22.64,0,0,0-.75,7.9l1.15,16.83h8.69l.29-34.66a3.68,3.68,0,0,0-1.49-3h0a3.67,3.67,0,0,0-.89-.49l-.26-.1,0-.09h0l-1.89-.87-8.14-3.74H125.31l6-19.2-9.78-.95-2.67,9C117.05,74.57,116.79,78.85,120.89,83.64Z" style="fill:#1c3b40"/><path d="M141.66,31.72s-7.82,1.33-15.74,3.53l-.36.09c-7.84,2-16.94-2.74-16.94-2.74A9.79,9.79,0,0,1,112.69,24a7.26,7.26,0,0,0,1.15-1l.19-.22.24-.28a22.84,22.84,0,0,0,2.94-4.88c1.54-3.31.11-7.82,3.08-12.89a7.92,7.92,0,0,1,2.5-2.58l.53-.32A17.13,17.13,0,0,1,131.38,0c11.1.89,9.73,19,7.64,22.36S141.66,31.72,141.66,31.72Z" style="fill:#2e2864"/><path d="M109.15,55.06l-.18.85a2.22,2.22,0,0,0,.84,2.26L125,66.4l2.41-4.46L116,53.86l3.57-13.49,2.12,19.19,16.92,1.66,5.79-18.52,2,6.72-2.8,8.5,6.18.93,3.45-9.18-7.81-24.26-6.44-1.26c-.15,1.53-.69,3.44-5.74,3.44a15.82,15.82,0,0,1-8.3-2.66L117,27,108.16,52.4A2.26,2.26,0,0,0,109.15,55.06Z" style="fill:#a5c4c6"/><path d="M123.37,12.94a2.12,2.12,0,0,0,1.65,2,3.74,3.74,0,0,0,1.12.12l1.31,1.35a8.08,8.08,0,0,0,.91.94l.24.21.09.08.12.09a8.88,8.88,0,0,0,3.91,1.77h0c.87.16,1.68.25,2.3.3h.08l2.67-1h0l1-7h0a1.74,1.74,0,0,0-.2-1.12l-.4-.73h0L138,9.53,138,9.22l0-.17a10.23,10.23,0,0,0-2.65-5.33,9.68,9.68,0,0,0-1.21-1.07h0a7.68,7.68,0,0,0-3.28-1.49c-6.66,1.71-5.06,10.35-5.06,10.35S123.1,10.47,123.37,12.94Z" style="fill:#a68a6e"/><path d="M124.88,24.93a14.84,14.84,0,0,0,8.31,2.66c4.77,0,5.8-1.87,6-3.37-.24-.07-.5-.12-.75-.17l-2.06-.39L135,23.38l0-.38L135,22l.11-2.18,0-.58-6.45-1.58v0l-.1.63-.77,5-.12.73-1.54.5Z" style="fill:#a68a6e"/><path d="M133.62,76.17l3.19,1.22,6,2.32,12.55,4.8A3.68,3.68,0,0,1,157.78,88l-.29,34.66h7.36v-4.31h0L165.15,88a3.69,3.69,0,0,0-2.38-3.45L152.36,80.3l-1.46-.59-2.09-.85h0l-5.45-2.2-1.2-.49L148.9,66l-9,.65Z" style="fill:#1c3b40"/><path d="M124.12,12.1s1.32,0,1.69,1-.33,1.16-.33,1.16" style="fill:none;stroke:#8c755d;stroke-miterlimit:10;stroke-width:0.25px"/><path d="M125,13.59l.79-.54" style="fill:none;stroke:#8c755d;stroke-miterlimit:10;stroke-width:0.25px"/><path d="M135.15,19.77,135,22a6.24,6.24,0,0,1-6.41-3.68l.1-.67.07.06a8.86,8.86,0,0,0,3.93,1.78h0A23.86,23.86,0,0,0,135.15,19.77Z" style="fill:#8c755d"/><path d="M128.72,17.61l-1,6.4-4.34,1.4c-1.34-2.92,1.12-3.2,2-5.63A6.64,6.64,0,0,0,125,14.9a4.06,4.06,0,0,0,1.34.1l.3.28.24.35a8.72,8.72,0,0,0,1.7,1.88Z" style="fill:#211b42"/><path d="M164.86,121v.58h0Z" style="fill:#020101"/><path d="M155.83,87.42a.14.14,0,0,0-.2,0c-.56.73-1.12,1.47-1.69,2.2a.15.15,0,0,0,.06.2.15.15,0,0,0,.2-.05l1.68-2.2A.14.14,0,0,0,155.83,87.42Z" style="fill:#fff"/><path d="M164,86.36,163.12,88c-.09.16.16.31.25.14.28-.55.55-1.11.83-1.66C164.29,86.34,164,86.2,164,86.36Z" style="fill:#fff"/><path d="M123.21,15.32c0-.19-.3-.19-.29,0a6.67,6.67,0,0,1-1.34,4.54c-.82,1.1-1.87,2-2.66,3.11a5.22,5.22,0,0,0-.94,2c0,.19.24.27.28.08a7.54,7.54,0,0,1,2.17-3.42,10.29,10.29,0,0,0,2.45-3.6A6.79,6.79,0,0,0,123.21,15.32Z" style="fill:#211b42"/><path d="M137.53,19.88a16.14,16.14,0,0,0-.91,3c0,.19.24.27.28.08a16.14,16.14,0,0,1,.91-3C137.88,19.78,137.6,19.71,137.53,19.88Z" style="fill:#211b42"/><path d="M134.71,1.92s-3.5,4.14-9,9.7a13.5,13.5,0,0,1-3.79-.37C119.93,10.74,123.61-2.8,134.71,1.92Z" style="fill:#2e2864"/><path d="M129.14,1.52a11.55,11.55,0,0,1-3.91,7.38c-.59.55-1.21,1.07-1.85,1.57-.15.11.06.32.21.21A15.06,15.06,0,0,0,129,3.89a8.84,8.84,0,0,0,.48-2.37C129.45,1.33,129.15,1.33,129.14,1.52Z" style="fill:#211b42"/><path d="M122.57,5.71a13.78,13.78,0,0,0-2,5.52c0,.19.29.19.3,0a13.2,13.2,0,0,1,1.92-5.37C122.91,5.69,122.66,5.54,122.57,5.71Z" style="fill:#211b42"/><path d="M157.78,88l-.29,34.66h7.36l-5.95-2.92V86.09L148.51,81.2l3.85-.9-1.46-.59h-9.62Z" style="fill:#0d2426"/><path d="M127.1,62.5l5.58,2.39-1.57,3.33a1.37,1.37,0,0,1-2.11.48l-3.73-3.09Z" style="fill:#a68a6e"/><path d="M117.89,28.28a26.41,26.41,0,0,1,1.27,7.79.15.15,0,0,1-.3,0,25.25,25.25,0,0,0-1.26-7.71A.15.15,0,0,1,117.89,28.28Z" style="fill:#fff"/><path d="M143,30.26c0-.18.3-.18.3,0-.06,2.76,1.2,5.31,1.63,8a10.15,10.15,0,0,1,.13,2.27c0,.18-.31.18-.3,0,.19-2.76-1-5.33-1.55-8A11.56,11.56,0,0,1,143,30.26Z" style="fill:#fff"/><path d="M144.14,26.92l.36-.92a.16.16,0,0,1,.18-.11.18.18,0,0,1,.11.19l-.37.92a.15.15,0,0,1-.18.1A.14.14,0,0,1,144.14,26.92Z" style="fill:#fff"/><path d="M109.89,53.42a4.51,4.51,0,0,1,2.67.68.15.15,0,0,1,0,.23,10.9,10.9,0,0,1-1.76,1.43c.27.3.84.2,1.18.37s.71.65.37,1c-.12.14-.33-.07-.2-.21s0-.34-.15-.44a1.06,1.06,0,0,0-.57-.2,1.15,1.15,0,0,1-1-.49.15.15,0,0,1,0-.2,10.48,10.48,0,0,0,1.69-1.34,4.09,4.09,0,0,0-2.35-.54C109.7,53.73,109.7,53.43,109.89,53.42Z" style="fill:#fff"/><path d="M132,44.13a15.5,15.5,0,0,1,7.65-.39c.18,0,.1.32-.08.29a15.1,15.1,0,0,0-7.49.38C131.91,44.47,131.83,44.19,132,44.13Z" style="fill:#fff"/><path d="M150.79,93.78a.15.15,0,0,1,.2-.06,2,2,0,0,1,.81,1.61.15.15,0,0,1-.3,0,1.61,1.61,0,0,0-.66-1.35A.16.16,0,0,1,150.79,93.78Z" style="fill:#fff"/><path d="M119,76.77a2.92,2.92,0,0,0,.45-.92,6.24,6.24,0,0,0,.16-2.15A13.1,13.1,0,0,1,120,69a9.63,9.63,0,0,0,.46-1.27c.06-.34-.1-.94-.56-.87-.18,0-.26-.25-.08-.28a.76.76,0,0,1,.78.38,1.16,1.16,0,0,1,.11,1c-.11.41-.32.79-.45,1.2a6.4,6.4,0,0,0-.27,1.21,12.47,12.47,0,0,0-.07,2.59,12.51,12.51,0,0,1,0,2.29,3.91,3.91,0,0,1-.31,1.16,2.62,2.62,0,0,1-.3.51c-.11.16-.37.42-.27.64s-.17.32-.25.15C118.61,77.33,118.83,77,119,76.77Z" style="fill:#fff"/><path d="M122.18,72.27a15.33,15.33,0,0,0,4.42-4.72c.09-.16.35,0,.25.14a15.71,15.71,0,0,1-4.53,4.83C122.17,72.63,122,72.37,122.18,72.27Z" style="fill:#fff"/><path d="M125.69,60.29c1.72.2,3.44.31,5.18.34a.15.15,0,0,1,0,.29l-1.08,0s0,0,0,.07a4.41,4.41,0,0,1-.48,2.11c-.09.17-.34,0-.25-.14a4.33,4.33,0,0,0,.44-2,.08.08,0,0,1,0-.07l-.43,0a.08.08,0,0,1,0,.09l-.26,1.94a.15.15,0,0,1-.14.15c-.07,0-.16-.07-.15-.15l.26-1.94a.16.16,0,0,1,0-.11c-1.08-.06-2.16-.14-3.23-.27C125.5,60.56,125.5,60.27,125.69,60.29Z" style="fill:#fff"/><path d="M149.34,119.57q3.75.09,7.49-.07c.19,0,.19.28,0,.29q-3.74.17-7.49.07A.15.15,0,0,1,149.34,119.57Z" style="fill:#fff"/><path d="M159.28,119.17a13.58,13.58,0,0,0,5.08-.25c.19,0,.26.24.08.28a14.22,14.22,0,0,1-5.24.26C159,119.43,159.09,119.15,159.28,119.17Z" style="fill:#fff"/><path d="M119.54,40.36,123,56l2.85,1.85H129l1-3.45,3.16.11-1.86,6-6.86-.7-3-2.08Z" style="fill:#686d68"/><path d="M144.38,42.7l4.74,6.75-1.53,4.08h-2.54l1.29-4.11Z" style="fill:#686d68"/><path d="M134.08,2.65h0a9.68,9.68,0,0,1,1.21,1.07A9.78,9.78,0,0,1,137.85,9l.09.59,1,1.6c.33-5.06-4.21-9.24-4.21-9.24Z" style="fill:#211b42"/><path d="M125.3,79.67l-4.56-5.77h34.17l9.87,5.81Z" style="fill:#bdbbbb"/><path d="M125.27,79.71h39.51L173,53.53H133.45l-2.18,7Z" style="fill:#ebeef9"/><path d="M149.65,69.81c-1.24-.44-1.79-2.1-1.23-3.71s2-2.58,3.27-2.15,1.79,2.1,1.22,3.71S150.89,70.24,149.65,69.81Z" style="fill:#fff"/><path d="M137.47,15.19a3.14,3.14,0,0,0-1.52,0,9.65,9.65,0,0,0-1.21.46c-.57.22.4.8,1,.86a2.07,2.07,0,0,0,1.15-.24C137.39,16,137.81,15.32,137.47,15.19Z" style="fill:#7d564a"/><path d="M135.1,12.72a2.69,2.69,0,0,1,0-.38c0-.28,0-.71.26-.84s.8.11,1,.46c.05.08.43.42.27.77a1.24,1.24,0,0,1-1.18.53c-.22-.06-.3-.3-.34-.54" style="fill:none;stroke:#8c755d;stroke-miterlimit:10;stroke-width:0.5px"/><path d="M136.28,9.1c.42.75.6,1.13.93,1s.43-.7.25-1.37-.6-1.12-.93-1S136,8.55,136.28,9.1Z" style="fill:#2e3233"/><path d="M131,10.7c.42.75.6,1.13.92,1s.44-.71.25-1.37-.6-1.13-.92-1S130.73,10.15,131,10.7Z" style="fill:#2e3233"/><path d="M134.45,9.26c0-.13.24-.14.23,0a3.06,3.06,0,0,0,1,2.36c.1.09-.07.25-.17.15A3.22,3.22,0,0,1,134.45,9.26Z" style="fill:#8c755d"/><path d="M36.9,181.67c.15,0-.14-1.92.13-1.9,3.66.26,9.7-24.06,27.54-22.82.22,0,.22-8.86.62-8.83,3.56.25,8.31,15.4,22,16.36,1.48.1-.59-2.08.14-2,9.43.66,2.59,17,7.55,17.33.71,0,.3-8.57.6-8.53,6.46.45,10.77,2.79,12.62,2.92.37,0,.19-7.88.55-7.86,6,.41,18.49,1.89,25.73,2.39.51,0,.38-8.37.59-8.36,12.79.9,15.54,15,20.5,15.39.65.05.49-8.44.59-8.43,7.34.51,8.35-.54,16.65.05.61,0,0-8.44.59-8.4" style="fill:none;stroke:#cecdcc;stroke-linecap:round;stroke-linejoin:round"/><path d="M194.69,169c.17,0-.16-2,.14-2,2.77.2,12.88-6.93,26.36-6,.17,0,.29-8.42.59-8.4,3,.21,11.24,3.46,22.82,4.27.41,0,.35-8,.56-8,5.39.38,5.43,6.77,8.27,7,.67,0,.31-8.48.59-8.46" style="fill:none;stroke:#cecdcc;stroke-linecap:round;stroke-linejoin:round"/><path d="M282.1,150.9c.72,0-1-4.05.27-4,2.8.2,12.84-7.47,26.41-6.52.22,0,.21-8.9.62-8.88,3.59.26,8.19,15.76,21.94,16.72.71.06-.33-.53,0-.51,5.14.36,6.39-5,9.1-4.87.85.06.27-8.85.62-8.83,8.49.6,9.54,11.94,12,12.11.78.05-.17-8.74.6-8.68,5.85.4,18,2.92,25.15,3.42.4,0,.4-8.12.57-8.1" style="fill:none;stroke:#cecdcc;stroke-linecap:round;stroke-linejoin:round"/><path d="M54.24,257c2.95.2-4.41-12.24.82-11.87,3.2.22,9,18.18,24.59,19.27.2,0,.26-8.66.61-8.63,3.07.21,11.58-4.27,23.36-3.45.91.06-.39-.93.06-.9,5.75.41,5.17,7.9,8.19,8.13,16.08,1.12-5.11-23,1.58-22.48,10.46.73,8.6,17.28,11.6,17.47.73.05-.13-8.64.6-8.59,6.47.45,17.13,12.25,25,12.8.35,0,.41-8,.56-8,10.49.74,16.37,4.69,20.44,5,.75.05.49-8.62.61-8.61" style="fill:none;stroke:#cecdcc;stroke-linecap:round;stroke-linejoin:round"/><path d="M192.9,267c.23,0-.27-2.25.15-2.22,2.91.21,12.5-10.61,26.62-9.62.16,0,.29-8.43.59-8.41,3,.21,11.54.15,23.05.95.71.05-.32-.52,0-.49,4.63.32,5.87-4.31,8.31-4.14.46,0,.37-8.06.57-8.05" style="fill:none;stroke:#cecdcc;stroke-linecap:round;stroke-linejoin:round"/><path d="M266.66,247.14c.2,0-.21-2.1.15-2.07,2.66.19,13-1,25.95-.14.21,0,.23-8.79.61-8.76,3,.21,11.62-2.87,23.27-2.06.66,0-.3-.41,0-.41,4.57.32,6.5-2.32,8.91-2.15.67,0,.31-8.49.59-8.47,9.75.68,8.94,15.41,11.73,15.61.66,0-.06-8.48.59-8.44,6.59.46,16.9,13.49,24.92,14.06.5,0,.37-8.35.58-8.34,10.9.76,17,4.87,21.22,5.19.58,0,.49-8.29.58-8.29,5.08.36,5.69,1.12,11.43,1.52.45,0,.1-8.1.57-8.06" style="fill:none;stroke:#cecdcc;stroke-linecap:round;stroke-linejoin:round"/><path d="M69.11,178.07l-27.58-11a28.34,28.34,0,0,1-17-19.58l-1.87-7.6A15,15,0,0,1,42.72,122.4L56.81,128Z" style="fill:#a5c4c6;opacity:0.78"/><path d="M89.08,154.77l-20,23.3L56.8,128l11.28-13.16a13.86,13.86,0,0,1,24,5.72l2.62,10.67A26.42,26.42,0,0,1,89.08,154.77Z" style="fill:#a5c4c6;opacity:0.99"/><ellipse cx="68.95" cy="127.99" rx="2.11" ry="2.08" transform="matrix(0.09, -1, 1, 0.09, -64.96, 184.61)" style="fill:none;stroke:#2a3f55;stroke-miterlimit:10;stroke-width:0.5px"/><ellipse cx="65.18" cy="119.89" rx="2.11" ry="2.08" transform="translate(-60.3 173.52) rotate(-84.61)" style="fill:none;stroke:#2a3f55;stroke-miterlimit:10;stroke-width:0.5px"/><ellipse cx="67.42" cy="144.15" rx="2.11" ry="2.08" transform="translate(-82.42 197.73) rotate(-84.61)" style="fill:none;stroke:#2a3f55;stroke-miterlimit:10;stroke-width:0.5px"/><ellipse cx="32.87" cy="115.67" rx="2.11" ry="2.08" transform="translate(-85.37 137.53) rotate(-84.61)" style="fill:none;stroke:#2a3f55;stroke-miterlimit:10;stroke-width:0.5px"/><ellipse cx="44.37" cy="137.2" rx="2.11" ry="2.08" transform="translate(-96.39 168.49) rotate(-84.61)" style="fill:none;stroke:#2a3f55;stroke-miterlimit:10;stroke-width:0.5px"/><ellipse cx="80.09" cy="115.46" rx="1.37" ry="1.35" transform="translate(-42.38 184.35) rotate(-84.61)" style="fill:none;stroke:#2a3f55;stroke-miterlimit:10;stroke-width:0.5px"/><ellipse cx="89.6" cy="139.5" rx="1.37" ry="1.35" transform="matrix(0.09, -1, 1, 0.09, -57.7, 215.6)" style="fill:none;stroke:#2a3f55;stroke-miterlimit:10;stroke-width:0.5px"/><ellipse cx="25.71" cy="149.91" rx="1.37" ry="1.35" transform="translate(-125.95 161.43) rotate(-84.61)" style="fill:none;stroke:#2a3f55;stroke-miterlimit:10;stroke-width:0.5px"/><ellipse cx="43.43" cy="129.8" rx="1.37" ry="1.35" transform="translate(-89.88 160.85) rotate(-84.61)" style="fill:none;stroke:#2a3f55;stroke-miterlimit:10;stroke-width:0.5px"/><ellipse cx="58.01" cy="120.41" rx="1.37" ry="1.35" transform="translate(-67.32 166.86) rotate(-84.61)" style="fill:none;stroke:#2a3f55;stroke-miterlimit:10;stroke-width:0.5px"/><ellipse cx="65.44" cy="108.07" rx="1.37" ry="1.35" transform="translate(-48.3 163.07) rotate(-84.61)" style="fill:none;stroke:#2a3f55;stroke-miterlimit:10;stroke-width:0.5px"/><ellipse cx="33.62" cy="158.76" rx="1.35" ry="1.37" transform="translate(-10.97 2.73) rotate(-3.99)" style="fill:none;stroke:#2a3f55;stroke-miterlimit:10;stroke-width:0.5px"/><ellipse cx="67.15" cy="172.25" rx="1.35" ry="1.37" transform="matrix(1, -0.07, 0.07, 1, -11.83, 5.09)" style="fill:none;stroke:#2a3f55;stroke-miterlimit:10;stroke-width:0.5px"/><ellipse cx="50.99" cy="153.58" rx="1.37" ry="1.35" transform="translate(-106.7 189.92) rotate(-84.61)" style="fill:none;stroke:#2a3f55;stroke-miterlimit:10;stroke-width:0.5px"/><ellipse cx="54.57" cy="157.54" rx="1.37" ry="1.35" transform="translate(-107.4 197.07) rotate(-84.61)" style="fill:none;stroke:#2a3f55;stroke-miterlimit:10;stroke-width:0.5px"/><line x1="34.88" y1="159.29" x2="65.96" y2="171.73" style="fill:none;stroke:#2a3f55;stroke-miterlimit:10;stroke-width:0.5px"/><ellipse cx="84.87" cy="137.86" rx="1.35" ry="1.37" transform="translate(-61.4 68.47) rotate(-33)" style="fill:none;stroke:#2a3f55;stroke-miterlimit:10;stroke-width:0.5px"/><line x1="84.18" y1="139.05" x2="66.84" y2="167.68" style="fill:none;stroke:#2a3f55;stroke-miterlimit:10;stroke-width:0.5px"/><polyline points="70.06 106.53 85.35 102.77 88.3 105.39" style="fill:none;stroke:#2a3f55;stroke-miterlimit:10;stroke-width:0.5px"/><line x1="58.62" y1="119.33" x2="64.71" y2="109.27" style="fill:none;stroke:#2a3f55;stroke-miterlimit:10;stroke-width:0.5px"/><polyline points="66.5 118.03 69.77 112.62 78.55 110.46 83.3 113.89 89.27 138.17" style="fill:none;stroke:#2a3f55;stroke-miterlimit:10;stroke-width:0.5px"/><polyline points="16.06 123.14 18.09 119.3 30.85 116.17" style="fill:none;stroke:#2a3f55;stroke-miterlimit:10;stroke-width:0.5px"/><polyline points="20.75 148.09 29.79 133.15 42.12 130.12" style="fill:none;stroke:#2a3f55;stroke-miterlimit:10;stroke-width:0.5px"/><polyline points="27.02 149.57 39.04 146.62 44.33 149.82 65.55 144.61" style="fill:none;stroke:#2a3f55;stroke-miterlimit:10;stroke-width:0.5px"/><polyline points="15.93 128.47 20.87 131.47 33.56 128.35" style="fill:none;stroke:#2a3f55;stroke-miterlimit:10;stroke-width:0.5px"/><polyline points="35.13 115.11 40.11 113.89 54.05 121.86" style="fill:none;stroke:#2a3f55;stroke-miterlimit:10;stroke-width:0.5px"/><polyline points="69.39 129.78 70.04 132.45 74.36 133.94 79.87 132.58 83.42 129.02 80.43 116.83" style="fill:none;stroke:#2a3f55;stroke-miterlimit:10;stroke-width:0.5px"/><polyline points="28.38 144.3 36.96 142.19 40.7 137.72 42.31 137.32" style="fill:none;stroke:#2a3f55;stroke-miterlimit:10;stroke-width:0.5px"/><ellipse cx="58.23" cy="161.11" rx="1.37" ry="1.35" transform="translate(-107.64 203.95) rotate(-84.61)" style="fill:none;stroke:#2a3f55;stroke-miterlimit:10;stroke-width:0.5px"/><ellipse cx="63.25" cy="164.98" rx="1.37" ry="1.35" transform="translate(-106.94 212.46) rotate(-84.61)" style="fill:none;stroke:#2a3f55;stroke-miterlimit:10;stroke-width:0.5px"/><path d="M52.31,153.26l13.06-3.21a.77.77,0,0,1,.92,1L65,155l-9.07,2.23" style="fill:none;stroke:#2a3f55;stroke-miterlimit:10;stroke-width:0.5px"/><polyline points="45.1 139.25 46.04 143.05 48.23 144.38 60.28 141.41 62.96 136.99 61.41 130.67" style="fill:none;stroke:#2a3f55;stroke-miterlimit:10;stroke-width:0.5px"/><polyline points="64.95 154.98 63.38 159.85 59.54 160.79" style="fill:none;stroke:#2a3f55;stroke-miterlimit:10;stroke-width:0.5px"/><line x1="63.38" y1="159.85" x2="62.79" y2="163.7" style="fill:none;stroke:#2a3f55;stroke-miterlimit:10;stroke-width:0.5px"/><polyline points="45.3 174.76 70.33 183.12 87.16 164.48" style="fill:none;stroke:#2a3f55;stroke-miterlimit:10;stroke-width:0.5px"/><path d="M322.32,133.11q-3.37,1.09-7.24,2.15c-2.81.77-8.4-2.42-14.66-7.29" style="fill:none;stroke:#d39a50;stroke-miterlimit:10"/><path d="M346.17,77.21c3.64,3.88,6.38,8.21,6.74,13.26.27,3.69.46,7.14.38,10.36" style="fill:none;stroke:#d39a50;stroke-miterlimit:10"/><path d="M306.67,58.34c9.66-1.82,16.83.5,24,5.64" style="fill:none;stroke:#d39a50;stroke-miterlimit:10"/><path d="M280.74,109.38c-5.32-6-9-11.23-9-13.52A36.52,36.52,0,0,1,273.28,85" style="fill:none;stroke:#d39a50;stroke-miterlimit:10"/><path d="M312.77,63c1.18.38,2.39.82,3.62,1.32" style="fill:none;stroke:#d19a51;stroke-miterlimit:10;opacity:0.129999995231628;isolation:isolate"/><circle cx="312.5" cy="94.29" r="21.97" style="fill:#d39a50;opacity:0.25;isolation:isolate"/><path d="M300.05,81.13a17.57,17.57,0,0,1,16.05-5.3" style="fill:none;stroke:#fff;stroke-miterlimit:10;stroke-width:0.5px"/><path d="M332.26,104.45l25.27,21.44c.94.79.85,2.44-.2,3.69L354.41,133c-1.05,1.26-2.67,1.6-3.6.8l-25.38-21.53" style="fill:#d39a50"/><ellipse cx="281.15" cy="129.3" rx="2.62" ry="2.67" transform="matrix(0.54, -0.84, 0.84, 0.54, 20.19, 295.62)" style="fill:none;stroke:#283f55;stroke-miterlimit:10.0005349296389;stroke-width:0.75px"/><ellipse cx="291.64" cy="113.61" rx="5.05" ry="5.15" transform="translate(9.27 248.63) rotate(-46.84)" style="fill:none;stroke:#283f55;stroke-miterlimit:9.99940173413542;stroke-width:0.75px"/><line x1="282.61" y1="127.04" x2="288.51" y2="117.87" style="fill:none;stroke:#283f55;stroke-miterlimit:10;stroke-width:0.75px"/><ellipse cx="357.03" cy="62.46" rx="2.62" ry="2.66" transform="translate(169.89 372.87) rotate(-68.84)" style="fill:none;stroke:#283f55;stroke-miterlimit:9.97281796946014;stroke-width:0.75px"/><ellipse cx="334.55" cy="75.52" rx="4.86" ry="4.95" transform="translate(19.76 211.66) rotate(-36.11)" style="fill:none;stroke:#283f55;stroke-miterlimit:9.99988445599371;stroke-width:0.75px"/><line x1="354.88" y1="63.69" x2="338.17" y2="72.29" style="fill:none;stroke:#283f55;stroke-miterlimit:10;stroke-width:0.75px"/><polyline points="316.39 95.2 332.17 80.1 330.02 77.73 313.02 89.84 314.82 90.35 313.96 93.39 316.59 92.45" style="fill:#283f55"/><polygon points="312.03 100.18 308.91 99.66 309.71 97.41 307.38 97.9 307 95.2 294.44 108.93 295.73 110.37 312.03 100.18" style="fill:#283f55"/><path d="M28.53,295.6C30,288,34.21,283.89,40.71,280.38c6.19-3.35,13.28-8,19.89-5.88,13.87,4.42,21.79,8.6,18.67,35.32-.7,6-31.51,19.23-35.93,17.45C30.24,322,25.9,308.85,28.53,295.6Z" style="fill:#d39a50"/><g style="opacity:0.8"><polygon points="54.96 340.77 19.64 321.63 18.56 281.47 53.88 300.62 54.96 340.77" style="fill:none;stroke:#1c3b40;stroke-miterlimit:10;opacity:0.9"/><polygon points="89.18 319.76 54.94 340.77 53.86 300.62 88.1 279.6 89.18 319.76" style="fill:none;stroke:#1c3b40;stroke-miterlimit:10"/><polygon points="53.88 300.62 18.56 281.47 52.8 260.46 88.12 279.6 53.88 300.62" style="fill:none;stroke:#1c3b40;stroke-miterlimit:10;opacity:0.87"/></g><path d="M217.34,164.14a23.35,23.35,0,0,1,10.26,29.28l11.72,6a36.48,36.48,0,0,0-16-47Z" style="fill:none;stroke:#1c3b40;stroke-miterlimit:10"/><path d="M175.42,175.93a23.35,23.35,0,0,1,29.47-9l6-11.69a36.47,36.47,0,0,0-47.16,14.68Z" style="fill:#1c3b40"/><path d="M185.37,209.37l-6,11.69a36.47,36.47,0,0,0,48.35-16.24l-11.69-6A23.36,23.36,0,0,1,185.37,209.37Z" style="fill:#d39a50"/><path d="M183.67,208.49a23.36,23.36,0,0,1-9.2-30.89l-11.69-6a36.47,36.47,0,0,0,14.91,48.55Z" style="fill:#a5c4c6"/><path d="M321,213.18c7.36-7.27,15-8.66,24.81-7.68,9.32.93,20.61,1.1,26.33,8.38,12,15.24,17.59,25.76-5.81,52.89-5.29,6.13-49.11-2.34-52.66-7.61C303.17,243.58,308.22,225.82,321,213.18Z" style="fill:#a5c4c6"/><path d="M331.48,211.44l-2.25,27.5c-.39,4.73-3.17,6.6-6.07,7.36-1.22.32-5.44,1-6.33,3.46a3,3,0,0,0,2,4.16c5.24,1.93,12.4-8.37,19.35-5.81a8.34,8.34,0,0,1,5.31,7.1c-3.8-.56-8.27,1.07-13.53,5.94-4.55,4.22-10.25,6.61-15.73,4.6-8.14-3-8.23-11.19-9.85-14.27-1.54-2.92-6.91-3.38-9-4.72-2.38-1.52-2.26-6.08-2.26-6.08l13.38,4.92c1.35-3.67-7.34-8.46-10-13.42a8.36,8.36,0,0,1,.79-8.77l15.55,17.83s1.2-1,.52-3.82c-1.09-4.64-5.4-11.91-6.32-17.1-.88-5,4.9-8.39,4.9-8.39l8.71,25.94c3.65-2.19,1.58-16.55,3.06-20.57,1.66-4.53,6.38-5.65,7.72-5.86" style="fill:none;stroke:#1c3b40;stroke-miterlimit:10;stroke-width:0.5px"/><path d="M375.08,225l-.48-.49a5.4,5.4,0,0,0-.89-.72l6.49-6.47a3.9,3.9,0,0,0,0-5.5h0a1.6,1.6,0,0,0-1.4-.46,6.39,6.39,0,0,0-3.33,1.68l-14.69,14.64a2.06,2.06,0,0,0-.33.4,7,7,0,0,0-1.16,3.52h0c-.18,1.91.1,1,.94,2.67a1.74,1.74,0,0,1-.45,2.15h0c-1.88,1.57-2.83,1.18-3.3-1.46l-7.64-9.78c-1.83-1-3.87-1.42-5.41-.44l-.12.07a3.48,3.48,0,0,0-1.59,3.71c0,.1.2.26.43.45a10.64,10.64,0,0,1,2.8,3.28l5.3,9.9" style="fill:none;stroke:#1c3b40;stroke-miterlimit:10;stroke-width:0.5px"/><path d="M350.26,242.14a33.51,33.51,0,0,0,2.45,4.62l5.53,6.11a17.6,17.6,0,0,0,24.89,0l6.05-6a5.45,5.45,0,0,0,1.51-4.91" style="fill:none;stroke:#1c3b40;stroke-miterlimit:10;stroke-width:0.5px"/><rect x="382.93" y="236.77" width="6.92" height="8.55" rx="3.46" transform="translate(284.37 -202.8) rotate(45.1)" style="fill:none;stroke:#1c3b40;stroke-miterlimit:10;stroke-width:0.5px"/><rect x="389.08" y="230.23" width="6.92" height="8.55" rx="3.46" transform="translate(281.54 -209.07) rotate(45.1)" style="fill:none;stroke:#1c3b40;stroke-miterlimit:10;stroke-width:0.5px"/><rect x="379.48" y="229.19" width="6.92" height="8.55" rx="3.46" transform="translate(277.99 -202.58) rotate(45.1)" style="fill:none;stroke:#1c3b40;stroke-miterlimit:10;stroke-width:0.5px"/><rect x="385.83" y="222.85" width="6.92" height="8.55" rx="3.46" transform="translate(275.37 -208.94) rotate(45.1)" style="fill:none;stroke:#1c3b40;stroke-miterlimit:10;stroke-width:0.5px"/><rect x="374.28" y="223.19" width="6.92" height="8.55" rx="3.46" transform="translate(272.21 -200.66) rotate(45.1)" style="fill:none;stroke:#1c3b40;stroke-miterlimit:10;stroke-width:0.5px"/><rect x="380.56" y="216.93" width="6.92" height="8.55" rx="3.46" transform="translate(269.62 -206.95) rotate(45.1)" style="fill:none;stroke:#1c3b40;stroke-miterlimit:10;stroke-width:0.5px"/><path d="M374.18,247.58a3.75,3.75,0,0,1-3.56,6.6Z" style="fill:none;stroke:#1c3b40;stroke-miterlimit:10;stroke-width:0.5px"/><path d="M369.91,253.74a3.75,3.75,0,1,1,3.56-6.59Z" style="fill:none;stroke:#1c3b40;stroke-miterlimit:10;stroke-width:0.5px"/></svg>
