<?xml version="1.0" encoding="UTF-8" standalone="no"?>
<!-- Generator: Adobe Illustrator 25.0.0, SVG Export Plug-In . SVG Version: 6.00 Build 0)  -->

<svg
   xmlns:dc="http://purl.org/dc/elements/1.1/"
   xmlns:cc="http://creativecommons.org/ns#"
   xmlns:rdf="http://www.w3.org/1999/02/22-rdf-syntax-ns#"
   xmlns:svg="http://www.w3.org/2000/svg"
   xmlns="http://www.w3.org/2000/svg"
   xmlns:sodipodi="http://sodipodi.sourceforge.net/DTD/sodipodi-0.dtd"
   xmlns:inkscape="http://www.inkscape.org/namespaces/inkscape"
   version="1.1"
   id="Layer_1"
   x="0px"
   y="0px"
   viewBox="0 0 794.2 241.95"
   style="enable-background:new 0 0 794.2 241.95;"
   xml:space="preserve"
   sodipodi:docname="rl1_fi.svg"
   inkscape:version="0.92.5 (2060ec1f9f, 2020-04-08)"><metadata
   id="metadata133"><rdf:RDF><cc:Work
       rdf:about=""><dc:format>image/svg+xml</dc:format><dc:type
         rdf:resource="http://purl.org/dc/dcmitype/StillImage" /><dc:title></dc:title></cc:Work></rdf:RDF></metadata><defs
   id="defs131">
	

		
		
		
		
		
		
		
		
		
		
		
		
		
		
		
		
		
		
		
		
		
		
		
		
		
		
		
		
		
		
		
		
		
		
		
		
		
		
		
		
		
		
		
		
		
		
		
		
		
		
		
		
		
		
		
		
		
			
		
		
		
		
		
	</defs><sodipodi:namedview
   pagecolor="#ffffff"
   bordercolor="#666666"
   borderopacity="1"
   objecttolerance="10"
   gridtolerance="10"
   guidetolerance="10"
   inkscape:pageopacity="0"
   inkscape:pageshadow="2"
   inkscape:window-width="2560"
   inkscape:window-height="1324"
   id="namedview129"
   showgrid="false"
   inkscape:zoom="1.2357897"
   inkscape:cx="720.21318"
   inkscape:cy="57.811984"
   inkscape:window-x="0"
   inkscape:window-y="27"
   inkscape:window-maximized="1"
   inkscape:current-layer="Layer_1" />
<rect
   x="350.29001"
   y="0.5"
   style="fill:none;stroke:#000000;stroke-miterlimit:10"
   width="232.99001"
   height="107.76"
   id="rect12" /><rect
   x="350.29001"
   y="133.69"
   style="fill:none;stroke:#000000;stroke-miterlimit:10"
   width="232.99001"
   height="107.76"
   id="rect36" /><path
   d="m 712.66,159.38 10.91,-17.92 h 2.69 l 2.6,17.92 h -2.14 l -1.88,-12.87 -0.38,-2.71 -1.57,2.6 -7.79,13 z m 4.53,-5.13 0.46,-2 h 9.39 l -0.46,2 z"
   id="path50"
   inkscape:connector-curvature="0" /><path
   d="m 732.09,161.59 0.25,-1.09 h 5.32 l -0.25,1.09 z m 2.69,6.95 c -0.45,0.01 -0.9,-0.09 -1.3,-0.3 -0.35,-0.19 -0.62,-0.5 -0.76,-0.87 -0.13,-0.44 -0.13,-0.92 0,-1.36 l 1.67,-7.25 1.37,-0.39 -1.8,7.7 c -0.12,0.34 -0.04,0.73 0.2,1 0.25,0.21 0.56,0.32 0.89,0.31 0.24,0 0.47,-0.03 0.7,-0.11 0.19,-0.07 0.36,-0.17 0.52,-0.29 l 0.25,1 c -0.24,0.17 -0.51,0.29 -0.8,0.37 -0.3,0.1 -0.62,0.17 -0.94,0.19 z"
   id="path52"
   inkscape:connector-curvature="0" /><path
   d="M 143.82,139.91 147.97,122 h 5.87 c 1.4,-0.07 2.77,0.39 3.84,1.29 0.97,0.92 1.49,2.23 1.42,3.57 0.02,0.95 -0.22,1.88 -0.69,2.71 -0.44,0.78 -1.07,1.45 -1.82,1.94 -0.73,0.5 -1.56,0.84 -2.43,1 l -1.35,0.19 h -5.57 l 0.46,-2 h 4.89 c 0.83,0.03 1.65,-0.15 2.39,-0.53 0.6,-0.32 1.09,-0.81 1.41,-1.41 0.31,-0.6 0.47,-1.27 0.46,-1.94 0.03,-0.78 -0.31,-1.52 -0.92,-2 -0.75,-0.5 -1.63,-0.75 -2.53,-0.7 h -3.72 l -3.71,15.79 z m 11.46,0 -3.07,-7.62 2.2,-0.28 3.23,7.9 z"
   id="path66"
   inkscape:connector-curvature="0" /><path
   d="m 160.86,142.13 0.26,-1.09 h 5.31 l -0.25,1.09 z m 2.69,7 c -0.45,0.01 -0.89,-0.09 -1.29,-0.3 -0.35,-0.19 -0.62,-0.5 -0.76,-0.87 -0.15,-0.44 -0.17,-0.91 -0.05,-1.36 l 1.66,-7.25 1.38,-0.4 -1.81,7.71 c -0.12,0.34 -0.04,0.73 0.2,1 0.25,0.21 0.57,0.32 0.9,0.31 0.44,0.01 0.87,-0.13 1.22,-0.4 l 0.25,1 c -0.25,0.17 -0.52,0.3 -0.81,0.38 -0.29,0.08 -0.59,0.12 -0.89,0.13 z"
   id="path68"
   inkscape:connector-curvature="0" /><path
   d="M 8.12,141.59 C 6.88,141.62 5.65,141.42 4.49,141 3.46,140.62 2.52,140.02 1.75,139.23 0.97,138.4 0.38,137.4 0.03,136.32 l 2.17,-1.08 c 0.25,0.94 0.72,1.8 1.36,2.53 0.58,0.64 1.31,1.12 2.12,1.39 0.85,0.29 1.74,0.43 2.63,0.42 0.76,0.03 1.53,-0.13 2.22,-0.45 0.55,-0.26 1.02,-0.66 1.35,-1.17 0.29,-0.46 0.44,-0.99 0.44,-1.53 0.04,-0.59 -0.2,-1.17 -0.63,-1.58 -0.55,-0.44 -1.18,-0.75 -1.86,-0.92 L 6.97,133.1 c -0.85,-0.24 -1.66,-0.61 -2.39,-1.1 -0.61,-0.39 -1.11,-0.92 -1.47,-1.55 -0.34,-0.61 -0.52,-1.3 -0.5,-2 -0.01,-0.97 0.27,-1.91 0.8,-2.72 0.56,-0.84 1.34,-1.51 2.25,-1.94 1.08,-0.5 2.25,-0.75 3.44,-0.72 1.54,-0.05 3.06,0.33 4.39,1.09 1.21,0.77 2.11,1.94 2.53,3.31 l -2.17,1.06 c -0.17,-0.81 -0.55,-1.55 -1.12,-2.15 -0.49,-0.47 -1.09,-0.82 -1.74,-1 -0.65,-0.18 -1.32,-0.27 -2,-0.27 -0.78,-0.03 -1.56,0.11 -2.28,0.41 -0.55,0.22 -1.03,0.59 -1.37,1.08 -0.3,0.44 -0.45,0.96 -0.45,1.49 0,0.63 0.26,1.23 0.71,1.67 0.5,0.58 1.14,1.01 1.87,1.24 l 3.23,0.93 c 1.11,0.26 2.12,0.81 2.93,1.61 0.63,0.7 0.97,1.62 0.95,2.57 0.02,1.04 -0.29,2.07 -0.88,2.93 -0.6,0.83 -1.41,1.5 -2.35,1.93 -1.02,0.44 -2.12,0.65 -3.23,0.62 z"
   id="path80"
   inkscape:connector-curvature="0" /><path
   d="m 17.34,143.6 0.26,-1.1 h 5.31 l -0.25,1.1 z m 2.69,6.94 c -0.45,0.01 -0.89,-0.09 -1.29,-0.3 -0.35,-0.19 -0.62,-0.5 -0.76,-0.87 -0.14,-0.44 -0.15,-0.92 -0.01,-1.37 l 1.66,-7.25 1.38,-0.39 -1.81,7.7 c -0.12,0.34 -0.04,0.73 0.2,1 0.25,0.21 0.57,0.32 0.9,0.31 0.23,0 0.47,-0.03 0.69,-0.11 0.19,-0.07 0.36,-0.17 0.52,-0.29 l 0.26,1 c -0.25,0.17 -0.52,0.29 -0.81,0.37 -0.3,0.11 -0.61,0.18 -0.93,0.2 z"
   id="path82"
   inkscape:connector-curvature="0" /><path
   d="m 297.81,150.63 4.16,-17.92 h 5.86 c 1.4,-0.07 2.77,0.39 3.84,1.29 0.98,0.92 1.5,2.23 1.43,3.57 0.02,0.95 -0.22,1.89 -0.7,2.71 -0.44,0.78 -1.06,1.45 -1.81,1.95 -0.74,0.49 -1.56,0.82 -2.43,1 l -1.36,0.19 h -5.57 l 0.47,-2 h 4.88 c 0.83,0.03 1.65,-0.15 2.39,-0.53 0.6,-0.32 1.09,-0.81 1.41,-1.41 0.31,-0.6 0.47,-1.27 0.46,-1.94 0.06,-0.79 -0.29,-1.56 -0.92,-2.05 -0.74,-0.5 -1.63,-0.74 -2.52,-0.69 h -3.72 l -3.71,15.83 z m 11.46,0 -3.07,-7.63 2.2,-0.27 3.23,7.9 z"
   id="path84"
   inkscape:connector-curvature="0" /><path
   d="m 314.86,152.85 0.25,-1.1 h 5.32 l -0.25,1.1 z m 2.69,6.94 c -0.45,0.01 -0.9,-0.09 -1.3,-0.3 -0.35,-0.19 -0.62,-0.5 -0.76,-0.87 -0.13,-0.44 -0.13,-0.92 0,-1.36 l 1.66,-7.25 1.38,-0.39 -1.8,7.7 c -0.12,0.34 -0.04,0.73 0.2,1 0.25,0.21 0.56,0.32 0.89,0.31 0.24,0 0.47,-0.03 0.7,-0.11 0.19,-0.07 0.36,-0.17 0.52,-0.29 l 0.25,1 c -0.25,0.17 -0.52,0.3 -0.81,0.37 -0.3,0.1 -0.61,0.17 -0.93,0.19 z"
   id="path86"
   inkscape:connector-curvature="0" /><path
   d="m 329.2,154.06 -0.27,1.19 h -7.69 l 0.26,-1.19 z m -2.49,-3.32 -1.8,7.85 h -1.19 l 1.8,-7.85 z"
   id="path88"
   inkscape:connector-curvature="0" /><path
   d="m 331.68,159.67 1.69,-7.38 0.24,-0.86 c 0.07,-0.25 0.15,-0.49 0.24,-0.72 -0.25,0.22 -0.53,0.42 -0.83,0.57 -0.36,0.19 -0.74,0.36 -1.12,0.5 -0.36,0.14 -0.73,0.25 -1.11,0.32 v -1.23 c 0.43,-0.1 0.86,-0.24 1.27,-0.41 0.44,-0.18 0.87,-0.38 1.28,-0.61 0.33,-0.18 0.64,-0.39 0.92,-0.63 h 1.11 l -2.4,10.45 z"
   id="path90"
   inkscape:connector-curvature="0" /><path
   d="m 304.63,199.63 c -1.25,0.02 -2.49,-0.2 -3.66,-0.63 -1.03,-0.38 -1.97,-0.99 -2.74,-1.78 -0.78,-0.83 -1.36,-1.82 -1.72,-2.9 l 2.17,-1.09 c 0.25,0.94 0.71,1.81 1.36,2.54 0.58,0.63 1.3,1.1 2.11,1.38 0.85,0.28 1.74,0.43 2.64,0.42 0.76,0.03 1.53,-0.13 2.22,-0.45 0.55,-0.25 1.02,-0.65 1.35,-1.16 0.29,-0.46 0.44,-1 0.44,-1.54 0.03,-0.59 -0.2,-1.17 -0.63,-1.57 -0.54,-0.44 -1.18,-0.75 -1.86,-0.92 l -2.91,-0.82 c -0.83,-0.23 -1.62,-0.59 -2.34,-1.06 -0.61,-0.39 -1.11,-0.92 -1.47,-1.54 -0.34,-0.61 -0.52,-1.3 -0.5,-2 -0.01,-0.96 0.27,-1.91 0.8,-2.71 0.56,-0.84 1.34,-1.51 2.25,-1.94 1.07,-0.5 2.25,-0.75 3.43,-0.72 1.54,-0.06 3.06,0.32 4.4,1.08 1.21,0.77 2.11,1.95 2.53,3.32 l -2.18,1.05 c -0.16,-0.8 -0.54,-1.55 -1.11,-2.14 -0.49,-0.48 -1.08,-0.82 -1.74,-1 -0.65,-0.19 -1.32,-0.28 -2,-0.28 -0.78,-0.02 -1.56,0.12 -2.28,0.41 -0.55,0.22 -1.03,0.6 -1.37,1.09 -0.3,0.44 -0.45,0.96 -0.45,1.49 0,0.63 0.26,1.23 0.71,1.67 0.51,0.55 1.17,0.96 1.89,1.17 l 3.23,0.92 c 1.11,0.26 2.12,0.82 2.93,1.62 0.63,0.7 0.97,1.62 0.95,2.56 0.02,1.04 -0.29,2.07 -0.88,2.93 -0.6,0.84 -1.41,1.51 -2.35,1.93 -1.01,0.45 -2.11,0.68 -3.22,0.67 z"
   id="path92"
   inkscape:connector-curvature="0" /><path
   d="m 313.85,201.63 0.26,-1.09 h 5.31 l -0.25,1.09 z m 2.69,7 c -0.45,0.01 -0.89,-0.09 -1.29,-0.3 -0.35,-0.19 -0.62,-0.5 -0.76,-0.87 -0.14,-0.44 -0.14,-0.92 0,-1.36 l 1.66,-7.25 1.38,-0.4 -1.81,7.71 c -0.12,0.34 -0.04,0.73 0.2,1 0.25,0.21 0.57,0.32 0.89,0.31 0.24,0.01 0.48,-0.03 0.7,-0.11 0.19,-0.06 0.36,-0.16 0.52,-0.28 l 0.26,1 c -0.25,0.17 -0.52,0.3 -0.81,0.37 -0.31,0.09 -0.62,0.13 -0.94,0.13 z"
   id="path94"
   inkscape:connector-curvature="0" /><path
   d="m 328.19,202.85 -0.22,1.15 h -7.69 l 0.27,-1.19 z m -2.48,-3.32 -1.81,7.84 h -1.18 l 1.8,-7.84 z"
   id="path96"
   inkscape:connector-curvature="0" /><path
   d="m 330.68,208.45 1.69,-7.37 c 0.08,-0.33 0.16,-0.62 0.24,-0.87 0.07,-0.24 0.15,-0.48 0.23,-0.72 -0.25,0.23 -0.53,0.42 -0.83,0.57 -0.36,0.19 -0.73,0.36 -1.11,0.51 -0.36,0.14 -0.73,0.25 -1.11,0.32 v -1.24 c 0.43,-0.1 0.85,-0.23 1.26,-0.4 0.44,-0.18 0.87,-0.39 1.29,-0.62 0.32,-0.18 0.63,-0.38 0.91,-0.62 h 1.11 l -2.39,10.44 z"
   id="path98"
   inkscape:connector-curvature="0" /><polyline
   style="fill:none;stroke:#000000;stroke-width:2;stroke-miterlimit:10"
   points="583.28,54.38 699.78,54.38     699.78,187.57 599.59,187.57   "
   id="polyline100" /><path
   d="m 603.18,187.57 4.38,7.21 -0.25,0.16 -11.75,-4.66 -12.28,-2.71 12.28,-2.7 11.75,-4.66 0.25,0.12 z"
   id="path102"
   inkscape:connector-curvature="0" /><line
   style="fill:none;stroke:#000000;stroke-width:2;stroke-miterlimit:10"
   x1="350.29001"
   y1="168.53999"
   x2="293.25"
   y2="168.53999"
   id="line104" /><path
   d="m 296.84,168.54 4.38,7.21 -0.24,0.16 -11.75,-4.67 -12.26,-2.7 12.28,-2.7 11.72,-4.67 0.24,0.13 z"
   id="path106"
   inkscape:connector-curvature="0" /><line
   style="fill:none;stroke:#000000;stroke-width:2;stroke-miterlimit:10"
   x1="350.29001"
   y1="217.31"
   x2="293.25"
   y2="217.31"
   id="line108" /><path
   d="m 296.84,217.31 4.38,7.21 -0.24,0.16 -11.75,-4.68 -12.26,-2.69 12.28,-2.7 11.72,-4.67 0.24,0.12 z"
   id="path110"
   inkscape:connector-curvature="0" /><line
   style="fill:none;stroke:#000000;stroke-width:2;stroke-miterlimit:10"
   x1="255.37"
   y1="141.46001"
   x2="255.37"
   y2="143.46001"
   id="line112" /><line
   style="fill:none;stroke:#000000;stroke-width:2;stroke-miterlimit:10;stroke-dasharray:3.84, 3.84"
   x1="255.37"
   y1="147.3"
   x2="255.37"
   y2="237.53999"
   id="line114" /><line
   style="fill:none;stroke:#000000;stroke-width:2;stroke-miterlimit:10"
   x1="255.37"
   y1="239.45"
   x2="255.37"
   y2="241.45"
   id="line116" /><polyline
   style="fill:none;stroke:#000000;stroke-width:2;stroke-miterlimit:10"
   points="242.43,168.54 128.09,168.54     128.09,75.86 333.99,75.86   "
   id="polyline118" /><path
   d="m 330.4,75.86 -4.38,-7.2 0.24,-0.17 11.71,4.67 12.28,2.7 -12.28,2.71 -11.75,4.66 -0.24,-0.12 z"
   id="path120"
   inkscape:connector-curvature="0" /><polyline
   style="fill:none;stroke:#000000;stroke-width:2;stroke-miterlimit:10"
   points="238.11,217.31 87.1,217.31 87.1,24.23     333.99,24.23   "
   id="polyline122" /><path
   d="m 330.4,24.23 -4.38,-7.23 0.24,-0.16 11.71,4.69 12.28,2.7 -12.28,2.7 -11.71,4.67 -0.24,-0.12 z"
   id="path124"
   inkscape:connector-curvature="0" />
<text
   xml:space="preserve"
   style="font-style:normal;font-variant:normal;font-weight:500;font-stretch:normal;font-size:29.81507683px;line-height:1.25;font-family:'CMU Sans Serif';-inkscape-font-specification:'CMU Sans Serif, Medium';font-variant-ligatures:normal;font-variant-caps:normal;font-variant-numeric:normal;font-feature-settings:normal;text-align:start;letter-spacing:0px;word-spacing:0px;writing-mode:lr-tb;text-anchor:start;fill:#000000;fill-opacity:1;stroke:none;stroke-width:0.74537694"
   x="-0.56865132"
   y="110.75858"
   id="text1130"><tspan
     sodipodi:role="line"
     id="tspan1128"
     x="-0.56865132"
     y="110.75858"
     style="stroke-width:0.74537694">tila</tspan></text>
<text
   xml:space="preserve"
   style="font-style:normal;font-variant:normal;font-weight:500;font-stretch:normal;font-size:27.14215088px;line-height:1.25;font-family:'CMU Sans Serif';-inkscape-font-specification:'CMU Sans Serif, Medium';font-variant-ligatures:normal;font-variant-caps:normal;font-variant-numeric:normal;font-feature-settings:normal;text-align:start;letter-spacing:0px;word-spacing:0px;writing-mode:lr-tb;text-anchor:start;fill:#000000;fill-opacity:1;stroke:none;stroke-width:0.67855388"
   x="142.60001"
   y="104.79277"
   id="text1134"><tspan
     sodipodi:role="line"
     id="tspan1132"
     x="142.60001"
     y="104.79277"
     style="stroke-width:0.67855388">palkinto</tspan></text>
<text
   xml:space="preserve"
   style="font-style:normal;font-variant:normal;font-weight:500;font-stretch:normal;font-size:26.55017853px;line-height:1.25;font-family:'CMU Sans Serif';-inkscape-font-specification:'CMU Sans Serif, Medium';font-variant-ligatures:normal;font-variant-caps:normal;font-variant-numeric:normal;font-feature-settings:normal;text-align:start;letter-spacing:0px;word-spacing:0px;writing-mode:lr-tb;text-anchor:start;fill:#000000;fill-opacity:1;stroke:none;stroke-width:0.66375446"
   x="428.40781"
   y="65.381905"
   id="text1138"><tspan
     sodipodi:role="line"
     id="tspan1136"
     x="428.40781"
     y="65.381905"
     style="stroke-width:0.66375446">Toimija</tspan></text>
<text
   xml:space="preserve"
   style="font-style:normal;font-variant:normal;font-weight:500;font-stretch:normal;font-size:28.53674698px;line-height:1.25;font-family:'CMU Sans Serif';-inkscape-font-specification:'CMU Sans Serif, Medium';font-variant-ligatures:normal;font-variant-caps:normal;font-variant-numeric:normal;font-feature-settings:normal;text-align:start;letter-spacing:0px;word-spacing:0px;writing-mode:lr-tb;text-anchor:start;fill:#000000;fill-opacity:1;stroke:none;stroke-width:0.7134186"
   x="418.84473"
   y="199.4744"
   id="text1142"><tspan
     sodipodi:role="line"
     id="tspan1140"
     x="418.84473"
     y="199.4744"
     style="stroke-width:0.7134186">Ympäristö</tspan></text>
<text
   xml:space="preserve"
   style="font-style:normal;font-variant:normal;font-weight:500;font-stretch:normal;font-size:26.9309063px;line-height:1.25;font-family:'CMU Sans Serif';-inkscape-font-specification:'CMU Sans Serif, Medium';font-variant-ligatures:normal;font-variant-caps:normal;font-variant-numeric:normal;font-feature-settings:normal;text-align:start;letter-spacing:0px;word-spacing:0px;writing-mode:lr-tb;text-anchor:start;fill:#000000;fill-opacity:1;stroke:none;stroke-width:0.67327261"
   x="702.37885"
   y="127.17902"
   id="text1146"><tspan
     sodipodi:role="line"
     id="tspan1144"
     x="702.37885"
     y="127.17902"
     style="stroke-width:0.67327261">toiminta</tspan></text>
</svg>