<svg xmlns="http://www.w3.org/2000/svg" width="114.004" height="109.502" viewBox="0 0 114.004 109.502">
  <g id="Group_1477" data-name="Group 1477" transform="translate(-71.558 -4829.01)">
    <g id="Group_1468" data-name="Group 1468" transform="translate(-1099.715 3797.533)">
      <g id="Layer_1" data-name="Layer 1" transform="translate(1171.273 1032.623)">
        <path id="Path_6832" data-name="Path 6832" d="M1188.243,1046.924c10.477-11.944,22.052-14.92,37.164-14.492,14.4.408,31.7-.573,41.263,9.945,20.029,22.036,29.785,37.54-3.094,81.685-7.425,9.971-75.5,1.8-81.516-5.874C1164.247,1095.459,1170.023,1067.7,1188.243,1046.924Z" transform="translate(-1171.273 -1032.393)" fill="#e0eaeb"/>
      </g>
      <g id="hahmo" transform="translate(1201.135 1031.477)">
        <g id="Group_1467" data-name="Group 1467">
          <path id="Path_6833" data-name="Path 6833" d="M1216.656,1096.554l-.394,12.663,12.786,7.464,8.009-10.111.436-8.684Z" transform="translate(-1189.836 -1015.134)" fill="#e3c7b6"/>
          <ellipse id="Ellipse_117" data-name="Ellipse 117" cx="12.132" cy="8.68" rx="12.132" ry="8.68" transform="matrix(0.39, -0.921, 0.921, 0.39, 58.692, 68.061)" fill="#f2e4dc"/>
          <path id="Path_6834" data-name="Path 6834" d="M1269.705,1075.663c-1.475,14.229-10.019,34.033-18.632,40.812-5.673,4.465-12.237,3.143-18.755,3.611-6.681.479-11.855-.308-13.766-1.185-5.012-2.3-7.514-2.292-11.285-7.345-6.9-9.247-10.508-24.99-10.128-35.651.7-19.662,9.246-38.176,31.152-38.248C1249.02,1037.587,1272.13,1052.276,1269.705,1075.663Z" transform="translate(-1194.646 -1029.926)" fill="#f2e4dc"/>
          <path id="Path_6835" data-name="Path 6835" d="M1220,1089" transform="translate(-1188.898 -1017.031)" fill="#f2e4dc"/>
          <path id="Path_6836" data-name="Path 6836" d="M1222.713,1083.34a19.155,19.155,0,0,0,.059-2.363c-.034-1.7-.085-4.31-1.842-4.966-1.935-.722-5.125,1.231-6.4,3.495-.3.536-2.61,2.87-1.505,4.9,1.156,2.13,5.585,3.321,7.633,2.5,1.411-.567,1.894-2.069,2.05-3.566" transform="translate(-1190.723 -1020.332)" fill="none" stroke="#e0b885" stroke-miterlimit="10" stroke-width="0.905"/>
          <path id="Path_6837" data-name="Path 6837" d="M1217.209,1064.592a38.89,38.89,0,0,0-5.3-1.722c-2.635-.651-3.982-.968-5.453-.579a7.514,7.514,0,0,0-4.424,3.623" transform="translate(-1193.411 -1023.781)" fill="none" stroke="#e0b885" stroke-linecap="round" stroke-miterlimit="10" stroke-width="4"/>
          <path id="Path_6838" data-name="Path 6838" d="M1243.016,1069.043a8.656,8.656,0,0,0-4.34-5.136c-.444-.194-1.555-.618-4.6-.458a30.253,30.253,0,0,0-8.089,1.57" transform="translate(-1187.394 -1023.457)" fill="none" stroke="#e0b885" stroke-linecap="round" stroke-miterlimit="10" stroke-width="4"/>
          <path id="Path_6839" data-name="Path 6839" d="M1217.338,1091.942c.691-.847,4.045-.08,5.877-.063,1.675.016,4.014-.7,4.8-.021.868.746-.788,1.969-2.908,2.455a11.142,11.142,0,0,1-4.5.075C1218.423,1093.94,1216.7,1092.729,1217.338,1091.942Z" transform="translate(-1189.6 -1016.393)" fill="#e0b885"/>
          <path id="Path_6840" data-name="Path 6840" d="M1230.559,1032.3c.941.245,11.953,3.236,12.353,9.611.186,3-2.043,5.424-2.557,5.969-4.559,4.838-10.253,1.568-22.783,5.124a57.7,57.7,0,0,0-11.03,4.134c-6.069,3.059-8,5.509-9.549,4.674-2.971-1.6-2.294-10.641,1.51-17.147C1204.678,1034.111,1219.553,1029.444,1230.559,1032.3Z" transform="translate(-1195.141 -1031.477)" fill="#2b3233"/>
          <path id="Path_6841" data-name="Path 6841" d="M1244.088,1040.218c-.676-.347-8.614-4.3-10.5.464a9.964,9.964,0,0,0,.144,6.141c3.349,8.109,14.014,6.692,16.865,14.327a66.731,66.731,0,0,1,1.931,7.519c.584,2.851.425,3.194.874,4.754.972,3.37,3.162,8.769,5.031,9.126,2.344.447,4.209-7.025,3.388-14.3C1260.491,1056.442,1251.989,1044.274,1244.088,1040.218Z" transform="translate(-1185.595 -1029.752)" fill="#2b3233"/>
          <path id="Path_6842" data-name="Path 6842" d="M1235.512,1104.62l-11.239,6.293,5.042,11.244,14.976-11.31-7.527-6.231" transform="translate(-1187.825 -1013.11)" fill="#f1f3f4"/>
          <path id="Path_6843" data-name="Path 6843" d="M1216.758,1105l11.26,6.256-5,11.26L1208,1111.256l7.507-6.256" transform="translate(-1191.911 -1013.013)" fill="#f1f3f4"/>
          <path id="Path_6844" data-name="Path 6844" d="M1221.148,1118.028l2.317,1.981h2.5l2.317-1.981-3.568-8.028Z" transform="translate(-1188.609 -1011.758)" fill="#2b3233"/>
          <path id="Path_6845" data-name="Path 6845" d="M1210.88,1071c-.813,3.337-1.092,5-2.44,5s-2.44-2.241-2.44-5,1.092-5,2.44-5S1211.481,1068.532,1210.88,1071Z" transform="translate(-1192.414 -1022.807)" fill="#2b3233"/>
          <path id="Path_6846" data-name="Path 6846" d="M1234.88,1072c-.813,3.337-1.092,5-2.44,5s-2.44-2.241-2.44-5,1.092-5,2.44-5S1235.481,1069.532,1234.88,1072Z" transform="translate(-1186.386 -1022.556)" fill="#2b3233"/>
          <path id="Path_6847" data-name="Path 6847" d="M1221.018,1112.429c-11.486-.834-16.719-12.64-18.727-22.449a118.388,118.388,0,0,1-1.658-35.53c.06-.6-.878-.6-.938,0a121.364,121.364,0,0,0,.656,29.813c1.234,8.4,3.108,17.64,9.435,23.8a18.039,18.039,0,0,0,11.233,5.3C1221.62,1113.411,1221.618,1112.472,1221.018,1112.429Z" transform="translate(-1194.152 -1025.821)" fill="#d39a50"/>
          <path id="Path_6848" data-name="Path 6848" d="M1216.9,1101.906a.473.473,0,0,0-.577-.328.48.48,0,0,0-.328.577,10.691,10.691,0,0,1,.107,2.985.471.471,0,0,0,.469.469.484.484,0,0,0,.469-.469A11.433,11.433,0,0,0,1216.9,1101.906Z" transform="translate(-1189.906 -1013.876)" fill="#d39a50"/>
          <path id="Path_6849" data-name="Path 6849" d="M1257.147,1076.741c-.588-.13-.839.774-.249.9,2.287.5,1.409,3.409.748,4.836-.783,1.691-1.709,3.573-3.493,4.394s-3.606-.429-5.416.125c-1.673.512-1.934,2.187-1.923,3.714a.469.469,0,0,0,.938,0c-.007-.963-.019-2.226.99-2.716.946-.461,2.1-.078,3.068.063a5.214,5.214,0,0,0,4.923-2.112,12.831,12.831,0,0,0,1.476-2.469,10.592,10.592,0,0,0,1.092-3A3.184,3.184,0,0,0,1257.147,1076.741Z" transform="translate(-1182.164 -1020.114)" fill="#d39a50"/>
          <path id="Path_6850" data-name="Path 6850" d="M1252.194,1087.719c-1.3,6.1-4.872,12.107-11.076,14.177-2.321.773-5.825.374-7.07,2.966-1.215,2.532,2.014,4.33,3.8,5.364a.47.47,0,0,0,.473-.811c-1.126-.65-2.964-1.563-3.473-2.839-.8-2,1.853-2.849,3.278-3.086a16.67,16.67,0,0,0,7-2.569c4.373-3,6.885-7.865,7.971-12.953C1253.225,1087.38,1252.32,1087.128,1252.194,1087.719Z" transform="translate(-1185.437 -1017.438)" fill="#d39a50"/>
          <path id="Path_6851" data-name="Path 6851" d="M1216.615,1068.508a.469.469,0,0,0-.9.249,14.95,14.95,0,0,1-1.291,11.413c-.294.528.515,1,.811.474A15.925,15.925,0,0,0,1216.615,1068.508Z" transform="translate(-1190.315 -1022.261)" fill="#d39a50"/>
          <path id="Path_6852" data-name="Path 6852" d="M1234.857,1061.45a50.593,50.593,0,0,1-8.884.4c-.6-.026-.6.912,0,.938a50.569,50.569,0,0,0,8.884-.4C1235.448,1062.309,1235.455,1061.37,1234.857,1061.45Z" transform="translate(-1187.511 -1023.951)" fill="#d39a50"/>
          <path id="Path_6853" data-name="Path 6853" d="M1236.962,1062.446a23.679,23.679,0,0,1-3.72-.02.473.473,0,0,0-.469.469.479.479,0,0,0,.469.469,23.679,23.679,0,0,0,3.72.02.479.479,0,0,0,.469-.469A.473.473,0,0,0,1236.962,1062.446Z" transform="translate(-1185.69 -1023.705)" fill="#d39a50"/>
          <path id="Path_6854" data-name="Path 6854" d="M1239.148,1063.424h-3.1a.469.469,0,0,0,0,.938h3.1a.469.469,0,0,0,0-.938Z" transform="translate(-1184.985 -1023.455)" fill="#d39a50"/>
          <path id="Path_6855" data-name="Path 6855" d="M1242.294,1065.991a25.882,25.882,0,0,0-4.129-1.275.482.482,0,0,0-.578.328.476.476,0,0,0,.328.578,25.683,25.683,0,0,1,4.129,1.274.473.473,0,0,0,.578-.327A.482.482,0,0,0,1242.294,1065.991Z" transform="translate(-1184.485 -1023.133)" fill="#d39a50"/>
          <path id="Path_6856" data-name="Path 6856" d="M1211.7,1062.485l-3.1-1.022a.473.473,0,0,0-.578.328.482.482,0,0,0,.328.577l3.1,1.022a.474.474,0,0,0,.578-.328A.48.48,0,0,0,1211.7,1062.485Z" transform="translate(-1191.911 -1023.952)" fill="#d39a50"/>
          <path id="Path_6857" data-name="Path 6857" d="M1212.155,1063.434a63.518,63.518,0,0,1-8.077-2.426c-.541-.2-.778.607-.314.865l-1.117-.278a.47.47,0,0,0-.25.906l2.481.616a.476.476,0,0,0,.577-.328.517.517,0,0,0-.043-.342,63.552,63.552,0,0,0,6.495,1.892C1212.494,1064.474,1212.744,1063.569,1212.155,1063.434Z" transform="translate(-1193.404 -1024.069)" fill="#d39a50"/>
          <path id="Path_6858" data-name="Path 6858" d="M1254.148,1053.784a27.929,27.929,0,0,0-14.864-12.355,15.381,15.381,0,0,1,8.767,2.189c.5.337.973-.475.473-.811-4-2.676-8.957-2.45-13.551-2.145-.6.039-.6.979,0,.938.982-.066,1.982-.125,2.985-.158a.465.465,0,0,0,.3.6,26.435,26.435,0,0,1,2.694,1.046.448.448,0,0,0,.11.276q3.309,3.808,6.343,7.841c.358.478,1.173.01.809-.473-1.733-2.307-3.547-4.549-5.414-6.747a27,27,0,0,1,10.535,10.269A.47.47,0,0,0,1254.148,1053.784Z" transform="translate(-1185.251 -1029.215)" fill="#1c3b40"/>
          <path id="Path_6859" data-name="Path 6859" d="M1230.789,1044.178q-7.073.4-14.122,1.12c-.6.061-.6,1,0,.938q7.047-.723,14.122-1.12C1231.389,1045.083,1231.393,1044.144,1230.789,1044.178Z" transform="translate(-1189.848 -1028.288)" fill="#1c3b40"/>
          <path id="Path_6860" data-name="Path 6860" d="M1232.419,1043.785a72.625,72.625,0,0,0-16.136-3.14c-.6-.048-.6.891,0,.938a71.535,71.535,0,0,1,15.887,3.107C1232.747,1044.871,1232.993,1043.966,1232.419,1043.785Z" transform="translate(-1189.944 -1029.176)" fill="#1c3b40"/>
          <path id="Path_6861" data-name="Path 6861" d="M1235.052,1042.274a34.89,34.89,0,0,0-9.606-3.259c-3.607-.812-7.255-1.42-10.906-2-.591-.093-.844.811-.249.9,3.521.554,7.038,1.14,10.518,1.91a34.948,34.948,0,0,1,9.769,3.25A.47.47,0,0,0,1235.052,1042.274Z" transform="translate(-1190.417 -1030.087)" fill="#1c3b40"/>
          <path id="Path_6862" data-name="Path 6862" d="M1210.481,1075.043l-5.371-.149a.469.469,0,0,0,0,.938l5.371.149A.469.469,0,0,0,1210.481,1075.043Z" transform="translate(-1192.751 -1020.574)" fill="#d39a50"/>
          <path id="Path_6863" data-name="Path 6863" d="M1237.4,1075.785a34.025,34.025,0,0,1-4.548.087c-.6-.03-.6.909,0,.938a34.045,34.045,0,0,0,4.548-.088.482.482,0,0,0,.469-.469A.472.472,0,0,0,1237.4,1075.785Z" transform="translate(-1185.783 -1020.35)" fill="#d39a50"/>
        </g>
      </g>
    </g>
  </g>
</svg>
