<svg xmlns="http://www.w3.org/2000/svg" width="409.862" height="478.433" viewBox="0 0 409.862 478.433">
  <g id="Group_1472" data-name="Group 1472" transform="translate(137.27 -139.354)">
    <g id="Group_1411" data-name="Group 1411" transform="translate(-45.173 139.354) rotate(17)">
      <path id="Path_6777" data-name="Path 6777" d="M30.972,315,49.4,304.027l12.336-17.506L77.51,272.7l16.72-12.981,13.789-15.873,13.606-16.012,12.888-16.624,15.947-13.975,13.462-16.156,13.814-15.887,13.39-16.2,9.944-18.84,13.3-16.289,13.553-16.109L237.656,78.9l10.5-18.223,12.371-17.1,2.211-22.378L250.954,0l-24.4,2.45-9.95,19.327-9.241,19.966L194.371,59.166l-13.659,16.9-12.53,17.7L152.2,108.783l-13.27,17.06-14.661,15.9-10.691,19.285L96.438,174.793,83.4,192.167,67.059,206.446,53.2,223.083,39.216,239.719,23.8,254.895,5.871,267.316,0,291.424l9.686,23.335Z" fill="#d39a50"/>
    </g>
    <g id="Group_1412" data-name="Group 1412" transform="translate(20.269 241.574) rotate(17)">
      <path id="Path_6778" data-name="Path 6778" d="M28.764,312.735l16.13-13.424L60.46,285.246l17.263-12.353,15.4-14.328,11.389-18.146,13.2-16.336,17.375-12.619,13.949-15.742,12.209-17.2,11.974-17.335,15.609-14.418,9.695-19.017,13.59-16.063L224.973,95.1l9.388-19.054,12.131-17.111,11.06-17.945,6.3-22.564L247.788,0,225.443,1.053,213.5,19.067,205.38,39.779,189.368,55.056l-9.283,20.038L166.163,91.773l-15.435,15.438L138.011,124.73,124.92,141.973,112,159.4,95.49,173.732,80.967,189.753,65.626,204.978,50.188,220.059l-12.908,17.7L20.937,251.944,3.944,265.359,0,289.258l11.179,20.586Z" transform="translate(0 0)" fill="#d39a50"/>
    </g>
  </g>
</svg>
