<svg xmlns="http://www.w3.org/2000/svg" width="315.95" height="305.57" viewBox="0 0 315.95 305.57">
  <g id="Group_1413" data-name="Group 1413" transform="matrix(0.174, 0.985, -0.985, 0.174, 764.048, -636.088)">
    <path id="Path_6782" data-name="Path 6782" d="M581.97,695.989c-2.264-18.273,3.909-30.6,15.617-43.393,11.158-12.18,23.327-27.955,39.423-28.168,33.729-.446,54.2,3.006,66.946,65.471,2.876,14.109-55.169,66.914-66.2,66.233C605.1,754.125,585.9,727.775,581.97,695.989Z" transform="translate(94.313 138.86)" fill="#a5c4c6"/>
    <path id="Path_6783" data-name="Path 6783" d="M578.038,649.606c-.929-19.4,6.612-31.843,20.073-44.3,12.824-11.87,27.009-27.434,44.116-26.307,35.842,2.357,57.3,7.7,65.805,74.426,1.922,15.07-63.948,65.708-75.6,64.071C597.927,712.648,579.661,683.346,578.038,649.606Z" transform="translate(85.094 20.711)" fill="#a5c4c6"/>
    <path id="Path_6784" data-name="Path 6784" d="M551.213,661.207c-8.343-15.473-7.192-28.564-1.314-43.969,5.6-14.671,10.841-32.886,24.95-38.616,29.564-12.007,48.8-15.984,81.729,35.179,7.44,11.557-25.361,78.493-35.32,81.689C591.791,704.942,565.718,688.115,551.213,661.207Z" transform="translate(0)" fill="#a5c4c6"/>
  </g>
</svg>
