<svg xmlns="http://www.w3.org/2000/svg" width="413.646" height="390.798" viewBox="0 0 413.646 390.798">
  <path id="Path_6780" data-name="Path 6780" d="M898.789,883.253c18.383-25.267,13.869-51.26-10.194-70.487-25.284-20.2-53.81-37.247-82.92-51.274-10.369-5-21.146-9.951-32.215-14.123-.418-21.157-.144-42.334.127-63.487.274-21.695-33.312-19.775-33.586,1.769-.219,17.455-.442,34.933-.278,52.4a116.058,116.058,0,0,0-19.477-1.543c-32.324.315-59.823,18.788-80.822,42.084-46.026,51.051-70.569,118.84-73.884,186.9-1.056,21.64,32.537,19.652,33.583-1.769,2.8-57.392,24.283-114.572,61.653-158.448,21.6-25.366,46.817-39.708,79.917-32.729.333,6.821.73,13.643,1.289,20.454,2.571,31.546,7.3,66.075,27.351,91.822C801.514,926.125,867.424,926.365,898.789,883.253Zm-94.944-10.476c-24.451-20.138-26.7-58.746-28.756-87.849-.028-.36-.041-.723-.065-1.086,17.989,7.651,35.365,17.386,51.644,27.125a351.24,351.24,0,0,1,39.746,27.08c13.352,10.725,11.456,21.561-1.028,32.4C848.53,885.073,821.323,887.171,803.845,872.777Z" transform="matrix(0.966, 0.259, -0.259, 0.966, -292.402, -792.11)" fill="#e3c7b6"/>
</svg>
