<?xml version="1.0" encoding="utf-8"?>
<!-- Generator: Adobe Illustrator 25.0.0, SVG Export Plug-In . SVG Version: 6.00 Build 0)  -->
<svg version="1.1" id="Layer_1" xmlns="http://www.w3.org/2000/svg" xmlns:xlink="http://www.w3.org/1999/xlink" x="0px" y="0px"
	 viewBox="0 0 413.65 390.8" style="enable-background:new 0 0 413.65 390.8;" xml:space="preserve">
<path id="Path_6780" style="fill:#E3C7B6;" d="M347.07,293.9c24.3-19.65,26.67-45.93,8.41-70.73
	c-19.19-26.06-42.33-49.92-66.82-71.01c-8.72-7.52-17.85-15.09-27.46-21.99c5.08-20.55,10.83-40.93,16.57-61.3
	c5.88-20.89-27.06-27.73-32.9-6.99c-4.73,16.8-9.47,33.63-13.84,50.55c-5.94-2.69-12.1-4.88-18.42-6.54
	c-31.31-8.07-62.66,2.66-88.97,19.72C65.94,163.02,24.68,222.14,3.85,287.03c-6.62,20.63,26.34,27.41,32.9,6.99
	c17.57-54.72,53.13-104.39,100.59-137.09c27.44-18.91,55.51-26.23,85.68-10.92c-1.44,6.68-2.83,13.37-4.05,20.09
	c-5.69,31.14-10.06,65.72,2.64,95.78C241.99,310.12,305.6,327.42,347.07,293.9z M258.06,259.19c-18.4-25.79-10.58-63.66-5.03-92.31
	c0.07-0.35,0.15-0.71,0.22-1.07c15.4,12.05,29.66,25.95,42.86,39.58c11.28,11.42,21.77,23.6,31.38,36.45
	c10.12,13.82,5.48,23.79-9.38,31.03C298.04,282.64,271.22,277.62,258.06,259.19z"/>
</svg>
