<?xml version="1.0" encoding="utf-8"?>
<!-- Generator: Adobe Illustrator 25.0.0, SVG Export Plug-In . SVG Version: 6.00 Build 0)  -->
<svg version="1.1" id="Layer_1" xmlns="http://www.w3.org/2000/svg" xmlns:xlink="http://www.w3.org/1999/xlink" x="0px" y="0px"
	 viewBox="0 0 154.96 138.17" style="enable-background:new 0 0 154.96 138.17;" xml:space="preserve">
<g id="Group_1282" transform="translate(-129.937 -112.562)">
	<g id="Group_1244" transform="translate(129.937 112.562)">
		<path id="Path_6632" style="opacity:0.12;fill:#1C3B40;enable-background:new    ;" d="M77.5,138.17l-51.97-37.16
			C9.51,89.54,0,71.05,0,51.35V34.51C0,8.31,29.63-6.92,50.94,8.32l26.56,19V138.17z"/>
		<path id="Path_6633" style="opacity:0.2;fill:#1C3B40;enable-background:new    ;" d="M131.19,99.75l-53.72,38.42V27.32
			l30.34-21.7c19.73-14.11,47.16-0.01,47.16,24.25v23.64C154.96,71.86,146.11,89.08,131.19,99.75z"/>
	</g>
	<path id="Path_6634" style="fill:#D39A50;" d="M133.68,185.59"/>
	<path id="Path_6635" style="fill:#D36C50;" d="M162.52,216.05"/>
	<g id="Group_1281" transform="translate(155.723 133.944)">
		<g id="Group_1246" transform="translate(67.946 27.504)">
			<g id="Group_1245" transform="translate(0 0)">
				
					<ellipse id="Ellipse_91" transform="matrix(0.3288 -0.9444 0.9444 0.3288 -0.9742 5.6138)" style="fill:none;stroke:#2A3F55;stroke-width:1.859;stroke-miterlimit:10;" cx="3.46" cy="3.49" rx="2.76" ry="2.71"/>
			</g>
		</g>
		<g id="Group_1248" transform="translate(65.702 16.074)">
			<g id="Group_1247" transform="translate(0 0)">
				
					<ellipse id="Ellipse_92" transform="matrix(0.3288 -0.9444 0.9444 0.3288 -0.9742 5.6138)" style="fill:none;stroke:#2A3F55;stroke-width:1.859;stroke-miterlimit:10;" cx="3.46" cy="3.49" rx="2.76" ry="2.71"/>
			</g>
		</g>
		<g id="Group_1250" transform="translate(60.995 47.47)">
			<g id="Group_1249" transform="translate(0 0)">
				
					<ellipse id="Ellipse_93" transform="matrix(0.3288 -0.9444 0.9444 0.3288 -0.9742 5.6138)" style="fill:none;stroke:#2A3F55;stroke-width:1.859;stroke-miterlimit:10;" cx="3.46" cy="3.49" rx="2.76" ry="2.71"/>
			</g>
		</g>
		<g id="Group_1252" transform="translate(24.306 1.539)">
			<g id="Group_1251" transform="translate(0 0)">
				
					<ellipse id="Ellipse_94" transform="matrix(0.3288 -0.9444 0.9444 0.3288 -0.9742 5.6138)" style="fill:none;stroke:#2A3F55;stroke-width:1.859;stroke-miterlimit:10;" cx="3.46" cy="3.49" rx="2.76" ry="2.71"/>
			</g>
		</g>
		<g id="Group_1254" transform="translate(33.99 31.51)">
			<g id="Group_1253" transform="translate(0 0)">
				
					<ellipse id="Ellipse_95" transform="matrix(0.3288 -0.9444 0.9444 0.3288 -0.9742 5.6138)" style="fill:none;stroke:#2A3F55;stroke-width:1.859;stroke-miterlimit:10;" cx="3.46" cy="3.49" rx="2.76" ry="2.71"/>
			</g>
		</g>
		<g id="Group_1256" transform="translate(87.162 16.334)">
			<g id="Group_1255" transform="translate(0 0)">
				
					<ellipse id="Ellipse_96" transform="matrix(0.3288 -0.9444 0.9444 0.3288 -0.6323 3.6454)" style="fill:none;stroke:#2A3F55;stroke-width:1.207;stroke-miterlimit:10;" cx="2.25" cy="2.27" rx="1.79" ry="1.76"/>
			</g>
		</g>
		<g id="Group_1258" transform="translate(91.71 49.711)">
			<g id="Group_1257" transform="translate(0 0)">
				
					<ellipse id="Ellipse_97" transform="matrix(0.3288 -0.9444 0.9444 0.3288 -0.6323 3.6454)" style="fill:none;stroke:#2A3F55;stroke-width:1.207;stroke-miterlimit:10;" cx="2.25" cy="2.27" rx="1.79" ry="1.76"/>
			</g>
		</g>
		<g id="Group_1260" transform="translate(7.637 43.016)">
			<g id="Group_1259" transform="translate(0 0)">
				
					<ellipse id="Ellipse_98" transform="matrix(0.3288 -0.9444 0.9444 0.3288 -0.6323 3.6454)" style="fill:none;stroke:#2A3F55;stroke-width:1.207;stroke-miterlimit:10;" cx="2.25" cy="2.27" rx="1.79" ry="1.76"/>
			</g>
		</g>
		<g id="Group_1262" transform="translate(36.31 23.078)">
			<g id="Group_1261" transform="translate(0 0)">
				
					<ellipse id="Ellipse_99" transform="matrix(0.3288 -0.9444 0.9444 0.3288 -0.6323 3.6454)" style="fill:none;stroke:#2A3F55;stroke-width:1.207;stroke-miterlimit:10;" cx="2.25" cy="2.27" rx="1.79" ry="1.76"/>
			</g>
		</g>
		<g id="Group_1264" transform="translate(57.684 15.738)">
			<g id="Group_1263" transform="translate(0 0)">
				
					<ellipse id="Ellipse_100" transform="matrix(0.3288 -0.9444 0.9444 0.3288 -0.6323 3.6454)" style="fill:none;stroke:#2A3F55;stroke-width:1.207;stroke-miterlimit:10;" cx="2.25" cy="2.27" rx="1.79" ry="1.76"/>
			</g>
		</g>
		<g id="Group_1266" transform="translate(70.922 2.429)">
			<g id="Group_1265" transform="translate(0 0)">
				
					<ellipse id="Ellipse_101" transform="matrix(0.3288 -0.9444 0.9444 0.3288 -0.6323 3.6454)" style="fill:none;stroke:#2A3F55;stroke-width:1.207;stroke-miterlimit:10;" cx="2.25" cy="2.27" rx="1.79" ry="1.76"/>
			</g>
		</g>
		<g id="Group_1268" transform="translate(17.39 53.733)">
			<g id="Group_1267" transform="translate(0 0)">
				
					<ellipse id="Ellipse_102" transform="matrix(0.3288 -0.9444 0.9444 0.3288 -0.6323 3.6454)" style="fill:none;stroke:#2A3F55;stroke-width:1.207;stroke-miterlimit:10;" cx="2.25" cy="2.27" rx="1.79" ry="1.76"/>
			</g>
		</g>
		<g id="Group_1270" transform="translate(50.628 87.095)">
			<g id="Group_1269" transform="translate(0 0)">
				
					<ellipse id="Ellipse_103" transform="matrix(0.3288 -0.9444 0.9444 0.3288 -0.6323 3.6454)" style="fill:none;stroke:#2A3F55;stroke-width:1.207;stroke-miterlimit:10;" cx="2.25" cy="2.27" rx="1.79" ry="1.76"/>
			</g>
		</g>
		<g id="Group_1272" transform="translate(38.488 55.519)">
			<g id="Group_1271" transform="translate(0 0)">
				
					<ellipse id="Ellipse_104" transform="matrix(0.3288 -0.9444 0.9444 0.3288 -0.6323 3.6454)" style="fill:none;stroke:#2A3F55;stroke-width:1.859;stroke-miterlimit:10;" cx="2.25" cy="2.27" rx="1.79" ry="1.76"/>
			</g>
		</g>
		<g id="Group_1274" transform="translate(41.78 61.636)">
			<g id="Group_1273" transform="translate(0 0)">
				
					<ellipse id="Ellipse_105" transform="matrix(0.3288 -0.9444 0.9444 0.3288 -0.6323 3.6454)" style="fill:none;stroke:#2A3F55;stroke-width:1.859;stroke-miterlimit:10;" cx="2.25" cy="2.27" rx="1.79" ry="1.76"/>
			</g>
		</g>
		<path id="Path_6636" style="fill:none;stroke:#2A3F55;stroke-width:1.859;stroke-miterlimit:10;" d="M102.96,0"/>
		<path id="Path_6637" style="fill:none;stroke:#2A3F55;stroke-width:1.859;stroke-miterlimit:10;" d="M49.85,24.61"/>
		<path id="Path_6638" style="fill:none;stroke:#2A3F55;stroke-width:1.859;stroke-miterlimit:10;" d="M0,46.64"/>
		
			<line id="Line_43" style="fill:none;stroke:#2A3F55;stroke-width:1.859;stroke-miterlimit:10;" x1="4.26" y1="55.22" x2="18.41" y2="69.37"/>
		
			<line id="Line_44" style="fill:none;stroke:#2A3F55;stroke-width:1.859;stroke-miterlimit:10;" x1="20.88" y1="57.29" x2="51.72" y2="88.13"/>
		<g id="Group_1276" transform="translate(86.237 46.162)">
			<g id="Group_1275" transform="translate(0 0)">
				
					<ellipse id="Ellipse_106" transform="matrix(0.9444 -0.3288 0.3288 0.9444 -0.6205 0.8654)" style="fill:none;stroke:#2A3F55;stroke-width:1.207;stroke-miterlimit:10;" cx="2.25" cy="2.27" rx="1.76" ry="1.79"/>
			</g>
		</g>
		
			<line id="Line_45" style="fill:none;stroke:#2A3F55;stroke-width:1.859;stroke-miterlimit:10;" x1="87.24" y1="49.72" x2="56.41" y2="80.56"/>
		<path id="Path_6639" style="fill:none;stroke:#2A3F55;stroke-width:1.859;stroke-miterlimit:10;" d="M22.08,77l29.49,25.71
			l42.39-37.58"/>
		<path id="Path_6640" style="fill:none;stroke:#2A3F55;stroke-width:1.859;stroke-miterlimit:10;" d="M80.61,0.89h20.51l2.92,4.23"
			/>
		
			<line id="Line_46" style="fill:none;stroke:#2A3F55;stroke-width:1.859;stroke-miterlimit:10;" x1="61.04" y1="16.82" x2="71.87" y2="5.99"/>
		<path id="Path_6641" style="fill:none;stroke:#2A3F55;stroke-width:1.859;stroke-miterlimit:10;" d="M71.41,17.62l5.82-5.82h11.78
			l4.95,5.82v32.57"/>
		<path id="Path_6642" style="fill:none;stroke:#2A3F55;stroke-width:1.859;stroke-miterlimit:10;" d="M4.18,9.26l3.76-4.23h17.12"
			/>
		<path id="Path_6643" style="fill:none;stroke:#2A3F55;stroke-width:1.859;stroke-miterlimit:10;" d="M4.18,41.43l16.08-16.08H36.8
			"/>
		<path id="Path_6644" style="fill:none;stroke:#2A3F55;stroke-width:1.859;stroke-miterlimit:10;" d="M11.65,45.26h16.12l5.7,5.7
			h28.47"/>
		<path id="Path_6645" style="fill:none;stroke:#2A3F55;stroke-width:1.859;stroke-miterlimit:10;" d="M4.18,15.12l5.32,5.32h17.01"
			/>
		<path id="Path_6646" style="fill:none;stroke:#2A3F55;stroke-width:1.859;stroke-miterlimit:10;" d="M30.79,5.03h6.68l18.11,18.58
			"/>
		<path id="Path_6647" style="fill:none;stroke:#2A3F55;stroke-width:1.859;stroke-miterlimit:10;" d="M71.41,33.39v3.58l5,3.23h7.4
			l5.61-3.4V20.44"/>
		<path id="Path_6648" style="fill:none;stroke:#2A3F55;stroke-width:1.859;stroke-miterlimit:10;" d="M15.01,39.01h11.51l6.13-4.49
			h2.15"/>
		<g id="Group_1278" transform="translate(45.303 67.301)">
			<g id="Group_1277" transform="translate(0 0)">
				
					<ellipse id="Ellipse_107" transform="matrix(0.3288 -0.9444 0.9444 0.3288 -0.6323 3.6454)" style="fill:none;stroke:#2A3F55;stroke-width:1.859;stroke-miterlimit:10;" cx="2.25" cy="2.27" rx="1.79" ry="1.76"/>
			</g>
		</g>
		<g id="Group_1280" transform="translate(50.451 73.762)">
			<g id="Group_1279" transform="translate(0 0)">
				
					<ellipse id="Ellipse_108" transform="matrix(0.3288 -0.9444 0.9444 0.3288 -0.6323 3.6454)" style="fill:none;stroke:#2A3F55;stroke-width:1.859;stroke-miterlimit:10;" cx="2.25" cy="2.27" rx="1.79" ry="1.76"/>
			</g>
		</g>
		<path id="Path_6649" style="fill:none;stroke:#2A3F55;stroke-width:1.859;stroke-miterlimit:10;" d="M42.5,57.79h17.53
			c0.56,0,1.01,0.45,1.01,1.01c0,0.19-0.06,0.38-0.16,0.54l-2.92,4.56H45.79"/>
		<path id="Path_6650" style="fill:none;stroke:#2A3F55;stroke-width:1.859;stroke-miterlimit:10;" d="M37.74,37.82v5.1l2.37,2.37
			h16.17l4.76-4.76v-8.48"/>
		<path id="Path_6651" style="fill:none;stroke:#2A3F55;stroke-width:1.859;stroke-miterlimit:10;" d="M57.96,63.9l-3.5,5.66h-5.15"
			/>
		
			<line id="Line_47" style="fill:none;stroke:#2A3F55;stroke-width:1.859;stroke-miterlimit:10;" x1="54.46" y1="69.57" x2="52.51" y2="74.26"/>
	</g>
</g>
</svg>
