<svg xmlns="http://www.w3.org/2000/svg" viewBox="0 0 117.85 119.37"><path d="M61.85,110.74,24.54,84.05A43.84,43.84,0,0,1,6.2,48.39V36.3A23.13,23.13,0,0,1,42.78,17.49L61.85,31.13Z" style="fill:#d39a50;opacity:0.78"/><path d="M100.41,83.15,61.83,110.74V31.13L83.62,15.55A21.41,21.41,0,0,1,117.48,33v17A40.85,40.85,0,0,1,100.41,83.15Z" style="fill:#d39a50;opacity:0.99"/><ellipse cx="80.07" cy="35.56" rx="3.27" ry="3.21" transform="translate(20.16 99.48) rotate(-70.8)" style="fill:none;stroke:#2a3f55;stroke-miterlimit:10"/><ellipse cx="77.41" cy="22" rx="3.27" ry="3.21" transform="translate(31.18 87.87) rotate(-70.8)" style="fill:none;stroke:#2a3f55;stroke-miterlimit:10"/><ellipse cx="71.83" cy="59.23" rx="3.27" ry="3.21" transform="translate(-7.73 107.59) rotate(-70.8)" style="fill:none;stroke:#2a3f55;stroke-miterlimit:10"/><ellipse cx="30.49" cy="3.76" rx="3.27" ry="3.21" transform="translate(16.91 31.32) rotate(-70.8)" style="fill:none;stroke:#2a3f55;stroke-miterlimit:10"/><ellipse cx="39.81" cy="40.31" rx="3.27" ry="3.21" transform="translate(-11.35 64.65) rotate(-70.8)" style="fill:none;stroke:#2a3f55;stroke-miterlimit:10"/><ellipse cx="101.41" cy="20.86" rx="2.12" ry="2.08" transform="translate(48.37 109.78) rotate(-70.8)" style="fill:none;stroke:#2a3f55;stroke-miterlimit:10"/><ellipse cx="106.81" cy="60.43" rx="2.12" ry="2.08" transform="translate(14.61 141.43) rotate(-70.8)" style="fill:none;stroke:#2a3f55;stroke-miterlimit:10"/><ellipse cx="7.12" cy="52.5" rx="2.12" ry="2.08" transform="translate(-44.8 41.96) rotate(-70.8)" style="fill:none;stroke:#2a3f55;stroke-miterlimit:10"/><ellipse cx="41.12" cy="28.86" rx="2.12" ry="2.08" transform="translate(0.35 58.2) rotate(-70.8)" style="fill:none;stroke:#2a3f55;stroke-miterlimit:10"/><ellipse cx="66.46" cy="20.15" rx="2.12" ry="2.08" transform="translate(25.58 76.29) rotate(-70.8)" style="fill:none;stroke:#2a3f55;stroke-miterlimit:10"/><ellipse cx="82.16" cy="4.37" rx="2.12" ry="2.08" transform="translate(51.01 80.53) rotate(-70.8)" style="fill:none;stroke:#2a3f55;stroke-miterlimit:10"/><ellipse cx="15.73" cy="68.68" rx="2.12" ry="2.08" transform="translate(-54.63 72.47) rotate(-80.19)" style="fill:none;stroke:#2a3f55;stroke-miterlimit:10"/><ellipse cx="61.06" cy="101.28" rx="2.12" ry="2.08" transform="translate(-49.15 144.18) rotate(-80.19)" style="fill:none;stroke:#2a3f55;stroke-miterlimit:10"/><ellipse cx="43.7" cy="67.32" rx="2.12" ry="2.08" transform="translate(-34.24 86.46) rotate(-70.8)" style="fill:none;stroke:#2a3f55;stroke-miterlimit:10"/><ellipse cx="47.61" cy="74.57" rx="2.12" ry="2.08" transform="translate(-38.47 95.01) rotate(-70.8)" style="fill:none;stroke:#2a3f55;stroke-miterlimit:10"/><line x1="17.43" y1="69.95" x2="59.46" y2="100.06" style="fill:none;stroke:#2a3f55;stroke-miterlimit:10"/><ellipse cx="100.32" cy="56.23" rx="2.08" ry="2.12" transform="translate(-12.91 36.11) rotate(-19.2)" style="fill:none;stroke:#2a3f55;stroke-miterlimit:10"/><line x1="98.85" y1="57.76" x2="62.28" y2="94.32" style="fill:none;stroke:#2a3f55;stroke-miterlimit:10"/><polyline points="89.65 3.76 113.98 3.76 117.44 8.77" style="fill:none;stroke:#2a3f55;stroke-miterlimit:10"/><line x1="67.77" y1="18.74" x2="80.61" y2="5.9" style="fill:none;stroke:#2a3f55;stroke-miterlimit:10"/><polyline points="80.07 19.7 86.97 12.79 100.94 12.79 106.81 19.7 106.81 58.32" style="fill:none;stroke:#2a3f55;stroke-miterlimit:10"/><polyline points="2.52 8.77 6.97 3.76 27.27 3.76" style="fill:none;stroke:#2a3f55;stroke-miterlimit:10"/><polyline points="0.35 47.93 19.43 28.86 39.03 28.86" style="fill:none;stroke:#2a3f55;stroke-miterlimit:10"/><polyline points="9.21 52.47 28.33 52.47 35.09 59.23 68.85 59.23" style="fill:none;stroke:#2a3f55;stroke-miterlimit:10"/><polyline points="0.35 16.73 6.67 23.04 26.84 23.04" style="fill:none;stroke:#2a3f55;stroke-miterlimit:10"/><polyline points="34.08 3.76 42 3.76 59.98 20.86" style="fill:none;stroke:#2a3f55;stroke-miterlimit:10"/><polyline points="80.07 38.39 80.07 42.64 85.99 46.47 94.77 46.47 101.42 42.43 101.42 23.04" style="fill:none;stroke:#2a3f55;stroke-miterlimit:10"/><polyline points="13.2 45.06 26.84 45.06 34.11 39.73 36.66 39.73" style="fill:none;stroke:#2a3f55;stroke-miterlimit:10"/><ellipse cx="51.78" cy="81.29" rx="2.12" ry="2.08" transform="translate(-42.01 103.47) rotate(-70.8)" style="fill:none;stroke:#2a3f55;stroke-miterlimit:10"/><ellipse cx="57.89" cy="88.95" rx="2.12" ry="2.08" transform="translate(-45.15 114.37) rotate(-70.8)" style="fill:none;stroke:#2a3f55;stroke-miterlimit:10"/><path d="M45.79,67.32H66.58a1.19,1.19,0,0,1,1,1.84l-3.45,5.41H49.7" style="fill:none;stroke:#2a3f55;stroke-miterlimit:10"/><polyline points="40.15 43.65 40.15 49.69 42.96 52.5 62.13 52.5 67.77 46.85 67.77 36.8" style="fill:none;stroke:#2a3f55;stroke-miterlimit:10"/><polyline points="64.13 74.57 59.98 81.29 53.87 81.29" style="fill:none;stroke:#2a3f55;stroke-miterlimit:10"/><line x1="59.98" y1="81.29" x2="57.66" y2="86.85" style="fill:none;stroke:#2a3f55;stroke-miterlimit:10"/><polyline points="27.35 97 61.82 118.77 93.94 97" style="fill:none;stroke:#2a3f55;stroke-miterlimit:10"/></svg>