<?xml version="1.0" encoding="utf-8"?>
<!-- Generator: Adobe Illustrator 25.0.0, SVG Export Plug-In . SVG Version: 6.00 Build 0)  -->
<svg version="1.1" id="Layer_1" xmlns="http://www.w3.org/2000/svg" xmlns:xlink="http://www.w3.org/1999/xlink" x="0px" y="0px"
	 viewBox="0 0 143.4 127.92" style="enable-background:new 0 0 143.4 127.92;" xml:space="preserve">
<g id="Layer_2_1_">
	<g id="Layer_1-2">
		<g id="suurennuslasi">
			<path style="fill:none;stroke:#D39A50;stroke-width:5;stroke-miterlimit:10;" d="M82.64,121.83c-3.57,1.16-7.38,2.29-11.47,3.41
				c-4.44,1.21-13.29-3.83-23.2-11.55"/>
			<path style="fill:none;stroke:#D39A50;stroke-width:5;stroke-miterlimit:10;" d="M120.39,33.34c5.76,6.14,10.09,13,10.67,21
				c0.43,5.84,0.72,11.29,0.6,16.4"/>
			<path style="fill:none;stroke:#D39A50;stroke-width:5;stroke-miterlimit:10;" d="M57.86,3.48c15.3-2.89,26.65,0.79,38,8.92"/>
			<path style="fill:none;stroke:#D39A50;stroke-width:5;stroke-miterlimit:10;" d="M16.82,84.27C8.4,74.83,2.5,66.49,2.5,62.86
				C2.48,57.05,3.32,51.26,5,45.7"/>
			<path style="opacity:0.13;fill:none;stroke:#D39A50;stroke-miterlimit:10;enable-background:new    ;" d="M67.51,10.9
				c1.88,0.6,3.79,1.3,5.74,2.09"/>
			<circle style="opacity:0.25;fill:#D39A50;enable-background:new    ;" cx="67.09" cy="60.38" r="34.78"/>
			<path style="fill:none;stroke:#FFFFFF;stroke-width:0.5;stroke-miterlimit:10;" d="M47.39,39.55c6.48-6.96,16.06-10.12,25.4-8.39
				"/>
			<path style="fill:#E3C7B6;" d="M98.37,76.46l40,33.94c1.49,1.26,1.34,3.87-0.32,5.84l-4.62,5.45c-1.66,2-4.22,2.53-5.7,1.27
				L87.55,88.87"/>
			
				<ellipse transform="matrix(0.5416 -0.8407 0.8407 0.5416 -89.3361 67.7621)" style="fill:none;stroke:#2A3F55;stroke-width:2;stroke-miterlimit:10;" cx="17.46" cy="115.79" rx="4.15" ry="4.22"/>
			
				<ellipse transform="matrix(0.684 -0.7294 0.7294 0.684 -55.5881 53.5957)" style="fill:none;stroke:#2A3F55;stroke-width:2;stroke-miterlimit:10;" cx="34.07" cy="90.96" rx="8" ry="8.15"/>
			<line style="fill:none;stroke:#2A3F55;stroke-width:2;stroke-miterlimit:10;" x1="19.77" y1="112.22" x2="29.12" y2="97.71"/>
			
				<ellipse transform="matrix(0.361 -0.9326 0.9326 0.361 78.5773 134.6962)" style="fill:none;stroke:#2A3F55;stroke-width:1.9945;stroke-miterlimit:9.9725;" cx="137.58" cy="10.01" rx="4.14" ry="4.21"/>
			
				<ellipse transform="matrix(0.8079 -0.5893 0.5893 0.8079 1.5181 65.9997)" style="fill:none;stroke:#2A3F55;stroke-width:2;stroke-miterlimit:10;" cx="101.99" cy="30.67" rx="7.69" ry="7.83"/>
			<line style="fill:none;stroke:#2A3F55;stroke-width:2;stroke-miterlimit:10;" x1="134.18" y1="11.94" x2="107.72" y2="25.55"/>
			<polyline style="fill:#2A3F55;" points="73.25,61.82 98.22,37.92 94.82,34.17 67.92,53.33 70.77,54.14 69.41,58.95 73.56,57.47 
							"/>
			<polygon style="fill:#2A3F55;" points="66.34,69.71 61.41,68.88 62.67,65.32 58.98,66.1 58.38,61.82 38.51,83.55 40.55,85.83 			
				"/>
		</g>
	</g>
</g>
</svg>
