<?xml version="1.0" encoding="utf-8"?>
<!-- Generator: Adobe Illustrator 25.0.0, SVG Export Plug-In . SVG Version: 6.00 Build 0)  -->
<svg version="1.1" id="Layer_1" xmlns="http://www.w3.org/2000/svg" xmlns:xlink="http://www.w3.org/1999/xlink" x="0px" y="0px"
	 viewBox="0 0 196.95 189.93" style="enable-background:new 0 0 196.95 189.93;" xml:space="preserve">
<g id="Layer_2_1_">
	<g id="Layer_1-2">
		<polygon style="opacity:0.96;fill:#A5B2A6;enable-background:new    ;" points="40.38,153.97 0,72.36 58.11,0 98.49,81.6 		"/>
		<polygon style="opacity:0.73;fill:#A5B2A6;enable-background:new    ;" points="138.84,163.18 40.35,153.94 98.46,81.58 
			196.95,90.82 		"/>
		<path style="fill:none;stroke:#2A3F55;stroke-width:1.67;stroke-miterlimit:10;" d="M98.42,123.81c0.53,4.82-2.89,9.17-7.7,9.79
			c-4.71,0.56-8.99-2.8-9.55-7.51c-0.01-0.06-0.01-0.13-0.02-0.19c-0.53-4.82,2.89-9.17,7.7-9.79c3.88-0.46,7.58,1.75,9,5.39
			C98.14,122.24,98.33,123.02,98.42,123.81z"/>
		<path style="fill:none;stroke:#2A3F55;stroke-width:1.27;stroke-miterlimit:10;" d="M147,113.61c0.4,3.68-2.22,7.01-5.89,7.48
			c-3.61,0.42-6.88-2.16-7.3-5.77c0-0.04-0.01-0.08-0.01-0.12c-0.41-3.68,2.21-7.01,5.89-7.48c2.96-0.35,5.79,1.34,6.88,4.12
			C146.79,112.41,146.94,113,147,113.61z"/>
		<path style="fill:none;stroke:#2A3F55;stroke-width:1.27;stroke-miterlimit:10;" d="M133.28,95c0.41,3.68-2.21,7.02-5.89,7.49
			c-3.61,0.43-6.88-2.15-7.31-5.76c0-0.04-0.01-0.08-0.01-0.13c-0.38-3.69,2.25-7,5.93-7.46c2.97-0.36,5.8,1.34,6.89,4.12
			C133.09,93.82,133.22,94.41,133.28,95z"/>
		<path style="fill:none;stroke:#2A3F55;stroke-miterlimit:10;" d="M117.86,59.62c0.32,2.89-1.73,5.5-4.61,5.87
			c-2.83,0.33-5.4-1.69-5.73-4.52c0-0.03-0.01-0.07-0.01-0.1c-0.32-2.89,1.74-5.5,4.62-5.87c2.32-0.28,4.54,1.05,5.39,3.23
			C117.7,58.68,117.81,59.14,117.86,59.62z"/>
		<path style="fill:none;stroke:#2A3F55;stroke-miterlimit:10;" d="M140.39,55.67c0.32,2.89-1.74,5.5-4.62,5.87
			c-2.83,0.35-5.4-1.66-5.76-4.49c-0.01-0.04-0.01-0.09-0.01-0.13c-0.31-2.89,1.74-5.49,4.62-5.87c2.85-0.32,5.42,1.73,5.74,4.58
			c0,0.01,0,0.03,0,0.04H140.39z"/>
		<path style="fill:none;stroke:#2A3F55;stroke-miterlimit:10;" d="M159.39,81.44c0.32,2.89-1.74,5.5-4.62,5.87
			c-2.83,0.35-5.41-1.67-5.76-4.51c0-0.04-0.01-0.08-0.01-0.11c-0.31-2.89,1.74-5.5,4.62-5.87c2.85-0.32,5.42,1.73,5.74,4.58
			c0,0.01,0,0.03,0,0.04H159.39z"/>
		<path style="fill:none;stroke:#2A3F55;stroke-miterlimit:10;" d="M185.41,101c0.32,2.89-1.74,5.5-4.62,5.87
			c-2.83,0.33-5.4-1.69-5.73-4.52c0-0.03-0.01-0.07-0.01-0.1c-0.31-2.89,1.74-5.5,4.62-5.87c2.85-0.32,5.42,1.73,5.74,4.58
			C185.41,100.97,185.41,100.99,185.41,101z"/>
		
			<ellipse transform="matrix(0.3289 -0.9444 0.9444 0.3289 -51.5778 106.3947)" style="fill:none;stroke:#2A3F55;stroke-width:1.67;stroke-miterlimit:10;" cx="49.07" cy="89.49" rx="14.25" ry="14"/>
		<path style="fill:none;stroke:#2A3F55;stroke-width:5;stroke-miterlimit:10;" d="M15.36,188.71
			c21.33-38.32,56.46-55.71,66.43-60.32"/>
		<path style="fill:none;stroke:#2A3F55;stroke-width:5;stroke-miterlimit:10;" d="M54.68,102.45c1.29,6.46,4.21,25.42-6,42.62
			c-2.48,4.41-5.56,8.45-9.15,12"/>
		<path style="fill:none;stroke:#2A3F55;stroke-width:1.67;stroke-miterlimit:10;" d="M135.71,118.65
			c-5.53,4.21-11.96,7.07-18.79,8.35c-6.3,1.27-12.81,1.04-19-0.66"/>
		<path style="fill:none;stroke:#2A3F55;stroke-width:1.67;stroke-miterlimit:10;" d="M116.92,127c4.38-3.11,7.58-7.6,9.08-12.75
			c1.1-3.92,1.17-8.05,0.19-12"/>
		<path style="fill:none;stroke:#2A3F55;stroke-width:1.27;stroke-miterlimit:10;" d="M126.86,88.39c0.24-2.42,0.59-5,1.07-7.6
			c1.24-6.78,3.19-13.41,5.81-19.79"/>
		<path style="fill:none;stroke:#2A3F55;stroke-width:1.27;stroke-miterlimit:10;" d="M147.06,115.05c7.84-7.01,17.59-11.53,28-13"
			/>
		<path style="fill:none;stroke:#2A3F55;stroke-width:1.27;stroke-miterlimit:10;" d="M157.28,107.84c1.81-6.93,1.51-14.24-0.87-21"
			/>
		<path style="fill:none;stroke:#2A3F55;stroke-width:1.27;stroke-miterlimit:10;" d="M127.63,82.61c0.18-4.06-0.98-8.06-3.29-11.4
			c-3.17-4.52-6.59-6.62-8.1-7.15"/>
		<path style="fill:none;stroke:#2A3F55;stroke-miterlimit:10;" d="M75.21,62.07c-1.63,2.4-4.88,3.06-7.31,1.48
			c-2.38-1.58-3.02-4.79-1.44-7.17c0.02-0.02,0.03-0.05,0.05-0.07c1.63-2.4,4.88-3.06,7.32-1.48c1.96,1.3,2.79,3.78,2,6
			C75.68,61.27,75.47,61.69,75.21,62.07z"/>
		<path style="fill:none;stroke:#2A3F55;stroke-miterlimit:10;" d="M94.94,73.64c-1.63,2.4-4.88,3.06-7.32,1.48
			c-2.37-1.59-3.01-4.8-1.43-7.17c0.02-0.02,0.03-0.05,0.05-0.07c1.63-2.4,4.88-3.06,7.32-1.48c1.96,1.3,2.79,3.78,2,6
			C95.41,72.84,95.2,73.26,94.94,73.64z"/>
		<path style="fill:none;stroke:#2A3F55;stroke-width:1.27;stroke-miterlimit:10;" d="M63.45,89.81c1.75-1.69,3.66-3.38,5.73-5.09
			c5.34-4.38,11.13-8.18,17.26-11.35"/>
		<path style="fill:none;stroke:#2A3F55;stroke-width:1.27;stroke-miterlimit:10;" d="M67.78,85.9c2.77-2.97,4.48-6.77,4.87-10.81
			c0.51-5.5-0.74-9.31-1.55-10.69"/>
		<path style="fill:none;stroke:#2A3F55;stroke-width:1.27;stroke-miterlimit:10;" d="M41.56,54.7c-1.86,3.2-0.81,7.3,2.36,9.22
			c3.12,1.85,7.15,0.82,9-2.3c0.03-0.04,0.05-0.09,0.08-0.13c1.85-3.2,0.8-7.3-2.36-9.22c-2.58-1.54-5.88-1.13-8,1
			C42.21,53.69,41.85,54.17,41.56,54.7z"/>
		<path style="fill:none;stroke:#2A3F55;stroke-miterlimit:10;" d="M70,28.56c-1.45,2.51-0.63,5.72,1.85,7.23
			c2.46,1.45,5.63,0.63,7.08-1.83c0.01-0.02,0.03-0.05,0.04-0.07c1.45-2.52,0.63-5.73-1.85-7.24c-2.02-1.19-4.59-0.87-6.25,0.78
			C70.53,27.77,70.24,28.15,70,28.56z"/>
		<path style="fill:none;stroke:#2A3F55;stroke-miterlimit:10;" d="M51,15.83c-1.46,2.51-0.64,5.73,1.85,7.23
			c2.45,1.45,5.61,0.64,7.06-1.81c0.02-0.03,0.04-0.06,0.05-0.09c1.46-2.51,0.64-5.73-1.85-7.23c-2.01-1.2-4.58-0.88-6.24,0.77
			C51.53,15.04,51.24,15.42,51,15.83z"/>
		<path style="fill:none;stroke:#2A3F55;stroke-width:1.67;stroke-miterlimit:10;" d="M42.49,77c-2.09-3.34-3-8.24-1.23-10.88
			c0.61-0.94,1.45-1.71,2.44-2.24"/>
		<path style="fill:none;stroke:#2A3F55;stroke-width:1.27;stroke-miterlimit:10;" d="M50.11,51.23c0.76-2.32,1.46-4.78,2.09-7.39
			c1.62-6.71,2.52-13.57,2.71-20.47"/>
		<path style="fill:none;stroke:#2A3F55;stroke-width:1.27;stroke-miterlimit:10;" d="M51.75,45.63c1.47-3.78,4.14-6.98,7.61-9.09
			c4.73-2.86,8.71-3.4,10.3-3.27"/>
	</g>
</g>
</svg>
