<?xml version="1.0" encoding="utf-8"?>
<!-- Generator: Adobe Illustrator 25.0.0, SVG Export Plug-In . SVG Version: 6.00 Build 0)  -->
<svg version="1.1" id="Layer_1" xmlns="http://www.w3.org/2000/svg" xmlns:xlink="http://www.w3.org/1999/xlink" x="0px" y="0px"
	 viewBox="0 0 326.82 110.2" style="enable-background:new 0 0 326.82 110.2;" xml:space="preserve">
<g id="Group_1370" transform="translate(-973.681 -142.592)">
	<g id="Group_1334" style="opacity:0.8;">
		
			<path id="Path_6697" style="opacity:0.9;fill:#1C3B40;stroke:#1C3B40;stroke-width:0.605;stroke-miterlimit:10;enable-background:new    ;" d="
			M1017.66,246.98l-43.37-25.04v-50.08l43.37,25.04V246.98z"/>
		<path id="Path_6698" style="fill:#1C3B40;stroke:#1C3B40;stroke-width:0.605;stroke-miterlimit:10;" d="M1061.01,221.94
			l-43.37,25.04V196.9l43.37-25.04V221.94z"/>
		
			<path id="Path_6699" style="opacity:0.87;fill:#1C3B40;stroke:#1C3B40;stroke-width:0.605;stroke-miterlimit:10;enable-background:new    ;" d="
			M1017.66,196.9l-43.37-25.04l43.37-25.04l43.37,25.04L1017.66,196.9z"/>
	</g>
	<path id="Path_6700" style="fill:#1C3B40;stroke:#A5B2A6;stroke-width:0.602;stroke-miterlimit:10;" d="M1204.64,142.59"/>
	<g id="Group_1350">
		<g id="Group_1349">
			
				<path id="Path_6701" style="opacity:0.2;fill:#1C3B40;stroke:#A5B2A6;stroke-width:0.452;stroke-miterlimit:10;enable-background:new    ;" d="
				M1148.25,236.71l-32.38-18.69v-37.39l32.38,18.69V236.71z"/>
			
				<path id="Path_6702" style="opacity:0.2;fill:#1C3B40;stroke:#A5B2A6;stroke-width:0.452;stroke-miterlimit:10;enable-background:new    ;" d="
				M1180.61,218.01l-32.38,18.69v-37.39l32.38-18.69V218.01z"/>
			
				<path id="Path_6703" style="opacity:0.6;fill:#1C3B40;stroke:#1C3B40;stroke-width:0.587;stroke-miterlimit:10;enable-background:new    ;" d="
				M1144.54,252.29l-42.09-24.3v-48.6l42.09,24.3V252.29z"/>
			
				<path id="Path_6704" style="opacity:0.7;fill:#1C3B40;stroke:#1C3B40;stroke-width:0.587;stroke-miterlimit:10;enable-background:new    ;" d="
				M1192.9,227.98l-42.09,24.3v-48.6l42.09-24.3V227.98z"/>
			
				<path id="Path_6705" style="opacity:0.2;fill:#A5B2A6;stroke:#A5B2A6;stroke-width:0.649;stroke-miterlimit:10;enable-background:new    ;" d="
				M1148.25,199.32l-32.38-18.69l32.38-18.69l32.38,18.69L1148.25,199.32z"/>
			<path id="Path_6706" style="fill:#F6EBE8;stroke:#A5B2A6;stroke-width:0.452;stroke-miterlimit:10;" d="M1148.23,196.76
				l-27.94-16.13l27.94-16.13l27.94,16.13L1148.23,196.76z"/>
			<g id="Group_1341">
				<g id="Group_1337">
					<g id="Group_1335">
						<path id="Path_6707" style="fill:#F6EBE8;" d="M1175.95,180.63L1175.95,180.63z"/>
					</g>
					<g id="Group_1336">
						<path id="Path_6708" style="fill:none;stroke:#F6EBE8;stroke-width:0.452;stroke-miterlimit:10;" d="M1175.95,180.63
							L1175.95,180.63z"/>
					</g>
				</g>
				<g id="Group_1340">
					<g id="Group_1338">
						<path id="Path_6709" style="fill:#F6EBE8;" d="M1148.01,164.5l-27.94,16.13l27.94,16.13L1148.01,164.5L1148.01,164.5z"/>
					</g>
					<g id="Group_1339">
						<path id="Path_6710" style="fill:none;stroke:#F6EBE8;stroke-width:0.452;stroke-miterlimit:10;" d="M1148.01,164.5
							l-27.94,16.13l27.94,16.13L1148.01,164.5L1148.01,164.5z"/>
					</g>
				</g>
			</g>
			<g id="Group_1348">
				<g id="Group_1344">
					<g id="Group_1342">
						<path id="Path_6711" style="fill:#E3C7B6;" d="M1120.5,180.63L1120.5,180.63z"/>
					</g>
					<g id="Group_1343">
						<path id="Path_6712" style="fill:none;stroke:#E3C7B6;stroke-width:0.452;stroke-miterlimit:10;" d="M1120.5,180.63
							L1120.5,180.63z"/>
					</g>
				</g>
				<g id="Group_1347">
					<g id="Group_1345">
						<path id="Path_6713" style="fill:#E3C7B6;" d="M1148.44,164.5L1148.44,164.5v32.26l27.94-16.13L1148.44,164.5z"/>
					</g>
					<g id="Group_1346">
						<path id="Path_6714" style="fill:none;stroke:#E3C7B6;stroke-width:0.452;stroke-miterlimit:10;" d="M1148.44,164.5
							L1148.44,164.5v32.26l27.94-16.13L1148.44,164.5z"/>
					</g>
				</g>
			</g>
		</g>
		<path id="Path_6715" style="fill:#A5B2A6;stroke:#A5B2A6;stroke-width:0.452;stroke-miterlimit:10;" d="M1148.25,194.13"/>
		<path id="Path_6716" style="fill:none;stroke:#1C3B40;stroke-width:0.452;stroke-miterlimit:10;" d="M1148.5,196.9"/>
		<path id="Path_6717" style="fill:none;stroke:#1C3B40;stroke-width:0.452;stroke-miterlimit:10;" d="M1148.5,193.65"/>
		<path id="Path_6718" style="fill:none;stroke:#A5B2A6;stroke-width:0.452;stroke-miterlimit:10;" d="M1147.85,193.65"/>
		<path id="Path_6719" style="fill:none;stroke:#1C3B40;stroke-width:0.452;stroke-miterlimit:10;" d="M1147.85,199.5"/>
		<path id="Path_6720" style="fill:#E0DEDC;stroke:#1C3B40;stroke-width:0.452;stroke-miterlimit:10;" d="M1148.29,190.37"/>
		<path id="Path_6721" style="fill:#E0DEDC;stroke:#1C3B40;stroke-width:0.452;stroke-miterlimit:10;" d="M1148.26,196.55"/>
		
			<path id="Path_6722" style="opacity:0.79;fill:#1C3B40;stroke:#1C3B40;stroke-width:0.587;stroke-miterlimit:10;enable-background:new    ;" d="
			M1148.01,191.9l-42.09-24.3l42.09-24.3l42.09,24.3L1148.01,191.9z"/>
	</g>
	<g id="Group_1369">
		<g id="Group_1355" style="opacity:0.2;">
			<g id="Group_1352">
				<g id="Group_1351">
					<path id="Path_6723" style="fill:#1C3B40;" d="M1241.03,217.47L1241.03,217.47z"/>
				</g>
			</g>
			<g id="Group_1354">
				<g id="Group_1353">
					<path id="Path_6724" style="fill:#1C3B40;" d="M1268.56,201.58L1268.56,201.58v31.78l27.53-15.89L1268.56,201.58z"/>
				</g>
			</g>
		</g>
		<path id="Path_6725" style="opacity:0.12;fill:#1C3B40;enable-background:new    ;" d="M1268.16,236.16l-31.9-18.42V180.9
			l31.9,18.42V236.16z"/>
		<path id="Path_6726" style="opacity:0.2;fill:#1C3B40;enable-background:new    ;" d="M1300.04,217.74l-31.9,18.42v-36.83
			l31.9-18.42V217.74z"/>
		<g id="Path_6727" style="opacity:0.12;">
			<path style="fill:#1C3B40;" d="M1268.14,198.19l-0.61-0.35l-27.52-15.89l-1.82-1.05l1.82-1.05l27.52-15.89l0.61-0.35l0.61,0.35
				l27.52,15.89l1.82,1.05l-1.82,1.05l-27.52,15.89L1268.14,198.19z"/>
			<path style="fill:#A5B2A6;" d="M1268.14,196.8l27.52-15.89l-27.52-15.89l-27.52,15.89L1268.14,196.8 M1268.14,199.59l-1.21-0.7
				L1239.4,183l-3.63-2.1l3.63-2.1l27.52-15.89l1.21-0.7l1.21,0.7l27.52,15.89l3.63,2.1l-3.63,2.1l-27.52,15.89L1268.14,199.59z"/>
		</g>
		<g id="Group_1362">
			<g id="Group_1358">
				<g id="Group_1356">
					<path id="Path_6728" style="fill:#E3C7B6;" d="M1240.82,180.9L1240.82,180.9z"/>
				</g>
				<g id="Group_1357">
					<path id="Path_6729" style="fill:none;stroke:#E3C7B6;stroke-width:0.445;stroke-miterlimit:10;" d="M1240.82,180.9
						L1240.82,180.9z"/>
				</g>
			</g>
			<g id="Group_1361" style="opacity:0.05;">
				<g id="Group_1359">
					<path id="Path_6730" style="fill:#1C3B40;" d="M1268.56,165.01L1268.56,165.01v31.79l27.52-15.9L1268.56,165.01z"/>
				</g>
				<g id="Group_1360">
					<path id="Path_6731" style="fill:none;stroke:#A5B2A6;stroke-width:0.445;stroke-miterlimit:10;" d="M1268.56,165.01
						L1268.56,165.01v31.79l27.52-15.9L1268.56,165.01z"/>
				</g>
			</g>
		</g>
		<g id="Group_1368">
			<g id="Group_1365">
				<g id="Group_1363">
					<path id="Path_6732" style="fill:#F6EBE8;" d="M1295.66,217.47L1295.66,217.47z"/>
				</g>
				<g id="Group_1364">
					<path id="Path_6733" style="fill:none;stroke:#F6EBE8;stroke-width:0.445;stroke-miterlimit:10;" d="M1295.66,217.47
						L1295.66,217.47z"/>
				</g>
			</g>
			<g id="Group_1367" style="opacity:0.12;">
				<g id="Group_1366">
					<path id="Path_6734" style="fill:#1C3B40;" d="M1268.13,201.58l-27.53,15.89l27.53,15.89V201.58z"/>
				</g>
			</g>
		</g>
	</g>
</g>
</svg>
