<?xml version="1.0" encoding="utf-8"?>
<!-- Generator: Adobe Illustrator 25.0.0, SVG Export Plug-In . SVG Version: 6.00 Build 0)  -->
<svg version="1.1" id="Layer_1" xmlns="http://www.w3.org/2000/svg" xmlns:xlink="http://www.w3.org/1999/xlink" x="0px" y="0px"
	 viewBox="0 0 328.39 124.82" style="enable-background:new 0 0 328.39 124.82;" xml:space="preserve">
<g id="Group_1445" transform="translate(-220.425 -1197.622)">
	<g id="Group_1444">
		<g id="Group_1437" style="opacity:0.2;">
			<g id="Group_1434">
				<g id="Group_1433">
					<path id="Path_6800" style="fill:#1C3B40;" d="M345.08,1251.53L345.08,1251.53z"/>
				</g>
			</g>
			<g id="Group_1436">
				<g id="Group_1435">
					<path id="Path_6801" style="fill:#1C3B40;" d="M397.29,1248.38L397.29,1248.38v59.41l51.45-29.71L397.29,1248.38z"/>
				</g>
			</g>
		</g>
		<g id="Group_1443">
			<g id="Group_1440">
				<g id="Group_1438">
					<path id="Path_6802" style="fill:#F6EBE8;" d="M447.19,1251.53L447.19,1251.53z"/>
				</g>
				<g id="Group_1439">
					<path id="Path_6803" style="fill:none;stroke:#F6EBE8;stroke-width:0.832;stroke-miterlimit:10;" d="M447.19,1251.53
						L447.19,1251.53z"/>
				</g>
			</g>
			<g id="Group_1442" style="opacity:0.12;">
				<g id="Group_1441">
					<path id="Path_6804" style="fill:#1C3B40;" d="M396.5,1248.38l-51.45,29.71l51.45,29.71V1248.38z"/>
				</g>
			</g>
		</g>
		<path id="Path_6805" style="opacity:0.2;fill:#1C3B40;enable-background:new    ;" d="M396.51,1261.25v51.76l59.63-34.43v-35.82
			l-8.19,19.71l-10.97-15.61l-10.65,22.27l-9.42-9.96l-9.26,18.91l-11.15-15.85"/>
		<path id="Path_6806" style="opacity:0.2;fill:#1C3B40;enable-background:new    ;" d="M336.91,1229.63l-0.79,48.25l59.63-34.43
			l-2.59-45.83l-5.6,29.73l-10.98-19.51l-10.65,22.27l-9.41-9.96l-8.46,26.31l-8.73-12.58"/>
		<line id="Line_59" style="fill:none;" x1="395.75" y1="1233.89" x2="395.75" y2="1234.7"/>
		<path id="Path_6807" style="opacity:0.2;fill:#1C3B40;enable-background:new    ;" d="M396.72,1234.7l-0.19-0.32v-0.5"/>
		<path id="Path_6808" style="opacity:0.12;fill:#1C3B40;enable-background:new    ;" d="M386.97,1278.08l-9.26-20.63l-14.2,7.58
			l-15.43-15.16l-11.16,10.47v18.23l59.63,34.43v-50.83L386.97,1278.08z"/>
		<path id="Path_6809" style="opacity:0.12;fill:#1C3B40;enable-background:new    ;" d="M397.29,1229.57v13.89l58.85,34.43v-46.48
			l-11.02,10.47l-18.41-18.5l-14.02,7.58l-9.14-20.63L397.29,1229.57"/>
	</g>
	<path id="Path_6810" style="opacity:0.12;fill:#1C3B40;enable-background:new    ;" d="M484.2,1272.47v13.39l22.82,2.39l11.8-15.78
		l-34.62-4.57L484.2,1272.47z"/>
	<path id="Path_6811" style="opacity:0.12;fill:#1C3B40;enable-background:new    ;" d="M269.73,1315.01l3.56,7.44l34.76-15.03
		l13.45-17.22l-53,22.28L269.73,1315.01z"/>
	<path id="Path_6812" style="opacity:0.12;fill:#1C3B40;enable-background:new    ;" d="M234.3,1286.02h26.42l-40.29,15.89
		L234.3,1286.02z"/>
	<path id="Path_6813" style="opacity:0.2;fill:#1C3B40;enable-background:new    ;" d="M534.95,1315.73h-26.42l40.29-15.89
		L534.95,1315.73z"/>
	<path id="Path_6814" style="opacity:0.2;fill:#1C3B40;enable-background:new    ;" d="M313.35,1267.43h-26.42l40.29-15.89
		L313.35,1267.43z"/>
</g>
</svg>
