<svg xmlns="http://www.w3.org/2000/svg" viewBox="0 0 196.95 189.93"><defs><style>.cls-1,.cls-2{fill:#a5b2a6;}.cls-1{opacity:0.96;}.cls-2{opacity:0.73;}.cls-3,.cls-4,.cls-5,.cls-6{fill:none;stroke:#2a3f55;stroke-miterlimit:10;}.cls-3{stroke-width:1.67px;}.cls-4{stroke-width:1.27px;}.cls-5{stroke-width:1px;}.cls-6{stroke-width:5px;}</style></defs><g id="Layer_2" data-name="Layer 2"><g id="Layer_1-2" data-name="Layer 1"><polygon class="cls-1" points="40.38 153.97 0 72.36 58.11 0 98.49 81.6 40.38 153.97"/><polygon class="cls-2" points="138.84 163.18 40.35 153.94 98.46 81.58 196.95 90.82 138.84 163.18"/><path class="cls-3" d="M98.42,123.81a8.89,8.89,0,0,1-7.7,9.79,8.59,8.59,0,0,1-9.57-7.7,8.89,8.89,0,0,1,7.7-9.79,8.58,8.58,0,0,1,9,5.39A8.87,8.87,0,0,1,98.42,123.81Z"/><path class="cls-4" d="M147,113.61a6.8,6.8,0,0,1-5.89,7.48,6.58,6.58,0,0,1-7.31-5.89,6.79,6.79,0,0,1,5.89-7.48,6.57,6.57,0,0,1,6.88,4.12A6.94,6.94,0,0,1,147,113.61Z"/><path class="cls-4" d="M133.28,95a6.8,6.8,0,0,1-5.89,7.49,6.58,6.58,0,0,1-7.32-5.89A6.81,6.81,0,0,1,126,89.14a6.55,6.55,0,0,1,6.89,4.12A7.2,7.2,0,0,1,133.28,95Z"/><path class="cls-5" d="M117.86,59.62a5.33,5.33,0,0,1-4.61,5.87,5.16,5.16,0,0,1-5.74-4.62A5.33,5.33,0,0,1,112.13,55a5.12,5.12,0,0,1,5.39,3.23A5.26,5.26,0,0,1,117.86,59.62Z"/><path class="cls-5" d="M140.39,55.67a5.33,5.33,0,0,1-4.62,5.87A5.16,5.16,0,0,1,130,56.92a5.35,5.35,0,0,1,4.62-5.87,5.19,5.19,0,0,1,5.74,4.62Z"/><path class="cls-5" d="M159.39,81.44a5.33,5.33,0,0,1-4.62,5.87A5.17,5.17,0,0,1,149,82.69a5.34,5.34,0,0,1,4.62-5.87,5.19,5.19,0,0,1,5.74,4.62Z"/><path class="cls-5" d="M185.41,101a5.33,5.33,0,0,1-4.62,5.87,5.16,5.16,0,0,1-5.74-4.62,5.34,5.34,0,0,1,4.62-5.87,5.19,5.19,0,0,1,5.74,4.62Z"/><ellipse class="cls-3" cx="49.06" cy="89.48" rx="14.25" ry="14" transform="translate(-51.57 106.39) rotate(-70.8)"/><path class="cls-6" d="M15.36,188.71C36.69,150.39,71.82,133,81.79,128.39"/><path class="cls-6" d="M54.68,102.45c1.29,6.46,4.21,25.42-6,42.62a54.27,54.27,0,0,1-9.15,12"/><path class="cls-3" d="M135.71,118.65A44.51,44.51,0,0,1,116.92,127a41.15,41.15,0,0,1-19-.66"/><path class="cls-3" d="M116.92,127A23.82,23.82,0,0,0,126,114.25a23.47,23.47,0,0,0,.19-12"/><path class="cls-4" d="M126.86,88.39c.24-2.42.59-5,1.07-7.6A98.77,98.77,0,0,1,133.74,61"/><path class="cls-4" d="M147.06,115.05a53.17,53.17,0,0,1,28-13"/><path class="cls-4" d="M157.28,107.84a35.94,35.94,0,0,0-.87-21"/><path class="cls-4" d="M127.63,82.61a18.61,18.61,0,0,0-3.29-11.4c-3.17-4.52-6.59-6.62-8.1-7.15"/><path class="cls-5" d="M75.21,62.07a5.33,5.33,0,0,1-7.31,1.48,5.17,5.17,0,0,1-1.39-7.24,5.34,5.34,0,0,1,7.32-1.48,5.14,5.14,0,0,1,2,6A5.29,5.29,0,0,1,75.21,62.07Z"/><path class="cls-5" d="M94.94,73.64a5.34,5.34,0,0,1-7.32,1.48,5.17,5.17,0,0,1-1.38-7.24,5.34,5.34,0,0,1,7.32-1.48,5.14,5.14,0,0,1,2,6A5.29,5.29,0,0,1,94.94,73.64Z"/><path class="cls-4" d="M63.45,89.81q2.63-2.53,5.73-5.09A98.72,98.72,0,0,1,86.44,73.37"/><path class="cls-4" d="M67.78,85.9a18.49,18.49,0,0,0,4.87-10.81c.51-5.5-.74-9.31-1.55-10.69"/><path class="cls-4" d="M41.56,54.7a6.79,6.79,0,0,0,2.36,9.22A6.57,6.57,0,0,0,53,61.49a6.81,6.81,0,0,0-2.36-9.22,6.55,6.55,0,0,0-8,1A6.35,6.35,0,0,0,41.56,54.7Z"/><path class="cls-5" d="M70,28.56a5.34,5.34,0,0,0,1.85,7.23,5.17,5.17,0,0,0,7.12-1.9,5.35,5.35,0,0,0-1.85-7.24,5.15,5.15,0,0,0-6.25.78A5.22,5.22,0,0,0,70,28.56Z"/><path class="cls-5" d="M51,15.83a5.32,5.32,0,0,0,1.85,7.23,5.15,5.15,0,0,0,7.11-1.9,5.32,5.32,0,0,0-1.85-7.23,5.13,5.13,0,0,0-6.24.77A5.39,5.39,0,0,0,51,15.83Z"/><path class="cls-3" d="M42.49,77c-2.09-3.34-3-8.24-1.23-10.88a6.76,6.76,0,0,1,2.44-2.24"/><path class="cls-4" d="M50.11,51.23q1.14-3.48,2.09-7.39a98.84,98.84,0,0,0,2.71-20.47"/><path class="cls-4" d="M51.75,45.63a18.46,18.46,0,0,1,7.61-9.09c4.73-2.86,8.71-3.4,10.3-3.27"/></g></g></svg>