<svg xmlns="http://www.w3.org/2000/svg" viewBox="0 0 181.02 150.43"><defs><style>.cls-1{fill:#d39a50;}.cls-2{fill:#e3e3e3;}.cls-3{fill:#c9c8c6;}.cls-4{fill:none;stroke:#2a3f55;stroke-miterlimit:10;}</style></defs><g id="Layer_2" data-name="Layer 2"><g id="Layer_1-2" data-name="Layer 1"><path class="cls-1" d="M48.9,21.94c17.06-9.85,31.84-8.73,49.41-2.2,16.74,6.22,37.45,12,44.48,28.12,14.74,33.86,20,56-36.19,94.67-12.69,8.75-89.35-28-93.36-39.39C1.39,69.36,19.23,39.07,48.9,21.94Z"/><rect class="cls-2" x="11.71" y="47.15" width="66" height="96.19" transform="translate(-23.94 15.51) rotate(-15.58)"/><rect class="cls-2" x="103.31" y="7.1" width="66" height="96.19" transform="translate(-9.82 38.64) rotate(-15.58)"/><polygon class="cls-3" points="117.49 110.55 89.36 132.53 63.53 39.88 91.66 17.9 117.49 110.55"/><ellipse class="cls-4" cx="48.49" cy="121.87" rx="5.2" ry="5.29" transform="translate(-27.36 14.86) rotate(-13.63)"/><ellipse class="cls-4" cx="95.17" cy="75.76" rx="2.7" ry="2.74" transform="translate(-19.82 36.08) rotate(-19.48)"/><ellipse class="cls-4" cx="79.95" cy="82.31" rx="3.77" ry="3.84" transform="translate(-31.02 53.12) rotate(-31.09)"/><ellipse class="cls-4" cx="111.83" cy="65.34" rx="5.2" ry="5.29" transform="translate(-12.25 28.2) rotate(-13.63)"/><ellipse class="cls-4" cx="154.34" cy="58.09" rx="8.4" ry="8.55" transform="translate(-9.34 38.01) rotate(-13.63)"/><ellipse class="cls-4" cx="135.51" cy="26.16" rx="3.29" ry="3.35" transform="translate(-2.35 32.67) rotate(-13.63)"/><path class="cls-4" d="M53.75,119.39c8.92-6.55,12.16-12.46,13.43-16.74a59.92,59.92,0,0,1,2.31-7.43,48,48,0,0,1,6.21-11"/><line class="cls-4" x1="133.25" y1="28.89" x2="113.25" y2="59.89"/><line class="cls-4" x1="98.04" y1="74.21" x2="106.3" y2="66.62"/><line class="cls-4" x1="92.57" y1="76.85" x2="83.73" y2="81.71"/><line class="cls-4" x1="117.25" y1="63.89" x2="145.75" y2="59.39"/></g></g></svg>