<svg xmlns="http://www.w3.org/2000/svg" width="154.965" height="138.171" viewBox="0 0 154.965 138.171">
  <g id="Group_1282" data-name="Group 1282" transform="translate(-129.937 -112.562)">
    <g id="Group_1244" data-name="Group 1244" transform="translate(129.937 112.562)">
      <path id="Path_6632" data-name="Path 6632" d="M207.439,251.152l-51.966-37.165a61.05,61.05,0,0,1-25.536-49.657V147.494c0-26.2,29.626-41.437,50.939-26.195l26.563,19Z" transform="translate(-129.937 -112.981)" fill="#1c3b40" opacity="0.12"/>
      <path id="Path_6633" data-name="Path 6633" d="M275.508,212.312l-53.723,38.421V139.879l30.342-21.7c19.732-14.112,47.16-.008,47.16,24.252v23.642A56.848,56.848,0,0,1,275.508,212.312Z" transform="translate(-144.322 -112.562)" fill="#1c3b40" opacity="0.2"/>
    </g>
    <path id="Path_6634" data-name="Path 6634" d="M134.374,199.15" transform="translate(-0.695 -13.561)" fill="#d39a50"/>
    <path id="Path_6635" data-name="Path 6635" d="M168.571,235.265" transform="translate(-6.051 -19.217)" fill="#d36c50"/>
    <g id="Group_1281" data-name="Group 1281" transform="translate(155.723 133.944)">
      <g id="Group_1246" data-name="Group 1246" transform="translate(67.946 27.504)">
        <g id="Group_1245" data-name="Group 1245" transform="translate(0 0)">
          <ellipse id="Ellipse_91" data-name="Ellipse 91" cx="2.755" cy="2.707" rx="2.755" ry="2.707" transform="translate(0 5.204) rotate(-70.803)" fill="none" stroke="#2a3f55" stroke-miterlimit="10" stroke-width="1.859"/>
        </g>
      </g>
      <g id="Group_1248" data-name="Group 1248" transform="translate(65.702 16.074)">
        <g id="Group_1247" data-name="Group 1247" transform="translate(0 0)">
          <ellipse id="Ellipse_92" data-name="Ellipse 92" cx="2.755" cy="2.707" rx="2.755" ry="2.707" transform="translate(0 5.204) rotate(-70.803)" fill="none" stroke="#2a3f55" stroke-miterlimit="10" stroke-width="1.859"/>
        </g>
      </g>
      <g id="Group_1250" data-name="Group 1250" transform="translate(60.995 47.47)">
        <g id="Group_1249" data-name="Group 1249" transform="translate(0 0)">
          <ellipse id="Ellipse_93" data-name="Ellipse 93" cx="2.755" cy="2.707" rx="2.755" ry="2.707" transform="translate(0 5.204) rotate(-70.803)" fill="none" stroke="#2a3f55" stroke-miterlimit="10" stroke-width="1.859"/>
        </g>
      </g>
      <g id="Group_1252" data-name="Group 1252" transform="translate(24.306 1.539)">
        <g id="Group_1251" data-name="Group 1251" transform="translate(0 0)">
          <ellipse id="Ellipse_94" data-name="Ellipse 94" cx="2.755" cy="2.707" rx="2.755" ry="2.707" transform="translate(0 5.204) rotate(-70.803)" fill="none" stroke="#2a3f55" stroke-miterlimit="10" stroke-width="1.859"/>
        </g>
      </g>
      <g id="Group_1254" data-name="Group 1254" transform="translate(33.99 31.51)">
        <g id="Group_1253" data-name="Group 1253" transform="translate(0 0)">
          <ellipse id="Ellipse_95" data-name="Ellipse 95" cx="2.755" cy="2.707" rx="2.755" ry="2.707" transform="translate(0 5.204) rotate(-70.803)" fill="none" stroke="#2a3f55" stroke-miterlimit="10" stroke-width="1.859"/>
        </g>
      </g>
      <g id="Group_1256" data-name="Group 1256" transform="translate(87.162 16.334)">
        <g id="Group_1255" data-name="Group 1255" transform="translate(0 0)">
          <ellipse id="Ellipse_96" data-name="Ellipse 96" cx="1.789" cy="1.758" rx="1.789" ry="1.758" transform="translate(0 3.379) rotate(-70.803)" fill="none" stroke="#2a3f55" stroke-miterlimit="10" stroke-width="1.207"/>
        </g>
      </g>
      <g id="Group_1258" data-name="Group 1258" transform="translate(91.71 49.711)">
        <g id="Group_1257" data-name="Group 1257" transform="translate(0 0)">
          <ellipse id="Ellipse_97" data-name="Ellipse 97" cx="1.789" cy="1.758" rx="1.789" ry="1.758" transform="translate(0 3.379) rotate(-70.803)" fill="none" stroke="#2a3f55" stroke-miterlimit="10" stroke-width="1.207"/>
        </g>
      </g>
      <g id="Group_1260" data-name="Group 1260" transform="translate(7.637 43.016)">
        <g id="Group_1259" data-name="Group 1259" transform="translate(0 0)">
          <ellipse id="Ellipse_98" data-name="Ellipse 98" cx="1.789" cy="1.758" rx="1.789" ry="1.758" transform="translate(0 3.379) rotate(-70.803)" fill="none" stroke="#2a3f55" stroke-miterlimit="10" stroke-width="1.207"/>
        </g>
      </g>
      <g id="Group_1262" data-name="Group 1262" transform="translate(36.31 23.078)">
        <g id="Group_1261" data-name="Group 1261" transform="translate(0 0)">
          <ellipse id="Ellipse_99" data-name="Ellipse 99" cx="1.789" cy="1.758" rx="1.789" ry="1.758" transform="translate(0 3.379) rotate(-70.803)" fill="none" stroke="#2a3f55" stroke-miterlimit="10" stroke-width="1.207"/>
        </g>
      </g>
      <g id="Group_1264" data-name="Group 1264" transform="translate(57.684 15.738)">
        <g id="Group_1263" data-name="Group 1263" transform="translate(0 0)">
          <ellipse id="Ellipse_100" data-name="Ellipse 100" cx="1.789" cy="1.758" rx="1.789" ry="1.758" transform="translate(0 3.379) rotate(-70.803)" fill="none" stroke="#2a3f55" stroke-miterlimit="10" stroke-width="1.207"/>
        </g>
      </g>
      <g id="Group_1266" data-name="Group 1266" transform="translate(70.922 2.429)">
        <g id="Group_1265" data-name="Group 1265" transform="translate(0 0)">
          <ellipse id="Ellipse_101" data-name="Ellipse 101" cx="1.789" cy="1.758" rx="1.789" ry="1.758" transform="translate(0 3.379) rotate(-70.803)" fill="none" stroke="#2a3f55" stroke-miterlimit="10" stroke-width="1.207"/>
        </g>
      </g>
      <g id="Group_1268" data-name="Group 1268" transform="translate(17.39 53.733)">
        <g id="Group_1267" data-name="Group 1267" transform="translate(0 0)">
          <ellipse id="Ellipse_102" data-name="Ellipse 102" cx="1.789" cy="1.758" rx="1.789" ry="1.758" transform="translate(0 3.379) rotate(-70.803)" fill="none" stroke="#2a3f55" stroke-miterlimit="10" stroke-width="1.207"/>
        </g>
      </g>
      <g id="Group_1270" data-name="Group 1270" transform="translate(50.628 87.095)">
        <g id="Group_1269" data-name="Group 1269" transform="translate(0 0)">
          <ellipse id="Ellipse_103" data-name="Ellipse 103" cx="1.789" cy="1.758" rx="1.789" ry="1.758" transform="translate(0 3.379) rotate(-70.803)" fill="none" stroke="#2a3f55" stroke-miterlimit="10" stroke-width="1.207"/>
        </g>
      </g>
      <g id="Group_1272" data-name="Group 1272" transform="translate(38.488 55.519)">
        <g id="Group_1271" data-name="Group 1271" transform="translate(0 0)">
          <ellipse id="Ellipse_104" data-name="Ellipse 104" cx="1.789" cy="1.758" rx="1.789" ry="1.758" transform="translate(0 3.379) rotate(-70.803)" fill="none" stroke="#2a3f55" stroke-miterlimit="10" stroke-width="1.859"/>
        </g>
      </g>
      <g id="Group_1274" data-name="Group 1274" transform="translate(41.78 61.636)">
        <g id="Group_1273" data-name="Group 1273" transform="translate(0 0)">
          <ellipse id="Ellipse_105" data-name="Ellipse 105" cx="1.789" cy="1.758" rx="1.789" ry="1.758" transform="translate(0 3.379) rotate(-70.803)" fill="none" stroke="#2a3f55" stroke-miterlimit="10" stroke-width="1.859"/>
        </g>
      </g>
      <path id="Path_6636" data-name="Path 6636" d="M282.59,137.915" transform="translate(-179.63 -137.915)" fill="none" stroke="#2a3f55" stroke-miterlimit="10" stroke-width="1.859"/>
      <path id="Path_6637" data-name="Path 6637" d="M219.617,167.1" transform="translate(-169.768 -142.486)" fill="none" stroke="#2a3f55" stroke-miterlimit="10" stroke-width="1.859"/>
      <path id="Path_6638" data-name="Path 6638" d="M160.511,193.22" transform="translate(-160.511 -146.576)" fill="none" stroke="#2a3f55" stroke-miterlimit="10" stroke-width="1.859"/>
      <line id="Line_43" data-name="Line 43" x2="14.147" y2="14.147" transform="translate(4.26 55.22)" fill="none" stroke="#2a3f55" stroke-miterlimit="10" stroke-width="1.859"/>
      <line id="Line_44" data-name="Line 44" x2="30.836" y2="30.836" transform="translate(20.88 57.292)" fill="none" stroke="#2a3f55" stroke-miterlimit="10" stroke-width="1.859"/>
      <g id="Group_1276" data-name="Group 1276" transform="translate(86.237 46.162)">
        <g id="Group_1275" data-name="Group 1275" transform="translate(0 0)">
          <ellipse id="Ellipse_106" data-name="Ellipse 106" cx="1.758" cy="1.789" rx="1.758" ry="1.789" transform="translate(0 1.156) rotate(-19.197)" fill="none" stroke="#2a3f55" stroke-miterlimit="10" stroke-width="1.207"/>
        </g>
      </g>
      <line id="Line_45" data-name="Line 45" x1="30.836" y2="30.836" transform="translate(56.407 49.72)" fill="none" stroke="#2a3f55" stroke-miterlimit="10" stroke-width="1.859"/>
      <path id="Path_6639" data-name="Path 6639" d="M186.694,227.014l29.491,25.715,42.386-37.579" transform="translate(-164.612 -150.011)" fill="none" stroke="#2a3f55" stroke-miterlimit="10" stroke-width="1.859"/>
      <path id="Path_6640" data-name="Path 6640" d="M256.092,138.971h20.514l2.923,4.228" transform="translate(-175.48 -138.08)" fill="none" stroke="#2a3f55" stroke-miterlimit="10" stroke-width="1.859"/>
      <line id="Line_46" data-name="Line 46" y1="10.828" x2="10.828" transform="translate(61.038 5.987)" fill="none" stroke="#2a3f55" stroke-miterlimit="10" stroke-width="1.859"/>
      <path id="Path_6641" data-name="Path 6641" d="M245.18,157.727l5.82-5.82h11.784l4.946,5.82V190.3" transform="translate(-173.771 -140.106)" fill="none" stroke="#2a3f55" stroke-miterlimit="10" stroke-width="1.859"/>
      <path id="Path_6642" data-name="Path 6642" d="M165.463,148.108l3.758-4.228h17.121" transform="translate(-161.287 -138.849)" fill="none" stroke="#2a3f55" stroke-miterlimit="10" stroke-width="1.859"/>
      <path id="Path_6643" data-name="Path 6643" d="M165.463,184.052l16.084-16.084h16.537" transform="translate(-161.287 -142.622)" fill="none" stroke="#2a3f55" stroke-miterlimit="10" stroke-width="1.859"/>
      <path id="Path_6644" data-name="Path 6644" d="M174.321,191.579h16.123l5.7,5.7h28.474" transform="translate(-162.674 -146.319)" fill="none" stroke="#2a3f55" stroke-miterlimit="10" stroke-width="1.859"/>
      <path id="Path_6645" data-name="Path 6645" d="M165.463,155.837l5.324,5.324H187.8" transform="translate(-161.287 -140.722)" fill="none" stroke="#2a3f55" stroke-miterlimit="10" stroke-width="1.859"/>
      <path id="Path_6646" data-name="Path 6646" d="M197.024,143.88h6.682l18.111,18.583" transform="translate(-166.229 -138.849)" fill="none" stroke="#2a3f55" stroke-miterlimit="10" stroke-width="1.859"/>
      <path id="Path_6647" data-name="Path 6647" d="M245.18,175.1v3.581l5,3.229h7.4l5.607-3.4V162.15" transform="translate(-173.771 -141.71)" fill="none" stroke="#2a3f55" stroke-miterlimit="10" stroke-width="1.859"/>
      <path id="Path_6648" data-name="Path 6648" d="M178.306,183.333h11.509l6.131-4.492H198.1" transform="translate(-163.298 -144.324)" fill="none" stroke="#2a3f55" stroke-miterlimit="10" stroke-width="1.859"/>
      <g id="Group_1278" data-name="Group 1278" transform="translate(45.303 67.301)">
        <g id="Group_1277" data-name="Group 1277" transform="translate(0 0)">
          <ellipse id="Ellipse_107" data-name="Ellipse 107" cx="1.789" cy="1.758" rx="1.789" ry="1.758" transform="translate(0 3.379) rotate(-70.803)" fill="none" stroke="#2a3f55" stroke-miterlimit="10" stroke-width="1.859"/>
        </g>
      </g>
      <g id="Group_1280" data-name="Group 1280" transform="translate(50.451 73.762)">
        <g id="Group_1279" data-name="Group 1279" transform="translate(0 0)">
          <ellipse id="Ellipse_108" data-name="Ellipse 108" cx="1.789" cy="1.758" rx="1.789" ry="1.758" transform="translate(0 3.379) rotate(-70.803)" fill="none" stroke="#2a3f55" stroke-miterlimit="10" stroke-width="1.859"/>
        </g>
      </g>
      <path id="Path_6649" data-name="Path 6649" d="M210.9,206.433H228.43a1.009,1.009,0,0,1,.85,1.553l-2.916,4.564H214.194" transform="translate(-168.403 -148.646)" fill="none" stroke="#2a3f55" stroke-miterlimit="10" stroke-width="1.859"/>
      <path id="Path_6650" data-name="Path 6650" d="M205.26,181.684v5.1l2.367,2.367h16.167l4.763-4.763v-8.479" transform="translate(-167.519 -143.865)" fill="none" stroke="#2a3f55" stroke-miterlimit="10" stroke-width="1.859"/>
      <path id="Path_6651" data-name="Path 6651" d="M227.63,213.686l-3.5,5.664h-5.148" transform="translate(-169.668 -149.782)" fill="none" stroke="#2a3f55" stroke-miterlimit="10" stroke-width="1.859"/>
      <line id="Line_47" data-name="Line 47" x1="1.951" y2="4.688" transform="translate(52.511 69.569)" fill="none" stroke="#2a3f55" stroke-miterlimit="10" stroke-width="1.859"/>
    </g>
  </g>
</svg>
