<svg xmlns="http://www.w3.org/2000/svg" viewBox="0 0 88.74 101.61"><path d="M13,43.56c2.14-9.44,7.47-14.4,15.69-18.56,7.83-4,16.81-9.52,25-6.66,17.13,6,26.86,11.45,22.08,44.64-1.08,7.5-39.91,22.91-45.36,20.54C14.2,76.53,9.23,60,13,43.56Z" style="fill:#a5b2a6"/><g style="opacity:0.8"><polygon points="44.37 100.74 1 75.7 1 25.62 44.37 50.66 44.37 100.74" style="fill:none;stroke:#1c3b40;stroke-miterlimit:10;opacity:0.9"/><polygon points="87.72 75.7 44.35 100.74 44.35 50.66 87.72 25.62 87.72 75.7" style="fill:none;stroke:#1c3b40;stroke-miterlimit:10"/><polygon points="44.37 50.66 1 25.62 44.37 0.58 87.75 25.62 44.37 50.66" style="fill:none;stroke:#1c3b40;stroke-miterlimit:10;opacity:0.87"/></g></svg>