<svg xmlns="http://www.w3.org/2000/svg" width="493.967" height="331.975" viewBox="0 0 493.967 331.975">
  <g id="Group_1474" data-name="Group 1474" transform="translate(-157 -3358.111)">
    <g id="Group_1473" data-name="Group 1473">
      <rect id="Rectangle_461" data-name="Rectangle 461" width="493.967" height="331.975" transform="translate(157 3358.111)" fill="#d39a50"/>
    </g>
    <g id="Group_1309" data-name="Group 1309" transform="translate(-741.328 3019.99)">
      <g id="Group_1285" data-name="Group 1285" transform="translate(1041.881 432.666)">
        <rect id="Rectangle_464" data-name="Rectangle 464" width="75.076" height="109.416" transform="translate(0 65.724) rotate(-15.582)" fill="#f2f2f2"/>
        <rect id="Rectangle_465" data-name="Rectangle 465" width="75.076" height="109.416" transform="translate(104.207 20.166) rotate(-15.582)" fill="#f2f2f2"/>
        <g id="Group_1284" data-name="Group 1284" transform="translate(72.263 20.362)">
          <g id="Group_1283" data-name="Group 1283">
            <path id="Path_6652" data-name="Path 6652" d="M1166.8,555.961l-32,25-29.391-105.4,32-25Z" transform="translate(-1105.407 -450.566)" fill="#e0dedc"/>
          </g>
        </g>
      </g>
      <g id="Group_1308" data-name="Group 1308" transform="translate(1089.87 457.849)">
        <g id="Group_1287" data-name="Group 1287" transform="translate(0 106.205)">
          <g id="Group_1286" data-name="Group 1286" transform="translate(0 0)">
            <ellipse id="Ellipse_109" data-name="Ellipse 109" cx="5.916" cy="6.02" rx="5.916" ry="6.02" transform="translate(0 2.788) rotate(-13.631)" fill="none" stroke="#2a3f55" stroke-miterlimit="10" stroke-width="1"/>
          </g>
        </g>
        <g id="Group_1289" data-name="Group 1289" transform="translate(56.333 57.031)">
          <g id="Group_1288" data-name="Group 1288" transform="translate(0 0)">
            <ellipse id="Ellipse_110" data-name="Ellipse 110" cx="3.068" cy="3.122" rx="3.068" ry="3.122" transform="matrix(0.943, -0.334, 0.334, 0.943, 0, 2.047)" fill="none" stroke="#2a3f55" stroke-miterlimit="10" stroke-width="1"/>
          </g>
        </g>
        <g id="Group_1291" data-name="Group 1291" transform="translate(37.023 62.489)">
          <g id="Group_1290" data-name="Group 1290" transform="translate(0 0)">
            <ellipse id="Ellipse_111" data-name="Ellipse 111" cx="4.294" cy="4.37" rx="4.294" ry="4.37" transform="matrix(0.856, -0.516, 0.516, 0.856, 0, 4.435)" fill="none" stroke="#2a3f55" stroke-miterlimit="10" stroke-width="1"/>
          </g>
        </g>
        <g id="Group_1293" data-name="Group 1293" transform="translate(72.058 41.895)">
          <g id="Group_1292" data-name="Group 1292" transform="translate(0 0)">
            <ellipse id="Ellipse_112" data-name="Ellipse 112" cx="5.916" cy="6.02" rx="5.916" ry="6.02" transform="translate(0 2.788) rotate(-13.631)" fill="none" stroke="#2a3f55" stroke-miterlimit="10" stroke-width="1"/>
          </g>
        </g>
        <g id="Group_1295" data-name="Group 1295" transform="translate(115.999 29.199)">
          <g id="Group_1294" data-name="Group 1294" transform="translate(0 0)">
            <ellipse id="Ellipse_113" data-name="Ellipse 113" cx="9.552" cy="9.721" rx="9.552" ry="9.721" transform="translate(0 4.502) rotate(-13.631)" fill="none" stroke="#2a3f55" stroke-miterlimit="10" stroke-width="1"/>
          </g>
        </g>
        <g id="Group_1297" data-name="Group 1297" transform="translate(101.629 0)">
          <g id="Group_1296" data-name="Group 1296" transform="translate(0)">
            <ellipse id="Ellipse_114" data-name="Ellipse 114" cx="3.74" cy="3.806" rx="3.74" ry="3.806" transform="translate(0 1.763) rotate(-13.631)" fill="none" stroke="#2a3f55" stroke-miterlimit="10" stroke-width="1"/>
          </g>
        </g>
        <g id="Group_1299" data-name="Group 1299" transform="translate(13.151 70.661)">
          <g id="Group_1298" data-name="Group 1298">
            <path id="Path_6653" data-name="Path 6653" d="M1095.629,556.891c10.146-7.455,13.829-14.178,15.273-19.05a70.053,70.053,0,0,1,2.637-8.448,54.383,54.383,0,0,1,7.065-12.469" transform="translate(-1095.629 -516.923)" fill="none" stroke="#2a3f55" stroke-miterlimit="10" stroke-width="1"/>
          </g>
        </g>
        <g id="Group_1301" data-name="Group 1301" transform="translate(80.833 7.684)">
          <g id="Group_1300" data-name="Group 1300">
            <line id="Line_48" data-name="Line 48" x1="22.75" y2="35.263" fill="none" stroke="#2a3f55" stroke-miterlimit="10" stroke-width="1"/>
          </g>
        </g>
        <g id="Group_1303" data-name="Group 1303" transform="translate(63.536 50.596)">
          <g id="Group_1302" data-name="Group 1302">
            <line id="Line_49" data-name="Line 49" y1="8.634" x2="9.392" fill="none" stroke="#2a3f55" stroke-miterlimit="10" stroke-width="1"/>
          </g>
        </g>
        <g id="Group_1305" data-name="Group 1305" transform="translate(47.258 62.239)">
          <g id="Group_1304" data-name="Group 1304">
            <line id="Line_50" data-name="Line 50" x1="10.05" y2="5.52" fill="none" stroke="#2a3f55" stroke-miterlimit="10" stroke-width="1"/>
          </g>
        </g>
        <g id="Group_1307" data-name="Group 1307" transform="translate(85.383 42.378)">
          <g id="Group_1306" data-name="Group 1306">
            <line id="Line_51" data-name="Line 51" y1="5.119" x2="32.419" fill="none" stroke="#2a3f55" stroke-miterlimit="10" stroke-width="1"/>
          </g>
        </g>
      </g>
    </g>
  </g>
</svg>
