<svg xmlns="http://www.w3.org/2000/svg" width="205.178" height="132.121" viewBox="0 0 205.178 132.121">
  <g id="Group_1373" data-name="Group 1373" transform="translate(-740.978 -1359.559)">
    <path id="Path_6739" data-name="Path 6739" d="M785.112,1384.929c12.035-16.936,26.7-22.35,46.414-23.807,18.783-1.388,41.167-4.971,55.006,7.438,28.993,26,43.75,44.866,6.863,106.678-8.331,13.961-97.975,12.411-106.827,3.223C760.363,1451.267,764.177,1414.385,785.112,1384.929Z" transform="translate(1.487 0)" fill="#1c3b40"/>
    <path id="Path_6740" data-name="Path 6740" d="M806.706,1376.9l5.1,55.2c.867,9.486-3.985,14.167-9.463,16.676-2.3,1.053-10.4,3.945-11.322,9.037-.848,4.691,2.233,6.959,5.417,7.534,11.046,2,21.643-20.86,36.282-18.215,10.649,1.924,12.958,12.2,12.958,12.2-7.7.208-15.995,4.989-24.7,16.463-7.533,9.929-17.983,16.634-29.528,14.548-17.16-3.1-20.175-19.286-24.456-24.815-4.054-5.238-14.839-4.29-19.45-6.218-5.228-2.185-6.565-11.245-6.565-11.245l28.179,5.091c1.4-7.733-17.474-14.187-24.374-23.1-6.539-8.442-1.478-17.622-1.478-17.622l36.969,29.885s2.03-2.319-.3-7.75c-3.773-8.787-14.823-21.692-18.439-31.642-3.479-9.575,6.78-18.3,6.78-18.3l26.232,48.315c6.462-5.6-2.616-33.31-1.088-41.765,1.727-9.556,10.667-13.409,13.249-14.287" transform="translate(0 0.949)" fill="#a5c4c6"/>
    <g id="Group_1372" data-name="Group 1372" transform="translate(832.368 1361.068)">
      <path id="Path_6741" data-name="Path 6741" d="M849.775,1432.011c.741,1.157,5.274,7.441,6.468,8.282l13.046,10.174a35.363,35.363,0,0,0,49.274-8.557l9.884-14.038a10.979,10.979,0,0,0-2.657-15.3l-33.977-23.922a11.018,11.018,0,0,0-2.011-1.119l10.6-15.058a7.809,7.809,0,0,0-1.89-10.882h0a3.187,3.187,0,0,0-2.925-.418,12.767,12.767,0,0,0-6.015,4.476l-23.985,34.067a4.831,4.831,0,0,0-.512.907,14.267,14.267,0,0,0-1.074,7.365h0c.32,3.849.57,2.023,2.8,4.948a3.539,3.539,0,0,1-.143,4.422h0c-3.188,3.759-5.193,3.319-7.037-1.747l-18.519-16.7c-3.955-1.282-8.158-1.473-10.868,1l-.2.188a6.974,6.974,0,0,0-1.861,7.886,2.68,2.68,0,0,0,1.015.738,21.1,21.1,0,0,1,6.667,5.527l13.926,17.753" transform="translate(-827.626 -1360.989)" fill="#d39a50"/>
      <rect id="Rectangle_468" data-name="Rectangle 468" width="13.906" height="17.175" rx="3.991" transform="translate(92.531 45.273) rotate(35.148)" fill="#bd8b46"/>
      <rect id="Rectangle_469" data-name="Rectangle 469" width="13.906" height="17.175" rx="3.991" transform="translate(102.418 30.199) rotate(35.148)" fill="#d39a50"/>
      <rect id="Rectangle_470" data-name="Rectangle 470" width="13.906" height="17.175" rx="3.991" transform="translate(83.065 31.478) rotate(35.148)" fill="#bd8b46"/>
      <rect id="Rectangle_471" data-name="Rectangle 471" width="13.906" height="17.175" rx="3.991" transform="translate(93.445 16.736) rotate(35.148)" fill="#d39a50"/>
      <rect id="Rectangle_472" data-name="Rectangle 472" width="13.906" height="17.175" rx="3.991" transform="translate(70.693 21.409) rotate(35.148)" fill="#bd8b46"/>
      <rect id="Rectangle_473" data-name="Rectangle 473" width="13.906" height="17.175" rx="3.991" transform="translate(80.953 6.837) rotate(35.148)" fill="#d39a50"/>
      <path id="Path_6742" data-name="Path 6742" d="M895.55,1430.661a7.532,7.532,0,0,1-4.756,14.28Z" transform="translate(-824.17 -1357.177)" fill="#bd8b46"/>
      <path id="Path_6743" data-name="Path 6743" d="M889.6,1444.387a7.531,7.531,0,1,1,4.756-14.279Z" transform="translate(-824.533 -1357.234)" fill="#bd8b46"/>
    </g>
  </g>
</svg>
