<svg xmlns="http://www.w3.org/2000/svg" width="514.02" height="427.162" viewBox="0 0 514.02 427.162">
  <g id="Group_1471" data-name="Group 1471" transform="translate(-1041.881 -432.666)">
    <g id="Group_1285" data-name="Group 1285" transform="translate(1041.881 432.666)">
      <rect id="Rectangle_464" data-name="Rectangle 464" width="187.412" height="273.133" transform="translate(0 164.067) rotate(-15.582)" fill="#f2f2f2"/>
      <rect id="Rectangle_465" data-name="Rectangle 465" width="187.412" height="273.133" transform="translate(260.129 50.341) rotate(-15.582)" fill="#f2f2f2"/>
      <g id="Group_1284" data-name="Group 1284" transform="translate(180.388 50.829)">
        <g id="Group_1283" data-name="Group 1283">
          <path id="Path_6652" data-name="Path 6652" d="M1258.652,713.662l-79.877,62.408-73.367-263.1,79.878-62.408Z" transform="translate(-1105.407 -450.566)" fill="#e0dedc"/>
        </g>
      </g>
    </g>
    <g id="Group_1308" data-name="Group 1308" transform="translate(1161.674 495.53)">
      <g id="Group_1287" data-name="Group 1287" transform="translate(0 265.116)">
        <g id="Group_1286" data-name="Group 1286" transform="translate(0 0)">
          <ellipse id="Ellipse_109" data-name="Ellipse 109" cx="14.767" cy="15.029" rx="14.767" ry="15.029" transform="translate(0 6.96) rotate(-13.631)" fill="none" stroke="#2a3f55" stroke-miterlimit="10" stroke-width="1"/>
        </g>
      </g>
      <g id="Group_1289" data-name="Group 1289" transform="translate(140.622 142.365)">
        <g id="Group_1288" data-name="Group 1288" transform="translate(0 0)">
          <ellipse id="Ellipse_110" data-name="Ellipse 110" cx="7.659" cy="7.794" rx="7.659" ry="7.794" transform="matrix(0.943, -0.334, 0.334, 0.943, 0, 5.109)" fill="none" stroke="#2a3f55" stroke-miterlimit="10" stroke-width="1"/>
        </g>
      </g>
      <g id="Group_1291" data-name="Group 1291" transform="translate(92.42 155.989)">
        <g id="Group_1290" data-name="Group 1290" transform="translate(0 0)">
          <ellipse id="Ellipse_111" data-name="Ellipse 111" cx="10.718" cy="10.908" rx="10.718" ry="10.908" transform="matrix(0.856, -0.516, 0.516, 0.856, 0, 11.07)" fill="none" stroke="#2a3f55" stroke-miterlimit="10" stroke-width="1"/>
        </g>
      </g>
      <g id="Group_1293" data-name="Group 1293" transform="translate(179.876 104.582)">
        <g id="Group_1292" data-name="Group 1292" transform="translate(0 0)">
          <ellipse id="Ellipse_112" data-name="Ellipse 112" cx="14.767" cy="15.029" rx="14.767" ry="15.029" transform="translate(0 6.96) rotate(-13.631)" fill="none" stroke="#2a3f55" stroke-miterlimit="10" stroke-width="1"/>
        </g>
      </g>
      <g id="Group_1295" data-name="Group 1295" transform="translate(289.565 72.889)">
        <g id="Group_1294" data-name="Group 1294" transform="translate(0 0)">
          <ellipse id="Ellipse_113" data-name="Ellipse 113" cx="23.844" cy="24.266" rx="23.844" ry="24.266" transform="translate(0 11.239) rotate(-13.631)" fill="none" stroke="#2a3f55" stroke-miterlimit="10" stroke-width="1"/>
        </g>
      </g>
      <g id="Group_1297" data-name="Group 1297" transform="translate(253.694 0)">
        <g id="Group_1296" data-name="Group 1296" transform="translate(0)">
          <ellipse id="Ellipse_114" data-name="Ellipse 114" cx="9.335" cy="9.501" rx="9.335" ry="9.501" transform="translate(0 4.4) rotate(-13.631)" fill="none" stroke="#2a3f55" stroke-miterlimit="10" stroke-width="1"/>
        </g>
      </g>
      <g id="Group_1299" data-name="Group 1299" transform="translate(32.828 176.39)">
        <g id="Group_1298" data-name="Group 1298">
          <path id="Path_6653" data-name="Path 6653" d="M1095.629,616.694c25.328-18.611,34.521-35.393,38.126-47.554,1.468-4.944,2.667-11.327,6.583-21.09a135.758,135.758,0,0,1,17.636-31.127" transform="translate(-1095.629 -516.923)" fill="none" stroke="#2a3f55" stroke-miterlimit="10" stroke-width="1"/>
        </g>
      </g>
      <g id="Group_1301" data-name="Group 1301" transform="translate(201.781 19.181)">
        <g id="Group_1300" data-name="Group 1300">
          <line id="Line_48" data-name="Line 48" x1="56.791" y2="88.027" fill="none" stroke="#2a3f55" stroke-miterlimit="10" stroke-width="1"/>
        </g>
      </g>
      <g id="Group_1303" data-name="Group 1303" transform="translate(158.604 126.301)">
        <g id="Group_1302" data-name="Group 1302">
          <line id="Line_49" data-name="Line 49" y1="21.553" x2="23.445" fill="none" stroke="#2a3f55" stroke-miterlimit="10" stroke-width="1"/>
        </g>
      </g>
      <g id="Group_1305" data-name="Group 1305" transform="translate(117.969 155.365)">
        <g id="Group_1304" data-name="Group 1304">
          <line id="Line_50" data-name="Line 50" x1="25.089" y2="13.78" fill="none" stroke="#2a3f55" stroke-miterlimit="10" stroke-width="1"/>
        </g>
      </g>
      <g id="Group_1307" data-name="Group 1307" transform="translate(213.139 105.788)">
        <g id="Group_1306" data-name="Group 1306">
          <line id="Line_51" data-name="Line 51" y1="12.778" x2="80.928" fill="none" stroke="#2a3f55" stroke-miterlimit="10" stroke-width="1"/>
        </g>
      </g>
    </g>
  </g>
</svg>
