<svg xmlns="http://www.w3.org/2000/svg" width="177.647" height="154.821" viewBox="0 0 177.647 154.821">
  <g id="Group_1371" data-name="Group 1371" transform="translate(-147.399 -439.763)">
    <path id="Path_6735" data-name="Path 6735" d="M271.673,466.073a49.531,49.531,0,0,1,21.759,62.134l24.882,12.713a77.4,77.4,0,0,0-33.961-99.664Z" fill="#d39a50"/>
    <path id="Path_6736" data-name="Path 6736" d="M182.719,491.088a49.538,49.538,0,0,1,62.526-19.051l12.68-24.818a77.4,77.4,0,0,0-100.088,31.156Z" fill="#1c3b40"/>
    <path id="Path_6737" data-name="Path 6737" d="M203.833,562.037l-12.68,24.817A77.4,77.4,0,0,0,293.763,552.4l-24.818-12.68A49.536,49.536,0,0,1,203.833,562.037Z" fill="#a5b2a6"/>
    <path id="Path_6738" data-name="Path 6738" d="M200.214,560.17a49.545,49.545,0,0,1-19.508-65.538l-24.817-12.68a77.4,77.4,0,0,0,31.645,103.035Z" fill="#a5c4c6"/>
  </g>
</svg>
