<svg xmlns="http://www.w3.org/2000/svg" width="64.496" height="62.494" viewBox="0 0 64.496 62.494">
  <g id="Group_1406" data-name="Group 1406" transform="matrix(1, 0.017, -0.017, 1, -232.585, -550.431)">
    <path id="Path_6601" data-name="Path 6601" d="M981.6,58.8c-.348,8-6.266,13.66-8.747,16.036-2.551,2.442-7.776,7.444-15.064,7.775-12.3.558-24.764-12.461-23.811-23.811.474-5.64,4.342-9.861,7.775-13.606,3.5-3.817,8.852-9.657,16.036-10.2C969.347,34.108,982.138,46.538,981.6,58.8Z" transform="translate(-683.134 520.043)" fill="#a5c4c6"/>
    <g id="vaaka" transform="translate(243 546)">
      <path id="Path_6604" data-name="Path 6604" d="M970.921,95.931" transform="translate(-940.234 -49.204)" fill="none" stroke="#2b3233" stroke-miterlimit="10" stroke-width="0.5"/>
      <path id="Path_6605" data-name="Path 6605" d="M963.193,98.646c8.9.25,15.913,3.118,15.913,6.619,0,3.665-7.691,6.637-17.177,6.637s-17.177-2.972-17.177-6.637c0-3.506,6.752-6.395,15.665-6.638" transform="translate(-930.259 -50.232)" fill="none" stroke="#2b3233" stroke-miterlimit="10" stroke-width="0.5"/>
      <path id="Path_6606" data-name="Path 6606" d="M970.2,106.639" transform="translate(-939.958 -53.286)" fill="none" stroke="#2b3233" stroke-miterlimit="10" stroke-width="0.5"/>
      <line id="Line_15" data-name="Line 15" y2="46.819" transform="translate(33.101 6.534)" fill="none" stroke="#2b3233" stroke-miterlimit="10" stroke-width="0.5"/>
      <path id="Path_6607" data-name="Path 6607" d="M974.823,30.98" transform="translate(-941.722 -24.446)" fill="none" stroke="#2b3233" stroke-miterlimit="10" stroke-width="0.5"/>
      <path id="Path_6608" data-name="Path 6608" d="M974.823,27.049" transform="translate(-941.722 -22.948)" fill="none" stroke="#2b3233" stroke-miterlimit="10" stroke-width="0.5"/>
      <path id="Path_6609" data-name="Path 6609" d="M970.2,24.522V21.548a1.127,1.127,0,0,1,1.126-1.127h.61a1.126,1.126,0,0,1,1.126,1.127v2.975" transform="translate(-939.958 -20.421)" fill="none" stroke="#2b3233" stroke-miterlimit="10" stroke-width="0.5"/>
      <path id="Path_6610" data-name="Path 6610" d="M970.2,27.049" transform="translate(-939.958 -22.948)" fill="none" stroke="#2b3233" stroke-miterlimit="10" stroke-width="0.5"/>
      <line id="Line_16" data-name="Line 16" y1="46.819" transform="translate(30.239 6.534)" fill="none" stroke="#2b3233" stroke-miterlimit="10" stroke-width="0.5"/>
      <path id="Path_6611" data-name="Path 6611" d="M970.2,31.27" transform="translate(-939.958 -24.556)" fill="none" stroke="#2b3233" stroke-miterlimit="10" stroke-width="0.5"/>
      <path id="Path_6612" data-name="Path 6612" d="M974.823,26.815h21.22a2.05,2.05,0,0,1,2.049,2.05v.387a.319.319,0,0,1-.319.319H974.823" transform="translate(-941.722 -22.858)" fill="none" stroke="#2b3233" stroke-miterlimit="10" stroke-width="0.5"/>
      <path id="Path_6613" data-name="Path 6613" d="M974.823,26.815" transform="translate(-941.722 -22.858)" fill="none" stroke="#2b3233" stroke-miterlimit="10" stroke-width="0.5"/>
      <path id="Path_6614" data-name="Path 6614" d="M970.2,26.815" transform="translate(-939.958 -22.858)" fill="none" stroke="#2b3233" stroke-miterlimit="10" stroke-width="0.5"/>
      <path id="Path_6615" data-name="Path 6615" d="M956.156,29.572h-22.7a.32.32,0,0,1-.321-.319h0a2.443,2.443,0,0,1,2.447-2.438h20.574" transform="translate(-925.831 -22.858)" fill="none" stroke="#2b3233" stroke-miterlimit="10" stroke-width="0.5"/>
      <g id="Group_1203" data-name="Group 1203" transform="translate(0.007 27.159)">
        <path id="Path_6616" data-name="Path 6616" d="M940.307,67.74c0,2.892-4.245,5.236-9.481,5.236s-9.482-2.345-9.482-5.236" transform="translate(-921.343 -65.617)" fill="none" stroke="#2b3233" stroke-miterlimit="10" stroke-width="0.5"/>
        <ellipse id="Ellipse_68" data-name="Ellipse 68" cx="9.482" cy="2.123" rx="9.482" ry="2.123" transform="translate(0)" fill="none" stroke="#2b3233" stroke-miterlimit="10" stroke-width="0.5"/>
      </g>
      <line id="Line_17" data-name="Line 17" y1="22.851" x2="8.908" transform="translate(0 6.438)" fill="none" stroke="#2b3233" stroke-miterlimit="10" stroke-width="0.5"/>
      <line id="Line_18" data-name="Line 18" x1="8.521" y1="22.851" transform="translate(10.457 6.438)" fill="none" stroke="#2b3233" stroke-miterlimit="10" stroke-width="0.5"/>
      <g id="Group_1204" data-name="Group 1204" transform="translate(44.562 27.159)">
        <path id="Path_6617" data-name="Path 6617" d="M1012.307,67.74c0,2.892-4.245,5.236-9.482,5.236s-9.482-2.345-9.482-5.236" transform="translate(-993.343 -65.617)" fill="none" stroke="#2b3233" stroke-miterlimit="10" stroke-width="0.5"/>
        <ellipse id="Ellipse_69" data-name="Ellipse 69" cx="9.482" cy="2.123" rx="9.482" ry="2.123" transform="translate(0)" fill="none" stroke="#2b3233" stroke-miterlimit="10" stroke-width="0.5"/>
      </g>
      <line id="Line_19" data-name="Line 19" y1="22.851" x2="8.908" transform="translate(44.555 6.438)" fill="none" stroke="#2b3233" stroke-miterlimit="10" stroke-width="0.5"/>
      <line id="Line_20" data-name="Line 20" x1="8.521" y1="22.851" transform="translate(55.012 6.438)" fill="none" stroke="#2b3233" stroke-miterlimit="10" stroke-width="0.5"/>
      <circle id="Ellipse_70" data-name="Ellipse 70" cx="1.008" cy="1.008" r="1.008" transform="translate(8.649 4.758)" fill="#fff" stroke="#2b3233" stroke-miterlimit="10" stroke-width="0.5"/>
      <circle id="Ellipse_71" data-name="Ellipse 71" cx="1.008" cy="1.008" r="1.008" transform="translate(53.221 4.758)" fill="#fff" stroke="#2b3233" stroke-miterlimit="10" stroke-width="0.5"/>
    </g>
  </g>
</svg>
