<?xml version="1.0" encoding="utf-8"?>
<!-- Generator: Adobe Illustrator 25.0.0, SVG Export Plug-In . SVG Version: 6.00 Build 0)  -->
<svg version="1.1" id="Layer_1" xmlns="http://www.w3.org/2000/svg" xmlns:xlink="http://www.w3.org/1999/xlink" x="0px" y="0px"
	 viewBox="0 0 64.5 62.49" style="enable-background:new 0 0 64.5 62.49;" xml:space="preserve">
<g id="Group_1406" transform="matrix(1, 0.017, -0.017, 1, -232.585, -550.431)">
	<path id="Path_6601" style="fill:#A5C4C6;" d="M298.47,578.84c-0.35,8-6.27,13.66-8.75,16.04c-2.55,2.44-7.78,7.44-15.06,7.78
		c-12.3,0.56-24.76-12.46-23.81-23.81c0.47-5.64,4.34-9.86,7.78-13.61c3.5-3.82,8.85-9.66,16.04-10.2
		C286.21,554.15,299,566.58,298.47,578.84z"/>
	<g id="vaaka" transform="translate(243 546)">
		<path id="Path_6604" style="fill:none;stroke:#2B3233;stroke-width:0.5001;stroke-miterlimit:10.0014;" d="M30.69,46.73"/>
		<path id="Path_6605" style="fill:none;stroke:#2B3233;stroke-width:0.5001;stroke-miterlimit:10.0014;" d="M32.93,48.41
			c8.9,0.25,15.91,3.12,15.91,6.62c0,3.67-7.69,6.64-17.18,6.64s-17.18-2.97-17.18-6.64c0-3.51,6.75-6.39,15.66-6.64"/>
		<path id="Path_6606" style="fill:none;stroke:#2B3233;stroke-width:0.5001;stroke-miterlimit:10.0014;" d="M30.24,53.35"/>
		
			<line id="Line_15" style="fill:none;stroke:#2B3233;stroke-width:0.5001;stroke-miterlimit:10.0014;" x1="33.1" y1="6.53" x2="33.1" y2="53.35"/>
		<path id="Path_6607" style="fill:none;stroke:#2B3233;stroke-width:0.5001;stroke-miterlimit:10.0014;" d="M33.1,6.53"/>
		<path id="Path_6608" style="fill:none;stroke:#2B3233;stroke-width:0.5001;stroke-miterlimit:10.0014;" d="M33.1,4.1"/>
		<path id="Path_6609" style="fill:none;stroke:#2B3233;stroke-width:0.5001;stroke-miterlimit:10.0014;" d="M30.24,4.1V1.13
			c0-0.62,0.5-1.13,1.13-1.13l0.61,0c0.62,0,1.13,0.5,1.13,1.13c0,0,0,0,0,0V4.1"/>
		<path id="Path_6610" style="fill:none;stroke:#2B3233;stroke-width:0.5001;stroke-miterlimit:10.0014;" d="M30.24,4.1"/>
		
			<line id="Line_16" style="fill:none;stroke:#2B3233;stroke-width:0.5001;stroke-miterlimit:10.0014;" x1="30.24" y1="53.35" x2="30.24" y2="6.53"/>
		<path id="Path_6611" style="fill:none;stroke:#2B3233;stroke-width:0.5001;stroke-miterlimit:10.0014;" d="M30.24,6.71"/>
		<path id="Path_6612" style="fill:none;stroke:#2B3233;stroke-width:0.5001;stroke-miterlimit:10.0014;" d="M33.1,3.96h21.22
			c1.13,0,2.05,0.92,2.05,2.05v0.39c0,0.18-0.14,0.32-0.32,0.32H33.1"/>
		<path id="Path_6613" style="fill:none;stroke:#2B3233;stroke-width:0.5001;stroke-miterlimit:10.0014;" d="M33.1,3.96"/>
		<path id="Path_6614" style="fill:none;stroke:#2B3233;stroke-width:0.5001;stroke-miterlimit:10.0014;" d="M30.24,3.96"/>
		<path id="Path_6615" style="fill:none;stroke:#2B3233;stroke-width:0.5001;stroke-miterlimit:10.0014;" d="M30.33,6.71H7.63
			C7.45,6.71,7.3,6.57,7.3,6.4l0,0c0-1.35,1.1-2.44,2.45-2.44h20.57"/>
		<g id="Group_1203" transform="translate(0.007 27.159)">
			<path id="Path_6616" style="fill:none;stroke:#2B3233;stroke-width:0.5001;stroke-miterlimit:10.0014;" d="M18.96,2.12
				c0,2.89-4.24,5.24-9.48,5.24S0,5.01,0,2.12"/>
			
				<ellipse id="Ellipse_68" transform="matrix(2.534258e-06 1 -1 2.534258e-06 11.605 -7.359)" style="fill:none;stroke:#2B3233;stroke-width:0.5001;stroke-miterlimit:10.0014;" cx="9.48" cy="2.12" rx="2.12" ry="9.48"/>
		</g>
		
			<line id="Line_17" style="fill:none;stroke:#2B3233;stroke-width:0.5001;stroke-miterlimit:10.0014;" x1="0" y1="29.29" x2="8.91" y2="6.44"/>
		
			<line id="Line_18" style="fill:none;stroke:#2B3233;stroke-width:0.5001;stroke-miterlimit:10.0014;" x1="18.98" y1="29.29" x2="10.46" y2="6.44"/>
		<g id="Group_1204" transform="translate(44.562 27.159)">
			<path id="Path_6617" style="fill:none;stroke:#2B3233;stroke-width:0.5001;stroke-miterlimit:10.0014;" d="M18.96,2.12
				c0,2.89-4.24,5.24-9.48,5.24S0,5.01,0,2.12"/>
			
				<ellipse id="Ellipse_69" transform="matrix(2.534258e-06 1 -1 2.534258e-06 11.605 -7.359)" style="fill:none;stroke:#2B3233;stroke-width:0.5001;stroke-miterlimit:10.0014;" cx="9.48" cy="2.12" rx="2.12" ry="9.48"/>
		</g>
		
			<line id="Line_19" style="fill:none;stroke:#2B3233;stroke-width:0.5001;stroke-miterlimit:10.0014;" x1="44.56" y1="29.29" x2="53.46" y2="6.44"/>
		
			<line id="Line_20" style="fill:none;stroke:#2B3233;stroke-width:0.5001;stroke-miterlimit:10.0014;" x1="63.53" y1="29.29" x2="55.01" y2="6.44"/>
		
			<circle id="Ellipse_70" style="fill:#FFFFFF;stroke:#2B3233;stroke-width:0.5001;stroke-miterlimit:10.0014;" cx="9.66" cy="5.77" r="1.01"/>
		
			<circle id="Ellipse_71" style="fill:#FFFFFF;stroke:#2B3233;stroke-width:0.5001;stroke-miterlimit:10.0014;" cx="54.23" cy="5.77" r="1.01"/>
	</g>
</g>
</svg>
