<svg xmlns="http://www.w3.org/2000/svg" width="76.873" height="93.068" viewBox="0 0 76.873 93.068">
  <g id="Group_1405" data-name="Group 1405" transform="matrix(0.996, -0.087, 0.087, 0.996, -414.851, -512.83)">
    <path id="Path_6603" data-name="Path 6603" d="M1111.093,51.461c6.515,9.865,4.35,21.771,3.441,26.763-.934,5.133-2.846,15.647-11.277,22.36-14.235,11.334-40.424,6.565-49.124-7.838-4.323-7.157-3.355-15.558-2.5-23.014.875-7.6,2.215-19.223,10.334-26.108C1075.026,32.552,1101.1,36.332,1111.093,51.461Z" transform="translate(-677.53 527.645)" fill="#a5b2a6"/>
    <g id="suurennuslasi" transform="translate(368.405 552.092)">
      <circle id="Ellipse_72" data-name="Ellipse 72" cx="27.429" cy="27.429" r="27.429" transform="translate(0 0)" fill="none" stroke="#2b3233" stroke-miterlimit="10" stroke-width="0.5"/>
      <path id="Path_6618" data-name="Path 6618" d="M1052.461,45.413a21.925,21.925,0,0,1,15.9-13.872" transform="translate(-1045.634 -25.544)" fill="none" stroke="#2b3233" stroke-miterlimit="10" stroke-width="0.5"/>
      <path id="Path_6619" data-name="Path 6619" d="M1086.4,67.1l19.32,36.627a2.8,2.8,0,0,1-1.2,3.777l-3.831,2.02a2.8,2.8,0,0,1-3.8-1.141l-19.4-36.782" transform="translate(-1040.814 -18.697)" fill="none" stroke="#2b3233" stroke-miterlimit="10" stroke-width="0.5"/>
    </g>
  </g>
</svg>
