<svg xmlns="http://www.w3.org/2000/svg" width="2145.819" height="721.226" viewBox="0 0 2145.819 721.226">
  <g id="Group_1549" data-name="Group 1549" transform="translate(81.932 -123.774)" opacity="0.3">
    <rect id="Rectangle_552" data-name="Rectangle 552" width="1920" height="721" transform="translate(0 124)" fill="rgba(250,250,250,0)"/>
    <g id="Group_1472" data-name="Group 1472" transform="translate(55.339 10.084)">
      <g id="Group_1411" data-name="Group 1411" transform="translate(-63.795 139.354) rotate(17)">
        <path id="Path_6777" data-name="Path 6777" d="M24.709,251.309l14.7-8.756,9.841-13.966,12.585-11.03L75.177,207.2l11-12.664,10.855-12.774L107.315,168.5l12.722-11.149,10.74-12.89L141.8,131.787l10.683-12.926,7.933-15.03,10.612-13,10.812-12.852L189.6,62.95l8.377-14.539,9.87-13.64,1.764-17.853L200.212,0,180.748,1.954,172.81,17.374,165.437,33.3,155.07,47.2l-10.9,13.484-10,14.125L121.423,86.787,110.837,100.4l-11.7,12.687L90.61,128.471,76.938,139.451l-10.4,13.861L53.5,164.7,42.442,177.976,31.286,191.248l-12.3,12.108-14.3,9.909L0,232.5l7.728,18.617Z" transform="translate(0 0)" fill="#d39a50"/>
      </g>
      <g id="Group_1412" data-name="Group 1412" transform="translate(-11.585 220.905) rotate(17)">
        <path id="Path_6778" data-name="Path 6778" d="M22.948,249.5l12.869-10.709L48.236,227.57l13.773-9.855,12.285-11.431,9.086-14.477,10.528-13.033,13.862-10.067L118.9,156.147l9.74-13.724,9.553-13.83,12.453-11.5,7.735-15.172L169.222,89.1,179.484,75.87l7.49-15.2,9.678-13.651L205.476,32.7l5.026-18L197.686,0,179.859.84l-9.532,14.371-6.474,16.525L151.079,43.924,143.672,59.91,132.565,73.217,120.251,85.533,110.105,99.51,99.661,113.266l-10.307,13.9L76.182,138.6,64.6,151.386,52.356,163.532,40.04,175.564l-10.3,14.122L16.7,201,3.146,211.7,0,230.771l8.918,16.424Z" transform="translate(0 0)" fill="#d39a50"/>
      </g>
    </g>
    <path id="Path_6780" data-name="Path 6780" d="M804.856,822.731c13.2-18.145,9.96-36.812-7.321-50.62-18.158-14.507-38.644-26.749-59.549-36.822-7.447-3.589-15.186-7.146-23.135-10.142-.3-15.194-.1-30.4.091-45.593.2-15.58-23.923-14.2-24.12,1.27-.158,12.535-.318,25.087-.2,37.63a83.35,83.35,0,0,0-13.987-1.108c-23.214.227-42.962,13.493-58.042,30.222-33.053,36.662-50.679,85.345-53.06,134.219-.758,15.541,23.367,14.113,24.117-1.27,2.009-41.216,17.439-82.28,44.276-113.79,15.514-18.217,33.622-28.517,57.392-23.5.239,4.9.524,9.8.926,14.689,1.846,22.655,5.241,47.452,19.642,65.942C735,853.519,782.331,853.692,804.856,822.731Zm-68.184-7.523c-17.559-14.462-19.172-42.189-20.651-63.088-.02-.258-.03-.519-.047-.78,12.919,5.494,25.4,12.486,37.088,19.479a252.25,252.25,0,0,1,28.543,19.447c9.588,7.7,8.227,15.484-.739,23.266C768.762,824.038,749.224,825.545,736.672,815.208Z" transform="matrix(0.966, 0.259, -0.259, 0.966, 1224.137, -668.336)" fill="#e3b599"/>
    <path id="Path_6781" data-name="Path 6781" d="M995.573,732.005c6.349,50.117-10.971,83.948-43.85,119.018C920.4,884.431,886.249,927.7,841.06,928.278c-94.682,1.222-152.151-8.24-187.923-179.569C645.056,710.012,808,565.187,838.97,567.05,930.629,572.561,984.531,644.832,995.573,732.005Z" transform="translate(1067.018 -226.565)" fill="#a5b2a6"/>
    <g id="Group_1413" data-name="Group 1413" transform="matrix(0.174, 0.985, -0.985, 0.174, 853.457, -180.829)">
      <path id="Path_6782" data-name="Path 6782" d="M581.863,679.409c-1.74-14.041,3-23.517,12-33.343,8.574-9.359,17.924-21.481,30.292-21.644,25.917-.343,41.648,2.31,51.441,50.308,2.21,10.841-42.392,51.417-50.869,50.894C599.638,724.08,584.883,703.832,581.863,679.409Z" transform="translate(64.066 94.327)" fill="#a5c4c6"/>
      <path id="Path_6783" data-name="Path 6783" d="M578.02,633.24c-.714-14.9,5.08-24.468,15.424-34.04,9.854-9.121,20.754-21.08,33.9-20.214,27.541,1.811,44.03,5.916,50.565,57.189,1.477,11.58-49.138,50.49-58.093,49.232C593.3,681.681,579.267,659.166,578.02,633.24Z" transform="translate(57.804 14.069)" fill="#a5c4c6"/>
      <path id="Path_6784" data-name="Path 6784" d="M549.826,640.309c-6.411-11.89-5.526-21.949-1.01-33.785,4.3-11.273,8.33-25.27,19.172-29.673,22.717-9.226,37.5-12.282,62.8,27.032,5.717,8.881-19.487,60.314-27.14,62.769C581.006,673.915,560.971,660.985,549.826,640.309Z" transform="translate(0)" fill="#a5c4c6"/>
    </g>
  </g>
</svg>
