<svg xmlns="http://www.w3.org/2000/svg" viewBox="0 0 436.97 204.45"><defs><style>.cls-1{fill:#e3c7b6;}.cls-2,.cls-5{fill:#1c3b40;}.cls-3,.cls-4,.cls-6{fill:none;stroke:#1c3b40;stroke-miterlimit:10;}.cls-3{stroke-width:1.1px;}.cls-4{stroke-width:0.88px;}.cls-5{font-size:20px;font-family:Subjectivity-Regular, Subjectivity;}.cls-6{stroke-width:0.5px;}</style></defs><g id="Layer_2" data-name="Layer 2"><g id="hahmo"><rect class="cls-1" y="0.25" width="436.97" height="204.2"/><polygon class="cls-2" points="232.07 81.31 232.07 0 210.07 0 210.07 96.15 232.07 81.31"/><polygon class="cls-2" points="210.07 122.69 210.07 204 232.07 204 232.07 107.85 210.07 122.69"/><g id="suurennuslasi"><circle class="cls-3" cx="86.89" cy="83.47" r="50.81"/><path class="cls-3" d="M46.53,78.54A40.62,40.62,0,0,1,69.35,46.8"/><path class="cls-3" d="M128.5,113.62l50.32,57.91a5.19,5.19,0,0,1-.57,7.32l-6.06,5.26a5.18,5.18,0,0,1-7.32-.46l-50.54-58.14"/></g><path class="cls-4" d="M314.08,143.54a24.51,24.51,0,0,0,48-9.59,30.74,30.74,0,0,0,13.61,5.54,31.09,31.09,0,0,0,13.18-60.63,31.1,31.1,0,1,0-46.11-39.38A43.34,43.34,0,0,0,278,97.05a31.1,31.1,0,1,0,36.08,46.49Z"/><text class="cls-5" transform="translate(299.45 97.72)">OUGHT</text><text class="cls-5" transform="translate(79.45 92.72)">IS</text><circle class="cls-6" cx="379.07" cy="158.6" r="5.6"/><circle class="cls-6" cx="388.17" cy="170.5" r="3.5"/></g></g></svg>