<?xml version="1.0" encoding="utf-8"?>
<!-- Generator: Adobe Illustrator 25.0.0, SVG Export Plug-In . SVG Version: 6.00 Build 0)  -->
<svg version="1.1" id="Layer_1" xmlns="http://www.w3.org/2000/svg" xmlns:xlink="http://www.w3.org/1999/xlink" x="0px" y="0px"
	 viewBox="0 0 436.97 204.45" style="enable-background:new 0 0 436.97 204.45;" xml:space="preserve">
<g id="Layer_2_1_">
	<g id="hahmo">
		<rect y="0.25" style="fill:#E3C7B6;" width="436.97" height="204.2"/>
		<polygon style="fill:#1C3B40;" points="232.07,81.31 232.07,0 210.07,0 210.07,96.15 		"/>
		<polygon style="fill:#1C3B40;" points="210.07,122.69 210.07,204 232.07,204 232.07,107.85 		"/>
		<g id="suurennuslasi">
			<circle style="fill:none;stroke:#1C3B40;stroke-width:1.1;stroke-miterlimit:10;" cx="86.89" cy="83.47" r="50.81"/>
			<path style="fill:none;stroke:#1C3B40;stroke-width:1.1;stroke-miterlimit:10;" d="M46.53,78.54
				c1.68-13.79,10.29-25.76,22.82-31.74"/>
			<path style="fill:none;stroke:#1C3B40;stroke-width:1.1;stroke-miterlimit:10;" d="M128.5,113.62l50.32,57.91
				c1.86,2.18,1.61,5.45-0.57,7.32c0,0,0,0,0,0l-6.06,5.26c-2.14,1.89-5.42,1.69-7.31-0.45c0,0-0.01-0.01-0.01-0.01l-50.54-58.14"/>
		</g>
		<path style="fill:none;stroke:#1C3B40;stroke-width:0.88;stroke-miterlimit:10;" d="M314.08,143.54
			c3.36,13.11,16.72,21.01,29.83,17.65c12.12-3.11,19.95-14.85,18.17-27.24c4.02,2.92,8.69,4.82,13.61,5.54
			c16.98,2.54,32.81-9.17,35.35-26.15c2.31-15.43-7.17-30.17-22.17-34.48c13.78-10.25,16.65-29.73,6.4-43.51
			c-10.25-13.78-29.73-16.65-43.51-6.4c-3.75,2.79-6.83,6.39-9,10.53c-16.37-17.46-43.8-18.35-61.26-1.98
			c-16.81,15.76-18.35,41.92-3.5,59.55c-16.25,5.57-24.91,23.26-19.34,39.5s23.26,24.91,39.5,19.34
			C304.69,153.65,310.29,149.31,314.08,143.54L314.08,143.54z"/>
		<g style="enable-background:new    ;">
			<path style="fill:#1C3B40;" d="M308.25,83.12c4.44,0,7.6,3.14,7.6,7.56c0,4.42-3.16,7.54-7.6,7.54c-4.44,0-7.58-3.12-7.58-7.54
				C300.67,86.26,303.81,83.12,308.25,83.12z M308.25,96.74c3.46,0,5.92-2.54,5.92-6.06c0-3.54-2.46-6.08-5.92-6.08
				c-3.44,0-5.92,2.54-5.92,6.08C302.33,94.2,304.81,96.72,308.25,96.74z"/>
			<path style="fill:#1C3B40;" d="M328.59,83.62h1.66V92c0,3.64-2.36,6.22-5.7,6.22c-3.36,0-5.72-2.58-5.72-6.22v-8.38h1.66V92
				c0,2.58,1.6,4.74,4.06,4.74c2.42,0,4.04-1.96,4.04-4.74V83.62z"/>
			<path style="fill:#1C3B40;" d="M340.79,91.32v-1.38h7.36c0.34,4.8-2.74,8.28-7.32,8.28c-4.4,0-7.58-3.18-7.58-7.54
				c0-4.38,3.18-7.56,7.58-7.56c3.24,0,6.06,2.1,6.7,5l-1.58,0.3c-0.58-2.22-2.74-3.82-5.12-3.82c-3.44,0-5.92,2.52-5.92,6.08
				c0,3.5,2.48,6.06,5.92,6.06c3.2,0,5.66-2.34,5.66-5.42H340.79z"/>
			<path style="fill:#1C3B40;" d="M360.73,91.12h-7.8v6.6h-1.66v-14.1h1.66v6.02h7.8v-6.02h1.66v14.1h-1.66V91.12z"/>
			<path style="fill:#1C3B40;" d="M364.69,85.1v-1.48h11.1v1.48h-4.72v12.62h-1.66V85.1H364.69z"/>
		</g>
		<g style="enable-background:new    ;">
			<path style="fill:#1C3B40;" d="M83.01,92.72h-1.66v-14.1h1.66V92.72z"/>
			<path style="fill:#1C3B40;" d="M86.25,88.16h1.66c0,2.08,1.78,3.58,4.32,3.58c2.32,0,3.74-1.22,3.74-2.92c0-1.88-2-2.16-4.2-2.44
				c-2.6-0.36-5.3-0.78-5.3-3.92c0-2.5,2.14-4.34,5.32-4.34c3.22,0,5.56,2,5.56,4.78h-1.62c0.02-1.92-1.64-3.3-3.94-3.3
				c-2.22,0-3.66,1.14-3.66,2.72c0,1.88,1.9,2.18,4.1,2.48c2.6,0.36,5.4,0.78,5.4,3.82c0,2.68-2.12,4.6-5.44,4.6
				C88.73,93.22,86.25,91.1,86.25,88.16z"/>
		</g>
		<circle style="fill:none;stroke:#1C3B40;stroke-width:0.5;stroke-miterlimit:10;" cx="379.07" cy="158.6" r="5.6"/>
		<circle style="fill:none;stroke:#1C3B40;stroke-width:0.5;stroke-miterlimit:10;" cx="388.17" cy="170.5" r="3.5"/>
	</g>
</g>
</svg>
