<?xml version="1.0" encoding="utf-8"?>
<!-- Generator: Adobe Illustrator 25.0.0, SVG Export Plug-In . SVG Version: 6.00 Build 0)  -->
<svg version="1.1" id="Layer_1" xmlns="http://www.w3.org/2000/svg" xmlns:xlink="http://www.w3.org/1999/xlink" x="0px" y="0px"
	 viewBox="0 0 148.72 117.54" style="enable-background:new 0 0 148.72 117.54;" xml:space="preserve">
<g id="Group_1217" transform="translate(-605.575 -285.356)">
	<path id="Path_6629" style="fill:#F6EBE8;" d="M634.27,320c4.97-14.32,14.13-21.1,27.63-26.15c12.87-4.81,27.81-11.89,40.03-6.03
		c25.61,12.28,39.8,22.47,26.6,73.28c-2.98,11.48-66.06,28.7-74.13,24.08C630.49,371.5,625.63,344.9,634.27,320z"/>
	<g id="Group_1215">
		
			<line id="Line_21" style="fill:none;stroke:#2A3F55;stroke-width:0.5;stroke-miterlimit:10;" x1="621.59" y1="351.13" x2="652.64" y2="337.38"/>
		
			<line id="Line_22" style="fill:none;stroke:#2A3F55;stroke-width:0.5;stroke-miterlimit:10;" x1="620.87" y1="358.37" x2="649.84" y2="372.44"/>
		
			<line id="Line_23" style="fill:none;stroke:#2A3F55;stroke-width:0.5;stroke-miterlimit:10;" x1="657.71" y1="371.02" x2="685.82" y2="346.63"/>
		
			<line id="Line_24" style="fill:none;stroke:#2A3F55;stroke-width:0.5;stroke-miterlimit:10;" x1="690.83" y1="340.64" x2="686.84" y2="301.73"/>
		
			<line id="Line_25" style="fill:none;stroke:#2A3F55;stroke-width:0.5;stroke-miterlimit:10;" x1="651.22" y1="329.51" x2="618.58" y2="323.22"/>
		
			<line id="Line_26" style="fill:none;stroke:#2A3F55;stroke-width:0.5;stroke-miterlimit:10;" x1="615.9" y1="319.64" x2="649.9" y2="305.36"/>
		
			<line id="Line_27" style="fill:none;stroke:#2A3F55;stroke-width:0.5;stroke-miterlimit:10;" x1="613.03" y1="326.25" x2="612.65" y2="346.65"/>
		
			<line id="Line_28" style="fill:none;stroke:#2A3F55;stroke-width:0.5;stroke-miterlimit:10;" x1="655.63" y1="303.31" x2="677.55" y2="295.28"/>
		
			<line id="Line_29" style="fill:none;stroke:#2A3F55;stroke-width:0.5;stroke-miterlimit:10;" x1="693.29" y1="292.43" x2="727.01" y2="293.45"/>
		
			<line id="Line_30" style="fill:none;stroke:#2A3F55;stroke-width:0.5;stroke-miterlimit:10;" x1="711.78" y1="321.61" x2="716.69" y2="331.9"/>
		
			<line id="Line_31" style="fill:none;stroke:#2A3F55;stroke-width:0.5;stroke-miterlimit:10;" x1="693.51" y1="344.22" x2="712.39" y2="341.82"/>
		
			<line id="Line_32" style="fill:none;stroke:#2A3F55;stroke-width:0.5;stroke-miterlimit:10;" x1="658.06" y1="372.99" x2="705.11" y2="374.64"/>
		
			<line id="Line_33" style="fill:none;stroke:#2A3F55;stroke-width:0.5;stroke-miterlimit:10;" x1="692.25" y1="348.51" x2="705.03" y2="368.56"/>
		
			<line id="Line_34" style="fill:none;stroke:#2A3F55;stroke-width:0.5;stroke-miterlimit:10;" x1="686.09" y1="342.51" x2="666.24" y2="333.91"/>
		
			<line id="Line_35" style="fill:none;stroke:#2A3F55;stroke-width:0.5;stroke-miterlimit:10;" x1="730.32" y1="294.88" x2="745.08" y2="387.74"/>
		
			<line id="Line_36" style="fill:none;stroke:#2A3F55;stroke-width:0.5;stroke-miterlimit:10;" x1="712.71" y1="377.33" x2="739.71" y2="391.76"/>
		
			<line id="Line_37" style="fill:none;stroke:#2A3F55;stroke-width:0.5;stroke-miterlimit:10;" x1="724.28" y1="345.77" x2="742.12" y2="388.27"/>
		
			<line id="Line_38" style="fill:none;stroke:#2A3F55;stroke-width:0.5;stroke-miterlimit:10;" x1="720.62" y1="331.19" x2="728.35" y2="295.24"/>
	</g>
	<g id="Group_1216">
		<circle id="Ellipse_73" style="fill:none;stroke:#2A3F55;stroke-miterlimit:10;" cx="614.08" cy="354.52" r="8"/>
		<circle id="Ellipse_74" style="fill:none;stroke:#2A3F55;stroke-miterlimit:10;" cx="653.7" cy="371.62" r="4.22"/>
		<circle id="Ellipse_75" style="fill:none;stroke:#2A3F55;stroke-miterlimit:10;" cx="614.42" cy="322.94" r="3.65"/>
		<circle id="Ellipse_76" style="fill:none;stroke:#2A3F55;stroke-miterlimit:10;" cx="658.82" cy="332.2" r="8"/>
		<circle id="Ellipse_77" style="fill:none;stroke:#2A3F55;stroke-miterlimit:10;" cx="689.59" cy="344.75" r="4.15"/>
		<circle id="Ellipse_78" style="fill:none;stroke:#2A3F55;stroke-miterlimit:10;" cx="652.99" cy="303.81" r="2.98"/>
		<circle id="Ellipse_79" style="fill:none;stroke:#2A3F55;stroke-miterlimit:10;" cx="720.08" cy="339.42" r="8"/>
		<circle id="Ellipse_80" style="fill:none;stroke:#2A3F55;stroke-miterlimit:10;" cx="746.25" cy="394.85" r="7.55"/>
		<circle id="Ellipse_81" style="fill:none;stroke:#2A3F55;stroke-miterlimit:10;" cx="709.67" cy="372.02" r="5.48"/>
		<circle id="Ellipse_82" style="fill:none;stroke:#2A3F55;stroke-miterlimit:10;" cx="685.42" cy="293.86" r="8"/>
		<circle id="Ellipse_83" style="fill:none;stroke:#2A3F55;stroke-miterlimit:10;" cx="708.94" cy="317.44" r="5.06"/>
		<circle id="Ellipse_84" style="fill:none;stroke:#2A3F55;stroke-miterlimit:10;" cx="729.75" cy="292.69" r="2.56"/>
	</g>
</g>
</svg>
