<?xml version="1.0" encoding="UTF-8" standalone="no"?>
<!-- Generator: Adobe Illustrator 25.0.0, SVG Export Plug-In . SVG Version: 6.00 Build 0)  -->

<svg
   xmlns:dc="http://purl.org/dc/elements/1.1/"
   xmlns:cc="http://creativecommons.org/ns#"
   xmlns:rdf="http://www.w3.org/1999/02/22-rdf-syntax-ns#"
   xmlns:svg="http://www.w3.org/2000/svg"
   xmlns="http://www.w3.org/2000/svg"
   xmlns:sodipodi="http://sodipodi.sourceforge.net/DTD/sodipodi-0.dtd"
   xmlns:inkscape="http://www.inkscape.org/namespaces/inkscape"
   version="1.1"
   id="Layer_1"
   x="0px"
   y="0px"
   viewBox="0 0 581.14 513.48"
   style="enable-background:new 0 0 581.14 513.48;"
   xml:space="preserve"
   sodipodi:docname="rl2_sv.svg"
   inkscape:version="0.92.5 (2060ec1f9f, 2020-04-08)"><metadata
   id="metadata151"><rdf:RDF><cc:Work
       rdf:about=""><dc:format>image/svg+xml</dc:format><dc:type
         rdf:resource="http://purl.org/dc/dcmitype/StillImage" /><dc:title></dc:title></cc:Work></rdf:RDF></metadata><defs
   id="defs149">
	

		
		
		
		
		
		
		
		
		
		
		
		
		
		
		
		
		
		
		
		
		
		
		
		
		
		
		
		
		
		
		
		
		
		
		
		
		
		
		
		
		
		
		
		
		
		
		
		
		
		
		
		
		
		
		
		
		
		
		
		
		
		
		
		
		
		
		
		
		
		
		
	</defs><sodipodi:namedview
   pagecolor="#ffffff"
   bordercolor="#666666"
   borderopacity="1"
   objecttolerance="10"
   gridtolerance="10"
   guidetolerance="10"
   inkscape:pageopacity="0"
   inkscape:pageshadow="2"
   inkscape:window-width="2560"
   inkscape:window-height="1324"
   id="namedview147"
   showgrid="false"
   inkscape:zoom="1.2999704"
   inkscape:cx="-71.004454"
   inkscape:cy="266.22563"
   inkscape:window-x="0"
   inkscape:window-y="27"
   inkscape:window-maximized="1"
   inkscape:current-layer="Layer_1" />
<path
   style="fill:#ffffff;stroke:#3a393e;stroke-miterlimit:10"
   d="m 282.26,469.87 c 49.05,0 88.82,-39.77 88.82,-88.82 0,-49.05 -39.77,-88.82 -88.82,-88.82 -49.05,0 -88.82,39.77 -88.82,88.82 0.01,49.05 39.77,88.81 88.82,88.82 z"
   id="path2"
   inkscape:connector-curvature="0" /><path
   style="fill:#e3f3fd"
   d="m 314.8,345.52 c 7.07,-0.02 12.79,-5.76 12.77,-12.83 -0.02,-7.07 -5.76,-12.79 -12.83,-12.77 -7.06,0.02 -12.78,5.75 -12.77,12.81 0.01,7.07 5.76,12.8 12.83,12.79 z"
   id="path4"
   inkscape:connector-curvature="0" /><path
   style="fill:#c0e2f1"
   d="m 314.8,340.93 c 4.53,0.01 8.2,-3.66 8.21,-8.19 0.01,-4.53 -3.66,-8.2 -8.19,-8.21 -4.53,-0.01 -8.2,3.66 -8.21,8.19 0,0.01 0,0.01 0,0.02 0,4.52 3.67,8.19 8.19,8.19 z"
   id="path6"
   inkscape:connector-curvature="0" /><path
   style="fill:#d3daef"
   d="m 248.77,450.34 c 8.83,4.77 20.44,7.77 33.17,7.77 12.73,0 24.41,-3 33.24,-7.81 -2.12,-27 6.05,-35.14 7.93,-36.65 -5.26,-3.72 -12.58,-6.63 -21.14,-8.72 -6.55,-1.59 -13.26,-2.38 -20,-2.36 -6.63,-0.02 -13.24,0.75 -19.7,2.27 -8.69,2.1 -16.12,5 -21.44,8.79 1.76,1.39 10.14,9.46 7.94,36.71 z"
   id="path8"
   inkscape:connector-curvature="0" /><path
   style="fill:#969aad"
   d="m 315.18,450.3 c 10.27,-5.57 16.79,-13.52 16.79,-21.89 0,-5.92 -3.25,-10.82 -8.81,-14.76 -1.93,1.51 -10.1,9.68 -7.98,36.65 z"
   id="path10"
   inkscape:connector-curvature="0" /><path
   style="fill:#969aad"
   d="m 231.97,428.41 c 0,8.38 6.5,16.36 16.82,21.93 2.16,-27.25 -6.18,-35.32 -8,-36.73 -5.57,3.95 -8.82,8.86 -8.82,14.8 z"
   id="path12"
   inkscape:connector-curvature="0" /><path
   style="fill:#ffffff"
   d="m 282.26,454.55 c 13.14,-0.01 23.8,-10.67 23.79,-23.81 -0.01,-13.14 -10.67,-23.8 -23.81,-23.79 -13.14,0.01 -23.79,10.66 -23.79,23.8 0.02,13.14 10.67,23.79 23.81,23.8 z"
   id="path14"
   inkscape:connector-curvature="0" /><path
   style="fill:#3b3b3b"
   d="m 244.72,376.04 4.29,2.3 h 4.3 v -16.83 h -8.59 z"
   id="path16"
   inkscape:connector-curvature="0" /><path
   style="fill:none;stroke:#e0e0e2;stroke-miterlimit:10"
   d="m 248.97,361.51 v 16.83"
   id="path18"
   inkscape:connector-curvature="0" /><path
   style="fill:#3b3b3b"
   d="m 319.06,376.04 -4.3,2.3 h -4.3 v -16.83 h 8.6 z"
   id="path20"
   inkscape:connector-curvature="0" /><path
   style="fill:#969aad"
   d="m 251.27,368.05 c -0.03,16.98 13.71,30.78 30.69,30.81 16.98,0.03 30.78,-13.71 30.81,-30.69 0.02,-8.39 -3.4,-16.42 -9.45,-22.24 -1.05,-1.01 -2.17,-1.95 -3.35,-2.8 -13.76,-9.94 -32.98,-6.84 -42.92,6.92 -3.78,5.24 -5.82,11.54 -5.82,18 z"
   id="path22"
   inkscape:connector-curvature="0" /><path
   style="fill:none;stroke:#e0e0e2;stroke-miterlimit:10"
   d="m 314.76,361.51 v 16.83"
   id="path24"
   inkscape:connector-curvature="0" /><path
   style="fill:none;stroke:#3a393e;stroke-miterlimit:10"
   d="m 312.76,361.51 2,-28.24"
   id="path26"
   inkscape:connector-curvature="0" /><path
   style="fill:#1c3b40"
   d="m 311.21,332.71 c 0.01,1.98 1.62,3.57 3.6,3.56 1.98,-0.01 3.57,-1.62 3.56,-3.6 -0.01,-1.97 -1.6,-3.55 -3.57,-3.56 -1.98,0.01 -3.59,1.62 -3.59,3.6 z"
   id="path28"
   inkscape:connector-curvature="0" /><path
   style="fill:#d3daef"
   d="m 261.2,345.42 v 26.75 l 21.06,14.56 21.06,-14.56 v -26.24 c -1.05,-1.01 -2.17,-1.95 -3.35,-2.8 -11.83,-8.58 -28.07,-7.62 -38.81,2.29 z"
   id="path30"
   inkscape:connector-curvature="0" /><path
   style="fill:#ffffff"
   d="m 312.45,329.99 c 0.46,1.07 1.69,1.56 2.76,1.1 0.66,-0.28 1.12,-0.88 1.24,-1.58 -0.51,-0.26 -1.07,-0.4 -1.64,-0.4 -0.87,0 -1.71,0.31 -2.36,0.88 z"
   id="path32"
   inkscape:connector-curvature="0" /><path
   style="fill:#3b3b3b"
   d="m 262.24,404.82 c 6.54,1.62 13.26,2.39 20,2.29 6.64,0.1 13.27,-0.63 19.73,-2.18 -13.05,-3.12 -26.65,-3.15 -39.71,-0.09 z"
   id="path34"
   inkscape:connector-curvature="0" /><path
   style="fill:#e3f3fd"
   d="m 282.26,446.93 c 8.91,0 16.14,-7.23 16.14,-16.14 0,-8.91 -7.23,-16.14 -16.14,-16.14 -8.91,0 -16.14,7.23 -16.14,16.14 0,8.91 7.23,16.14 16.14,16.14 z"
   id="path36"
   inkscape:connector-curvature="0" /><path
   style="fill:#3b3b3b"
   d="m 282.26,443.82 c 7.22,0 13.07,-5.85 13.07,-13.07 0,-7.22 -5.85,-13.07 -13.07,-13.07 -7.22,0 -13.07,5.85 -13.07,13.07 0.01,7.21 5.86,13.06 13.07,13.07 z"
   id="path38"
   inkscape:connector-curvature="0" /><path
   style="fill:#a5b2a6"
   d="m 282.26,440.75 c 5.52,0 10,-4.48 10,-10 0,-5.52 -4.48,-10 -10,-10 -5.52,0 -10,4.48 -10,10 0,5.52 4.48,10 10,10 z"
   id="path40"
   inkscape:connector-curvature="0" /><path
   style="fill:#ffffff"
   d="m 283.28,432.78 c 2.26,0 4.1,-1.84 4.1,-4.1 0,-2.26 -1.84,-4.1 -4.1,-4.1 -2.26,0 -4.1,1.84 -4.1,4.1 0,0 0,0.01 0,0.01 0,2.26 1.83,4.09 4.09,4.09 0,0 0.01,0 0.01,0 z"
   id="path42"
   inkscape:connector-curvature="0" /><path
   style="fill:#e3f3fd"
   d="m 279.15,436.93 c 1.13,0 2.05,-0.92 2.05,-2.05 0,-1.13 -0.92,-2.05 -2.05,-2.05 -1.13,0 -2.05,0.92 -2.05,2.05 v 0 c 0,1.13 0.92,2.05 2.05,2.05 z"
   id="path44"
   inkscape:connector-curvature="0" /><path
   style="fill:none;stroke:#3a393e;stroke-miterlimit:10"
   d="m 296.71,423.64 -2.6,1.53"
   id="path46"
   inkscape:connector-curvature="0" /><path
   style="fill:none;stroke:#3a393e;stroke-miterlimit:10"
   d="m 295.46,421.51 -2.6,1.54"
   id="path48"
   inkscape:connector-curvature="0" /><path
   style="fill:none;stroke:#3a393e;stroke-miterlimit:10"
   d="m 271.61,438.43 -2.64,1.5"
   id="path50"
   inkscape:connector-curvature="0" /><path
   style="fill:none;stroke:#3a393e;stroke-miterlimit:10"
   d="m 270.36,436.3 -2.6,1.53"
   id="path52"
   inkscape:connector-curvature="0" /><path
   style="fill:#a5b2a6"
   d="m 264.43,342.82 0.32,1.56 c 0.4,1.92 1.46,3.65 3,4.87 v 0 c 0.9,0.72 1.95,1.24 3.06,1.54 l 11.46,3.05 11.46,-3.05 c 3.06,-0.83 5.38,-3.32 6,-6.42 l 0.25,-1.24 c -10.59,-7.65 -24.86,-7.77 -35.58,-0.31 z"
   id="path54"
   inkscape:connector-curvature="0" /><path
   style="fill:#3a393e;stroke:#ffffff;stroke-miterlimit:10"
   d="m 294.68,369.93 c 1.07,0 1.94,-0.87 1.94,-1.94 v 0 -6.78 c 0.08,-1.07 -0.73,-2 -1.8,-2.07 -1.07,-0.08 -2,0.73 -2.07,1.8 -0.01,0.09 -0.01,0.19 0,0.28 V 368 c 0,1.06 0.86,1.92 1.93,1.93 z"
   id="path56"
   inkscape:connector-curvature="0" /><path
   style="fill:#3a393e;stroke:#ffffff;stroke-miterlimit:10"
   d="m 269.19,369.93 c 1.07,0 1.94,-0.87 1.94,-1.94 v 0 -6.78 c 0,-1.07 -0.87,-1.94 -1.94,-1.94 -1.07,0 -1.94,0.87 -1.94,1.94 v 6.78 c 0,1.07 0.87,1.94 1.94,1.94 z"
   id="path58"
   inkscape:connector-curvature="0" /><path
   style="fill:none;stroke:#3a393e;stroke-miterlimit:10"
   d="m 284.34,381.05 -2.24,1.79 -2.25,-1.79"
   id="path60"
   inkscape:connector-curvature="0" /><path
   style="fill:#ffffff"
   d="m 303.84,311.16 -3,-1.55 c -0.21,-0.12 -0.41,0.21 -0.19,0.33 l 3,1.55 c 0.22,0.1 0.41,-0.22 0.19,-0.33 z"
   id="path62"
   inkscape:connector-curvature="0" /><path
   style="fill:none;stroke:#1c3b40;stroke-width:3;stroke-linecap:round;stroke-miterlimit:10"
   d="m 399.23,378.34 c 6.85,-5.39 63.45,-51.5 63.1,-130.48 -0.25,-58 -31.11,-98 -49.82,-117"
   id="path134"
   inkscape:connector-curvature="0" /><polygon
   style="fill:#1c3b40"
   points="415.11,133.52 411.04,144.88 399.23,118.85 426.11,128.56 "
   id="polygon136" /><path
   style="fill:none;stroke:#1c3b40;stroke-width:3;stroke-linecap:round;stroke-miterlimit:10"
   d="m 183.97,118.85 c -6.85,5.38 -63.45,51.49 -63.1,130.47 0.25,58.05 31.11,98 49.82,117"
   id="path138"
   inkscape:connector-curvature="0" /><polygon
   style="fill:#1c3b40"
   points="168.08,363.67 172.15,352.31 183.96,378.34 157.07,368.63 "
   id="polygon140" /><g
   id="layer1">
			<path
   id="path2309"
   style="clip-rule:evenodd;fill:#a5b2a6;fill-rule:evenodd;stroke:#a5b2a6;stroke-miterlimit:10"
   d="m 293.65,39.49 -109.54,37.5 v 5.43 l -6.87,3.1 -0.07,1.33 100.44,68 52.74,-19.71 v -1.21 l -0.15,-0.05 0.15,-0.05 -6.69,-3.82 v -7.08 l 2.57,1.91 8,-2.91 3.47,2.61 -4.12,2.06 0.2,0.15 -0.05,1.06 6,4.42 50.92,-18.7 v -1 l -5,-3.75 v -7.14 z m -0.15,0.8 90.83,61 -42.87,15 -7.14,-5.36 -7.84,2.91 -2.51,-1.86 33,-12.27 -29.41,-21 3.17,-1.46 32.43,23.23 -24.94,9.1 4.73,4 36.82,-12.65 -49.27,-33.74 -27.4,10.61 -3.21,-1.87 27.9,-10.51 -34.82,-23.92 -25.76,9.43 21.06,14.7 18.5,-6.48 -12.57,-7.9 -11.16,4.88 -2.41,-2.2 13.88,-5.28 16.94,11.28 -23.48,8.42 -6.13,-4.18 -18.1,7.19 -2.36,-1.76 18.09,-7.34 -14.72,-10.33 -32.13,11.29 8,7.09 18.76,-7 3.11,2.16 -38.62,13.94 -2.91,-2 16.64,-6.13 -7.94,-7.14 -40.32,13.51 19.75,12.46 22.47,-8.44 2.82,1.71 -22.27,8.79 25,16.44 33,-12.21 -12.55,-11.11 -15.54,5.64 -3,-1.66 32.28,-11.61 1.91,1.6 -13.84,5.32 13,11 30.21,-11.41 14.08,8.3 12.56,-5 2.12,1.31 -12.52,5 10.51,6.69 -30.57,12.52 -13.78,-10 2.57,-1 11.26,8.9 26.59,-10.46 -23.35,-14.09 -7.54,3 17.09,10.05 -3,1.51 -17,-10.61 -31.98,12.04 20.51,15.43 -12.82,5.33 -2.52,-1.51 11.42,-4.22 -19.41,-14.07 -17.74,6.73 38.45,26.34 23.73,-8.14 -14,-10 3.11,-1.15 13.18,10.25 15.08,-5.32 -9.71,-7.6 2.27,-0.8 10.91,9 -44.6,16.09 -91.66,-61.85 z m -0.85,2.06 v 6.19 l -13,5.18 v 2.76 l -2.17,0.75 -9.1,-6.18 z m 0.7,0.16 33.13,22.77 -8.85,3.27 -5,-3.42 v -4.88 l -17.87,-12.57 -1.41,0.56 z m 0.35,10 v 9.1 l -6.38,2.32 -4.18,-2.91 v -4.39 z m 0.71,0 10.65,6.42 -9.35,3.42 -1.3,-0.8 z m -30.22,0.42 v 9.25 l -3.72,1.31 -0.9,-0.65 -18.45,6.83 -7.39,-6.38 z m 0.71,0.2 13,9.1 -8.1,3.32 -4.87,-3.47 z m 15.48,1.41 2.06,1.91 v 4.12 l -2.06,-1.4 z m -0.7,2.57 v 1.55 l -1.51,-1 z m 32.29,3.39 v 9.2 l -23.3,8.45 c -0.21,-0.13 -0.43,-0.25 -0.65,-0.35 V 69 Z m -17.9,1.91 0.51,0.3 -5.86,2.22 -0.6,-0.36 z m -29.63,0.52 4.33,3 -5.23,2.16 -0.15,-2.41 -2.16,-1.66 z m -35.29,1.9 v 9 l -9.1,3.51 v 0.2 l -19.6,6.59 -9.81,-6.2 z m 0.71,0 6.68,6.1 -6.68,2.56 z m 51.58,0.1 v 9.5 l -8.8,3.5 -1,-0.86 -7.64,2.72 v -8.2 z m 0.7,0.35 5.18,3.65 v 8.55 l -0.05,0.1 c -0.33,-0.09 -0.66,-0.16 -1,-0.21 l -4.17,-2.86 z m 30.51,0.55 4.28,3 -4.28,1.56 z m -49.82,0 v 2.52 l -2.76,1.1 v 6.94 l -24,8.65 v -1.66 l -4.55,-2.45 -10.81,4.13 v -7.21 l 2.81,2.16 z m 67.32,2 v 9 l -3.92,1.71 0.35,0.25 -19.46,7.44 -3.82,-2.26 v -5.72 z m 0.7,0.35 47.27,32.43 -9,3.07 -38.21,-27.2 z m -70,1.77 2.49,1.98 v 8.1 l -1.11,0.4 -1.41,-0.7 z m 51.38,0.15 -0.05,0.35 -13.6,5.28 -0.15,9.56 -25.69,9.5 -3.87,-3.22 5.38,-2 v -10 l -1.21,-1.26 8.5,-3.22 3.16,2.21 c -0.42,0 -0.84,-0.07 -1.25,-0.1 -3,0 -5.49,-0.45 -6.84,2.57 v 0 l 0.05,6 c 4.73,3.43 8.57,2.12 13.62,0.3 l -0.2,-6.23 0.1,-0.15 c -0.22,-0.46 -0.55,-0.85 -0.95,-1.16 z m -13.07,5.83 3.47,2.26 v 5.54 l -3.47,1.31 z m -39.06,1 v 3 l 1.46,0.6 -23.59,8.53 0.05,10.3 3.62,2.27 15.08,-5.18 0.6,-0.15 3.32,3 -23.39,8.63 -14.48,-9.35 13.37,-5.23 v -7.74 z m -75.26,0.4 92.4,61.89 v 9.3 l -92.4,-62.09 z m 98.59,0 c 0.98,-0.05 1.96,0.06 2.91,0.31 0.12,0 0.28,0.06 0.4,0.1 1.09,0.35 2.07,0.99 2.82,1.86 -1.18,2.11 -3.85,2.15 -6.13,2.31 -2.64,0.11 -5.42,0 -6.14,-2.31 0.93,-2.3 3.84,-2.01 6.11,-2.16 z m -63.4,0.61 v 7.24 l -11,4.22 -7.89,-5 z m 61.54,0.15 c -1.42,0.12 -2.49,0.69 -2.82,1.61 1,1.5 2.59,1.42 4.32,1.56 2.06,0.27 3.75,-0.51 4.33,-1.56 -0.94,-1.49 -2.62,-1.43 -4.33,-1.56 -0.51,-0.03 -1.02,-0.01 -1.53,0.06 z m 2.06,0.35 c 0.18,-0.01 0.37,-0.01 0.55,0 1.05,0.04 2.04,0.49 2.76,1.26 -0.88,1.28 -2.6,1.06 -3.87,1.15 -1.49,0.29 -3.51,-0.26 -3.62,-1.15 0.13,-1.63 2.35,-1.1 3.62,-1.21 0.18,0.01 0.36,0.03 0.53,0.06 z m 43.53,0.76 28.06,20.25 -8.2,3.12 -14.38,-10.2 0.05,-3.42 -3.45,-2.02 -2.11,0.8 z m -0.7,0.2 v 8.54 l -9.85,3.82 -8.85,-5.23 z m -52.94,0.3 v 9.45 l -5,1.91 -8,-6.59 z m 16.14,0.7 0.15,5.23 c -3.94,1.83 -9.3,2.78 -12.67,-0.35 v -4.27 c 1.19,1.77 4.06,1.48 6.29,1.61 2.54,0.04 4.88,-0.54 6.2,-2.11 z m -105.55,2.37 v 4 l 93.25,62.74 46.3,-16.38 v -2.2 l 5,3 -51.18,19 -99.45,-67.14 6.08,-3 z m 51.28,0.91 v 9.3 l -13.17,5.33 -9.25,-6 z m -57.82,2.25 99.84,67.51 -0.05,0.71 -99.84,-67.4 v -0.81 z m 79.18,0.35 v 9.4 l -14.38,5.18 v -9.64 z m 0.71,0 11.31,10 -7.19,2.65 -4,-3.57 z m 44.84,0.86 21.66,13 -9.55,3.82 -2,-1.16 V 99.58 L 302.26,93.4 Z m -0.71,0.1 v 5.78 l -6,-3.57 z m 30.32,2 v 9.35 l -2.47,1 -9.6,-5.68 z m -93.16,0.2 2.92,1.66 v 9.65 l -2.92,-1.71 z m 52.39,1.71 v 9.3 l -3.17,1.22 -0.35,-0.25 -3.77,1.36 -0.15,0.51 -14.38,5.47 -8.6,-6.18 z m 0.7,0 16.34,10 v 5.18 l -4.62,1.86 -11.72,-7.79 z m 40.77,2.11 13.36,9.77 -15.13,5.78 v -8.14 l -0.7,-0.55 2.46,-1 z m -20.86,6.64 v 5.08 l -2.82,1.1 v -4.73 z m 18.4,0.85 v 8.2 l -7.09,2.76 -0.1,1.51 -7.34,2.86 -4.52,-3.62 -3.32,1.71 0.05,0.06 v 5 l -8.4,3.47 v -9.3 z m 33.64,0.15 v 4.63 l -20.82,7.31 -3.37,-3 z m -72.3,0.15 11.26,7.59 -3.78,1.53 -10.3,-7.94 z m 73,0.3 3.82,2.62 -3.82,1.31 z m 20.48,0.58 0.16,9.4 -43.24,14.93 v -9.4 z m -100.59,1.25 14.33,10.66 v 8.9 l -8.3,-6.28 -0.55,0.2 -5.48,-4 z m 28.05,0.21 1.41,0.85 -1.41,0.55 z m -28.75,0.7 v 8.75 l 5.53,4.07 -3,1.1 -0.15,10.06 4.17,3.17 -12.62,4.37 -5.52,-3.77 9.4,-3.87 v -10.04 l -11.52,-8.66 z m -26.9,0 18.05,13 -8.4,3.32 -9.65,-7 z m -0.7,0.2 v 9.3 l -6.84,2.61 -8.9,-6 z m 129.6,5.13 3.72,3 -49.77,18 -5.08,-3.72 3.67,-1.76 3.27,2.47 44.19,-15.69 z m -51.93,2.51 v 9.2 l -7.09,2.67 v -9.3 z m 0.7,0 6.74,5.08 v 9.1 l -6.74,-5.13 z m 55.56,0.71 0.15,0.45 -50.43,18.35 -5.58,-3.82 -0.05,-0.71 5.53,3.92 z m -66.37,0 2.32,2 v 8.74 l -2.32,-1.45 z m -67,1.4 9,6.49 -2,0.8 -0.1,4.53 -13.73,-9.3 z m 66.26,0 v 8.1 l -6.74,-5.58 z m -14.43,0.66 8.75,6.93 -8.14,2.82 -0.61,-0.65 z m -27.65,3.22 v 9.34 l -9.35,4 -4.22,-2.87 v -4.82 z m 6,0.35 12.66,9.55 -8.49,3 -4.13,-3.16 z m 21,1.71 v 4.17 l 0.6,0.55 -4.72,1.66 -4,-3 z m -43.48,1.95 2.32,1.66 v 4.53 l -2.32,-1.56 z m 58.63,1.26 v 9.25 l -45,16.25 v -9.46 z m 6.84,10.86 v 0.88 l -51.84,19.08 v -0.56 z"
   inkscape:connector-curvature="0" />
		</g>
<text
   xml:space="preserve"
   style="font-style:normal;font-variant:normal;font-weight:500;font-stretch:normal;font-size:29.27486038px;line-height:1.25;font-family:'CMU Sans Serif';-inkscape-font-specification:'CMU Sans Serif, Medium';font-variant-ligatures:normal;font-variant-caps:normal;font-variant-numeric:normal;font-feature-settings:normal;text-align:start;letter-spacing:0px;word-spacing:0px;writing-mode:lr-tb;text-anchor:start;fill:#000000;fill-opacity:1;stroke:none;stroke-width:0.73187149"
   x="259.76132"
   y="23.135111"
   id="text1185"><tspan
     sodipodi:role="line"
     id="tspan1183"
     x="259.76132"
     y="23.135111"
     style="stroke-width:0.73187149">Miljö</tspan></text>
<text
   xml:space="preserve"
   style="font-style:normal;font-variant:normal;font-weight:500;font-stretch:normal;font-size:28.27369308px;line-height:1.25;font-family:'CMU Sans Serif';-inkscape-font-specification:'CMU Sans Serif, Medium';font-variant-ligatures:normal;font-variant-caps:normal;font-variant-numeric:normal;font-feature-settings:normal;text-align:start;letter-spacing:0px;word-spacing:0px;writing-mode:lr-tb;text-anchor:start;fill:#000000;fill-opacity:1;stroke:none;stroke-width:0.70684236"
   x="1.2106968"
   y="232.90546"
   id="text1189"><tspan
     sodipodi:role="line"
     id="tspan1187"
     x="1.2106968"
     y="232.90546"
     style="stroke-width:0.70684236">Belöning,</tspan><tspan
     sodipodi:role="line"
     x="1.2106968"
     y="268.24756"
     id="tspan1191"
     style="stroke-width:0.70684236">situation</tspan></text>
<text
   xml:space="preserve"
   style="font-style:normal;font-variant:normal;font-weight:500;font-stretch:normal;font-size:28.45540237px;line-height:1.25;font-family:'CMU Sans Serif';-inkscape-font-specification:'CMU Sans Serif, Medium';font-variant-ligatures:normal;font-variant-caps:normal;font-variant-numeric:normal;font-feature-settings:normal;text-align:start;letter-spacing:0px;word-spacing:0px;writing-mode:lr-tb;text-anchor:start;fill:#000000;fill-opacity:1;stroke:none;stroke-width:0.71138507"
   x="477.25452"
   y="249.03786"
   id="text1195"><tspan
     sodipodi:role="line"
     id="tspan1193"
     x="477.25452"
     y="249.03786"
     style="stroke-width:0.71138507">Åtgärder</tspan></text>
<text
   xml:space="preserve"
   style="font-style:normal;font-variant:normal;font-weight:500;font-stretch:normal;font-size:27.73462868px;line-height:1.25;font-family:'CMU Sans Serif';-inkscape-font-specification:'CMU Sans Serif, Medium';font-variant-ligatures:normal;font-variant-caps:normal;font-variant-numeric:normal;font-feature-settings:normal;text-align:start;letter-spacing:0px;word-spacing:0px;writing-mode:lr-tb;text-anchor:start;fill:#000000;fill-opacity:1;stroke:none;stroke-width:0.69336575"
   x="250.58057"
   y="507.02924"
   id="text1199"><tspan
     sodipodi:role="line"
     id="tspan1197"
     x="250.58057"
     y="507.02924"
     style="stroke-width:0.69336575">Aktör</tspan></text>
</svg>