<?xml version="1.0" encoding="utf-8"?>
<!-- Generator: Adobe Illustrator 25.0.0, SVG Export Plug-In . SVG Version: 6.00 Build 0)  -->
<svg version="1.1" id="Layer_1" xmlns="http://www.w3.org/2000/svg" xmlns:xlink="http://www.w3.org/1999/xlink" x="0px" y="0px"
	 viewBox="0 0 581.14 513.48" style="enable-background:new 0 0 581.14 513.48;" xml:space="preserve">
<g id="Layer_2_1_">
	<g id="Layer_3">
		<path style="fill:#FFFFFF;stroke:#3A393E;stroke-miterlimit:10;" d="M282.26,469.87c49.05,0,88.82-39.77,88.82-88.82
			c0-49.05-39.77-88.82-88.82-88.82c-49.05,0-88.82,39.77-88.82,88.82C193.45,430.1,233.21,469.86,282.26,469.87z"/>
		<path style="fill:#E3F3FD;" d="M314.8,345.52c7.07-0.02,12.79-5.76,12.77-12.83c-0.02-7.07-5.76-12.79-12.83-12.77
			c-7.06,0.02-12.78,5.75-12.77,12.81C301.98,339.8,307.73,345.53,314.8,345.52L314.8,345.52z"/>
		<path style="fill:#C0E2F1;" d="M314.8,340.93c4.53,0.01,8.2-3.66,8.21-8.19s-3.66-8.2-8.19-8.21c-4.53-0.01-8.2,3.66-8.21,8.19
			c0,0.01,0,0.01,0,0.02C306.61,337.26,310.28,340.93,314.8,340.93L314.8,340.93z"/>
		<path style="fill:#D3DAEF;" d="M248.77,450.34c8.83,4.77,20.44,7.77,33.17,7.77s24.41-3,33.24-7.81
			c-2.12-27,6.05-35.14,7.93-36.65c-5.26-3.72-12.58-6.63-21.14-8.72c-6.55-1.59-13.26-2.38-20-2.36
			c-6.63-0.02-13.24,0.75-19.7,2.27c-8.69,2.1-16.12,5-21.44,8.79C242.59,415.02,250.97,423.09,248.77,450.34z"/>
		<path style="fill:#969AAD;" d="M315.18,450.3c10.27-5.57,16.79-13.52,16.79-21.89c0-5.92-3.25-10.82-8.81-14.76
			C321.23,415.16,313.06,423.33,315.18,450.3z"/>
		<path style="fill:#969AAD;" d="M231.97,428.41c0,8.38,6.5,16.36,16.82,21.93c2.16-27.25-6.18-35.32-8-36.73
			C235.22,417.56,231.97,422.47,231.97,428.41z"/>
		<path style="fill:#FFFFFF;" d="M282.26,454.55c13.14-0.01,23.8-10.67,23.79-23.81s-10.67-23.8-23.81-23.79
			c-13.14,0.01-23.79,10.66-23.79,23.8C258.47,443.89,269.12,454.54,282.26,454.55z"/>
		<path style="fill:#3B3B3B;" d="M244.72,376.04l4.29,2.3h4.3v-16.83h-8.59V376.04z"/>
		<path style="fill:none;stroke:#E0E0E2;stroke-miterlimit:10;" d="M248.97,361.51v16.83"/>
		<path style="fill:#3B3B3B;" d="M319.06,376.04l-4.3,2.3h-4.3v-16.83h8.6L319.06,376.04z"/>
		<path style="fill:#969AAD;" d="M251.27,368.05c-0.03,16.98,13.71,30.78,30.69,30.81c16.98,0.03,30.78-13.71,30.81-30.69
			c0.02-8.39-3.4-16.42-9.45-22.24c-1.05-1.01-2.17-1.95-3.35-2.8c-13.76-9.94-32.98-6.84-42.92,6.92c-3.78,5.24-5.82,11.54-5.82,18
			L251.27,368.05z"/>
		<path style="fill:none;stroke:#E0E0E2;stroke-miterlimit:10;" d="M314.76,361.51v16.83"/>
		<path style="fill:none;stroke:#3A393E;stroke-miterlimit:10;" d="M312.76,361.51l2-28.24"/>
		<path style="fill:#1C3B40;" d="M311.21,332.71c0.01,1.98,1.62,3.57,3.6,3.56c1.98-0.01,3.57-1.62,3.56-3.6
			c-0.01-1.97-1.6-3.55-3.57-3.56C312.82,329.12,311.21,330.73,311.21,332.71z"/>
		<path style="fill:#D3DAEF;" d="M261.2,345.42v26.75l21.06,14.56l21.06-14.56v-26.24c-1.05-1.01-2.17-1.95-3.35-2.8
			c-11.83-8.58-28.07-7.62-38.81,2.29L261.2,345.42z"/>
		<path style="fill:#FFFFFF;" d="M312.45,329.99c0.46,1.07,1.69,1.56,2.76,1.1c0.66-0.28,1.12-0.88,1.24-1.58
			c-0.51-0.26-1.07-0.4-1.64-0.4C313.94,329.11,313.1,329.42,312.45,329.99z"/>
		<path style="fill:#3B3B3B;" d="M262.24,404.82c6.54,1.62,13.26,2.39,20,2.29c6.64,0.1,13.27-0.63,19.73-2.18
			c-13.05-3.12-26.65-3.15-39.71-0.09L262.24,404.82z"/>
		<path style="fill:#E3F3FD;" d="M282.26,446.93c8.91,0,16.14-7.23,16.14-16.14s-7.23-16.14-16.14-16.14s-16.14,7.23-16.14,16.14
			S273.35,446.93,282.26,446.93L282.26,446.93z"/>
		<path style="fill:#3B3B3B;" d="M282.26,443.82c7.22,0,13.07-5.85,13.07-13.07c0-7.22-5.85-13.07-13.07-13.07
			c-7.22,0-13.07,5.85-13.07,13.07C269.2,437.96,275.05,443.81,282.26,443.82z"/>
		<path style="fill:#A5B2A6;" d="M282.26,440.75c5.52,0,10-4.48,10-10s-4.48-10-10-10s-10,4.48-10,10S276.74,440.75,282.26,440.75z"
			/>
		<path style="fill:#FFFFFF;" d="M283.28,432.78c2.26,0,4.1-1.84,4.1-4.1c0-2.26-1.84-4.1-4.1-4.1c-2.26,0-4.1,1.84-4.1,4.1
			c0,0,0,0.01,0,0.01c0,2.26,1.83,4.09,4.09,4.09C283.27,432.78,283.28,432.78,283.28,432.78z"/>
		<path style="fill:#E3F3FD;" d="M279.15,436.93c1.13,0,2.05-0.92,2.05-2.05s-0.92-2.05-2.05-2.05c-1.13,0-2.05,0.92-2.05,2.05v0
			C277.1,436.01,278.02,436.93,279.15,436.93z"/>
		<path style="fill:none;stroke:#3A393E;stroke-miterlimit:10;" d="M296.71,423.64l-2.6,1.53"/>
		<path style="fill:none;stroke:#3A393E;stroke-miterlimit:10;" d="M295.46,421.51l-2.6,1.54"/>
		<path style="fill:none;stroke:#3A393E;stroke-miterlimit:10;" d="M271.61,438.43l-2.64,1.5"/>
		<path style="fill:none;stroke:#3A393E;stroke-miterlimit:10;" d="M270.36,436.3l-2.6,1.53"/>
		<path style="fill:#A5B2A6;" d="M264.43,342.82l0.32,1.56c0.4,1.92,1.46,3.65,3,4.87l0,0c0.9,0.72,1.95,1.24,3.06,1.54l11.46,3.05
			l11.46-3.05c3.06-0.83,5.38-3.32,6-6.42l0.25-1.24c-10.59-7.65-24.86-7.77-35.58-0.31H264.43z"/>
		<path style="fill:#3A393E;stroke:#FFFFFF;stroke-miterlimit:10;" d="M294.68,369.93c1.07,0,1.94-0.87,1.94-1.94l0,0v-6.78
			c0.08-1.07-0.73-2-1.8-2.07c-1.07-0.08-2,0.73-2.07,1.8c-0.01,0.09-0.01,0.19,0,0.28v6.78
			C292.75,369.06,293.61,369.92,294.68,369.93z"/>
		<path style="fill:#3A393E;stroke:#FFFFFF;stroke-miterlimit:10;" d="M269.19,369.93c1.07,0,1.94-0.87,1.94-1.94l0,0v-6.78
			c0-1.07-0.87-1.94-1.94-1.94s-1.94,0.87-1.94,1.94v6.78C267.25,369.06,268.12,369.93,269.19,369.93L269.19,369.93z"/>
		<path style="fill:none;stroke:#3A393E;stroke-miterlimit:10;" d="M284.34,381.05l-2.24,1.79l-2.25-1.79"/>
		<path style="fill:#FFFFFF;" d="M303.84,311.16l-3-1.55c-0.21-0.12-0.41,0.21-0.19,0.33l3,1.55
			C303.87,311.59,304.06,311.27,303.84,311.16z"/>
		<path d="M245.26,507.64l6.76-17.91h3.47l6.76,17.91h-3.07l-4.61-12.81l-0.81-2.58h-0.09l-0.76,2.53l-4.67,12.86H245.26z
			 M248.87,502.93v-2.37h9.69v2.37H248.87z"/>
		<path d="M272.67,505.53c1.14-0.07,2.27,0.25,3.21,0.9c0.76,0.61,1.18,1.55,1.14,2.52c0.02,0.89-0.3,1.76-0.9,2.42
			c-0.66,0.72-1.5,1.26-2.43,1.57c-1.13,0.38-2.32,0.56-3.51,0.54c-1.71,0.13-3.42-0.22-4.94-1c-0.96-0.51-1.57-1.49-1.6-2.58
			c-0.01-0.71,0.27-1.4,0.77-1.9c0.73-0.62,1.66-0.95,2.62-0.92l-0.16,0.43c-0.68-0.12-1.32-0.43-1.84-0.88
			c-0.48-0.48-0.73-1.14-0.69-1.81c-0.02-0.77,0.32-1.5,0.9-2c0.71-0.59,1.6-0.92,2.52-0.95l1.52,0.73h-0.31
			c-0.63,0.01-1.25,0.21-1.77,0.57c-0.3,0.25-0.49,0.61-0.51,1c-0.03,0.4,0.16,0.78,0.5,1c0.43,0.24,0.92,0.36,1.42,0.33
			L272.67,505.53z M270.07,493.8c1.06-0.02,2.12,0.17,3.11,0.57c0.8,0.34,1.5,0.89,2,1.6c0.96,1.47,0.96,3.36,0,4.83
			c-0.5,0.71-1.2,1.26-2,1.6c-0.99,0.4-2.05,0.59-3.11,0.57c-1.55,0.1-3.08-0.34-4.33-1.26c-0.99-0.81-1.55-2.04-1.51-3.32
			c-0.03-0.88,0.23-1.74,0.74-2.46c0.51-0.71,1.2-1.26,2-1.6C267.96,493.94,269.01,493.76,270.07,493.8z M270.18,511.31
			c0.83,0.02,1.65-0.08,2.45-0.29c0.53-0.13,1.02-0.38,1.44-0.73c0.3-0.25,0.47-0.61,0.48-1c0-0.39-0.18-0.77-0.5-1
			c-0.55-0.3-1.18-0.44-1.81-0.38h-4.37c-0.46-0.02-0.91,0.12-1.28,0.4c-0.33,0.25-0.53,0.65-0.51,1.07
			c0.03,0.65,0.46,1.21,1.08,1.41C268.12,511.18,269.15,511.35,270.18,511.31z M270.07,495.83c-0.75-0.02-1.49,0.22-2.08,0.7
			c-0.55,0.46-0.86,1.14-0.83,1.86c-0.02,0.72,0.28,1.41,0.83,1.87c1.23,0.95,2.95,0.95,4.18,0c0.55-0.46,0.85-1.15,0.83-1.87
			c0.03-0.72-0.28-1.4-0.83-1.86C271.58,496.05,270.83,495.8,270.07,495.83z M276.96,491.22l0.47,2.28h-0.17h-0.16
			c-0.71-0.05-1.42,0.15-2,0.56c-0.46,0.41-0.72,1-0.68,1.62l-1.41-0.66c-0.01-0.68,0.15-1.34,0.46-1.94
			c0.3-0.56,0.76-1.03,1.31-1.34c0.59-0.33,1.27-0.5,1.95-0.49h0.24L276.96,491.22z"/>
		<path d="M285.65,507.93c-1.25,0.03-2.48-0.26-3.58-0.84c-1.03-0.55-1.87-1.4-2.41-2.43c-1.13-2.4-1.13-5.17,0-7.57
			c0.54-1.03,1.36-1.87,2.38-2.43c1.06-0.57,2.25-0.86,3.45-0.84c1.17-0.04,2.33,0.24,3.36,0.81c0.9,0.53,1.64,1.3,2.12,2.23
			c0.5,0.99,0.75,2.09,0.73,3.2c0,0.33,0,0.64,0,0.93c-0.02,0.25-0.05,0.51-0.09,0.76h-10.93v-2.23h9.64l-1.44,0.43
			c0.07-1.03-0.26-2.04-0.92-2.83c-0.66-0.68-1.58-1.05-2.53-1c-0.7-0.01-1.4,0.17-2,0.54c-0.6,0.38-1.07,0.95-1.33,1.61
			c-0.33,0.83-0.49,1.72-0.47,2.62c-0.02,0.89,0.14,1.77,0.49,2.58c0.29,0.66,0.77,1.22,1.39,1.6c0.64,0.38,1.37,0.57,2.11,0.55
			c0.77,0.04,1.53-0.14,2.2-0.52c0.57-0.35,1.03-0.85,1.33-1.44l2.31,1.09c-0.32,0.65-0.77,1.22-1.32,1.69
			c-0.58,0.5-1.26,0.87-2,1.1C287.34,507.81,286.5,507.94,285.65,507.93z"/>
		<path d="M295.37,507.64v-13.57h2.6l0.19,3.53l-0.38-0.38c0.22-0.72,0.59-1.38,1.09-1.94c0.47-0.51,1.06-0.9,1.71-1.13
			c0.68-0.23,1.39-0.35,2.11-0.35c0.89-0.01,1.78,0.18,2.59,0.56c0.76,0.36,1.4,0.94,1.83,1.67c0.49,0.86,0.72,1.83,0.68,2.82v8.79
			h-2.9v-7.9c0.11-1-0.19-2-0.83-2.78c-0.57-0.51-1.31-0.79-2.08-0.77c-0.6,0-1.2,0.15-1.74,0.42c-0.58,0.3-1.06,0.77-1.39,1.34
			c-0.41,0.76-0.6,1.61-0.56,2.47v7.22L295.37,507.64z"/>
		<path d="M320.64,494.07v2.28h-10.18v-2.28H320.64z M315.97,490.07v13.49c-0.05,0.54,0.14,1.08,0.53,1.47
			c0.4,0.32,0.91,0.48,1.42,0.46c0.44,0.01,0.87-0.07,1.28-0.23c0.36-0.16,0.7-0.38,1-0.64l0.65,2.12
			c-0.45,0.38-0.97,0.67-1.53,0.85c-0.65,0.21-1.32,0.32-2,0.31c-0.73,0.01-1.46-0.12-2.15-0.38c-0.63-0.23-1.16-0.67-1.52-1.23
			c-0.39-0.68-0.59-1.46-0.57-2.24v-13.12L315.97,490.07z"/>
		<path d="M483.56,248.93l6.75-17.92h3.48l6.76,17.92h-3.07l-4.61-12.81l-0.82-2.58h-0.08l-0.76,2.52l-4.67,12.87H483.56z
			 M487.17,244.23v-2.36h9.69v2.36H487.17z"/>
		<path d="M508.88,235.08c0.95-0.02,1.89,0.14,2.78,0.48c0.74,0.3,1.4,0.76,1.94,1.34c0.53,0.58,0.94,1.26,1.2,2l-2.74,1.03
			c-0.18-0.73-0.57-1.4-1.13-1.91c-0.56-0.46-1.27-0.7-2-0.67c-0.74-0.02-1.46,0.18-2.09,0.56c-0.59,0.39-1.06,0.95-1.32,1.61
			c-0.32,0.83-0.47,1.72-0.45,2.61c-0.02,0.88,0.14,1.76,0.47,2.58c0.27,0.66,0.73,1.22,1.33,1.6c1.12,0.63,2.47,0.71,3.66,0.23
			c0.44-0.2,0.83-0.51,1.13-0.89c0.31-0.42,0.52-0.91,0.61-1.43l2.63,0.9c-0.24,0.79-0.64,1.51-1.18,2.13
			c-0.55,0.61-1.24,1.09-2,1.41c-0.87,0.35-1.81,0.52-2.75,0.5c-1.24,0.02-2.46-0.26-3.55-0.84c-1.04-0.54-1.89-1.37-2.45-2.39
			c-1.15-2.39-1.15-5.18,0-7.57c0.54-1.03,1.36-1.87,2.38-2.43C506.43,235.35,507.65,235.06,508.88,235.08z"/>
		<path d="M526.91,235.36v2.28h-10.18v-2.28H526.91z M522.24,231.36v13.49c-0.05,0.54,0.14,1.08,0.53,1.46
			c0.4,0.33,0.91,0.49,1.42,0.46c0.44,0.01,0.87-0.07,1.28-0.23c0.37-0.15,0.7-0.37,1-0.63l0.65,2.11
			c-0.45,0.39-0.97,0.68-1.53,0.86c-0.65,0.21-1.32,0.32-2,0.31c-0.73,0.01-1.46-0.12-2.15-0.38c-0.63-0.23-1.17-0.67-1.52-1.24
			c-0.39-0.68-0.59-1.45-0.57-2.23v-13.16L522.24,231.36z"/>
		<path d="M531.25,233.08c-0.53,0.04-1.05-0.13-1.45-0.48c-0.35-0.35-0.54-0.84-0.51-1.34c-0.03-0.5,0.15-0.98,0.51-1.33
			c0.4-0.34,0.92-0.5,1.45-0.46c0.51-0.04,1.02,0.13,1.42,0.46c0.36,0.35,0.54,0.83,0.51,1.33c0.03,0.5-0.16,0.99-0.51,1.34
			C532.28,232.94,531.77,233.11,531.25,233.08z M532.69,235.36v13.57h-2.91v-13.57H532.69z"/>
		<path d="M543.11,235.08c1.22-0.02,2.43,0.27,3.5,0.85c1.01,0.56,1.84,1.4,2.38,2.43c1.13,2.4,1.13,5.17,0,7.57
			c-0.54,1.03-1.37,1.87-2.38,2.43c-2.2,1.12-4.8,1.12-7,0c-1.01-0.56-1.84-1.41-2.39-2.43c-1.16-2.39-1.16-5.18,0-7.57
			c0.55-1.02,1.38-1.87,2.39-2.43C540.68,235.35,541.89,235.06,543.11,235.08z M543.11,237.37c-0.73-0.02-1.46,0.17-2.08,0.55
			c-0.59,0.39-1.05,0.96-1.31,1.62c-0.33,0.83-0.49,1.71-0.46,2.6c-0.03,0.89,0.13,1.77,0.46,2.6c0.26,0.66,0.72,1.23,1.31,1.62
			c0.62,0.39,1.35,0.58,2.08,0.56c0.73,0.03,1.45-0.17,2.06-0.56c0.59-0.4,1.04-0.96,1.3-1.62c0.33-0.83,0.49-1.71,0.47-2.6
			c0.03-0.89-0.14-1.78-0.47-2.6c-0.26-0.66-0.71-1.22-1.3-1.62C544.55,237.54,543.84,237.34,543.11,237.37L543.11,237.37z"/>
		<path d="M553.51,248.93v-13.57h2.58l0.18,3.53l-0.38-0.38c0.22-0.74,0.59-1.42,1.1-2c0.47-0.51,1.06-0.89,1.71-1.12
			c0.68-0.24,1.39-0.36,2.11-0.36c0.89-0.01,1.78,0.18,2.59,0.56c0.76,0.36,1.4,0.95,1.83,1.67c0.48,0.86,0.72,1.84,0.68,2.82v8.85
			h-2.94v-7.9c0.11-1-0.19-2-0.83-2.78c-0.56-0.52-1.31-0.8-2.08-0.78c-0.6,0-1.2,0.15-1.74,0.42c-0.58,0.31-1.06,0.78-1.39,1.35
			c-0.41,0.76-0.6,1.61-0.56,2.47v7.22H553.51z"/>
		<path d="M575.47,249.2c-1.28,0.02-2.55-0.25-3.72-0.79c-1.08-0.48-2-1.25-2.66-2.22l2-1.74c0.4,0.74,0.99,1.36,1.72,1.78
			c0.82,0.46,1.76,0.69,2.7,0.66c0.69,0.04,1.38-0.11,2-0.43c0.46-0.24,0.74-0.71,0.73-1.22c0.01-0.34-0.12-0.66-0.34-0.91
			c-0.35-0.33-0.8-0.54-1.28-0.61l-2.85-0.6c-1.15-0.15-2.23-0.64-3.1-1.4c-0.62-0.66-0.95-1.54-0.92-2.45
			c0-0.74,0.23-1.46,0.65-2.07c0.49-0.67,1.15-1.2,1.91-1.53c0.95-0.41,1.97-0.61,3-0.59c1.2-0.03,2.38,0.22,3.47,0.72
			c0.92,0.43,1.68,1.13,2.2,2l-2,1.69c-0.32-0.67-0.85-1.22-1.51-1.56c-1.1-0.58-2.39-0.69-3.58-0.31c-0.37,0.11-0.7,0.32-0.95,0.6
			c-0.46,0.54-0.42,1.34,0.08,1.84c0.42,0.34,0.93,0.56,1.47,0.63l3.09,0.65c1.04,0.12,2,0.57,2.76,1.29
			c0.53,0.61,0.82,1.4,0.8,2.21c0.01,0.81-0.23,1.61-0.68,2.29c-0.5,0.7-1.2,1.24-2,1.54C577.51,249.04,576.49,249.22,575.47,249.2z
			"/>
		<path d="M208.74,19.46V1.54h13v2.5h-10.09V9.2h7.87v2.44h-7.87v5.29h10.45v2.5L208.74,19.46z"/>
		<path d="M225.6,19.46V5.93h2.58l0.19,3.53l-0.38-0.38c0.22-0.72,0.59-1.38,1.1-1.94c0.46-0.54,1.05-0.96,1.71-1.21
			c0.67-0.24,1.38-0.36,2.1-0.35c0.89-0.02,1.78,0.17,2.59,0.55c0.76,0.36,1.4,0.95,1.83,1.67c0.49,0.86,0.72,1.83,0.68,2.82v8.8
			h-2.9v-7.9c0.11-1-0.19-2-0.83-2.78c-0.56-0.53-1.31-0.81-2.08-0.78c-0.6,0.01-1.19,0.15-1.73,0.43c-0.59,0.3-1.07,0.77-1.4,1.34
			c-0.41,0.76-0.6,1.61-0.56,2.47v7.22L225.6,19.46z"/>
		<path d="M250.97,5.93h3l-5.4,13.57h-3.18l-5.42-13.57h3.18l3.89,11L250.97,5.93z"/>
		<path d="M257.97,3.61c-0.53,0.04-1.05-0.13-1.45-0.48c-0.35-0.36-0.53-0.84-0.5-1.34c-0.03-0.49,0.15-0.98,0.5-1.33
			c0.41-0.33,0.93-0.5,1.45-0.46c0.52-0.04,1.03,0.13,1.43,0.46c0.35,0.35,0.53,0.84,0.5,1.33c0.03,0.5-0.15,0.98-0.5,1.34
			C259,3.47,258.49,3.64,257.97,3.61z M259.39,5.93v13.53h-2.9V5.93H259.39z"/>
		<path d="M263.97,19.46V5.93h2.46l0.28,2.44c0.31-0.82,0.88-1.52,1.61-2c0.79-0.5,1.71-0.76,2.65-0.75c0.27,0,0.54,0.02,0.81,0.06
			c0.24,0.04,0.46,0.11,0.68,0.21l-0.49,2.55c-0.22-0.07-0.44-0.13-0.66-0.18c-0.33-0.05-0.67-0.07-1-0.06
			c-0.58,0-1.15,0.15-1.66,0.44c-0.56,0.32-1.02,0.79-1.34,1.35c-0.38,0.7-0.56,1.49-0.53,2.28v7.19L263.97,19.46z"/>
		<path d="M280.7,5.62c1.22-0.02,2.42,0.26,3.5,0.84c1.02,0.57,1.85,1.43,2.38,2.47c0.59,1.17,0.89,2.47,0.85,3.78
			c0.04,1.31-0.26,2.62-0.85,3.79c-0.54,1.03-1.36,1.87-2.38,2.43c-2.2,1.12-4.8,1.12-7,0c-1.01-0.56-1.85-1.41-2.39-2.43
			c-0.61-1.17-0.91-2.47-0.87-3.79c-0.03-1.31,0.26-2.61,0.87-3.78c0.55-1.02,1.38-1.87,2.39-2.43
			C278.27,5.91,279.48,5.61,280.7,5.62z M280.7,7.9c-0.73-0.02-1.46,0.17-2.08,0.55c-0.59,0.39-1.05,0.96-1.31,1.62
			c-0.33,0.83-0.49,1.71-0.46,2.6c-0.03,0.89,0.13,1.77,0.46,2.6c0.25,0.68,0.71,1.26,1.31,1.66c0.62,0.39,1.35,0.58,2.08,0.56
			c1.48,0.08,2.83-0.8,3.37-2.18c0.32-0.83,0.48-1.71,0.46-2.6c0.02-0.89-0.13-1.77-0.46-2.6c-0.27-0.66-0.72-1.22-1.31-1.62
			c-0.62-0.39-1.33-0.58-2.06-0.56V7.9z"/>
		<path d="M291.1,19.46V5.93h2.58l0.18,3.53l-0.38-0.38c0.22-0.72,0.6-1.38,1.1-1.94c0.46-0.54,1.05-0.96,1.71-1.21
			c0.68-0.24,1.39-0.36,2.11-0.35c0.89-0.02,1.78,0.17,2.59,0.55c0.76,0.36,1.4,0.95,1.83,1.67c0.48,0.86,0.72,1.84,0.68,2.82v8.8
			h-2.9v-7.9c0.11-1-0.19-2-0.83-2.78c-0.56-0.52-1.31-0.8-2.08-0.78c-0.61,0.01-1.2,0.15-1.74,0.43c-0.58,0.3-1.07,0.77-1.39,1.34
			c-0.41,0.76-0.6,1.61-0.56,2.47v7.22L291.1,19.46z"/>
		<path d="M307.9,19.46V5.93h2.58l0.13,2.28c0.42-0.82,1.08-1.49,1.89-1.93c0.76-0.42,1.6-0.65,2.47-0.66
			c0.94-0.01,1.87,0.22,2.7,0.66c0.82,0.44,1.48,1.15,1.86,2c0.28-0.58,0.69-1.1,1.19-1.5c0.52-0.39,1.11-0.67,1.73-0.85
			c0.59-0.18,1.2-0.28,1.82-0.28c0.84,0,1.68,0.18,2.44,0.54c0.76,0.36,1.4,0.93,1.84,1.65c0.5,0.86,0.75,1.85,0.71,2.85v8.8h-2.9
			v-8.36c0.08-0.87-0.21-1.74-0.79-2.39c-0.55-0.5-1.26-0.76-2-0.74c-0.61,0-1.22,0.16-1.75,0.47c-0.55,0.32-1,0.8-1.29,1.37
			c-0.35,0.69-0.52,1.46-0.49,2.24v7.38h-2.9v-8.33c0.08-0.87-0.21-1.74-0.79-2.39c-0.55-0.5-1.26-0.76-2-0.74
			c-1.25,0.02-2.4,0.7-3,1.8c-0.4,0.75-0.59,1.59-0.55,2.44v7.22L307.9,19.46z"/>
		<path d="M339.63,19.73c-1.25,0.03-2.48-0.26-3.58-0.84c-1.03-0.55-1.87-1.4-2.41-2.43c-0.59-1.17-0.89-2.48-0.85-3.79
			c-0.04-1.31,0.26-2.61,0.85-3.78c0.54-1.03,1.37-1.87,2.38-2.43c1.06-0.57,2.25-0.86,3.45-0.84c1.17-0.04,2.33,0.24,3.36,0.81
			c0.91,0.52,1.66,1.29,2.14,2.23c0.5,0.99,0.75,2.09,0.73,3.2c0,0.33,0,0.63,0,0.92c-0.02,0.25-0.05,0.51-0.09,0.76h-10.95v-2.22
			h9.64l-1.44,0.43c0.07-1.02-0.25-2.03-0.89-2.82c-0.66-0.68-1.58-1.05-2.53-1c-0.71-0.01-1.4,0.18-2,0.55
			c-0.6,0.38-1.07,0.95-1.33,1.61c-0.33,0.83-0.49,1.72-0.46,2.62c-0.02,0.88,0.14,1.76,0.48,2.58c0.29,0.66,0.77,1.22,1.39,1.6
			c0.64,0.37,1.37,0.56,2.11,0.54c0.77,0.03,1.53-0.14,2.2-0.51c0.56-0.35,1.02-0.85,1.33-1.44l2.31,1.09
			c-0.32,0.65-0.77,1.22-1.32,1.69c-0.58,0.5-1.26,0.87-2,1.1C341.34,19.62,340.48,19.74,339.63,19.73z"/>
		<path d="M349.35,19.46V5.93h2.62l0.18,3.53l-0.38-0.38c0.22-0.72,0.6-1.38,1.1-1.94c0.45-0.54,1.02-0.95,1.67-1.21
			c0.68-0.24,1.39-0.36,2.11-0.35c0.89-0.02,1.78,0.17,2.59,0.55c0.76,0.36,1.4,0.95,1.83,1.67c0.48,0.86,0.72,1.84,0.68,2.82v8.8
			h-2.9v-7.9c0.11-1-0.19-2-0.83-2.78c-0.56-0.52-1.31-0.8-2.08-0.78c-0.61,0.01-1.2,0.15-1.74,0.43c-0.58,0.3-1.07,0.77-1.39,1.34
			c-0.41,0.76-0.6,1.61-0.56,2.47v7.22L349.35,19.46z"/>
		<path d="M374.62,5.93v2.28h-10.18V5.93H374.62z M369.97,1.93v13.46c-0.05,0.54,0.15,1.08,0.53,1.46c0.4,0.33,0.9,0.49,1.42,0.47
			c0.44,0.01,0.87-0.07,1.28-0.24c0.37-0.15,0.7-0.36,1-0.63l0.65,2.11c-0.45,0.39-0.97,0.68-1.53,0.86c-0.65,0.21-1.32,0.32-2,0.31
			c-0.73,0.01-1.46-0.12-2.15-0.38c-0.63-0.23-1.16-0.67-1.52-1.23c-0.39-0.68-0.59-1.46-0.57-2.24V2.71L369.97,1.93z"/>
		<path d="M8.97,216c1.65-0.09,3.28,0.42,4.58,1.44c1.13,0.96,1.75,2.4,1.69,3.88c0.09,1.49-0.54,2.94-1.69,3.9
			c-1.32,0.97-2.94,1.45-4.58,1.37l-0.27,0.16H4.51v7.18H1.63V216H8.97z M8.76,224.34c0.93,0.07,1.86-0.18,2.62-0.72
			c1.14-1.25,1.14-3.16,0-4.41c-0.76-0.55-1.69-0.81-2.62-0.74H4.51v5.87L8.76,224.34z M10.47,224.93l5.83,9h-3.33l-5-7.85
			L10.47,224.93z"/>
		<path d="M25.06,234.19c-1.25,0.03-2.48-0.26-3.59-0.84c-1.02-0.55-1.86-1.39-2.4-2.42c-1.13-2.4-1.13-5.18,0-7.58
			c0.54-1.02,1.37-1.86,2.38-2.42c1.05-0.58,2.24-0.87,3.44-0.85c1.18-0.03,2.34,0.25,3.37,0.82c0.9,0.52,1.64,1.29,2.12,2.22
			c0.5,1,0.75,2.1,0.73,3.21c0,0.32,0,0.63,0,0.92c-0.01,0.25-0.04,0.51-0.08,0.76H20.09v-2.23h9.64l-1.44,0.44
			c0.07-1.03-0.26-2.05-0.93-2.84c-0.65-0.68-1.57-1.05-2.52-1c-0.7-0.01-1.4,0.18-2,0.54c-0.6,0.39-1.06,0.96-1.33,1.62
			c-0.33,0.83-0.48,1.72-0.46,2.62c-0.02,0.88,0.15,1.76,0.49,2.58c0.29,0.66,0.77,1.22,1.38,1.6c0.62,0.38,1.33,0.58,2.05,0.59
			c0.77,0.03,1.53-0.14,2.2-0.51c0.58-0.36,1.05-0.88,1.36-1.49l2.31,1.08c-0.67,1.34-1.86,2.35-3.29,2.8
			C26.75,234.07,25.9,234.2,25.06,234.19z"/>
		<path d="M51.68,220.35h3.15l-4.56,13.58H47.1l-3.42-10.07l-3.23,10.07h-3.18l-4.53-13.57h3.12l3.11,10.71l3.37-10.72h2.9
			l3.37,10.72L51.68,220.35z"/>
		<path d="M65.2,225.2c0.04-0.77-0.22-1.53-0.74-2.1c-0.54-0.51-1.26-0.78-2-0.75c-0.74-0.02-1.47,0.18-2.09,0.57
			c-0.63,0.45-1.08,1.1-1.28,1.85l-2.44-1c0.33-1.1,1.04-2.04,2-2.66c1.17-0.71,2.52-1.06,3.89-1c0.99-0.02,1.97,0.16,2.88,0.53
			c0.81,0.32,1.5,0.88,2,1.59c0.51,0.81,0.76,1.76,0.72,2.72v5.98c-0.07,0.49,0.28,0.93,0.76,1c0.08,0.01,0.16,0.01,0.24,0
			c0.32,0,0.63-0.04,0.94-0.13l-0.16,2c-0.5,0.21-1.03,0.31-1.57,0.29c-0.54,0.01-1.07-0.1-1.56-0.31
			c-0.46-0.19-0.84-0.52-1.09-0.95c-0.27-0.48-0.41-1.03-0.39-1.59v-0.19h0.59c-0.14,0.67-0.49,1.29-1,1.75
			c-0.51,0.45-1.11,0.79-1.76,1c-0.64,0.22-1.32,0.34-2,0.34c-0.78,0.01-1.56-0.13-2.29-0.41c-1.37-0.49-2.26-1.82-2.19-3.28
			c-0.03-0.94,0.33-1.84,1-2.5c0.79-0.71,1.76-1.17,2.81-1.33l5.27-1v2l-3.83,0.79c-0.61,0.09-1.19,0.3-1.71,0.63
			c-0.38,0.27-0.6,0.72-0.57,1.19c-0.01,0.48,0.21,0.93,0.59,1.21c0.46,0.32,1,0.48,1.56,0.45c0.44,0,0.88-0.06,1.31-0.17
			c0.42-0.1,0.81-0.28,1.16-0.53c0.34-0.24,0.62-0.57,0.8-0.95c0.2-0.44,0.29-0.91,0.28-1.39L65.2,225.2z"/>
		<path d="M72.83,233.93v-13.58h2.47l0.27,2.44c0.32-0.82,0.88-1.52,1.62-2c0.79-0.49,1.71-0.73,2.64-0.7
			c0.27,0,0.55,0.03,0.82,0.07c0.24,0.03,0.47,0.1,0.68,0.21l-0.36,2.56c-0.22-0.08-0.44-0.14-0.67-0.18
			c-0.33-0.05-0.67-0.07-1-0.07c-0.58,0.01-1.15,0.16-1.65,0.45c-0.56,0.32-1.03,0.78-1.35,1.34c-0.38,0.7-0.56,1.49-0.53,2.28v7.18
			H72.83z"/>
		<path d="M88.97,234.19c-1.08,0.01-2.14-0.28-3.06-0.84c-0.95-0.58-1.71-1.42-2.2-2.42c-0.55-1.18-0.81-2.47-0.78-3.77
			c-0.04-1.34,0.25-2.66,0.84-3.86c0.51-1,1.29-1.83,2.25-2.4c0.94-0.55,2.01-0.84,3.1-0.83c1.06-0.02,2.1,0.34,2.93,1
			c0.79,0.63,1.35,1.5,1.6,2.47l-0.33,0.3v-9.55h2.91v19.64h-2.58l-0.22-3.69h0.38c-0.11,0.77-0.41,1.5-0.89,2.11
			c-0.47,0.58-1.07,1.05-1.75,1.35C90.48,234.02,89.73,234.19,88.97,234.19z M89.59,231.85c0.71,0.02,1.41-0.19,2-0.59
			c0.58-0.43,1.03-1.02,1.3-1.69c0.33-0.83,0.48-1.71,0.46-2.6c0.02-0.83-0.13-1.66-0.46-2.43c-0.27-0.63-0.72-1.17-1.29-1.56
			c-1.54-0.93-3.52-0.63-4.73,0.7c-0.72,1-1.07,2.22-1,3.45c-0.06,1.23,0.29,2.45,1,3.46c0.64,0.82,1.64,1.29,2.68,1.26H89.59z"/>
		<path d="M102.17,230.25c0.45-0.02,0.89,0.11,1.26,0.37c0.35,0.25,0.62,0.6,0.78,1c0.19,0.46,0.28,0.96,0.27,1.46
			c0,0.67-0.13,1.32-0.38,1.94c-0.26,0.63-0.63,1.21-1.1,1.71c-0.49,0.52-1.08,0.95-1.72,1.26l-1.31-1.17c0.47-0.17,0.9-0.4,1.3-0.7
			c0.38-0.28,0.72-0.62,1-1c0.25-0.34,0.43-0.71,0.55-1.11l-0.11-0.06c-0.1,0.06-0.2,0.11-0.31,0.14c-0.17,0.02-0.33,0.02-0.5,0
			c-0.27-0.01-0.53-0.07-0.77-0.2c-0.27-0.14-0.5-0.35-0.67-0.61c-0.37-0.66-0.37-1.46,0-2.12c0.18-0.3,0.43-0.55,0.74-0.72
			C101.5,230.3,101.84,230.24,102.17,230.25z"/>
		<path d="M6.38,266.76c-1.28,0.02-2.55-0.25-3.72-0.78c-1.08-0.48-2.01-1.25-2.69-2.23l2-1.74c0.4,0.74,0.99,1.36,1.72,1.78
			c0.83,0.46,1.76,0.68,2.7,0.66c0.69,0.04,1.38-0.11,2-0.43c0.67-0.37,0.92-1.21,0.56-1.89c-0.04-0.07-0.08-0.14-0.14-0.2
			c-0.36-0.33-0.81-0.54-1.29-0.61l-2.85-0.6c-1.15-0.14-2.23-0.63-3.09-1.4c-0.63-0.66-0.96-1.54-0.93-2.45
			c0-0.74,0.23-1.46,0.65-2.07c0.49-0.67,1.15-1.2,1.92-1.53c0.95-0.41,1.97-0.61,3-0.58c1.2-0.03,2.39,0.21,3.47,0.72
			c0.92,0.45,1.69,1.16,2.2,2.05l-2,1.68c-0.32-0.69-0.85-1.26-1.52-1.62c-0.63-0.36-1.34-0.56-2.07-0.59
			c-0.51-0.01-1.01,0.07-1.49,0.22c-0.38,0.1-0.73,0.31-1,0.6c-0.22,0.24-0.34,0.56-0.33,0.89c-0.01,0.38,0.14,0.74,0.41,1
			c0.42,0.33,0.93,0.55,1.46,0.62l3.1,0.65c1.03,0.12,2,0.57,2.75,1.29c0.54,0.61,0.82,1.4,0.8,2.21c0.02,0.82-0.22,1.62-0.67,2.3
			c-0.5,0.69-1.2,1.23-2,1.53C8.39,266.6,7.39,266.78,6.38,266.76z"/>
		<path d="M24.21,252.93v2.28H14.04v-2.28H24.21z M19.55,248.93v13.49c-0.05,0.54,0.14,1.08,0.53,1.46c0.4,0.33,0.9,0.5,1.42,0.47
			c0.44,0.01,0.87-0.07,1.28-0.23c0.36-0.16,0.7-0.38,1-0.64l0.65,2.11c-0.45,0.39-0.97,0.68-1.53,0.86c-0.65,0.21-1.32,0.32-2,0.31
			c-0.73,0.01-1.46-0.12-2.15-0.38c-0.63-0.23-1.16-0.66-1.52-1.23c-0.39-0.68-0.59-1.46-0.57-2.24v-13.17L19.55,248.93z"/>
		<path d="M35.02,257.78c0.05-0.78-0.22-1.54-0.75-2.11c-0.54-0.5-1.26-0.77-2-0.74c-0.74-0.02-1.46,0.18-2.09,0.57
			c-0.63,0.45-1.08,1.1-1.28,1.84l-2.44-1c0.34-1.09,1.05-2.03,2-2.66c1.17-0.71,2.53-1.06,3.9-1c0.99-0.02,1.97,0.16,2.88,0.53
			c0.81,0.32,1.5,0.87,2,1.58c0.5,0.82,0.75,1.76,0.71,2.72v6.05c-0.06,0.49,0.29,0.94,0.79,1c0.07,0.01,0.14,0.01,0.21,0
			c0.34,0,0.68-0.04,1-0.14l-0.16,2c-0.5,0.22-1.04,0.32-1.58,0.3c-0.54,0.01-1.07-0.1-1.56-0.31c-0.45-0.21-0.83-0.56-1.08-1
			c-0.28-0.48-0.42-1.03-0.4-1.59v-0.19h0.6c-0.14,0.67-0.49,1.28-1,1.75c-0.51,0.45-1.12,0.79-1.77,1c-0.64,0.22-1.32,0.34-2,0.34
			c-0.78,0.01-1.56-0.12-2.29-0.4c-0.64-0.25-1.2-0.68-1.6-1.24c-0.4-0.61-0.61-1.32-0.58-2.05c-0.03-0.94,0.33-1.84,1-2.5
			c0.78-0.71,1.76-1.17,2.8-1.33l5.27-1v2l-3.83,0.78c-0.61,0.09-1.19,0.31-1.71,0.63c-0.38,0.27-0.6,0.72-0.57,1.19
			c-0.02,0.47,0.2,0.93,0.58,1.21c0.46,0.32,1,0.48,1.56,0.45c0.44,0,0.89-0.06,1.32-0.16c0.41-0.11,0.8-0.29,1.15-0.53
			c0.34-0.25,0.62-0.57,0.8-0.95c0.2-0.44,0.3-0.92,0.29-1.4L35.02,257.78z"/>
		<path d="M50.73,252.93v2.28H40.56v-2.28H50.73z M46.07,248.93v13.49c-0.05,0.54,0.14,1.08,0.53,1.46c0.4,0.33,0.9,0.5,1.42,0.47
			c0.44,0.01,0.87-0.07,1.28-0.23c0.36-0.16,0.7-0.38,1-0.64l0.65,2.11c-0.45,0.38-0.97,0.68-1.53,0.86c-0.65,0.21-1.32,0.32-2,0.31
			c-0.73,0.01-1.46-0.12-2.15-0.38c-0.63-0.23-1.16-0.66-1.52-1.23c-0.39-0.68-0.59-1.46-0.57-2.24v-13.17L46.07,248.93z"/>
		<path d="M59.58,266.76c-1.25,0.03-2.5-0.25-3.61-0.83c-1.02-0.55-1.86-1.4-2.4-2.43c-1.15-2.39-1.15-5.18,0-7.57
			c0.54-1.03,1.38-1.88,2.4-2.44c1.06-0.57,2.25-0.86,3.45-0.84c1.18-0.04,2.34,0.24,3.37,0.81c0.9,0.52,1.64,1.3,2.11,2.23
			c0.5,0.99,0.76,2.09,0.74,3.2c0,0.33,0,0.63,0,0.92s0,0.55-0.08,0.76H54.61v-2.22h9.64l-1.44,0.43c0.07-1.03-0.26-2.04-0.92-2.83
			c-0.65-0.68-1.57-1.05-2.52-1c-0.7-0.01-1.4,0.18-2,0.55c-0.63,0.38-1.12,0.94-1.4,1.61c-0.33,0.83-0.49,1.72-0.46,2.62
			c-0.03,0.89,0.14,1.77,0.49,2.58c0.28,0.66,0.76,1.22,1.38,1.6c0.64,0.37,1.38,0.56,2.12,0.54c0.77,0.03,1.53-0.14,2.2-0.51
			c0.57-0.35,1.03-0.85,1.33-1.44l2.3,1.09c-0.32,0.65-0.76,1.22-1.31,1.69c-0.58,0.5-1.27,0.87-2,1.1
			C61.23,266.64,60.41,266.77,59.58,266.76z"/>
		<path style="fill:none;stroke:#1C3B40;stroke-width:3;stroke-linecap:round;stroke-miterlimit:10;" d="M399.23,378.34
			c6.85-5.39,63.45-51.5,63.1-130.48c-0.25-58-31.11-98-49.82-117"/>
		<polygon style="fill:#1C3B40;" points="426.11,128.56 415.11,133.52 411.04,144.88 399.23,118.85 		"/>
		<path style="fill:none;stroke:#1C3B40;stroke-width:3;stroke-linecap:round;stroke-miterlimit:10;" d="M183.97,118.85
			c-6.85,5.38-63.45,51.49-63.1,130.47c0.25,58.05,31.11,98,49.82,117"/>
		<polygon style="fill:#1C3B40;" points="157.07,368.63 168.08,363.67 172.15,352.31 183.96,378.34 		"/>
		<g id="layer1">
			<path id="path2309" style="fill-rule:evenodd;clip-rule:evenodd;fill:#A5B2A6;stroke:#A5B2A6;stroke-miterlimit:10;" d="
				M293.65,39.49l-109.54,37.5v5.43l-6.87,3.1l-0.07,1.33l100.44,68l52.74-19.71v-1.21l-0.15-0.05l0.15-0.05l-6.69-3.82v-7.08
				l2.57,1.91l8-2.91l3.47,2.61l-4.12,2.06l0.2,0.15l-0.05,1.06l6,4.42l50.92-18.7v-1l-5-3.75v-7.14L293.65,39.49z M293.5,40.29
				l90.83,61l-42.87,15l-7.14-5.36l-7.84,2.91l-2.51-1.86l33-12.27l-29.41-21l3.17-1.46l32.43,23.23l-24.94,9.1l4.73,4l36.82-12.65
				L330.5,67.19L303.1,77.8l-3.21-1.87l27.9-10.51L292.97,41.5l-25.76,9.43l21.06,14.7l18.5-6.48l-12.57-7.9l-11.16,4.88l-2.41-2.2
				l13.88-5.28l16.94,11.28l-23.48,8.42l-6.13-4.18l-18.1,7.19l-2.36-1.76l18.09-7.34l-14.72-10.33l-32.13,11.29l8,7.09l18.76-7
				l3.11,2.16l-38.62,13.94l-2.91-2l16.64-6.13l-7.94-7.14l-40.32,13.51l19.75,12.46l22.47-8.44l2.82,1.71l-22.27,8.79l25,16.44
				l33-12.21l-12.55-11.11l-15.54,5.64l-3-1.66l32.28-11.61l1.91,1.6l-13.84,5.32l13,11l30.21-11.41l14.08,8.3l12.56-5l2.12,1.31
				l-12.52,5l10.51,6.69l-30.57,12.52l-13.78-10l2.57-1l11.26,8.9l26.59-10.46l-23.35-14.09l-7.54,3l17.09,10.05l-3,1.51l-17-10.61
				l-31.98,12.04l20.51,15.43l-12.82,5.33l-2.52-1.51l11.42-4.22l-19.41-14.07l-17.74,6.73l38.45,26.34l23.73-8.14l-14-10l3.11-1.15
				l13.18,10.25l15.08-5.32l-9.71-7.6l2.27-0.8l10.91,9l-44.6,16.09l-91.66-61.85L293.5,40.29z M292.65,42.35v6.19l-13,5.18v2.76
				l-2.17,0.75l-9.1-6.18L292.65,42.35z M293.35,42.51l33.13,22.77l-8.85,3.27l-5-3.42v-4.88l-17.87-12.57l-1.41,0.56V42.51z
				 M293.7,52.51v9.1l-6.38,2.32l-4.18-2.91v-4.39L293.7,52.51z M294.41,52.51l10.65,6.42l-9.35,3.42l-1.3-0.8V52.51z M264.19,52.93
				v9.25l-3.72,1.31l-0.9-0.65l-18.45,6.83l-7.39-6.38L264.19,52.93z M264.9,53.13l13,9.1l-8.1,3.32l-4.87-3.47L264.9,53.13z
				 M280.38,54.54l2.06,1.91v4.12l-2.06-1.4V54.54z M279.68,57.11v1.55l-1.51-1L279.68,57.11z M311.97,60.5v9.2l-23.3,8.45
				c-0.21-0.13-0.43-0.25-0.65-0.35V69L311.97,60.5z M294.07,62.41l0.51,0.3l-5.86,2.22l-0.6-0.36L294.07,62.41z M264.44,62.93
				l4.33,3l-5.23,2.16l-0.15-2.41l-2.16-1.66L264.44,62.93z M229.15,64.83v9l-9.1,3.51v0.2l-19.6,6.59l-9.81-6.2L229.15,64.83z
				 M229.86,64.83l6.68,6.1l-6.68,2.56L229.86,64.83z M281.44,64.93v9.5l-8.8,3.5l-1-0.86L264,79.79v-8.2L281.44,64.93z
				 M282.14,65.28l5.18,3.65v8.55l-0.05,0.1c-0.33-0.09-0.66-0.16-1-0.21l-4.17-2.86L282.14,65.28z M312.65,65.83l4.28,3l-4.28,1.56
				V65.83z M262.83,65.83v2.52l-2.76,1.1v6.94l-24,8.65v-1.66l-4.55-2.45l-10.81,4.13v-7.21l2.81,2.16L262.83,65.83z M330.15,67.83
				v9l-3.92,1.71l0.35,0.25l-19.46,7.44l-3.82-2.26v-5.72L330.15,67.83z M330.85,68.18l47.27,32.43l-9,3.07l-38.21-27.2
				L330.85,68.18z M260.85,69.95l2.49,1.98v8.1l-1.11,0.4l-1.41-0.7L260.85,69.95z M312.23,70.1l-0.05,0.35l-13.6,5.28l-0.15,9.56
				l-25.69,9.5l-3.87-3.22l5.38-2v-10l-1.21-1.26l8.5-3.22l3.16,2.21c-0.42,0-0.84-0.07-1.25-0.1c-3,0-5.49-0.45-6.84,2.57l0,0
				l0.05,6c4.73,3.43,8.57,2.12,13.62,0.3l-0.2-6.23l0.1-0.15c-0.22-0.46-0.55-0.85-0.95-1.16L312.23,70.1z M299.16,75.93l3.47,2.26
				v5.54l-3.47,1.31V75.93z M260.1,76.93v3l1.46,0.6l-23.59,8.53l0.05,10.3l3.62,2.27l15.08-5.18l0.6-0.15l3.32,3l-23.39,8.63
				l-14.48-9.35l13.37-5.23v-7.74L260.1,76.93z M184.84,77.33l92.4,61.89v9.3l-92.4-62.09V77.33L184.84,77.33z M283.43,77.33
				c0.98-0.05,1.96,0.06,2.91,0.31c0.12,0,0.28,0.06,0.4,0.1c1.09,0.35,2.07,0.99,2.82,1.86c-1.18,2.11-3.85,2.15-6.13,2.31
				c-2.64,0.11-5.42,0-6.14-2.31c0.93-2.3,3.84-2.01,6.11-2.16L283.43,77.33z M220.03,77.94v7.24l-11,4.22l-7.89-5L220.03,77.94z
				 M281.57,78.09c-1.42,0.12-2.49,0.69-2.82,1.61c1,1.5,2.59,1.42,4.32,1.56c2.06,0.27,3.75-0.51,4.33-1.56
				c-0.94-1.49-2.62-1.43-4.33-1.56c-0.51-0.03-1.02-0.01-1.53,0.06L281.57,78.09z M283.63,78.44c0.18-0.01,0.37-0.01,0.55,0
				c1.05,0.04,2.04,0.49,2.76,1.26c-0.88,1.28-2.6,1.06-3.87,1.15c-1.49,0.29-3.51-0.26-3.62-1.15c0.13-1.63,2.35-1.1,3.62-1.21
				c0.18,0.01,0.36,0.03,0.53,0.06L283.63,78.44z M327.16,79.2l28.06,20.25l-8.2,3.12l-14.38-10.2l0.05-3.42l-3.45-2.02l-2.11,0.8
				L327.16,79.2z M326.46,79.4v8.54l-9.85,3.82l-8.85-5.23L326.46,79.4z M273.52,79.7v9.45l-5,1.91l-8-6.59L273.52,79.7z
				 M289.66,80.4l0.15,5.23c-3.94,1.83-9.3,2.78-12.67-0.35v-4.27c1.19,1.77,4.06,1.48,6.29,1.61c2.54,0.04,4.88-0.54,6.2-2.11
				L289.66,80.4z M184.11,82.77v4l93.25,62.74l46.3-16.38v-2.2l5,3l-51.18,19l-99.45-67.14l6.08-3V82.77z M235.39,83.68v9.3
				l-13.17,5.33l-9.25-6L235.39,83.68z M177.57,85.93l99.84,67.51l-0.05,0.71l-99.84-67.4v-0.81L177.57,85.93z M256.75,86.28v9.4
				l-14.38,5.18v-9.64L256.75,86.28z M257.46,86.28l11.31,10l-7.19,2.65l-4-3.57L257.46,86.28z M302.3,87.14l21.66,13l-9.55,3.82
				l-2-1.16v-3.22l-10.15-6.18L302.3,87.14z M301.59,87.24v5.78l-6-3.57L301.59,87.24z M331.91,89.24v9.35l-2.47,1l-9.6-5.68
				L331.91,89.24z M238.75,89.44l2.92,1.66v9.65l-2.92-1.71V89.44z M291.14,91.15v9.3l-3.17,1.22l-0.35-0.25l-3.77,1.36l-0.15,0.51
				l-14.38,5.47l-8.6-6.18L291.14,91.15z M291.84,91.15l16.34,10v5.18l-4.62,1.86l-11.72-7.79V91.15z M332.61,93.26l13.36,9.77
				l-15.13,5.78v-8.14l-0.7-0.55l2.46-1L332.61,93.26z M311.75,99.9v5.08l-2.82,1.1v-4.73L311.75,99.9z M330.15,100.75v8.2
				l-7.09,2.76l-0.1,1.51l-7.34,2.86l-4.52-3.62l-3.32,1.71l0.05,0.06v5l-8.4,3.47v-9.3L330.15,100.75z M363.79,100.9v4.63
				l-20.82,7.31l-3.37-3L363.79,100.9z M291.49,101.05l11.26,7.59l-3.78,1.53l-10.3-7.94L291.49,101.05z M364.49,101.35l3.82,2.62
				l-3.82,1.31V101.35z M384.97,101.93l0.16,9.4l-43.24,14.93v-9.4L384.97,101.93z M284.38,103.18l14.33,10.66v8.9l-8.3-6.28
				l-0.55,0.2l-5.48-4V103.18z M312.43,103.39l1.41,0.85l-1.41,0.55V103.39z M283.68,104.09v8.75l5.53,4.07l-3,1.1l-0.15,10.06
				l4.17,3.17l-12.62,4.37l-5.52-3.77l9.4-3.87v-10.04l-11.52-8.66L283.68,104.09z M256.78,104.09l18.05,13l-8.4,3.32l-9.65-7
				V104.09z M256.08,104.29v9.3l-6.84,2.61l-8.9-6L256.08,104.29z M385.68,109.42l3.72,3l-49.77,18l-5.08-3.72l3.67-1.76l3.27,2.47
				l44.19-15.69L385.68,109.42z M333.75,111.93v9.2l-7.09,2.67v-9.3L333.75,111.93z M334.45,111.93l6.74,5.08v9.1l-6.74-5.13V111.93
				z M390.01,112.64l0.15,0.45l-50.43,18.35l-5.58-3.82l-0.05-0.71l5.53,3.92L390.01,112.64z M323.64,112.64l2.32,2v8.74l-2.32-1.45
				V112.64z M256.64,114.04l9,6.49l-2,0.8l-0.1,4.53l-13.73-9.3L256.64,114.04z M322.9,114.04v8.1l-6.74-5.58L322.9,114.04z
				 M308.47,114.7l8.75,6.93l-8.14,2.82l-0.61-0.65V114.7z M280.82,117.92v9.34l-9.35,4l-4.22-2.87v-4.82L280.82,117.92z
				 M286.82,118.27l12.66,9.55l-8.49,3l-4.13-3.16L286.82,118.27z M307.82,119.98v4.17l0.6,0.55l-4.72,1.66l-4-3L307.82,119.98z
				 M264.34,121.93l2.32,1.66v4.53l-2.32-1.56V121.93z M322.97,123.19v9.25l-45,16.25v-9.46L322.97,123.19z M329.81,134.05v0.88
				l-51.84,19.08v-0.56L329.81,134.05z"/>
		</g>
	</g>
</g>
</svg>
