<svg xmlns="http://www.w3.org/2000/svg" viewBox="0 0 660.98 454.18"><defs><style>.cls-1{fill:#ceb4a7;}.cls-2{fill:#bc7219;}.cls-10,.cls-2,.cls-3,.cls-4,.cls-6,.cls-7{fill-rule:evenodd;}.cls-3{fill:#d39a50;}.cls-4,.cls-5{fill:#343433;}.cls-6{fill:#bdbaba;}.cls-7{fill:#fff;}.cls-8{fill:#824b2c;}.cls-10,.cls-9{fill:#4d4441;}.cls-11{fill:#a5b2a6;stroke:#a5b2a6;stroke-miterlimit:10;}.cls-12{fill:#f6ebe8;}.cls-13{fill:#e3c7b6;}</style></defs><g id="Layer_2" data-name="Layer 2"><g id="Layer_1-2" data-name="Layer 1"><path class="cls-1" d="M268.8,188.44c90.09,1.46,153.92,26.11,180.69,36.45,27.52,10.63,83.88,32.4,87.6,62.77,6.28,51.27-140.41,103.19-268.29,99.22-63.56-2-111.11-18.09-153.32-32.4C72.47,339.9,6.67,317.6.5,287.66-9.43,239.52,130.64,186.22,268.8,188.44Z"/><path class="cls-2" d="M28.39,101.11,89.9,49.05a70.46,70.46,0,0,1,47.27-17.32h121c43.36,0,116.21,47.73,146.16,76.94l72.11,25.41c25.34,8.93,42.67,29.16,47.6,55.58l6.06,32.44H18.13L8,155.67C4.73,134.57,12.1,114.9,28.39,101.11Z"/><path class="cls-3" d="M33.64,101.11,95.15,49.05a70.46,70.46,0,0,1,47.27-17.32h121c43.36,0,116.2,47.73,146.16,76.94l72.1,25.41c20.24,7.13,35.37,21.48,43.16,40.42-149.29-26.19-320.23-32.1-511.6-18.83C10,134.57,17.35,114.9,33.64,101.11Z"/><path class="cls-4" d="M325.58,50.72c15.76-1.29,79.25,44.31,84,58-88.1-4.11-176.42-6.44-265.83,0l-37.3-29.41C115.59,70.94,121.74,62,124,50.72Z"/><rect class="cls-5" x="24.27" y="221.22" width="511.94" height="33.54"/><path class="cls-4" d="M431.75,313.35a61.16,61.16,0,1,0-61.15-61.16A61.28,61.28,0,0,0,431.75,313.35Z"/><path class="cls-6" d="M431.75,296a43.82,43.82,0,1,0-43.82-43.82A43.91,43.91,0,0,0,431.75,296Z"/><path class="cls-4" d="M434,216.65a35.27,35.27,0,0,1,13.59,3.63l-3.37,6.8a27.67,27.67,0,0,0-10.7-2.86l.48-7.57Zm17.47,5.88-4.19,6.31a28.37,28.37,0,0,1,7.83,7.84l6.32-4.2a35.74,35.74,0,0,0-10-9.95Zm12.2,13.82A35.55,35.55,0,0,1,467.3,250l-7.58.48a27.85,27.85,0,0,0-2.86-10.7l6.8-3.38Zm3.64,18.08A35.45,35.45,0,0,1,463.66,268l-6.8-3.37a27.89,27.89,0,0,0,2.86-10.7l7.58.48Zm-5.88,17.47-6.32-4.2a28.2,28.2,0,0,1-7.83,7.83l4.19,6.32a35.74,35.74,0,0,0,10-10Zm-13.84,12.2A35.45,35.45,0,0,1,434,287.73l-.48-7.57a27.89,27.89,0,0,0,10.7-2.86l3.37,6.8Zm-18.07,3.63a35.32,35.32,0,0,1-13.59-3.63l3.37-6.8a27.89,27.89,0,0,0,10.7,2.86l-.48,7.57ZM412,281.85l4.2-6.32a28.07,28.07,0,0,1-7.83-7.83l-6.32,4.2a35.71,35.71,0,0,0,10,10ZM399.84,268a35.45,35.45,0,0,1-3.63-13.59l7.57-.48a27.89,27.89,0,0,0,2.86,10.7l-6.8,3.37ZM396.21,250a35.54,35.54,0,0,1,3.63-13.6l6.8,3.38a27.85,27.85,0,0,0-2.86,10.7l-7.57-.48Zm5.88-17.47,6.32,4.2a28.23,28.23,0,0,1,7.83-7.84l-4.2-6.31a35.71,35.71,0,0,0-10,9.95Zm13.83-12.2a35.32,35.32,0,0,1,13.59-3.63l.48,7.57a27.89,27.89,0,0,0-10.7,2.86Z"/><path class="cls-4" d="M109.14,312.46A61.16,61.16,0,1,0,48,251.31,61.28,61.28,0,0,0,109.14,312.46Z"/><path class="cls-6" d="M108.26,296a43.82,43.82,0,1,0-43.82-43.82A43.9,43.9,0,0,0,108.26,296Z"/><path class="cls-4" d="M110.5,216.65a35.32,35.32,0,0,1,13.59,3.63l-3.37,6.8a27.72,27.72,0,0,0-10.7-2.86l.48-7.57ZM128,222.53l-4.2,6.31a28.23,28.23,0,0,1,7.83,7.84l6.32-4.2a35.71,35.71,0,0,0-9.95-9.95Zm12.2,13.82A35.54,35.54,0,0,1,143.8,250l-7.57.48a27.85,27.85,0,0,0-2.86-10.7l6.8-3.38Zm3.63,18.08A35.45,35.45,0,0,1,140.17,268l-6.8-3.37a27.89,27.89,0,0,0,2.86-10.7l7.57.48Zm-5.88,17.47-6.32-4.2a28.07,28.07,0,0,1-7.83,7.83l4.2,6.32a35.71,35.71,0,0,0,9.95-10Zm-13.83,12.2a35.49,35.49,0,0,1-13.59,3.63l-.48-7.57a27.89,27.89,0,0,0,10.7-2.86l3.37,6.8ZM106,287.73a35.36,35.36,0,0,1-13.6-3.63l3.38-6.8a27.85,27.85,0,0,0,10.69,2.86l-.47,7.57Zm-17.48-5.88,4.2-6.32a28.2,28.2,0,0,1-7.83-7.83l-6.32,4.2a35.84,35.84,0,0,0,10,10ZM76.35,268a35.45,35.45,0,0,1-3.64-13.59l7.58-.48a27.72,27.72,0,0,0,2.86,10.7L76.35,268ZM72.71,250a35.55,35.55,0,0,1,3.64-13.6l6.8,3.38a27.67,27.67,0,0,0-2.86,10.7L72.71,250Zm5.88-17.47,6.32,4.2a28.37,28.37,0,0,1,7.83-7.84l-4.2-6.31a35.84,35.84,0,0,0-10,9.95Zm13.83-12.2a35.36,35.36,0,0,1,13.6-3.63l.47,7.57a27.85,27.85,0,0,0-10.69,2.86Z"/><path class="cls-7" d="M467.64,159.83c-9.59-19.34,39.35-8.82,48.12,7.28,5.6,10.27-1.44,20.63-14.92,17.3C488.71,181.41,473.37,171.13,467.64,159.83Z"/><path class="cls-4" d="M106.92,40.79H42.64a6.06,6.06,0,0,0-5.86,7.63c0,.2.11.41.16.62a12.57,12.57,0,0,0,4.45,6.82A13.44,13.44,0,0,1,45,73L24.52,110.61C37.43,113.72,116.19,50.74,106.92,40.79Z"/><polygon class="cls-3" points="221.22 41.1 233.06 111.13 269.06 110.15 242.92 42.09 221.22 41.1"/><path class="cls-4" d="M24.37,179.72c-4.3-.3-8.6-.58-12.92-.79-.24-12.49-1.87-23-3.58-35.28,16.3-5.82,27.15-5.12,29.91,22.25a12.59,12.59,0,0,1-13.41,13.82Z"/><path class="cls-8" d="M10.63,149.36h12.7a4.32,4.32,0,0,1,4.32,4.32v14.92a4.32,4.32,0,0,1-4.32,4.32H10.63a4.31,4.31,0,0,1-4.31-4.31V153.67A4.31,4.31,0,0,1,10.63,149.36Z"/><rect class="cls-9" x="588.67" y="250.7" width="38.62" height="22.28"/><path class="cls-10" d="M578,262.58h60c7.85,0,14.21-5.08,14.21-11.34V133.45c0-6.27-6.36-11.34-14.21-11.34H578c-7.85,0-14.21,5.07-14.21,11.34V251.24C563.78,257.5,570.14,262.58,578,262.58Z"/><rect class="cls-9" x="598.32" y="262.58" width="19.31" height="190.12"/><rect class="cls-9" x="591.82" y="415.38" width="32.3" height="38.79"/><rect class="cls-11" x="575.59" y="143.78" width="64.76" height="68.55" rx="20.33"/><path class="cls-12" d="M612,163.85a15.58,15.58,0,0,1,6.22,1.11,8.26,8.26,0,0,1,3.87,3.25,11,11,0,0,1,0,10.47,8.31,8.31,0,0,1-3.87,3.25A15.58,15.58,0,0,1,612,183h-4.82v8h-9.6V163.85Zm-1.57,12.39a4,4,0,0,0,2.47-.67,2.94,2.94,0,0,0,0-4.25,4,4,0,0,0-2.47-.68h-3.25v5.6Z"/><path class="cls-13" d="M500.66,80.53c9.95-5.89,22.71-4.21,33.78-3.67a94.69,94.69,0,0,1,16.54,2c6,1.37,11,4,16.59,6.52,4.87,2.17,10.45-3.61,6.06-7.86C564,68.16,548,67,535.27,66.69c-12.94-.33-27.62-.86-38.83,6.62-4.44,3-.46,10,4.22,7.22Z"/><path class="cls-13" d="M467.63,55.14c23.33-5.41,45.77-11.65,70-9,21.82,2.43,44.17,9.23,62.14,22.06,5.88,4.19,11.5-5.53,5.66-9.68C586.34,45,562.45,38.4,539.45,35.77c-25.4-2.9-50.19,3-74,11.59-4.85,1.74-3,9,2.14,7.78Z"/><path class="cls-13" d="M432.4,31.52c27.46-14.75,56.84-21.87,88-22.07,29.91-.19,61.06,4.17,89.56,13.41a119.22,119.22,0,0,1,22.7,9.82,72.86,72.86,0,0,1,10.53,7.12c3.26,2.73,5.62,6.08,8.62,9,5.22,5.11,12.14-2.38,7.82-7.82-4.5-5.67-11.92-10.51-18-14.39a115.45,115.45,0,0,0-20.08-9.95c-14.71-5.77-30.33-9.11-45.87-11.78-32.1-5.52-65.35-7.25-97.4-.44-17.57,3.73-34.93,10.19-49.63,20.63-3.87,2.75-.53,8.77,3.77,6.45Z"/><path class="cls-13" d="M521.89,104.34a79,79,0,0,1,16.48.19l-1.25-9.3c-3.92.73-7.64.35-11.56.3-5.47-.07-6.62,8.13-1.29,9.54,5,1.31,10.46.64,15.36-.71,5.21-1.44,4.06-9.13-1.26-9.3a84.76,84.76,0,0,0-17.56,1.36c-4.43.8-3.46,8.35,1.08,7.92Z"/></g></g></svg>