<?xml version="1.0" encoding="utf-8"?>
<!-- Generator: Adobe Illustrator 25.0.0, SVG Export Plug-In . SVG Version: 6.00 Build 0)  -->
<svg version="1.1" id="Layer_1" xmlns="http://www.w3.org/2000/svg" xmlns:xlink="http://www.w3.org/1999/xlink" x="0px" y="0px"
	 viewBox="0 0 794.2 241.95" style="enable-background:new 0 0 794.2 241.95;" xml:space="preserve">
<g id="Layer_2_1_">
	<g id="Layer_3">
		<path d="M431.36,65l6.76-17.91h3.47L448.35,65h-3.06l-4.62-12.85l-0.81-2.58h-0.08l-0.81,2.53L434.35,65H431.36z M434.97,60.27
			v-2.36h9.69v2.36H434.97z"/>
		<path d="M458.78,62.85c1.14-0.07,2.27,0.25,3.2,0.91c0.76,0.6,1.19,1.54,1.14,2.51c0.02,0.89-0.3,1.76-0.9,2.43
			c-0.66,0.72-1.5,1.26-2.43,1.56c-1.13,0.38-2.32,0.56-3.51,0.54c-1.71,0.13-3.42-0.22-4.94-1c-0.96-0.51-1.57-1.49-1.6-2.58
			c0-0.71,0.27-1.39,0.77-1.9c0.73-0.62,1.66-0.95,2.62-0.92l-0.16,0.43c-0.68-0.12-1.31-0.43-1.83-0.88
			c-0.49-0.47-0.74-1.13-0.7-1.81c-0.01-0.77,0.32-1.5,0.9-2c0.71-0.6,1.59-0.96,2.52-1l1.52,0.73h-0.32
			c-0.63,0.01-1.25,0.21-1.77,0.57c-0.3,0.25-0.49,0.61-0.51,1c-0.03,0.4,0.16,0.78,0.5,1c0.43,0.24,0.92,0.36,1.42,0.33
			L458.78,62.85z M456.17,51.12c1.06-0.02,2.12,0.17,3.11,0.57c0.8,0.33,1.5,0.89,2,1.6c0.96,1.47,0.96,3.36,0,4.83
			c-0.5,0.71-1.2,1.27-2,1.6c-0.99,0.4-2.05,0.59-3.11,0.57c-1.55,0.09-3.08-0.36-4.33-1.29c-0.99-0.81-1.55-2.04-1.51-3.32
			c-0.02-0.86,0.24-1.71,0.74-2.42c0.51-0.71,1.2-1.26,2-1.6C454.05,51.27,455.11,51.08,456.17,51.12z M456.28,68.63
			c0.83,0.02,1.66-0.08,2.46-0.29c0.53-0.13,1.02-0.38,1.43-0.73c0.3-0.25,0.47-0.61,0.48-1c0-0.39-0.18-0.77-0.5-1
			c-0.55-0.3-1.18-0.44-1.81-0.38h-4.37c-0.46-0.02-0.9,0.13-1.27,0.4c-0.34,0.25-0.54,0.65-0.52,1.07
			c0.03,0.65,0.47,1.21,1.09,1.41C454.22,68.5,455.25,68.68,456.28,68.63z M456.17,53.16c-0.75-0.03-1.49,0.22-2.08,0.69
			c-0.55,0.46-0.85,1.15-0.82,1.86c-0.03,0.72,0.27,1.41,0.82,1.87c1.23,0.95,2.95,0.95,4.18,0c0.55-0.46,0.86-1.15,0.83-1.87
			c0.03-0.72-0.28-1.41-0.83-1.86C457.68,53.37,456.93,53.13,456.17,53.16z M463.06,48.54l0.47,2.28h-0.17h-0.16
			c-0.71-0.05-1.42,0.15-2,0.56c-0.46,0.41-0.72,1-0.68,1.62l-1.41-0.66c-0.01-0.68,0.15-1.34,0.46-1.94
			c0.3-0.59,0.77-1.07,1.34-1.4c0.59-0.33,1.26-0.5,1.94-0.49h0.21L463.06,48.54z"/>
		<path d="M471.75,65.23c-1.25,0.03-2.48-0.26-3.58-0.84c-1.02-0.55-1.86-1.38-2.41-2.39c-1.13-2.4-1.13-5.17,0-7.57
			c0.54-1.02,1.37-1.87,2.38-2.43c1.06-0.57,2.25-0.86,3.45-0.84c1.17-0.04,2.33,0.24,3.36,0.81c0.91,0.53,1.64,1.3,2.12,2.23
			c0.5,0.99,0.75,2.09,0.73,3.2c0,0.33,0,0.64,0,0.93c-0.02,0.25-0.05,0.51-0.09,0.76h-10.93v-2.27h9.64l-1.44,0.43
			c0.07-1.03-0.26-2.04-0.92-2.83c-0.66-0.68-1.58-1.05-2.53-1c-0.7-0.01-1.4,0.18-2,0.54c-0.6,0.38-1.07,0.95-1.33,1.61
			c-0.33,0.83-0.49,1.72-0.46,2.62c-0.03,0.88,0.14,1.76,0.48,2.58c0.29,0.66,0.77,1.22,1.39,1.6c0.64,0.38,1.38,0.57,2.12,0.55
			c0.76,0.04,1.52-0.14,2.19-0.52c0.55-0.34,1-0.82,1.3-1.4l2.31,1.09c-0.32,0.65-0.76,1.23-1.31,1.7c-0.59,0.49-1.27,0.86-2,1.09
			C473.42,65.13,472.59,65.25,471.75,65.23z"/>
		<path d="M481.47,65V51.39h2.58l0.19,3.53l-0.38-0.38c0.22-0.72,0.6-1.39,1.11-1.94c0.47-0.51,1.06-0.9,1.71-1.13
			c0.68-0.23,1.39-0.35,2.1-0.35c0.89-0.01,1.78,0.18,2.59,0.56c0.76,0.36,1.4,0.94,1.83,1.67c0.49,0.86,0.72,1.83,0.68,2.82V65
			h-2.91v-7.9c0.11-1-0.19-2-0.83-2.78c-0.57-0.52-1.31-0.79-2.08-0.77c-0.6,0-1.19,0.15-1.73,0.42c-0.59,0.3-1.07,0.77-1.4,1.34
			c-0.41,0.76-0.6,1.61-0.56,2.47V65H481.47z"/>
		<path d="M506.74,51.39v2.28h-10.18v-2.28H506.74z M502.07,47.39v13.5c-0.05,0.54,0.15,1.08,0.53,1.47
			c0.4,0.32,0.91,0.49,1.42,0.46c0.44,0.01,0.87-0.07,1.28-0.23c0.36-0.16,0.7-0.38,1-0.64l0.66,2.12
			c-0.45,0.38-0.98,0.67-1.54,0.85c-0.64,0.21-1.32,0.32-2,0.31c-0.73,0.01-1.46-0.12-2.14-0.38c-0.63-0.23-1.16-0.66-1.52-1.23
			c-0.4-0.68-0.6-1.45-0.57-2.24V48.22L502.07,47.39z"/>
		<rect x="350.29" y="0.5" style="fill:none;stroke:#000000;stroke-miterlimit:10;" width="232.99" height="107.76"/>
		<path d="M396.08,199.14v-17.92h13v2.5h-10.11v5.16h7.87v2.44h-7.87v5.32h10.45v2.5L396.08,199.14z"/>
		<path d="M412.97,199.14v-13.57h2.58l0.19,3.53l-0.38-0.38c0.22-0.72,0.59-1.38,1.1-1.94c0.47-0.51,1.05-0.9,1.71-1.13
			c0.67-0.24,1.38-0.36,2.1-0.35c0.9-0.02,1.79,0.17,2.6,0.55c0.76,0.37,1.39,0.95,1.83,1.67c0.48,0.86,0.72,1.84,0.68,2.83v8.79
			h-2.91v-7.9c0.12-1-0.18-2.01-0.83-2.78c-0.56-0.52-1.3-0.8-2.07-0.78c-0.61,0-1.2,0.15-1.74,0.43c-0.59,0.3-1.07,0.77-1.4,1.34
			c-0.4,0.76-0.59,1.61-0.55,2.47v7.22L412.97,199.14z"/>
		<path d="M438.32,185.57h3l-5.35,13.57h-3.18l-5.43-13.57h3.18l3.85,11.05L438.32,185.57z"/>
		<path d="M445.3,183.29c-0.53,0.04-1.06-0.13-1.46-0.48c-0.35-0.36-0.53-0.84-0.5-1.34c-0.03-0.49,0.15-0.98,0.5-1.33
			c0.41-0.33,0.93-0.5,1.46-0.46c0.51-0.04,1.02,0.13,1.42,0.46c0.35,0.35,0.54,0.83,0.5,1.33c0.04,0.5-0.15,0.99-0.5,1.34
			C446.33,183.15,445.82,183.32,445.3,183.29z M446.73,185.57v13.57h-2.9v-13.57L446.73,185.57z"/>
		<path d="M451.27,199.14v-13.57h2.47l0.23,2.43c0.31-0.82,0.88-1.52,1.61-2c0.8-0.48,1.72-0.72,2.65-0.69
			c0.27,0,0.55,0.02,0.82,0.06c0.23,0.04,0.46,0.11,0.67,0.21l-0.4,2.55c-0.22-0.08-0.44-0.14-0.67-0.18
			c-0.33-0.05-0.67-0.07-1-0.06c-0.58,0-1.15,0.15-1.65,0.44c-0.57,0.32-1.03,0.78-1.35,1.35c-0.38,0.7-0.56,1.49-0.53,2.28v7.19
			L451.27,199.14z"/>
		<path d="M468.04,185.3c1.22-0.02,2.42,0.26,3.5,0.84c1.02,0.56,1.84,1.4,2.38,2.43c1.13,2.4,1.13,5.17,0,7.57
			c-0.54,1.03-1.36,1.87-2.38,2.43c-2.2,1.12-4.8,1.12-7,0c-1.01-0.56-1.85-1.41-2.39-2.43c-1.16-2.39-1.16-5.18,0-7.57
			c0.55-1.02,1.38-1.87,2.39-2.43C465.62,185.56,466.82,185.28,468.04,185.3z M468.04,187.58c-0.73-0.02-1.45,0.17-2.07,0.55
			c-0.59,0.4-1.05,0.96-1.32,1.62c-0.33,0.83-0.49,1.71-0.46,2.6c-0.03,0.89,0.13,1.77,0.46,2.6c0.27,0.66,0.73,1.23,1.32,1.63
			c0.62,0.38,1.34,0.57,2.07,0.55c1.48,0.09,2.85-0.79,3.37-2.18c0.33-0.83,0.49-1.71,0.46-2.6c0.03-0.89-0.13-1.77-0.46-2.6
			c-0.26-0.66-0.72-1.22-1.3-1.62C469.49,187.74,468.77,187.55,468.04,187.58z"/>
		<path d="M478.44,199.14v-13.57h2.58l0.19,3.53l-0.38-0.38c0.22-0.72,0.59-1.38,1.1-1.94c0.47-0.51,1.05-0.9,1.71-1.13
			c0.67-0.24,1.38-0.36,2.1-0.35c0.89-0.02,1.78,0.17,2.59,0.55c0.76,0.37,1.4,0.95,1.84,1.67c0.48,0.86,0.71,1.84,0.67,2.83v8.79
			h-2.87v-7.9c0.11-1-0.19-2-0.83-2.78c-0.56-0.53-1.31-0.81-2.08-0.78c-0.6,0.01-1.19,0.15-1.73,0.43c-0.59,0.3-1.07,0.77-1.4,1.34
			c-0.41,0.76-0.6,1.61-0.56,2.47v7.22L478.44,199.14z"/>
		<path d="M495.24,199.14v-13.57h2.58l0.14,2.28c0.42-0.82,1.07-1.49,1.88-1.93c0.77-0.41,1.63-0.62,2.51-0.62
			c0.94-0.01,1.87,0.22,2.7,0.66c0.83,0.44,1.48,1.15,1.86,2c0.28-0.59,0.69-1.1,1.2-1.5c0.5-0.39,1.07-0.69,1.68-0.88
			c0.59-0.18,1.2-0.28,1.82-0.28c0.84-0.01,1.68,0.18,2.44,0.54c0.76,0.36,1.4,0.93,1.85,1.65c0.5,0.87,0.74,1.86,0.7,2.86v8.79
			h-2.9v-8.33c0.09-0.87-0.2-1.74-0.79-2.39c-0.54-0.5-1.26-0.76-2-0.74c-0.61,0-1.22,0.16-1.75,0.47c-0.55,0.32-1,0.8-1.29,1.37
			c-0.34,0.7-0.51,1.46-0.49,2.24v7.38h-2.9v-8.33c0.09-0.87-0.2-1.74-0.79-2.39c-0.54-0.5-1.26-0.76-2-0.74
			c-1.25,0.02-2.39,0.71-3,1.8c-0.4,0.75-0.59,1.59-0.55,2.44v7.22H495.24z"/>
		<path d="M526.97,199.41c-1.25,0.03-2.48-0.26-3.58-0.84c-1.02-0.55-1.86-1.4-2.4-2.43c-1.15-2.39-1.15-5.18,0-7.57
			c0.54-1.02,1.36-1.87,2.37-2.43c1.06-0.57,2.25-0.86,3.45-0.84c1.18-0.04,2.34,0.24,3.37,0.81c0.9,0.53,1.63,1.3,2.11,2.23
			c0.5,0.99,0.76,2.09,0.74,3.2c0,0.33,0,0.63,0,0.92s0,0.55-0.08,0.76h-10.98V191h9.64l-1.44,0.43c0.07-1.03-0.26-2.04-0.92-2.84
			c-0.66-0.68-1.58-1.04-2.52-1c-0.71-0.01-1.4,0.18-2,0.55c-0.6,0.39-1.06,0.95-1.33,1.61c-0.33,0.83-0.49,1.72-0.46,2.62
			c-0.03,0.89,0.14,1.77,0.49,2.58c0.28,0.66,0.76,1.22,1.38,1.6c0.64,0.37,1.38,0.56,2.12,0.54c0.77,0.03,1.53-0.14,2.2-0.51
			c0.56-0.35,1.02-0.85,1.33-1.44l2.3,1.09c-0.32,0.65-0.76,1.22-1.31,1.69c-0.58,0.5-1.27,0.87-2,1.1
			C528.65,199.28,527.81,199.41,526.97,199.41z"/>
		<path d="M536.69,199.14v-13.57h2.58l0.19,3.53l-0.38-0.38c0.22-0.72,0.59-1.38,1.1-1.94c0.47-0.51,1.05-0.9,1.71-1.13
			c0.67-0.24,1.38-0.36,2.1-0.35c0.89-0.02,1.78,0.17,2.59,0.55c0.76,0.37,1.4,0.95,1.84,1.67c0.48,0.86,0.71,1.84,0.67,2.83v8.79
			h-2.9v-7.9c0.11-1-0.19-2-0.83-2.78c-0.56-0.53-1.31-0.81-2.08-0.78c-0.6,0.01-1.19,0.15-1.73,0.43c-0.59,0.3-1.07,0.77-1.4,1.34
			c-0.41,0.76-0.6,1.61-0.56,2.47v7.22L536.69,199.14z"/>
		<path d="M561.97,185.57v2.28h-10.19v-2.28H561.97z M557.3,181.57v13.49c-0.05,0.54,0.15,1.08,0.53,1.46
			c0.4,0.33,0.91,0.5,1.43,0.47c0.44,0.01,0.87-0.07,1.27-0.24c0.36-0.16,0.7-0.37,1-0.63l0.65,2.11c-0.45,0.39-0.97,0.68-1.54,0.86
			c-0.64,0.21-1.32,0.32-2,0.31c-0.73,0.01-1.46-0.12-2.14-0.38c-0.63-0.22-1.17-0.65-1.53-1.22c-0.39-0.68-0.59-1.45-0.57-2.24
			v-13.17L557.3,181.57z"/>
		<rect x="350.29" y="133.69" style="fill:none;stroke:#000000;stroke-miterlimit:10;" width="232.99" height="107.76"/>
		<path d="M723.7,118.09c0.05-0.77-0.21-1.52-0.73-2.09c-0.54-0.51-1.26-0.78-2-0.75c-0.74-0.02-1.47,0.18-2.09,0.57
			c-0.63,0.45-1.08,1.1-1.28,1.85l-2.44-1c0.33-1.09,1.04-2.04,2-2.66c1.17-0.71,2.53-1.06,3.9-1c0.98-0.02,1.96,0.16,2.87,0.53
			c0.81,0.32,1.51,0.87,2,1.59c0.51,0.81,0.76,1.75,0.72,2.71v6c-0.06,0.49,0.29,0.94,0.79,1c0.07,0.01,0.14,0.01,0.21,0
			c0.34,0,0.68-0.04,1-0.14l-0.17,2c-0.49,0.22-1.03,0.32-1.57,0.3c-0.54,0.01-1.07-0.1-1.56-0.31c-0.45-0.2-0.83-0.53-1.09-0.95
			c-0.27-0.48-0.41-1.03-0.39-1.59V124h0.6c-0.14,0.67-0.49,1.28-1,1.75c-0.51,0.45-1.11,0.8-1.76,1c-0.65,0.21-1.32,0.33-2,0.33
			c-0.78,0.01-1.56-0.12-2.29-0.4c-0.64-0.25-1.2-0.68-1.6-1.24c-0.41-0.6-0.61-1.32-0.59-2.05c-0.03-0.93,0.33-1.84,1-2.49
			c0.78-0.72,1.76-1.18,2.81-1.33l5.27-1v2l-3.83,0.79c-0.61,0.08-1.19,0.3-1.71,0.62c-0.38,0.28-0.6,0.73-0.57,1.2
			c-0.01,0.47,0.21,0.92,0.59,1.2c0.46,0.32,1,0.48,1.56,0.45c0.44,0,0.89-0.05,1.32-0.16c0.41-0.11,0.8-0.29,1.15-0.53
			c0.34-0.24,0.62-0.57,0.8-0.95c0.2-0.44,0.29-0.92,0.28-1.4L723.7,118.09z"/>
		<path d="M737.17,113c0.95-0.02,1.89,0.14,2.78,0.47c0.74,0.3,1.4,0.76,1.94,1.35c0.53,0.58,0.93,1.26,1.2,2l-2.75,1.09
			c-0.17-0.74-0.56-1.41-1.12-1.92c-0.57-0.45-1.28-0.69-2-0.66c-0.74-0.02-1.47,0.17-2.1,0.55c-0.59,0.39-1.05,0.96-1.31,1.62
			c-0.32,0.83-0.48,1.71-0.45,2.6c-0.03,0.88,0.13,1.76,0.46,2.58c0.27,0.66,0.73,1.22,1.33,1.6c0.62,0.38,1.34,0.57,2.07,0.55
			c0.55,0.01,1.1-0.1,1.6-0.32c0.44-0.2,0.83-0.5,1.12-0.89c0.32-0.42,0.53-0.91,0.61-1.43l2.64,0.9c-0.24,0.78-0.65,1.51-1.18,2.13
			c-0.55,0.62-1.23,1.1-2,1.41c-0.87,0.35-1.8,0.52-2.74,0.5c-1.24,0.02-2.46-0.26-3.56-0.84c-1.02-0.55-1.86-1.4-2.4-2.43
			c-1.13-2.4-1.13-5.17,0-7.57c0.54-1.03,1.37-1.87,2.39-2.43C734.77,113.28,735.96,112.99,737.17,113z"/>
		<path d="M755.19,113.23v2.28h-10.22v-2.28H755.19z M750.52,109.23v13.49c-0.05,0.54,0.15,1.08,0.53,1.47
			c0.4,0.32,0.91,0.49,1.43,0.46c0.43,0.01,0.87-0.07,1.27-0.23c0.36-0.16,0.7-0.38,1-0.64l0.65,2.12
			c-0.45,0.38-0.97,0.66-1.53,0.85c-0.65,0.21-1.32,0.32-2,0.31c-0.73,0.01-1.46-0.12-2.14-0.38c-0.63-0.23-1.16-0.66-1.52-1.23
			c-0.39-0.68-0.59-1.46-0.57-2.24v-13.16L750.52,109.23z"/>
		<path d="M759.53,111c-0.53,0.03-1.04-0.13-1.45-0.47c-0.35-0.36-0.53-0.85-0.5-1.35c-0.03-0.49,0.15-0.98,0.5-1.33
			c0.41-0.33,0.93-0.5,1.45-0.46c0.52-0.04,1.03,0.13,1.43,0.46c0.35,0.35,0.53,0.84,0.5,1.33c0.03,0.5-0.15,0.99-0.5,1.35
			C760.56,110.87,760.05,111.04,759.53,111z M760.97,113.28v13.52h-2.9v-13.57L760.97,113.28z"/>
		<path d="M771.4,113c1.22-0.02,2.42,0.27,3.5,0.84c1.01,0.56,1.83,1.41,2.37,2.43c1.15,2.39,1.15,5.18,0,7.57
			c-0.54,1.02-1.36,1.87-2.37,2.43c-2.2,1.12-4.8,1.12-7,0c-1.01-0.56-1.84-1.41-2.38-2.43c-1.16-2.39-1.16-5.18,0-7.57
			c0.54-1.02,1.37-1.87,2.38-2.43C768.98,113.27,770.18,112.98,771.4,113z M771.4,115.28c-0.73-0.02-1.46,0.17-2.08,0.56
			c-0.59,0.39-1.05,0.95-1.32,1.61c-0.61,1.68-0.61,3.52,0,5.2c0.27,0.66,0.73,1.23,1.32,1.63c0.62,0.38,1.35,0.57,2.08,0.55
			c1.48,0.09,2.84-0.79,3.36-2.18c0.61-1.68,0.61-3.52,0-5.2c-0.27-0.65-0.72-1.21-1.3-1.61c-0.61-0.4-1.33-0.61-2.06-0.6V115.28z"
			/>
		<path d="M781.79,126.8v-13.57h2.58l0.19,3.53l-0.38-0.38c0.22-0.72,0.59-1.38,1.1-1.94c0.47-0.51,1.06-0.9,1.71-1.13
			c0.68-0.23,1.39-0.35,2.1-0.35c0.9-0.01,1.79,0.18,2.6,0.56c0.76,0.36,1.4,0.94,1.83,1.67c0.48,0.86,0.72,1.84,0.68,2.82v8.79
			h-2.91v-7.9c0.11-1-0.19-2-0.82-2.78c-0.57-0.51-1.31-0.79-2.08-0.77c-0.6,0-1.2,0.15-1.74,0.42c-0.59,0.3-1.07,0.77-1.4,1.34
			c-0.4,0.76-0.59,1.61-0.55,2.47v7.22H781.79z"/>
		<path d="M712.66,159.38l10.91-17.92h2.69l2.6,17.92h-2.14l-1.88-12.87l-0.38-2.71l-1.57,2.6l-7.79,13L712.66,159.38z
			 M717.19,154.25l0.46-2h9.39l-0.46,2H717.19z"/>
		<path d="M732.09,161.59l0.25-1.09h5.32l-0.25,1.09H732.09z M734.78,168.54c-0.45,0.01-0.9-0.09-1.3-0.3
			c-0.35-0.19-0.62-0.5-0.76-0.87c-0.13-0.44-0.13-0.92,0-1.36l1.67-7.25l1.37-0.39l-1.8,7.7c-0.12,0.34-0.04,0.73,0.2,1
			c0.25,0.21,0.56,0.32,0.89,0.31c0.24,0,0.47-0.03,0.7-0.11c0.19-0.07,0.36-0.17,0.52-0.29l0.25,1c-0.24,0.17-0.51,0.29-0.8,0.37
			C735.42,168.45,735.1,168.52,734.78,168.54z"/>
		<path d="M144.8,107.34V93.77h2.47l0.27,2.44c0.32-0.82,0.88-1.52,1.61-2c0.8-0.48,1.72-0.72,2.65-0.69c0.27,0,0.55,0.02,0.82,0.06
			c0.23,0.04,0.46,0.11,0.67,0.21l-0.4,2.55c-0.22-0.08-0.44-0.14-0.67-0.18c-0.33-0.05-0.67-0.07-1-0.06
			c-0.58,0-1.15,0.15-1.65,0.44c-0.56,0.32-1.03,0.79-1.35,1.35c-0.38,0.7-0.56,1.49-0.53,2.28v7.19L144.8,107.34z"/>
		<path d="M161.65,107.61c-1.24,0.03-2.48-0.26-3.58-0.84c-1.02-0.55-1.86-1.4-2.4-2.43c-1.15-2.39-1.15-5.18,0-7.57
			c0.54-1.02,1.36-1.87,2.37-2.43c1.06-0.57,2.25-0.86,3.45-0.84c1.18-0.04,2.34,0.24,3.37,0.81c0.9,0.52,1.64,1.3,2.11,2.23
			c0.5,0.99,0.76,2.09,0.74,3.2c0,0.33,0,0.63,0,0.92c-0.01,0.25-0.04,0.51-0.08,0.76h-10.94V99.2h9.63l-1.43,0.43
			c0.07-1.03-0.26-2.04-0.92-2.83c-0.65-0.69-1.57-1.05-2.52-1c-0.7-0.01-1.4,0.18-2,0.55c-0.62,0.39-1.11,0.97-1.38,1.65
			c-0.33,0.83-0.49,1.72-0.46,2.62c-0.03,0.89,0.14,1.77,0.49,2.58c0.28,0.66,0.77,1.22,1.38,1.6c0.64,0.37,1.38,0.56,2.12,0.54
			c0.77,0.03,1.53-0.14,2.2-0.51c0.57-0.35,1.03-0.85,1.33-1.44l2.31,1.09c-0.33,0.64-0.77,1.22-1.32,1.69
			c-0.58,0.5-1.27,0.87-2,1.1C163.32,107.52,162.49,107.63,161.65,107.61z"/>
		<path d="M188.28,93.77h3.15l-4.56,13.57h-3.17l-3.42-10.07l-3.23,10.07h-3.18l-4.53-13.57h3.12l3.09,10.72l3.42-10.72h2.9
			l3.37,10.72L188.28,93.77z"/>
		<path d="M201.8,98.63c0.05-0.78-0.22-1.54-0.75-2.11c-0.54-0.5-1.26-0.77-2-0.74c-0.74-0.02-1.47,0.18-2.09,0.57
			c-0.63,0.44-1.08,1.1-1.28,1.84l-2.44-1c0.33-1.1,1.04-2.04,2-2.66c1.17-0.71,2.52-1.06,3.89-1c0.97-0.04,1.93,0.12,2.84,0.47
			c0.81,0.32,1.5,0.87,2,1.58c0.51,0.81,0.76,1.76,0.72,2.72v6c-0.07,0.49,0.28,0.93,0.76,1c0.08,0.01,0.16,0.01,0.24,0
			c0.32,0,0.64-0.05,0.95-0.14l-0.16,2c-0.49,0.22-1.03,0.32-1.57,0.3c-0.54,0-1.07-0.1-1.57-0.31c-0.45-0.21-0.83-0.56-1.08-1
			c-0.27-0.48-0.41-1.03-0.39-1.59v-0.19h0.59c-0.14,0.67-0.49,1.28-1,1.75c-0.51,0.45-1.12,0.79-1.77,1
			c-0.64,0.22-1.32,0.34-2,0.34c-0.79,0.02-1.57-0.12-2.3-0.41c-0.64-0.25-1.2-0.67-1.6-1.23c-0.39-0.59-0.6-1.29-0.58-2
			c-0.03-0.94,0.33-1.84,1-2.5c0.79-0.71,1.76-1.17,2.81-1.33l5.27-1v2l-3.83,0.78c-0.61,0.09-1.19,0.31-1.71,0.63
			c-0.38,0.27-0.6,0.72-0.57,1.19c-0.01,0.47,0.2,0.92,0.58,1.21c0.46,0.32,1.01,0.48,1.57,0.45c0.44,0,0.88-0.06,1.31-0.16
			c0.42-0.11,0.81-0.29,1.16-0.53c0.35-0.26,0.62-0.6,0.8-1c0.2-0.44,0.29-0.92,0.28-1.4L201.8,98.63z"/>
		<path d="M209.43,107.34V93.77h2.47l0.27,2.44c0.32-0.82,0.88-1.52,1.61-2c0.8-0.48,1.72-0.72,2.65-0.69
			c0.27,0,0.55,0.02,0.82,0.06c0.23,0.04,0.46,0.11,0.67,0.21l-0.4,2.55c-0.22-0.08-0.44-0.14-0.67-0.18
			c-0.33-0.05-0.67-0.07-1-0.06c-0.58,0-1.15,0.15-1.65,0.44c-0.56,0.32-1.03,0.79-1.35,1.35c-0.38,0.7-0.56,1.49-0.53,2.28v7.19
			L209.43,107.34z"/>
		<path d="M225.52,107.61c-1.08,0.01-2.13-0.28-3.05-0.84c-0.93-0.59-1.68-1.43-2.16-2.42c-0.55-1.18-0.82-2.47-0.78-3.77
			c-0.04-1.33,0.25-2.66,0.84-3.85c1.02-2,3.09-3.26,5.34-3.23c2.13-0.08,4.03,1.35,4.54,3.42l-0.33,0.3v-9.56h2.91v19.68h-2.58
			l-0.22-3.69h0.38c-0.11,0.77-0.42,1.49-0.9,2.1c-0.47,0.59-1.07,1.05-1.75,1.36C227.06,107.43,226.29,107.61,225.52,107.61z
			 M226.15,105.28c0.71,0.02,1.41-0.19,2-0.6c0.58-0.43,1.03-1.01,1.3-1.68c0.33-0.83,0.48-1.72,0.46-2.61
			c0.02-0.83-0.13-1.66-0.46-2.43c-0.27-0.63-0.72-1.17-1.29-1.56c-1.55-0.93-3.54-0.63-4.74,0.71c-0.72,1-1.07,2.21-1,3.44
			c-0.06,1.24,0.29,2.46,1,3.47C224.07,104.86,225.09,105.33,226.15,105.28L226.15,105.28z"/>
		<path d="M143.82,139.91l4.15-17.91h5.87c1.4-0.07,2.77,0.39,3.84,1.29c0.97,0.92,1.49,2.23,1.42,3.57
			c0.02,0.95-0.22,1.88-0.69,2.71c-0.44,0.78-1.07,1.45-1.82,1.94c-0.73,0.5-1.56,0.84-2.43,1l-1.35,0.19h-5.57l0.46-2h4.89
			c0.83,0.03,1.65-0.15,2.39-0.53c0.6-0.32,1.09-0.81,1.41-1.41c0.31-0.6,0.47-1.27,0.46-1.94c0.03-0.78-0.31-1.52-0.92-2
			c-0.75-0.5-1.63-0.75-2.53-0.7h-3.72l-3.71,15.79H143.82z M155.28,139.91l-3.07-7.62l2.2-0.28l3.23,7.9H155.28z"/>
		<path d="M160.86,142.13l0.26-1.09h5.31l-0.25,1.09H160.86z M163.55,149.13c-0.45,0.01-0.89-0.09-1.29-0.3
			c-0.35-0.19-0.62-0.5-0.76-0.87c-0.15-0.44-0.17-0.91-0.05-1.36l1.66-7.25l1.38-0.4l-1.81,7.71c-0.12,0.34-0.04,0.73,0.2,1
			c0.25,0.21,0.57,0.32,0.9,0.31c0.44,0.01,0.87-0.13,1.22-0.4l0.25,1c-0.25,0.17-0.52,0.3-0.81,0.38
			c-0.29,0.08-0.59,0.12-0.89,0.13V149.13z"/>
		<path d="M6.38,109.08c-1.28,0.01-2.55-0.26-3.72-0.79c-1.08-0.48-2.01-1.25-2.69-2.23l2-1.74c0.39,0.74,0.99,1.36,1.72,1.78
			c0.82,0.47,1.76,0.7,2.7,0.67c0.69,0.03,1.38-0.12,2-0.44c0.67-0.37,0.93-1.21,0.56-1.88c-0.05-0.09-0.1-0.17-0.17-0.25
			c-0.36-0.32-0.81-0.54-1.29-0.61L4.67,103c-1.15-0.14-2.22-0.62-3.09-1.39c-0.63-0.66-0.96-1.55-0.93-2.46
			c0-0.74,0.23-1.46,0.65-2.06c0.49-0.68,1.15-1.21,1.92-1.54c0.95-0.41,1.97-0.61,3-0.58c1.2-0.03,2.39,0.21,3.48,0.72
			c0.92,0.43,1.68,1.13,2.2,2l-2,1.68c-0.32-0.67-0.85-1.22-1.51-1.57c-0.64-0.35-1.36-0.53-2.09-0.53
			c-0.5-0.01-1.01,0.06-1.49,0.21c-0.38,0.1-0.73,0.31-1,0.6c-0.22,0.25-0.34,0.57-0.33,0.9c-0.01,0.38,0.14,0.74,0.41,1
			c0.42,0.34,0.93,0.55,1.46,0.62l3.1,0.65c1.03,0.13,1.99,0.58,2.75,1.29c0.54,0.61,0.82,1.4,0.8,2.21
			c0.02,0.82-0.22,1.62-0.67,2.3c-0.5,0.69-1.2,1.23-2,1.53C8.39,108.94,7.39,109.11,6.38,109.08z"/>
		<path d="M24.21,95.23v2.28H14.04v-2.28H24.21z M19.55,91.23v13.49c-0.05,0.54,0.14,1.08,0.52,1.47c0.4,0.32,0.91,0.49,1.43,0.46
			c0.44,0.01,0.87-0.07,1.28-0.23c0.36-0.16,0.7-0.38,1-0.64l0.65,2.12c-0.45,0.38-0.97,0.66-1.53,0.85c-0.64,0.22-1.32,0.32-2,0.32
			c-0.73,0.01-1.46-0.12-2.15-0.38c-0.63-0.24-1.16-0.67-1.52-1.24c-0.39-0.68-0.59-1.46-0.57-2.24V92.06L19.55,91.23z"/>
		<path d="M35.02,100.09c0.05-0.77-0.22-1.53-0.75-2.09c-0.54-0.51-1.26-0.78-2-0.75c-0.74-0.02-1.46,0.18-2.09,0.57
			c-0.63,0.45-1.08,1.1-1.28,1.85l-2.44-1c0.34-1.09,1.05-2.03,2-2.66c1.17-0.71,2.53-1.06,3.9-1c0.99-0.02,1.96,0.16,2.88,0.53
			c0.81,0.32,1.51,0.87,2,1.59c0.5,0.81,0.75,1.76,0.71,2.71v6.06c-0.07,0.49,0.28,0.93,0.76,1c0.08,0.01,0.16,0.01,0.24,0
			c0.34,0,0.68-0.04,1-0.14l-0.16,2c-1.01,0.41-2.13,0.41-3.14,0c-0.45-0.2-0.82-0.53-1.08-0.95c-0.28-0.48-0.42-1.03-0.4-1.59V106
			h0.6c-0.14,0.67-0.49,1.29-1,1.75c-0.51,0.45-1.11,0.8-1.76,1c-0.64,0.22-1.32,0.33-2,0.34c-0.78,0.01-1.56-0.13-2.29-0.41
			c-1.37-0.5-2.25-1.83-2.18-3.29c-0.03-0.93,0.33-1.84,1-2.49c0.78-0.72,1.75-1.18,2.8-1.33l5.27-1v2l-3.82,0.79
			c-0.61,0.08-1.19,0.3-1.71,0.62c-0.38,0.28-0.6,0.73-0.57,1.2c-0.02,0.47,0.2,0.92,0.58,1.2c0.46,0.32,1,0.48,1.56,0.45
			c0.44,0,0.89-0.05,1.32-0.16c0.41-0.11,0.8-0.29,1.15-0.53c0.34-0.24,0.62-0.57,0.8-0.95c0.2-0.44,0.3-0.92,0.29-1.4L35.02,100.09
			z"/>
		<path d="M50.73,95.23v2.28H40.55v-2.28H50.73z M46.06,91.23v13.49c-0.05,0.54,0.15,1.08,0.53,1.47c0.4,0.32,0.91,0.49,1.43,0.46
			c0.44,0.01,0.87-0.07,1.28-0.23c0.36-0.16,0.7-0.38,1-0.64l0.65,2.12c-0.45,0.38-0.97,0.66-1.53,0.85c-0.64,0.22-1.32,0.32-2,0.32
			c-0.73,0.01-1.46-0.12-2.14-0.38c-0.63-0.24-1.16-0.67-1.52-1.24c-0.39-0.68-0.59-1.46-0.57-2.24V92.06L46.06,91.23z"/>
		<path d="M59.58,109.08c-1.25,0.02-2.48-0.27-3.58-0.85c-1.02-0.55-1.86-1.4-2.4-2.43c-1.15-2.39-1.15-5.18,0-7.57
			c0.54-1.02,1.36-1.87,2.37-2.43c1.06-0.56,2.25-0.83,3.45-0.8c1.18-0.04,2.34,0.24,3.37,0.81c0.89,0.52,1.63,1.28,2.11,2.19
			c0.5,0.99,0.76,2.09,0.74,3.2c0,0.33,0,0.64,0,0.93c0,0.29,0,0.54-0.08,0.76H54.61v-2.23h9.64l-1.44,0.43
			c0.07-1.03-0.26-2.04-0.92-2.83c-0.66-0.68-1.58-1.04-2.52-1c-0.7-0.01-1.4,0.18-2,0.54c-0.63,0.38-1.12,0.95-1.4,1.63
			c-0.33,0.83-0.49,1.72-0.46,2.61c-0.03,0.89,0.14,1.77,0.49,2.58c0.28,0.66,0.76,1.22,1.38,1.6c0.64,0.38,1.38,0.57,2.12,0.55
			c0.77,0.04,1.53-0.14,2.2-0.52c0.57-0.35,1.03-0.85,1.33-1.44l2.3,1.09c-0.32,0.65-0.76,1.23-1.31,1.7c-0.59,0.5-1.27,0.87-2,1.1
			C61.23,108.95,60.41,109.08,59.58,109.08z"/>
		<path d="M8.12,141.59c-1.24,0.03-2.47-0.17-3.63-0.59c-1.03-0.38-1.97-0.98-2.74-1.77c-0.78-0.83-1.37-1.83-1.72-2.91l2.17-1.08
			c0.25,0.94,0.72,1.8,1.36,2.53c0.58,0.64,1.31,1.12,2.12,1.39c0.85,0.29,1.74,0.43,2.63,0.42c0.76,0.03,1.53-0.13,2.22-0.45
			c0.55-0.26,1.02-0.66,1.35-1.17c0.29-0.46,0.44-0.99,0.44-1.53c0.04-0.59-0.2-1.17-0.63-1.58c-0.55-0.44-1.18-0.75-1.86-0.92
			l-2.86-0.83c-0.85-0.24-1.66-0.61-2.39-1.1c-0.61-0.39-1.11-0.92-1.47-1.55c-0.34-0.61-0.52-1.3-0.5-2
			c-0.01-0.97,0.27-1.91,0.8-2.72c0.56-0.84,1.34-1.51,2.25-1.94c1.08-0.5,2.25-0.75,3.44-0.72c1.54-0.05,3.06,0.33,4.39,1.09
			c1.21,0.77,2.11,1.94,2.53,3.31l-2.17,1.06c-0.17-0.81-0.55-1.55-1.12-2.15c-0.49-0.47-1.09-0.82-1.74-1
			c-0.65-0.18-1.32-0.27-2-0.27c-0.78-0.03-1.56,0.11-2.28,0.41c-0.55,0.22-1.03,0.59-1.37,1.08c-0.3,0.44-0.45,0.96-0.45,1.49
			c0,0.63,0.26,1.23,0.71,1.67c0.5,0.58,1.14,1.01,1.87,1.24l3.23,0.93c1.11,0.26,2.12,0.81,2.93,1.61c0.63,0.7,0.97,1.62,0.95,2.57
			c0.02,1.04-0.29,2.07-0.88,2.93c-0.6,0.83-1.41,1.5-2.35,1.93C10.33,141.41,9.23,141.62,8.12,141.59z"/>
		<path d="M17.34,143.6l0.26-1.1h5.31l-0.25,1.1H17.34z M20.03,150.54c-0.45,0.01-0.89-0.09-1.29-0.3c-0.35-0.19-0.62-0.5-0.76-0.87
			c-0.14-0.44-0.15-0.92-0.01-1.37l1.66-7.25l1.38-0.39l-1.81,7.7c-0.12,0.34-0.04,0.73,0.2,1c0.25,0.21,0.57,0.32,0.9,0.31
			c0.23,0,0.47-0.03,0.69-0.11c0.19-0.07,0.36-0.17,0.52-0.29l0.26,1c-0.25,0.17-0.52,0.29-0.81,0.37
			C20.66,150.45,20.35,150.52,20.03,150.54L20.03,150.54z"/>
		<path d="M297.81,150.63l4.16-17.92h5.86c1.4-0.07,2.77,0.39,3.84,1.29c0.98,0.92,1.5,2.23,1.43,3.57c0.02,0.95-0.22,1.89-0.7,2.71
			c-0.44,0.78-1.06,1.45-1.81,1.95c-0.74,0.49-1.56,0.82-2.43,1l-1.36,0.19h-5.57l0.47-2h4.88c0.83,0.03,1.65-0.15,2.39-0.53
			c0.6-0.32,1.09-0.81,1.41-1.41c0.31-0.6,0.47-1.27,0.46-1.94c0.06-0.79-0.29-1.56-0.92-2.05c-0.74-0.5-1.63-0.74-2.52-0.69h-3.72
			l-3.71,15.83H297.81z M309.27,150.63L306.2,143l2.2-0.27l3.23,7.9L309.27,150.63z"/>
		<path d="M314.86,152.85l0.25-1.1h5.32l-0.25,1.1H314.86z M317.55,159.79c-0.45,0.01-0.9-0.09-1.3-0.3
			c-0.35-0.19-0.62-0.5-0.76-0.87c-0.13-0.44-0.13-0.92,0-1.36l1.66-7.25l1.38-0.39l-1.8,7.7c-0.12,0.34-0.04,0.73,0.2,1
			c0.25,0.21,0.56,0.32,0.89,0.31c0.24,0,0.47-0.03,0.7-0.11c0.19-0.07,0.36-0.17,0.52-0.29l0.25,1c-0.25,0.17-0.52,0.3-0.81,0.37
			C318.18,159.7,317.87,159.77,317.55,159.79L317.55,159.79z"/>
		<path d="M329.2,154.06l-0.27,1.19h-7.69l0.26-1.19H329.2z M326.71,150.74l-1.8,7.85h-1.19l1.8-7.85H326.71z"/>
		<path d="M331.68,159.67l1.69-7.38l0.24-0.86c0.07-0.25,0.15-0.49,0.24-0.72c-0.25,0.22-0.53,0.42-0.83,0.57
			c-0.36,0.19-0.74,0.36-1.12,0.5c-0.36,0.14-0.73,0.25-1.11,0.32v-1.23c0.43-0.1,0.86-0.24,1.27-0.41
			c0.44-0.18,0.87-0.38,1.28-0.61c0.33-0.18,0.64-0.39,0.92-0.63h1.11l-2.4,10.45H331.68z"/>
		<path d="M304.63,199.63c-1.25,0.02-2.49-0.2-3.66-0.63c-1.03-0.38-1.97-0.99-2.74-1.78c-0.78-0.83-1.36-1.82-1.72-2.9l2.17-1.09
			c0.25,0.94,0.71,1.81,1.36,2.54c0.58,0.63,1.3,1.1,2.11,1.38c0.85,0.28,1.74,0.43,2.64,0.42c0.76,0.03,1.53-0.13,2.22-0.45
			c0.55-0.25,1.02-0.65,1.35-1.16c0.29-0.46,0.44-1,0.44-1.54c0.03-0.59-0.2-1.17-0.63-1.57c-0.54-0.44-1.18-0.75-1.86-0.92
			l-2.91-0.82c-0.83-0.23-1.62-0.59-2.34-1.06c-0.61-0.39-1.11-0.92-1.47-1.54c-0.34-0.61-0.52-1.3-0.5-2
			c-0.01-0.96,0.27-1.91,0.8-2.71c0.56-0.84,1.34-1.51,2.25-1.94c1.07-0.5,2.25-0.75,3.43-0.72c1.54-0.06,3.06,0.32,4.4,1.08
			c1.21,0.77,2.11,1.95,2.53,3.32l-2.18,1.05c-0.16-0.8-0.54-1.55-1.11-2.14c-0.49-0.48-1.08-0.82-1.74-1
			c-0.65-0.19-1.32-0.28-2-0.28c-0.78-0.02-1.56,0.12-2.28,0.41c-0.55,0.22-1.03,0.6-1.37,1.09c-0.3,0.44-0.45,0.96-0.45,1.49
			c0,0.63,0.26,1.23,0.71,1.67c0.51,0.55,1.17,0.96,1.89,1.17l3.23,0.92c1.11,0.26,2.12,0.82,2.93,1.62
			c0.63,0.7,0.97,1.62,0.95,2.56c0.02,1.04-0.29,2.07-0.88,2.93c-0.6,0.84-1.41,1.51-2.35,1.93
			C306.84,199.41,305.74,199.64,304.63,199.63z"/>
		<path d="M313.85,201.63l0.26-1.09h5.31l-0.25,1.09H313.85z M316.54,208.63c-0.45,0.01-0.89-0.09-1.29-0.3
			c-0.35-0.19-0.62-0.5-0.76-0.87c-0.14-0.44-0.14-0.92,0-1.36l1.66-7.25l1.38-0.4l-1.81,7.71c-0.12,0.34-0.04,0.73,0.2,1
			c0.25,0.21,0.57,0.32,0.89,0.31c0.24,0.01,0.48-0.03,0.7-0.11c0.19-0.06,0.36-0.16,0.52-0.28l0.26,1
			c-0.25,0.17-0.52,0.3-0.81,0.37c-0.31,0.09-0.62,0.13-0.94,0.13V208.63z"/>
		<path d="M328.19,202.85l-0.22,1.15h-7.69l0.27-1.19L328.19,202.85z M325.71,199.53l-1.81,7.84h-1.18l1.8-7.84H325.71z"/>
		<path d="M330.68,208.45l1.69-7.37c0.08-0.33,0.16-0.62,0.24-0.87c0.07-0.24,0.15-0.48,0.23-0.72c-0.25,0.23-0.53,0.42-0.83,0.57
			c-0.36,0.19-0.73,0.36-1.11,0.51c-0.36,0.14-0.73,0.25-1.11,0.32v-1.24c0.43-0.1,0.85-0.23,1.26-0.4
			c0.44-0.18,0.87-0.39,1.29-0.62c0.32-0.18,0.63-0.38,0.91-0.62h1.11l-2.39,10.44H330.68z"/>
		<polyline style="fill:none;stroke:#000000;stroke-width:2;stroke-miterlimit:10;" points="583.28,54.38 699.78,54.38 
			699.78,187.57 599.59,187.57 		"/>
		<path d="M603.18,187.57l4.38,7.21l-0.25,0.16l-11.75-4.66l-12.28-2.71l12.28-2.7l11.75-4.66l0.25,0.12L603.18,187.57z"/>
		<line style="fill:none;stroke:#000000;stroke-width:2;stroke-miterlimit:10;" x1="350.29" y1="168.54" x2="293.25" y2="168.54"/>
		<path d="M296.84,168.54l4.38,7.21l-0.24,0.16l-11.75-4.67l-12.26-2.7l12.28-2.7l11.72-4.67l0.24,0.13L296.84,168.54z"/>
		<line style="fill:none;stroke:#000000;stroke-width:2;stroke-miterlimit:10;" x1="350.29" y1="217.31" x2="293.25" y2="217.31"/>
		<path d="M296.84,217.31l4.38,7.21l-0.24,0.16L289.23,220l-12.26-2.69l12.28-2.7l11.72-4.67l0.24,0.12L296.84,217.31z"/>
		<line style="fill:none;stroke:#000000;stroke-width:2;stroke-miterlimit:10;" x1="255.37" y1="141.46" x2="255.37" y2="143.46"/>
		
			<line style="fill:none;stroke:#000000;stroke-width:2;stroke-miterlimit:10;stroke-dasharray:3.84,3.84;" x1="255.37" y1="147.3" x2="255.37" y2="237.54"/>
		<line style="fill:none;stroke:#000000;stroke-width:2;stroke-miterlimit:10;" x1="255.37" y1="239.45" x2="255.37" y2="241.45"/>
		<polyline style="fill:none;stroke:#000000;stroke-width:2;stroke-miterlimit:10;" points="242.43,168.54 128.09,168.54 
			128.09,75.86 333.99,75.86 		"/>
		<path d="M330.4,75.86l-4.38-7.2l0.24-0.17l11.71,4.67l12.28,2.7l-12.28,2.71l-11.75,4.66l-0.24-0.12L330.4,75.86z"/>
		<polyline style="fill:none;stroke:#000000;stroke-width:2;stroke-miterlimit:10;" points="238.11,217.31 87.1,217.31 87.1,24.23 
			333.99,24.23 		"/>
		<path d="M330.4,24.23L326.02,17l0.24-0.16l11.71,4.69l12.28,2.7l-12.28,2.7l-11.71,4.67l-0.24-0.12L330.4,24.23z"/>
	</g>
</g>
</svg>
