<svg xmlns="http://www.w3.org/2000/svg" viewBox="0 0 794.2 241.95"><defs><style>.cls-1,.cls-2,.cls-3{fill:none;stroke:#000;stroke-miterlimit:10;}.cls-2,.cls-3{stroke-width:2px;}.cls-3{stroke-dasharray:3.84 3.84;}</style></defs><g id="Layer_2" data-name="Layer 2"><g id="Layer_3" data-name="Layer 3"><path d="M432.39,65l6.76-17.91h3.47L449.38,65h-3.06L441.7,52.15l-.81-2.58h-.08L440,52.1,435.38,65ZM436,60.27V57.91h9.69v2.36Z" transform="translate(-1.03)"/><path d="M459.81,62.85a5,5,0,0,1,3.2.91,3,3,0,0,1,1.14,2.51,3.55,3.55,0,0,1-.9,2.43,5.75,5.75,0,0,1-2.43,1.56,10.52,10.52,0,0,1-3.51.54,9.28,9.28,0,0,1-4.94-1,3,3,0,0,1-1.6-2.58,2.69,2.69,0,0,1,.77-1.9,3.85,3.85,0,0,1,2.62-.92l-.16.43a3.83,3.83,0,0,1-1.83-.88,2.32,2.32,0,0,1-.7-1.81,2.58,2.58,0,0,1,.9-2,4.18,4.18,0,0,1,2.52-1l1.52.73h-.32a3.19,3.19,0,0,0-1.77.57,1.39,1.39,0,0,0-.51,1,1.1,1.1,0,0,0,.5,1,2.57,2.57,0,0,0,1.42.33ZM457.2,51.12a7.81,7.81,0,0,1,3.11.57,4.62,4.62,0,0,1,2,1.6,4.41,4.41,0,0,1,0,4.83,4.62,4.62,0,0,1-2,1.6,7.81,7.81,0,0,1-3.11.57A6.59,6.59,0,0,1,452.87,59a4.14,4.14,0,0,1-1.51-3.32,4.06,4.06,0,0,1,.74-2.42,4.74,4.74,0,0,1,2-1.6A7.58,7.58,0,0,1,457.2,51.12Zm.11,17.51a8.91,8.91,0,0,0,2.46-.29,3.47,3.47,0,0,0,1.43-.73,1.34,1.34,0,0,0,.48-1,1.22,1.22,0,0,0-.5-1,3.18,3.18,0,0,0-1.81-.38H455a2,2,0,0,0-1.27.4,1.26,1.26,0,0,0-.52,1.07,1.56,1.56,0,0,0,1.09,1.41A7,7,0,0,0,457.31,68.63Zm-.11-15.47a3.16,3.16,0,0,0-2.08.69,2.3,2.3,0,0,0-.82,1.86,2.33,2.33,0,0,0,.82,1.87,3.43,3.43,0,0,0,4.18,0,2.31,2.31,0,0,0,.83-1.87,2.27,2.27,0,0,0-.83-1.86A3.16,3.16,0,0,0,457.2,53.16Zm6.89-4.62.47,2.28h-.17l-.16,0a3.05,3.05,0,0,0-2,.56,2,2,0,0,0-.68,1.62l-1.41-.66a4,4,0,0,1,.46-1.94A3.4,3.4,0,0,1,461.94,49a3.78,3.78,0,0,1,1.94-.49h.21Z" transform="translate(-1.03)"/><path d="M472.78,65.23a7.37,7.37,0,0,1-3.58-.84A5.94,5.94,0,0,1,466.79,62a8.85,8.85,0,0,1,0-7.57A6,6,0,0,1,469.17,52a7,7,0,0,1,3.45-.84,6.53,6.53,0,0,1,3.36.81,5.48,5.48,0,0,1,2.12,2.23,6.83,6.83,0,0,1,.73,3.2c0,.33,0,.64,0,.93a6.92,6.92,0,0,1-.09.76H467.81V56.82h9.64l-1.44.43a4,4,0,0,0-.92-2.83,3.3,3.3,0,0,0-2.53-1,3.78,3.78,0,0,0-2,.54,3.39,3.39,0,0,0-1.33,1.61,6.61,6.61,0,0,0-.46,2.62,6.19,6.19,0,0,0,.48,2.58,3.53,3.53,0,0,0,1.39,1.6,3.94,3.94,0,0,0,2.12.55,4.08,4.08,0,0,0,2.19-.52A3.5,3.5,0,0,0,476.25,61l2.31,1.09a5.42,5.42,0,0,1-1.31,1.7,5.72,5.72,0,0,1-2,1.09A7.71,7.71,0,0,1,472.78,65.23Z" transform="translate(-1.03)"/><path d="M482.5,65V51.39h2.58l.19,3.53-.38-.38A5,5,0,0,1,486,52.6a4.27,4.27,0,0,1,1.71-1.13,6.34,6.34,0,0,1,2.1-.35,5.9,5.9,0,0,1,2.59.56,4.21,4.21,0,0,1,1.83,1.67,5.26,5.26,0,0,1,.68,2.82V65H492v-7.9a3.75,3.75,0,0,0-.83-2.78,2.94,2.94,0,0,0-2.08-.77,3.84,3.84,0,0,0-1.73.42,3.45,3.45,0,0,0-1.4,1.34,4.78,4.78,0,0,0-.56,2.47V65Z" transform="translate(-1.03)"/><path d="M507.77,51.39v2.28H497.59V51.39Zm-4.67-4V60.89a1.87,1.87,0,0,0,.53,1.47,2.07,2.07,0,0,0,1.42.46,3.33,3.33,0,0,0,1.28-.23,3.78,3.78,0,0,0,1-.64l.66,2.12a4.66,4.66,0,0,1-1.54.85,6.12,6.12,0,0,1-2,.31,5.7,5.7,0,0,1-2.14-.38,3,3,0,0,1-1.52-1.23,4.15,4.15,0,0,1-.57-2.24V48.22Z" transform="translate(-1.03)"/><rect class="cls-1" x="350.29" y="0.5" width="232.99" height="107.76"/><path d="M397.11,199.14V181.22h13v2.5H400v5.16h7.87v2.44H400v5.32h10.45v2.5Z" transform="translate(-1.03)"/><path d="M414,199.14V185.57h2.58l.19,3.53-.38-.38a5,5,0,0,1,1.1-1.94,4.17,4.17,0,0,1,1.71-1.13,6.09,6.09,0,0,1,2.1-.35,5.94,5.94,0,0,1,2.6.55,4.39,4.39,0,0,1,1.83,1.67,5.39,5.39,0,0,1,.68,2.83v8.79h-2.91v-7.9a3.68,3.68,0,0,0-.83-2.78,2.89,2.89,0,0,0-2.07-.78,3.86,3.86,0,0,0-1.74.43,3.39,3.39,0,0,0-1.4,1.34,4.76,4.76,0,0,0-.55,2.47v7.22Z" transform="translate(-1.03)"/><path d="M439.35,185.57h3L437,199.14h-3.18l-5.43-13.57h3.18l3.85,11.05Z" transform="translate(-1.03)"/><path d="M446.33,183.29a2,2,0,0,1-1.46-.48,1.76,1.76,0,0,1-.5-1.34,1.73,1.73,0,0,1,.5-1.33,2.08,2.08,0,0,1,1.46-.46,2,2,0,0,1,1.42.46,1.7,1.7,0,0,1,.5,1.33,1.72,1.72,0,0,1-.5,1.34A2,2,0,0,1,446.33,183.29Zm1.43,2.28v13.57h-2.9V185.57Z" transform="translate(-1.03)"/><path d="M452.3,199.14V185.57h2.47L455,188a4.2,4.2,0,0,1,1.61-2,4.82,4.82,0,0,1,2.65-.69,5.76,5.76,0,0,1,.82.06,2.52,2.52,0,0,1,.67.21l-.4,2.55a5,5,0,0,0-.67-.18,6.35,6.35,0,0,0-1-.06,3.35,3.35,0,0,0-1.65.44,3.5,3.5,0,0,0-1.35,1.35,4.42,4.42,0,0,0-.53,2.28v7.19Z" transform="translate(-1.03)"/><path d="M469.07,185.3a7.11,7.11,0,0,1,3.5.84,5.87,5.87,0,0,1,2.38,2.43,8.85,8.85,0,0,1,0,7.57,5.87,5.87,0,0,1-2.38,2.43,7.71,7.71,0,0,1-7,0,6,6,0,0,1-2.39-2.43,8.67,8.67,0,0,1,0-7.57,6,6,0,0,1,2.39-2.43A7.11,7.11,0,0,1,469.07,185.3Zm0,2.28a3.72,3.72,0,0,0-2.07.55,3.57,3.57,0,0,0-1.32,1.62,6.44,6.44,0,0,0-.46,2.6,6.54,6.54,0,0,0,.46,2.6,3.65,3.65,0,0,0,1.32,1.63,3.72,3.72,0,0,0,2.07.55,3.37,3.37,0,0,0,3.37-2.18,6.54,6.54,0,0,0,.46-2.6,6.44,6.44,0,0,0-.46-2.6,3.6,3.6,0,0,0-1.3-1.62A3.67,3.67,0,0,0,469.07,187.58Z" transform="translate(-1.03)"/><path d="M479.47,199.14V185.57h2.58l.19,3.53-.38-.38a5,5,0,0,1,1.1-1.94,4.17,4.17,0,0,1,1.71-1.13,6.09,6.09,0,0,1,2.1-.35,5.89,5.89,0,0,1,2.59.55,4.36,4.36,0,0,1,1.84,1.67,5.39,5.39,0,0,1,.67,2.83v8.79H489v-7.9a3.72,3.72,0,0,0-.83-2.78,2.9,2.9,0,0,0-2.08-.78,3.85,3.85,0,0,0-1.73.43,3.39,3.39,0,0,0-1.4,1.34,4.75,4.75,0,0,0-.56,2.47v7.22Z" transform="translate(-1.03)"/><path d="M496.27,199.14V185.57h2.58l.14,2.28a4.55,4.55,0,0,1,1.88-1.93,5.27,5.27,0,0,1,2.51-.62,5.62,5.62,0,0,1,2.7.66,4.21,4.21,0,0,1,1.86,2,4.2,4.2,0,0,1,1.2-1.5,5.19,5.19,0,0,1,1.68-.88,6.1,6.1,0,0,1,1.82-.28,5.62,5.62,0,0,1,2.44.54,4.39,4.39,0,0,1,1.85,1.65,5.29,5.29,0,0,1,.7,2.86v8.79h-2.9v-8.33a3.11,3.11,0,0,0-.79-2.39,2.82,2.82,0,0,0-2-.74,3.45,3.45,0,0,0-1.75.47,3.36,3.36,0,0,0-1.29,1.37,4.73,4.73,0,0,0-.49,2.24v7.38h-2.9v-8.33a3.11,3.11,0,0,0-.79-2.39,2.82,2.82,0,0,0-2-.74,3.5,3.5,0,0,0-3,1.8,4.79,4.79,0,0,0-.55,2.44v7.22Z" transform="translate(-1.03)"/><path d="M528,199.41a7.37,7.37,0,0,1-3.58-.84,5.86,5.86,0,0,1-2.4-2.43,8.76,8.76,0,0,1,0-7.57,5.91,5.91,0,0,1,2.37-2.43,7,7,0,0,1,3.45-.84,6.6,6.6,0,0,1,3.37.81,5.46,5.46,0,0,1,2.11,2.23,6.83,6.83,0,0,1,.74,3.2c0,.33,0,.63,0,.92s0,.55-.08.76H523V191h9.64l-1.44.43a4.06,4.06,0,0,0-.92-2.84,3.29,3.29,0,0,0-2.52-1,3.71,3.71,0,0,0-2,.55,3.45,3.45,0,0,0-1.33,1.61,6.61,6.61,0,0,0-.46,2.62,6.09,6.09,0,0,0,.49,2.58,3.46,3.46,0,0,0,1.38,1.6,4,4,0,0,0,2.12.54,4.24,4.24,0,0,0,2.2-.51,3.77,3.77,0,0,0,1.33-1.44l2.3,1.09a5.38,5.38,0,0,1-1.31,1.69,5.65,5.65,0,0,1-2,1.1A8,8,0,0,1,528,199.41Z" transform="translate(-1.03)"/><path d="M537.72,199.14V185.57h2.58l.19,3.53-.38-.38a5,5,0,0,1,1.1-1.94,4.17,4.17,0,0,1,1.71-1.13,6.09,6.09,0,0,1,2.1-.35,5.89,5.89,0,0,1,2.59.55,4.36,4.36,0,0,1,1.84,1.67,5.39,5.39,0,0,1,.67,2.83v8.79h-2.9v-7.9a3.72,3.72,0,0,0-.83-2.78,2.9,2.9,0,0,0-2.08-.78,3.85,3.85,0,0,0-1.73.43,3.39,3.39,0,0,0-1.4,1.34,4.75,4.75,0,0,0-.56,2.47v7.22Z" transform="translate(-1.03)"/><path d="M563,185.57v2.28H552.81v-2.28Zm-4.67-4v13.49a1.83,1.83,0,0,0,.53,1.46,2.09,2.09,0,0,0,1.43.47,3.13,3.13,0,0,0,1.27-.24,3.71,3.71,0,0,0,1-.63l.65,2.11a4.5,4.5,0,0,1-1.54.86,6.12,6.12,0,0,1-2,.31,5.9,5.9,0,0,1-2.14-.38A3,3,0,0,1,556,197.8a4.24,4.24,0,0,1-.57-2.24V182.39Z" transform="translate(-1.03)"/><rect class="cls-1" x="350.29" y="133.69" width="232.99" height="107.76"/><path d="M724.73,118.09A2.8,2.8,0,0,0,724,116a2.76,2.76,0,0,0-2-.75,3.71,3.71,0,0,0-2.09.57,3.28,3.28,0,0,0-1.28,1.85l-2.44-1a4.88,4.88,0,0,1,2-2.66,6.9,6.9,0,0,1,3.9-1,7.35,7.35,0,0,1,2.87.53,4.31,4.31,0,0,1,2,1.59,4.71,4.71,0,0,1,.72,2.71v6a.9.9,0,0,0,1,1,3.41,3.41,0,0,0,1-.14l-.17,2a3.6,3.6,0,0,1-1.57.3,3.71,3.71,0,0,1-1.56-.31,2.46,2.46,0,0,1-1.09-.95,3,3,0,0,1-.39-1.59V124l.6,0a3.32,3.32,0,0,1-1,1.75,4.81,4.81,0,0,1-1.76,1,6.5,6.5,0,0,1-2,.33,6.15,6.15,0,0,1-2.29-.4,3.5,3.5,0,0,1-1.6-1.24,3.45,3.45,0,0,1-.59-2.05,3.35,3.35,0,0,1,1-2.49,5.25,5.25,0,0,1,2.81-1.33l5.27-1,0,2-3.83.79a4.36,4.36,0,0,0-1.71.62,1.38,1.38,0,0,0-.57,1.2,1.43,1.43,0,0,0,.59,1.2,2.49,2.49,0,0,0,1.56.45,5.3,5.3,0,0,0,1.32-.16,3.65,3.65,0,0,0,1.15-.53,2.47,2.47,0,0,0,.8-.95,3.18,3.18,0,0,0,.28-1.4Z" transform="translate(-1.03)"/><path d="M738.2,113a7.45,7.45,0,0,1,2.78.47,5.29,5.29,0,0,1,1.94,1.35,6.08,6.08,0,0,1,1.2,2l-2.75,1.09a3.82,3.82,0,0,0-1.12-1.92,3,3,0,0,0-2-.66,3.82,3.82,0,0,0-2.1.55,3.49,3.49,0,0,0-1.31,1.62,6.62,6.62,0,0,0-.45,2.6,6.37,6.37,0,0,0,.46,2.58,3.42,3.42,0,0,0,1.33,1.6,3.76,3.76,0,0,0,2.07.55,3.81,3.81,0,0,0,1.6-.32,2.86,2.86,0,0,0,1.12-.89,3.21,3.21,0,0,0,.61-1.43l2.64.9a6,6,0,0,1-1.18,2.13,5.34,5.34,0,0,1-2,1.41,6.94,6.94,0,0,1-2.74.5,7.34,7.34,0,0,1-3.56-.84,5.86,5.86,0,0,1-2.4-2.43,8.85,8.85,0,0,1,0-7.57,5.89,5.89,0,0,1,2.39-2.43A7.15,7.15,0,0,1,738.2,113Z" transform="translate(-1.03)"/><path d="M756.22,113.23v2.28H746v-2.28Zm-4.67-4v13.49a1.87,1.87,0,0,0,.53,1.47,2.1,2.1,0,0,0,1.43.46,3.27,3.27,0,0,0,1.27-.23,4,4,0,0,0,1-.64l.65,2.12a4.71,4.71,0,0,1-1.53.85,6.18,6.18,0,0,1-2,.31,5.7,5.7,0,0,1-2.14-.38,3,3,0,0,1-1.52-1.23,4.33,4.33,0,0,1-.57-2.24V110.05Z" transform="translate(-1.03)"/><path d="M760.56,111a2.07,2.07,0,0,1-1.45-.47,1.8,1.8,0,0,1-.5-1.35,1.73,1.73,0,0,1,.5-1.33,2.07,2.07,0,0,1,1.45-.46,2,2,0,0,1,1.43.46,1.73,1.73,0,0,1,.5,1.33,1.8,1.8,0,0,1-.5,1.35A2,2,0,0,1,760.56,111Zm1.44,2.28V126.8h-2.9V113.23Z" transform="translate(-1.03)"/><path d="M772.43,113a7.13,7.13,0,0,1,3.5.84,5.91,5.91,0,0,1,2.37,2.43,8.76,8.76,0,0,1,0,7.57,5.91,5.91,0,0,1-2.37,2.43,7.73,7.73,0,0,1-7,0,6,6,0,0,1-2.38-2.43,8.67,8.67,0,0,1,0-7.57,6,6,0,0,1,2.38-2.43A7.17,7.17,0,0,1,772.43,113Zm0,2.28a3.73,3.73,0,0,0-2.08.56,3.59,3.59,0,0,0-1.32,1.61,7.58,7.58,0,0,0,0,5.2,3.6,3.6,0,0,0,1.32,1.63,3.73,3.73,0,0,0,2.08.55,3.37,3.37,0,0,0,3.36-2.18,7.58,7.58,0,0,0,0-5.2,3.62,3.62,0,0,0-1.3-1.61A3.66,3.66,0,0,0,772.43,115.24Z" transform="translate(-1.03)"/><path d="M782.82,126.8V113.23h2.58l.19,3.53-.38-.38a5,5,0,0,1,1.1-1.94,4.27,4.27,0,0,1,1.71-1.13,6.34,6.34,0,0,1,2.1-.35,5.94,5.94,0,0,1,2.6.56,4.21,4.21,0,0,1,1.83,1.67,5.35,5.35,0,0,1,.68,2.82v8.79h-2.91v-7.9a3.75,3.75,0,0,0-.82-2.78,3,3,0,0,0-2.08-.77,3.85,3.85,0,0,0-1.74.42,3.45,3.45,0,0,0-1.4,1.34,4.78,4.78,0,0,0-.55,2.47v7.22Z" transform="translate(-1.03)"/><path d="M713.69,159.38l10.91-17.92h2.69l2.6,17.92h-2.14l-1.88-12.87-.38-2.71-1.57,2.6-7.79,13Zm4.53-5.13.46-2h9.39l-.46,2Z" transform="translate(-1.03)"/><path d="M733.12,161.59l.25-1.09h5.32l-.25,1.09Zm2.69,6.95a2.63,2.63,0,0,1-1.3-.3,1.66,1.66,0,0,1-.76-.87,2.36,2.36,0,0,1,0-1.36l1.67-7.25,1.37-.39-1.8,7.7a1,1,0,0,0,.2,1,1.27,1.27,0,0,0,.89.31,2.14,2.14,0,0,0,.7-.11,2,2,0,0,0,.52-.29l.25,1a2.51,2.51,0,0,1-.8.37A3.62,3.62,0,0,1,735.81,168.54Z" transform="translate(-1.03)"/><path d="M145.83,107.34V93.77h2.47l.27,2.44a4.25,4.25,0,0,1,1.61-2,4.82,4.82,0,0,1,2.65-.69,5.76,5.76,0,0,1,.82.06,2.52,2.52,0,0,1,.67.21l-.4,2.55a5,5,0,0,0-.67-.18,6.35,6.35,0,0,0-1-.06,3.35,3.35,0,0,0-1.65.44,3.57,3.57,0,0,0-1.35,1.35,4.42,4.42,0,0,0-.53,2.28v7.19Z" transform="translate(-1.03)"/><path d="M162.68,107.61a7.4,7.4,0,0,1-3.58-.84,5.86,5.86,0,0,1-2.4-2.43,8.76,8.76,0,0,1,0-7.57,5.91,5.91,0,0,1,2.37-2.43,7,7,0,0,1,3.45-.84,6.6,6.6,0,0,1,3.37.81A5.4,5.4,0,0,1,168,96.54a6.83,6.83,0,0,1,.74,3.2c0,.33,0,.63,0,.92a6.85,6.85,0,0,1-.08.76H157.72V99.2h9.63l-1.43.43A4,4,0,0,0,165,96.8a3.23,3.23,0,0,0-2.52-1,3.79,3.79,0,0,0-2,.55A3.45,3.45,0,0,0,159.1,98a6.61,6.61,0,0,0-.46,2.62,6.06,6.06,0,0,0,.49,2.58,3.51,3.51,0,0,0,1.38,1.6,4.05,4.05,0,0,0,2.12.54,4.19,4.19,0,0,0,2.2-.51,3.63,3.63,0,0,0,1.33-1.44l2.31,1.09a5.57,5.57,0,0,1-1.32,1.69,5.65,5.65,0,0,1-2,1.1A7.67,7.67,0,0,1,162.68,107.61Z" transform="translate(-1.03)"/><path d="M189.31,93.77h3.15l-4.56,13.57h-3.17l-3.42-10.07-3.23,10.07H174.9l-4.53-13.57h3.12l3.09,10.72L180,93.77h2.9l3.37,10.72Z" transform="translate(-1.03)"/><path d="M202.83,98.63a2.85,2.85,0,0,0-.75-2.11,2.78,2.78,0,0,0-2-.74,3.69,3.69,0,0,0-2.09.57,3.29,3.29,0,0,0-1.28,1.84l-2.44-1a4.83,4.83,0,0,1,2-2.66,6.87,6.87,0,0,1,3.89-1A7.18,7.18,0,0,1,203,94a4.41,4.41,0,0,1,2,1.58,4.77,4.77,0,0,1,.72,2.72v6a.89.89,0,0,0,1,1,3.36,3.36,0,0,0,.95-.14l-.16,2a3.63,3.63,0,0,1-1.57.3,4,4,0,0,1-1.57-.31,2.43,2.43,0,0,1-1.08-1,3,3,0,0,1-.39-1.59v-.19l.59,0a3.31,3.31,0,0,1-1,1.75,4.91,4.91,0,0,1-1.77,1,6.18,6.18,0,0,1-2,.34,6,6,0,0,1-2.3-.41,3.53,3.53,0,0,1-1.6-1.23,3.47,3.47,0,0,1-.58-2,3.37,3.37,0,0,1,1-2.5,5.4,5.4,0,0,1,2.81-1.33l5.27-1,0,2-3.83.78a4.51,4.51,0,0,0-1.71.63,1.37,1.37,0,0,0-.57,1.19,1.47,1.47,0,0,0,.58,1.21,2.5,2.5,0,0,0,1.57.45,5.66,5.66,0,0,0,1.31-.16,3.61,3.61,0,0,0,1.16-.53,2.55,2.55,0,0,0,.8-1,3.18,3.18,0,0,0,.28-1.4Z" transform="translate(-1.03)"/><path d="M210.46,107.34V93.77h2.47l.27,2.44a4.25,4.25,0,0,1,1.61-2,4.82,4.82,0,0,1,2.65-.69,5.76,5.76,0,0,1,.82.06,2.52,2.52,0,0,1,.67.21l-.4,2.55a5,5,0,0,0-.67-.18,6.35,6.35,0,0,0-1-.06,3.35,3.35,0,0,0-1.65.44,3.57,3.57,0,0,0-1.35,1.35,4.42,4.42,0,0,0-.53,2.28v7.19Z" transform="translate(-1.03)"/><path d="M226.55,107.61a5.71,5.71,0,0,1-3.05-.84,5.86,5.86,0,0,1-2.16-2.42,8.37,8.37,0,0,1-.78-3.77,8.09,8.09,0,0,1,.84-3.85,5.92,5.92,0,0,1,5.34-3.23,4.5,4.5,0,0,1,4.54,3.42l-.33.3V87.66h2.91v19.68h-2.58l-.22-3.69.38,0a4.43,4.43,0,0,1-.9,2.1,4.69,4.69,0,0,1-1.75,1.36A5.42,5.42,0,0,1,226.55,107.61Zm.63-2.33a3.37,3.37,0,0,0,2-.6,3.89,3.89,0,0,0,1.3-1.68,6.62,6.62,0,0,0,.46-2.61,5.82,5.82,0,0,0-.46-2.43,3.58,3.58,0,0,0-1.29-1.56,3.76,3.76,0,0,0-4.74.71,5.34,5.34,0,0,0-1,3.44,5.57,5.57,0,0,0,1,3.47A3.26,3.26,0,0,0,227.18,105.28Z" transform="translate(-1.03)"/><path d="M144.85,139.91,149,122h5.87a5.51,5.51,0,0,1,3.84,1.29,4.57,4.57,0,0,1,1.42,3.57,5.3,5.3,0,0,1-.69,2.71,5.65,5.65,0,0,1-1.82,1.94,6.44,6.44,0,0,1-2.43,1l-1.35.19h-5.57l.46-2h4.89a4.91,4.91,0,0,0,2.39-.53,3.48,3.48,0,0,0,1.41-1.41,4.11,4.11,0,0,0,.46-1.94,2.41,2.41,0,0,0-.92-2,4.15,4.15,0,0,0-2.53-.7h-3.72L147,139.91Zm11.46,0-3.07-7.62,2.2-.28,3.23,7.9Z" transform="translate(-1.03)"/><path d="M161.89,142.13l.26-1.09h5.31l-.25,1.09Zm2.69,7a2.62,2.62,0,0,1-1.29-.3,1.66,1.66,0,0,1-.76-.87,2.28,2.28,0,0,1-.05-1.36l1.66-7.25,1.38-.4-1.81,7.71a1,1,0,0,0,.2,1,1.36,1.36,0,0,0,.9.31,1.91,1.91,0,0,0,1.22-.4l.25,1a2.59,2.59,0,0,1-.81.38A3.57,3.57,0,0,1,164.58,149.08Z" transform="translate(-1.03)"/><path d="M7.41,109.08a8.73,8.73,0,0,1-3.72-.79A6.48,6.48,0,0,1,1,106.06l2-1.74a4.46,4.46,0,0,0,1.72,1.78,5.18,5.18,0,0,0,2.7.67,3.89,3.89,0,0,0,2-.44,1.39,1.39,0,0,0,.39-2.13,2.49,2.49,0,0,0-1.29-.61L5.7,103a5.71,5.71,0,0,1-3.09-1.39,3.41,3.41,0,0,1-.93-2.46,3.59,3.59,0,0,1,.65-2.06,4.61,4.61,0,0,1,1.92-1.54,7.14,7.14,0,0,1,3-.58,7.71,7.71,0,0,1,3.48.72,5.08,5.08,0,0,1,2.2,2l-2,1.68A3.45,3.45,0,0,0,9.42,97.8a4.36,4.36,0,0,0-2.09-.53,4.65,4.65,0,0,0-1.49.21,2.16,2.16,0,0,0-1,.6,1.33,1.33,0,0,0-.33.9,1.31,1.31,0,0,0,.41,1,2.89,2.89,0,0,0,1.46.62l3.1.65a4.88,4.88,0,0,1,2.75,1.29,3.22,3.22,0,0,1,.8,2.21,4,4,0,0,1-.67,2.3,4.41,4.41,0,0,1-2,1.53A7.75,7.75,0,0,1,7.41,109.08Z" transform="translate(-1.03)"/><path d="M25.24,95.23v2.28H15.07V95.23Zm-4.66-4v13.49a1.87,1.87,0,0,0,.52,1.47,2.1,2.1,0,0,0,1.43.46,3.36,3.36,0,0,0,1.28-.23,4,4,0,0,0,1-.64l.65,2.12a4.71,4.71,0,0,1-1.53.85,6.16,6.16,0,0,1-2,.32,6,6,0,0,1-2.15-.38,3.11,3.11,0,0,1-1.52-1.24,4.33,4.33,0,0,1-.57-2.24V92.06Z" transform="translate(-1.03)"/><path d="M36.05,100.09A2.82,2.82,0,0,0,35.3,98a2.76,2.76,0,0,0-2-.75,3.74,3.74,0,0,0-2.09.57,3.36,3.36,0,0,0-1.28,1.85l-2.44-1a4.93,4.93,0,0,1,2-2.66,7,7,0,0,1,3.9-1,7.4,7.4,0,0,1,2.88.53,4.37,4.37,0,0,1,2,1.59,4.79,4.79,0,0,1,.71,2.71v6.06a.89.89,0,0,0,1,1,3.41,3.41,0,0,0,1-.14l-.16,2a4.19,4.19,0,0,1-3.14,0,2.43,2.43,0,0,1-1.08-.95,2.93,2.93,0,0,1-.4-1.59V106l.6,0a3.26,3.26,0,0,1-1,1.75,4.81,4.81,0,0,1-1.76,1,6.51,6.51,0,0,1-2,.34,6.15,6.15,0,0,1-2.29-.41,3.32,3.32,0,0,1-2.18-3.29,3.35,3.35,0,0,1,1-2.49,5.22,5.22,0,0,1,2.8-1.33l5.27-1,0,2-3.82.79a4.36,4.36,0,0,0-1.71.62,1.38,1.38,0,0,0-.57,1.2,1.42,1.42,0,0,0,.58,1.2,2.49,2.49,0,0,0,1.56.45,5.3,5.3,0,0,0,1.32-.16,3.55,3.55,0,0,0,1.15-.53,2.47,2.47,0,0,0,.8-.95,3.18,3.18,0,0,0,.29-1.4Z" transform="translate(-1.03)"/><path d="M51.76,95.23v2.28H41.58V95.23Zm-4.67-4v13.49a1.87,1.87,0,0,0,.53,1.47,2.1,2.1,0,0,0,1.43.46,3.36,3.36,0,0,0,1.28-.23,4,4,0,0,0,1-.64l.65,2.12a4.71,4.71,0,0,1-1.53.85,6.18,6.18,0,0,1-2,.32,5.94,5.94,0,0,1-2.14-.38,3.11,3.11,0,0,1-1.52-1.24,4.33,4.33,0,0,1-.57-2.24V92.06Z" transform="translate(-1.03)"/><path d="M60.61,109.08a7.37,7.37,0,0,1-3.58-.85,5.86,5.86,0,0,1-2.4-2.43,8.76,8.76,0,0,1,0-7.57A5.91,5.91,0,0,1,57,95.8,7,7,0,0,1,60.45,95a6.6,6.6,0,0,1,3.37.81A5.52,5.52,0,0,1,65.93,98a6.83,6.83,0,0,1,.74,3.2q0,.49,0,.93c0,.29,0,.54-.08.76H55.64v-2.23h9.64l-1.44.43a4,4,0,0,0-.92-2.83,3.29,3.29,0,0,0-2.52-1,3.79,3.79,0,0,0-2,.54A3.43,3.43,0,0,0,57,99.43a6.52,6.52,0,0,0-.46,2.61,6,6,0,0,0,.49,2.58,3.46,3.46,0,0,0,1.38,1.6,3.94,3.94,0,0,0,2.12.55,4.12,4.12,0,0,0,2.2-.52,3.63,3.63,0,0,0,1.33-1.44l2.3,1.09a5.42,5.42,0,0,1-1.31,1.7,5.81,5.81,0,0,1-2,1.1A8,8,0,0,1,60.61,109.08Z" transform="translate(-1.03)"/><path d="M9.15,141.59A10.16,10.16,0,0,1,5.52,141a7.41,7.41,0,0,1-2.74-1.77,7.78,7.78,0,0,1-1.72-2.91l2.17-1.08a6.25,6.25,0,0,0,1.36,2.53,5,5,0,0,0,2.12,1.39,8,8,0,0,0,2.63.42,4.9,4.9,0,0,0,2.22-.45,3.26,3.26,0,0,0,1.35-1.17,2.83,2.83,0,0,0,.44-1.53,2,2,0,0,0-.63-1.58,4.89,4.89,0,0,0-1.86-.92L8,133.1A8.44,8.44,0,0,1,5.61,132a4.5,4.5,0,0,1-1.47-1.55,3.88,3.88,0,0,1-.5-2,4.82,4.82,0,0,1,.8-2.72,5.57,5.57,0,0,1,2.25-1.94,7.65,7.65,0,0,1,3.44-.72,8.26,8.26,0,0,1,4.39,1.09,6,6,0,0,1,2.53,3.31l-2.17,1.06a4.43,4.43,0,0,0-1.12-2.15,4.07,4.07,0,0,0-1.74-1,7.59,7.59,0,0,0-2-.27,5.47,5.47,0,0,0-2.28.41,3,3,0,0,0-1.37,1.08,2.64,2.64,0,0,0-.45,1.49,2.36,2.36,0,0,0,.71,1.67A4.09,4.09,0,0,0,8.5,131l3.23.93a6.18,6.18,0,0,1,2.93,1.61,3.7,3.7,0,0,1,.95,2.57,5,5,0,0,1-.88,2.93,6,6,0,0,1-2.35,1.93A7.66,7.66,0,0,1,9.15,141.59Z" transform="translate(-1.03)"/><path d="M18.37,143.6l.26-1.1h5.31l-.25,1.1Zm2.69,6.94a2.59,2.59,0,0,1-1.29-.3,1.62,1.62,0,0,1-.76-.87A2.28,2.28,0,0,1,19,148l1.66-7.25,1.38-.39-1.81,7.7a1,1,0,0,0,.2,1,1.31,1.31,0,0,0,.9.31,2.08,2.08,0,0,0,.69-.11,1.85,1.85,0,0,0,.52-.29l.26,1a2.66,2.66,0,0,1-.81.37A3.57,3.57,0,0,1,21.06,150.54Z" transform="translate(-1.03)"/><path d="M298.84,150.63,303,132.71h5.86A5.51,5.51,0,0,1,312.7,134a4.57,4.57,0,0,1,1.43,3.57,5.21,5.21,0,0,1-.7,2.71,5.74,5.74,0,0,1-1.81,1.95,6.93,6.93,0,0,1-2.43,1l-1.36.19h-5.57l.47-2h4.88a4.89,4.89,0,0,0,2.39-.53,3.42,3.42,0,0,0,1.41-1.41,4.11,4.11,0,0,0,.46-1.94,2.38,2.38,0,0,0-.92-2.05,4.14,4.14,0,0,0-2.52-.69h-3.72L301,150.63Zm11.46,0L307.23,143l2.2-.27,3.23,7.9Z" transform="translate(-1.03)"/><path d="M315.89,152.85l.25-1.1h5.32l-.25,1.1Zm2.69,6.94a2.63,2.63,0,0,1-1.3-.3,1.66,1.66,0,0,1-.76-.87,2.36,2.36,0,0,1,0-1.36l1.66-7.25,1.38-.39-1.8,7.7a1,1,0,0,0,.2,1,1.27,1.27,0,0,0,.89.31,2.14,2.14,0,0,0,.7-.11,2,2,0,0,0,.52-.29l.25,1a2.46,2.46,0,0,1-.81.37A3.54,3.54,0,0,1,318.58,159.79Z" transform="translate(-1.03)"/><path d="M330.23,154.06l-.27,1.19h-7.69l.26-1.19Zm-2.49-3.32-1.8,7.85h-1.19l1.8-7.85Z" transform="translate(-1.03)"/><path d="M332.71,159.67l1.69-7.38.24-.86q.11-.37.24-.72a4,4,0,0,1-.83.57,8.67,8.67,0,0,1-1.12.5,5.9,5.9,0,0,1-1.11.32v-1.23a8,8,0,0,0,1.27-.41,11.64,11.64,0,0,0,1.28-.61,5.51,5.51,0,0,0,.92-.63h1.11L334,159.67Z" transform="translate(-1.03)"/><path d="M305.66,199.63A10.16,10.16,0,0,1,302,199a7.43,7.43,0,0,1-2.74-1.78,7.82,7.82,0,0,1-1.72-2.9l2.17-1.09a6.22,6.22,0,0,0,1.36,2.54,5.1,5.1,0,0,0,2.11,1.38,8.12,8.12,0,0,0,2.64.42,4.9,4.9,0,0,0,2.22-.45,3.17,3.17,0,0,0,1.35-1.16,2.84,2.84,0,0,0,.44-1.54,2,2,0,0,0-.63-1.57,4.75,4.75,0,0,0-1.86-.92l-2.91-.82a8.16,8.16,0,0,1-2.34-1.06,4.48,4.48,0,0,1-1.47-1.54,3.89,3.89,0,0,1-.5-2,4.78,4.78,0,0,1,.8-2.71,5.5,5.5,0,0,1,2.25-1.94,7.64,7.64,0,0,1,3.43-.72,8.27,8.27,0,0,1,4.4,1.08,6,6,0,0,1,2.53,3.32l-2.18,1.05a4.31,4.31,0,0,0-1.11-2.14,4,4,0,0,0-1.74-1,7.21,7.21,0,0,0-2-.28,5.64,5.64,0,0,0-2.28.41,3,3,0,0,0-1.37,1.09,2.64,2.64,0,0,0-.45,1.49,2.35,2.35,0,0,0,.71,1.67A4.18,4.18,0,0,0,305,189l3.23.92a6.19,6.19,0,0,1,2.93,1.62,3.67,3.67,0,0,1,.95,2.56,5,5,0,0,1-.88,2.93,5.78,5.78,0,0,1-2.35,1.93A7.66,7.66,0,0,1,305.66,199.63Z" transform="translate(-1.03)"/><path d="M314.88,201.63l.26-1.09h5.31l-.25,1.09Zm2.69,7a2.59,2.59,0,0,1-1.29-.3,1.62,1.62,0,0,1-.76-.87,2.29,2.29,0,0,1,0-1.36l1.66-7.25,1.38-.4-1.81,7.71a1,1,0,0,0,.2,1,1.31,1.31,0,0,0,.89.31,1.87,1.87,0,0,0,.7-.11,1.83,1.83,0,0,0,.52-.28l.26,1a2.44,2.44,0,0,1-.81.37A3.56,3.56,0,0,1,317.57,208.58Z" transform="translate(-1.03)"/><path d="M329.22,202.85,329,204h-7.69l.27-1.19Zm-2.48-3.32-1.81,7.84h-1.18l1.8-7.84Z" transform="translate(-1.03)"/><path d="M331.71,208.45l1.69-7.37q.12-.5.24-.87c.07-.24.15-.48.23-.72a3.71,3.71,0,0,1-.83.57,9.39,9.39,0,0,1-1.11.51,6.76,6.76,0,0,1-1.11.32v-1.24a7.55,7.55,0,0,0,1.26-.4,11,11,0,0,0,1.29-.62,5.4,5.4,0,0,0,.91-.62h1.11L333,208.45Z" transform="translate(-1.03)"/><polyline class="cls-2" points="583.28 54.38 699.78 54.38 699.78 187.57 599.59 187.57"/><path d="M604.21,187.57l4.38,7.21-.25.16-11.75-4.66-12.28-2.71,12.28-2.7,11.75-4.66.25.12Z" transform="translate(-1.03)"/><line class="cls-2" x1="350.29" y1="168.54" x2="293.25" y2="168.54"/><path d="M297.87,168.54l4.38,7.21-.24.16-11.75-4.67L278,168.54l12.28-2.7L302,161.17l.24.13Z" transform="translate(-1.03)"/><line class="cls-2" x1="350.29" y1="217.31" x2="293.25" y2="217.31"/><path d="M297.87,217.31l4.38,7.21-.24.16L290.26,220,278,217.31l12.28-2.7L302,209.94l.24.12Z" transform="translate(-1.03)"/><line class="cls-2" x1="255.37" y1="141.46" x2="255.37" y2="143.46"/><line class="cls-3" x1="255.37" y1="147.3" x2="255.37" y2="237.54"/><line class="cls-2" x1="255.37" y1="239.45" x2="255.37" y2="241.45"/><polyline class="cls-2" points="242.43 168.54 128.09 168.54 128.09 75.86 333.99 75.86"/><path d="M331.43,75.86l-4.38-7.2.24-.17L339,73.16l12.28,2.7L339,78.57l-11.75,4.66-.24-.12Z" transform="translate(-1.03)"/><polyline class="cls-2" points="238.11 217.31 87.1 217.31 87.1 24.23 333.99 24.23"/><path d="M331.43,24.23,327.05,17l.24-.16L339,21.53l12.28,2.7L339,26.93,327.29,31.6l-.24-.12Z" transform="translate(-1.03)"/></g></g></svg>