<svg xmlns="http://www.w3.org/2000/svg" viewBox="0 0 581.14 513.48"><defs><style>.cls-1,.cls-6{fill:#fff;}.cls-1,.cls-9{stroke:#3a393e;}.cls-1,.cls-12,.cls-13,.cls-14,.cls-8,.cls-9{stroke-miterlimit:10;}.cls-2{fill:#e3f3fd;}.cls-3{fill:#c0e2f1;}.cls-4{fill:#d3daef;}.cls-5{fill:#969aad;}.cls-7{fill:#3b3b3b;}.cls-13,.cls-8,.cls-9{fill:none;}.cls-8{stroke:#e0e0e2;}.cls-10{fill:#1c3b40;}.cls-11,.cls-14{fill:#a5b2a6;}.cls-12{fill:#3a393e;stroke:#fff;}.cls-13{stroke:#1c3b40;stroke-linecap:round;stroke-width:3px;}.cls-14{stroke:#a5b2a6;fill-rule:evenodd;}</style></defs><g id="Layer_2" data-name="Layer 2"><g id="Layer_3" data-name="Layer 3"><path class="cls-1" d="M283.29,472.94a88.82,88.82,0,1,0-88.82-88.82A88.83,88.83,0,0,0,283.29,472.94Z" transform="translate(-1.03 -3.07)"/><path class="cls-2" d="M315.83,348.59A12.8,12.8,0,1,0,303,335.8,12.81,12.81,0,0,0,315.83,348.59Z" transform="translate(-1.03 -3.07)"/><path class="cls-3" d="M315.83,344a8.2,8.2,0,1,0-8.19-8.19A8.19,8.19,0,0,0,315.83,344Z" transform="translate(-1.03 -3.07)"/><path class="cls-4" d="M249.8,453.41c8.83,4.77,20.44,7.77,33.17,7.77s24.41-3,33.24-7.81c-2.12-27,6.05-35.14,7.93-36.65C318.88,413,311.56,410.09,303,408a83.54,83.54,0,0,0-20-2.36,84.83,84.83,0,0,0-19.7,2.27c-8.69,2.1-16.12,5-21.44,8.79C243.62,418.09,252,426.16,249.8,453.41Z" transform="translate(-1.03 -3.07)"/><path class="cls-5" d="M316.21,453.37C326.48,447.8,333,439.85,333,431.48c0-5.92-3.25-10.82-8.81-14.76C322.26,418.23,314.09,426.4,316.21,453.37Z" transform="translate(-1.03 -3.07)"/><path class="cls-5" d="M233,431.48c0,8.38,6.5,16.36,16.82,21.93,2.16-27.25-6.18-35.32-8-36.73C236.25,420.63,233,425.54,233,431.48Z" transform="translate(-1.03 -3.07)"/><path class="cls-6" d="M283.29,457.62a23.8,23.8,0,1,0-23.81-23.8A23.83,23.83,0,0,0,283.29,457.62Z" transform="translate(-1.03 -3.07)"/><path class="cls-7" d="M245.75,379.11l4.29,2.3h4.3V364.58h-8.59Z" transform="translate(-1.03 -3.07)"/><path class="cls-8" d="M250,364.58v16.83" transform="translate(-1.03 -3.07)"/><path class="cls-7" d="M320.09,379.11l-4.3,2.3h-4.3V364.58h8.6Z" transform="translate(-1.03 -3.07)"/><path class="cls-5" d="M252.3,371.12A30.75,30.75,0,1,0,304.35,349,31.23,31.23,0,0,0,301,346.2a30.74,30.74,0,0,0-48.74,24.92Z" transform="translate(-1.03 -3.07)"/><path class="cls-8" d="M315.79,364.58v16.83" transform="translate(-1.03 -3.07)"/><path class="cls-9" d="M313.79,364.58l2-28.24" transform="translate(-1.03 -3.07)"/><path class="cls-10" d="M312.24,335.78a3.58,3.58,0,1,0,3.59-3.6,3.6,3.6,0,0,0-3.59,3.6Z" transform="translate(-1.03 -3.07)"/><path class="cls-4" d="M262.23,348.49v26.75l21.06,14.56,21.06-14.56V349A31.23,31.23,0,0,0,301,346.2a30.67,30.67,0,0,0-38.81,2.29Z" transform="translate(-1.03 -3.07)"/><path class="cls-6" d="M313.48,333.06a2.1,2.1,0,0,0,4-.48,3.61,3.61,0,0,0-1.64-.4A3.56,3.56,0,0,0,313.48,333.06Z" transform="translate(-1.03 -3.07)"/><path class="cls-7" d="M263.27,407.89a78,78,0,0,0,20,2.29A79.41,79.41,0,0,0,303,408a86.31,86.31,0,0,0-39.71-.09Z" transform="translate(-1.03 -3.07)"/><path class="cls-2" d="M283.29,450a16.14,16.14,0,1,0-16.14-16.14A16.14,16.14,0,0,0,283.29,450Z" transform="translate(-1.03 -3.07)"/><path class="cls-7" d="M283.29,446.89a13.07,13.07,0,1,0-13.07-13.07A13.09,13.09,0,0,0,283.29,446.89Z" transform="translate(-1.03 -3.07)"/><path class="cls-11" d="M283.29,443.82a10,10,0,1,0-10-10A10,10,0,0,0,283.29,443.82Z" transform="translate(-1.03 -3.07)"/><path class="cls-6" d="M284.31,435.85a4.1,4.1,0,1,0-4.1-4.09A4.09,4.09,0,0,0,284.31,435.85Z" transform="translate(-1.03 -3.07)"/><path class="cls-2" d="M280.18,440a2.05,2.05,0,1,0-2.05-2.05A2.05,2.05,0,0,0,280.18,440Z" transform="translate(-1.03 -3.07)"/><path class="cls-9" d="M297.74,426.71l-2.6,1.53" transform="translate(-1.03 -3.07)"/><path class="cls-9" d="M296.49,424.58l-2.6,1.54" transform="translate(-1.03 -3.07)"/><path class="cls-9" d="M272.64,441.5,270,443" transform="translate(-1.03 -3.07)"/><path class="cls-9" d="M271.39,439.37l-2.6,1.53" transform="translate(-1.03 -3.07)"/><path class="cls-11" d="M265.46,345.89l.32,1.56a8.4,8.4,0,0,0,3,4.87h0a8.42,8.42,0,0,0,3.06,1.54l11.46,3.05,11.46-3.05a8.35,8.35,0,0,0,6-6.42l.25-1.24a30.77,30.77,0,0,0-35.58-.31Z" transform="translate(-1.03 -3.07)"/><path class="cls-12" d="M295.71,373a1.94,1.94,0,0,0,1.94-1.94v-6.78a1.94,1.94,0,1,0-3.87,0v6.78A1.94,1.94,0,0,0,295.71,373Z" transform="translate(-1.03 -3.07)"/><path class="cls-12" d="M270.22,373a1.94,1.94,0,0,0,1.94-1.94v-6.78a1.94,1.94,0,1,0-3.88,0v6.78A1.94,1.94,0,0,0,270.22,373Z" transform="translate(-1.03 -3.07)"/><path class="cls-9" d="M285.37,384.12l-2.24,1.79-2.25-1.79" transform="translate(-1.03 -3.07)"/><path class="cls-6" d="M304.87,314.23l-3-1.55c-.21-.12-.41.21-.19.33l3,1.55C304.9,314.66,305.09,314.34,304.87,314.23Z" transform="translate(-1.03 -3.07)"/><path d="M246.29,510.71l6.76-17.91h3.47l6.76,17.91h-3.07L255.6,497.9l-.81-2.58h-.09l-.76,2.53-4.67,12.86ZM249.9,506v-2.37h9.69V506Z" transform="translate(-1.03 -3.07)"/><path d="M273.7,508.6a5.07,5.07,0,0,1,3.21.9,3.05,3.05,0,0,1,1.14,2.52,3.51,3.51,0,0,1-.9,2.42,5.79,5.79,0,0,1-2.43,1.57,10.52,10.52,0,0,1-3.51.54,9.35,9.35,0,0,1-4.94-1,3,3,0,0,1-1.6-2.58,2.64,2.64,0,0,1,.77-1.9,3.85,3.85,0,0,1,2.62-.92l-.16.43a3.87,3.87,0,0,1-1.84-.88,2.35,2.35,0,0,1-.69-1.81,2.56,2.56,0,0,1,.9-2,4.16,4.16,0,0,1,2.52-.95l1.52.73H270a3.16,3.16,0,0,0-1.77.57,1.39,1.39,0,0,0-.51,1,1.1,1.1,0,0,0,.5,1,2.57,2.57,0,0,0,1.42.33Zm-2.6-11.73a7.81,7.81,0,0,1,3.11.57,4.68,4.68,0,0,1,2,1.6,4.41,4.41,0,0,1,0,4.83,4.68,4.68,0,0,1-2,1.6,7.81,7.81,0,0,1-3.11.57,6.58,6.58,0,0,1-4.33-1.26,4.11,4.11,0,0,1-1.51-3.32A4.06,4.06,0,0,1,266,499a4.71,4.71,0,0,1,2-1.6A7.66,7.66,0,0,1,271.1,496.87Zm.11,17.51a8.79,8.79,0,0,0,2.45-.29,3.45,3.45,0,0,0,1.44-.73,1.34,1.34,0,0,0,.48-1,1.22,1.22,0,0,0-.5-1,3.18,3.18,0,0,0-1.81-.38H268.9a2,2,0,0,0-1.28.4,1.28,1.28,0,0,0-.51,1.07,1.57,1.57,0,0,0,1.08,1.41A7.25,7.25,0,0,0,271.21,514.38Zm-.11-15.48a3.15,3.15,0,0,0-2.08.7,2.3,2.3,0,0,0-.83,1.86,2.35,2.35,0,0,0,.83,1.87,3.43,3.43,0,0,0,4.18,0,2.35,2.35,0,0,0,.83-1.87,2.3,2.3,0,0,0-.83-1.86A3.17,3.17,0,0,0,271.1,498.9Zm6.89-4.61.47,2.28h-.17l-.16,0a3.05,3.05,0,0,0-2,.56,2,2,0,0,0-.68,1.62l-1.41-.66a4,4,0,0,1,.46-1.94,3.38,3.38,0,0,1,1.31-1.34,3.84,3.84,0,0,1,1.95-.49H278Z" transform="translate(-1.03 -3.07)"/><path d="M286.68,511a7.37,7.37,0,0,1-3.58-.84,5.82,5.82,0,0,1-2.41-2.43,8.85,8.85,0,0,1,0-7.57,5.87,5.87,0,0,1,2.38-2.43,7,7,0,0,1,3.45-.84,6.53,6.53,0,0,1,3.36.81,5.55,5.55,0,0,1,2.12,2.23,6.83,6.83,0,0,1,.73,3.2c0,.33,0,.64,0,.93a7.24,7.24,0,0,1-.09.76H281.71v-2.23h9.64l-1.44.43a4,4,0,0,0-.92-2.83,3.3,3.3,0,0,0-2.53-1,3.73,3.73,0,0,0-2,.54,3.39,3.39,0,0,0-1.33,1.61,6.6,6.6,0,0,0-.47,2.62,6.18,6.18,0,0,0,.49,2.58,3.53,3.53,0,0,0,1.39,1.6,3.9,3.9,0,0,0,2.11.55,4.1,4.1,0,0,0,2.2-.52,3.56,3.56,0,0,0,1.33-1.44l2.31,1.09a5.3,5.3,0,0,1-1.32,1.69,5.6,5.6,0,0,1-2,1.1A7.71,7.71,0,0,1,286.68,511Z" transform="translate(-1.03 -3.07)"/><path d="M296.4,510.71V497.14H299l.19,3.53-.38-.38a5.15,5.15,0,0,1,1.09-1.94,4.27,4.27,0,0,1,1.71-1.13,6.4,6.4,0,0,1,2.11-.35,5.9,5.9,0,0,1,2.59.56,4.21,4.21,0,0,1,1.83,1.67,5.26,5.26,0,0,1,.68,2.82v8.79h-2.9v-7.9a3.75,3.75,0,0,0-.83-2.78,3,3,0,0,0-2.08-.77,3.91,3.91,0,0,0-1.74.42,3.43,3.43,0,0,0-1.39,1.34,4.78,4.78,0,0,0-.56,2.47v7.22Z" transform="translate(-1.03 -3.07)"/><path d="M321.67,497.14v2.28H311.49v-2.28Zm-4.67-4v13.49a1.84,1.84,0,0,0,.53,1.47,2.12,2.12,0,0,0,1.42.46,3.33,3.33,0,0,0,1.28-.23,4,4,0,0,0,1-.64l.65,2.12a4.51,4.51,0,0,1-1.53.85,6.16,6.16,0,0,1-2,.31,5.75,5.75,0,0,1-2.15-.38,3.08,3.08,0,0,1-1.52-1.23,4.33,4.33,0,0,1-.57-2.24V494Z" transform="translate(-1.03 -3.07)"/><path d="M484.59,252l6.75-17.92h3.48L501.58,252h-3.07l-4.61-12.81-.82-2.58H493l-.76,2.52L487.57,252Zm3.61-4.7v-2.36h9.69v2.36Z" transform="translate(-1.03 -3.07)"/><path d="M509.91,238.15a7.21,7.21,0,0,1,2.78.48,5.39,5.39,0,0,1,1.94,1.34,5.86,5.86,0,0,1,1.2,2L513.09,243a3.8,3.8,0,0,0-1.13-1.91,3,3,0,0,0-2-.67,3.81,3.81,0,0,0-2.09.56,3.47,3.47,0,0,0-1.32,1.61,6.71,6.71,0,0,0-.45,2.61,6.43,6.43,0,0,0,.47,2.58,3.41,3.41,0,0,0,1.33,1.6,4.24,4.24,0,0,0,3.66.23,3.09,3.09,0,0,0,1.13-.89,3.38,3.38,0,0,0,.61-1.43l2.63.9a5.84,5.84,0,0,1-1.18,2.13,5.54,5.54,0,0,1-2,1.41,7.14,7.14,0,0,1-2.75.5,7.3,7.3,0,0,1-3.55-.84A5.86,5.86,0,0,1,504,249a8.76,8.76,0,0,1,0-7.57,5.87,5.87,0,0,1,2.38-2.43A7.18,7.18,0,0,1,509.91,238.15Z" transform="translate(-1.03 -3.07)"/><path d="M527.94,238.43v2.28H517.76v-2.28Zm-4.67-4v13.49a1.8,1.8,0,0,0,.53,1.46,2.06,2.06,0,0,0,1.42.46,3.18,3.18,0,0,0,1.28-.23,3.66,3.66,0,0,0,1-.63l.65,2.11a4.36,4.36,0,0,1-1.53.86,6.16,6.16,0,0,1-2,.31,6,6,0,0,1-2.15-.38,3,3,0,0,1-1.52-1.24,4.27,4.27,0,0,1-.57-2.23V235.25Z" transform="translate(-1.03 -3.07)"/><path d="M532.28,236.15a2,2,0,0,1-1.45-.48,1.74,1.74,0,0,1-.51-1.34,1.7,1.7,0,0,1,.51-1.33,2,2,0,0,1,1.45-.46,2,2,0,0,1,1.42.46,1.7,1.7,0,0,1,.51,1.33,1.74,1.74,0,0,1-.51,1.34A2,2,0,0,1,532.28,236.15Zm1.44,2.28V252h-2.91V238.43Z" transform="translate(-1.03 -3.07)"/><path d="M544.14,238.15a7.11,7.11,0,0,1,3.5.85,5.93,5.93,0,0,1,2.38,2.43,8.85,8.85,0,0,1,0,7.57,5.93,5.93,0,0,1-2.38,2.43,7.71,7.71,0,0,1-7,0,6,6,0,0,1-2.39-2.43,8.67,8.67,0,0,1,0-7.57,6,6,0,0,1,2.39-2.43A7.11,7.11,0,0,1,544.14,238.15Zm0,2.29a3.75,3.75,0,0,0-2.08.55,3.49,3.49,0,0,0-1.31,1.62,6.44,6.44,0,0,0-.46,2.6,6.54,6.54,0,0,0,.46,2.6,3.49,3.49,0,0,0,1.31,1.62,3.68,3.68,0,0,0,2.08.56,3.59,3.59,0,0,0,2.06-.56,3.53,3.53,0,0,0,1.3-1.62,6.53,6.53,0,0,0,.47-2.6,6.43,6.43,0,0,0-.47-2.6,3.53,3.53,0,0,0-1.3-1.62A3.66,3.66,0,0,0,544.14,240.44Z" transform="translate(-1.03 -3.07)"/><path d="M554.54,252V238.43h2.58l.18,3.53-.38-.38a5.28,5.28,0,0,1,1.1-2,4.25,4.25,0,0,1,1.71-1.12,6.15,6.15,0,0,1,2.11-.36,5.9,5.9,0,0,1,2.59.56,4.28,4.28,0,0,1,1.83,1.67,5.35,5.35,0,0,1,.68,2.82V252H564v-7.9a3.72,3.72,0,0,0-.83-2.78,2.92,2.92,0,0,0-2.08-.78,3.91,3.91,0,0,0-1.74.42,3.46,3.46,0,0,0-1.39,1.35,4.75,4.75,0,0,0-.56,2.47V252Z" transform="translate(-1.03 -3.07)"/><path d="M576.5,252.27a8.58,8.58,0,0,1-3.72-.79,6.32,6.32,0,0,1-2.66-2.22l2-1.74a4.52,4.52,0,0,0,1.72,1.78,5.25,5.25,0,0,0,2.7.66,3.88,3.88,0,0,0,2-.43,1.35,1.35,0,0,0,.73-1.22,1.32,1.32,0,0,0-.34-.91,2.34,2.34,0,0,0-1.28-.61l-2.85-.6a5.86,5.86,0,0,1-3.1-1.4,3.42,3.42,0,0,1-.92-2.45,3.62,3.62,0,0,1,.65-2.07,4.57,4.57,0,0,1,1.91-1.53,7.15,7.15,0,0,1,3-.59,7.77,7.77,0,0,1,3.47.72,5.08,5.08,0,0,1,2.2,2l-2,1.69A3.38,3.38,0,0,0,578.5,241a4.67,4.67,0,0,0-3.58-.31,2.05,2.05,0,0,0-.95.6,1.36,1.36,0,0,0,.08,1.84,3,3,0,0,0,1.47.63l3.09.65a4.79,4.79,0,0,1,2.76,1.29,3.23,3.23,0,0,1,.8,2.21,4,4,0,0,1-.68,2.29,4.34,4.34,0,0,1-2,1.54A7.83,7.83,0,0,1,576.5,252.27Z" transform="translate(-1.03 -3.07)"/><path d="M209.77,22.53V4.61h13v2.5H212.68v5.16h7.87v2.44h-7.87V20h10.45v2.5Z" transform="translate(-1.03 -3.07)"/><path d="M226.63,22.53V9h2.58l.19,3.53-.38-.38a5,5,0,0,1,1.1-1.94A4.17,4.17,0,0,1,231.83,9a6.09,6.09,0,0,1,2.1-.35,5.89,5.89,0,0,1,2.59.55,4.28,4.28,0,0,1,1.83,1.67,5.28,5.28,0,0,1,.68,2.82v8.8h-2.9v-7.9a3.72,3.72,0,0,0-.83-2.78,2.9,2.9,0,0,0-2.08-.78,3.85,3.85,0,0,0-1.73.43,3.39,3.39,0,0,0-1.4,1.34,4.75,4.75,0,0,0-.56,2.47v7.22Z" transform="translate(-1.03 -3.07)"/><path d="M252,9h3l-5.4,13.57h-3.18L241,9h3.18L248.07,20Z" transform="translate(-1.03 -3.07)"/><path d="M259,6.68a2,2,0,0,1-1.45-.48,1.76,1.76,0,0,1-.5-1.34,1.73,1.73,0,0,1,.5-1.33A2.07,2.07,0,0,1,259,3.07a2,2,0,0,1,1.43.46,1.73,1.73,0,0,1,.5,1.33,1.76,1.76,0,0,1-.5,1.34A2,2,0,0,1,259,6.68ZM260.42,9V22.53h-2.9V9Z" transform="translate(-1.03 -3.07)"/><path d="M265,22.53V9h2.46l.28,2.44a4.2,4.2,0,0,1,1.61-2A4.82,4.82,0,0,1,272,8.69a5.52,5.52,0,0,1,.81.06,2.6,2.6,0,0,1,.68.21L273,11.51a5.23,5.23,0,0,0-.66-.18,6.53,6.53,0,0,0-1-.06,3.41,3.41,0,0,0-1.66.44,3.55,3.55,0,0,0-1.34,1.35,4.42,4.42,0,0,0-.53,2.28v7.19Z" transform="translate(-1.03 -3.07)"/><path d="M281.73,8.69a7.11,7.11,0,0,1,3.5.84A5.87,5.87,0,0,1,287.61,12a7.87,7.87,0,0,1,.85,3.78,7.89,7.89,0,0,1-.85,3.79A5.87,5.87,0,0,1,285.23,22a7.71,7.71,0,0,1-7,0,6,6,0,0,1-2.39-2.43,7.77,7.77,0,0,1-.87-3.79,7.76,7.76,0,0,1,.87-3.78,6,6,0,0,1,2.39-2.43A7.11,7.11,0,0,1,281.73,8.69Zm0,2.28a3.75,3.75,0,0,0-2.08.55,3.49,3.49,0,0,0-1.31,1.62,6.44,6.44,0,0,0-.46,2.6,6.54,6.54,0,0,0,.46,2.6A3.49,3.49,0,0,0,279.65,20a3.68,3.68,0,0,0,2.08.56,3.43,3.43,0,0,0,3.37-2.18,6.72,6.72,0,0,0,.46-2.6,6.61,6.61,0,0,0-.46-2.6,3.62,3.62,0,0,0-1.31-1.62A3.66,3.66,0,0,0,281.73,11Z" transform="translate(-1.03 -3.07)"/><path d="M292.13,22.53V9h2.58l.18,3.53-.38-.38a5.16,5.16,0,0,1,1.1-1.94A4.17,4.17,0,0,1,297.32,9a6.15,6.15,0,0,1,2.11-.35,5.89,5.89,0,0,1,2.59.55,4.28,4.28,0,0,1,1.83,1.67,5.38,5.38,0,0,1,.68,2.82v8.8h-2.9v-7.9a3.72,3.72,0,0,0-.83-2.78,2.92,2.92,0,0,0-2.08-.78,3.92,3.92,0,0,0-1.74.43,3.36,3.36,0,0,0-1.39,1.34,4.75,4.75,0,0,0-.56,2.47v7.22Z" transform="translate(-1.03 -3.07)"/><path d="M308.93,22.53V9h2.58l.13,2.28a4.57,4.57,0,0,1,1.89-1.93A5.24,5.24,0,0,1,316,8.69a5.62,5.62,0,0,1,2.7.66,4.26,4.26,0,0,1,1.86,2,4.28,4.28,0,0,1,1.19-1.5A5.35,5.35,0,0,1,323.48,9a6.1,6.1,0,0,1,1.82-.28,5.65,5.65,0,0,1,2.44.54,4.36,4.36,0,0,1,1.84,1.65,5.28,5.28,0,0,1,.71,2.85v8.8h-2.9V14.2a3.15,3.15,0,0,0-.79-2.39,2.85,2.85,0,0,0-2-.74,3.43,3.43,0,0,0-1.75.47,3.36,3.36,0,0,0-1.29,1.37,4.61,4.61,0,0,0-.49,2.24v7.38h-2.9V14.2a3.15,3.15,0,0,0-.79-2.39,2.85,2.85,0,0,0-2-.74,3.47,3.47,0,0,0-3,1.8,4.69,4.69,0,0,0-.55,2.44v7.22Z" transform="translate(-1.03 -3.07)"/><path d="M340.66,22.8a7.37,7.37,0,0,1-3.58-.84,5.82,5.82,0,0,1-2.41-2.43,7.89,7.89,0,0,1-.85-3.79,7.87,7.87,0,0,1,.85-3.78,5.93,5.93,0,0,1,2.38-2.43,7,7,0,0,1,3.45-.84,6.53,6.53,0,0,1,3.36.81A5.42,5.42,0,0,1,346,11.73a6.8,6.8,0,0,1,.73,3.2c0,.33,0,.63,0,.92a6.64,6.64,0,0,1-.09.76H335.69V14.39h9.64l-1.44.43A4.06,4.06,0,0,0,343,12a3.3,3.3,0,0,0-2.53-1,3.67,3.67,0,0,0-2,.55,3.39,3.39,0,0,0-1.33,1.61,6.61,6.61,0,0,0-.46,2.62,6.25,6.25,0,0,0,.48,2.58,3.53,3.53,0,0,0,1.39,1.6,4,4,0,0,0,2.11.54,4.19,4.19,0,0,0,2.2-.51,3.7,3.7,0,0,0,1.33-1.44l2.31,1.09a5.27,5.27,0,0,1-1.32,1.69,5.6,5.6,0,0,1-2,1.1A8,8,0,0,1,340.66,22.8Z" transform="translate(-1.03 -3.07)"/><path d="M350.38,22.53V9H353l.18,3.53-.38-.38a5.16,5.16,0,0,1,1.1-1.94A4.17,4.17,0,0,1,355.57,9a6.15,6.15,0,0,1,2.11-.35,5.89,5.89,0,0,1,2.59.55,4.28,4.28,0,0,1,1.83,1.67,5.38,5.38,0,0,1,.68,2.82v8.8h-2.9v-7.9a3.72,3.72,0,0,0-.83-2.78,2.92,2.92,0,0,0-2.08-.78,3.92,3.92,0,0,0-1.74.43,3.36,3.36,0,0,0-1.39,1.34,4.75,4.75,0,0,0-.56,2.47v7.22Z" transform="translate(-1.03 -3.07)"/><path d="M375.65,9v2.28H365.47V9ZM371,5V18.46a1.83,1.83,0,0,0,.53,1.46,2.08,2.08,0,0,0,1.42.47,3.14,3.14,0,0,0,1.28-.24,3.51,3.51,0,0,0,1-.63l.65,2.11a4.36,4.36,0,0,1-1.53.86,6.16,6.16,0,0,1-2,.31,6,6,0,0,1-2.15-.38,3.08,3.08,0,0,1-1.52-1.23,4.33,4.33,0,0,1-.57-2.24V5.78Z" transform="translate(-1.03 -3.07)"/><path d="M10,219.07a6.87,6.87,0,0,1,4.58,1.44,4.82,4.82,0,0,1,1.69,3.88,4.73,4.73,0,0,1-1.69,3.9A7.12,7.12,0,0,1,10,229.66l-.27.16H5.54V237H2.66V219.07Zm-.21,8.34a4,4,0,0,0,2.62-.72,3.28,3.28,0,0,0,0-4.41,4,4,0,0,0-2.62-.74H5.54v5.87Zm1.71.59,5.83,9H14l-5-7.85Z" transform="translate(-1.03 -3.07)"/><path d="M26.09,237.26a7.44,7.44,0,0,1-3.59-.84A5.86,5.86,0,0,1,20.1,234a8.87,8.87,0,0,1,0-7.58A5.9,5.9,0,0,1,22.48,224a6.88,6.88,0,0,1,3.44-.85,6.57,6.57,0,0,1,3.37.82,5.46,5.46,0,0,1,2.12,2.22,7,7,0,0,1,.73,3.21c0,.32,0,.63,0,.92a7.13,7.13,0,0,1-.08.76H21.12v-2.23h9.64l-1.44.44a4,4,0,0,0-.93-2.84,3.26,3.26,0,0,0-2.52-1,3.79,3.79,0,0,0-2,.54,3.53,3.53,0,0,0-1.33,1.62,6.75,6.75,0,0,0-.46,2.62,6.25,6.25,0,0,0,.49,2.58,3.63,3.63,0,0,0,1.38,1.6A4.05,4.05,0,0,0,26,235a4.19,4.19,0,0,0,2.2-.51A3.77,3.77,0,0,0,29.56,233l2.31,1.08a5.53,5.53,0,0,1-3.29,2.8A7.93,7.93,0,0,1,26.09,237.26Z" transform="translate(-1.03 -3.07)"/><path d="M52.71,223.42h3.15L51.3,237H48.13l-3.42-10.07L41.48,237H38.3l-4.53-13.57h3.12L40,234.14l3.37-10.72h2.9l3.37,10.72Z" transform="translate(-1.03 -3.07)"/><path d="M66.23,228.27a2.88,2.88,0,0,0-.74-2.1,2.78,2.78,0,0,0-2-.75,3.71,3.71,0,0,0-2.09.57,3.31,3.31,0,0,0-1.28,1.85l-2.44-1a4.84,4.84,0,0,1,2-2.66,6.87,6.87,0,0,1,3.89-1,7.36,7.36,0,0,1,2.88.53,4.44,4.44,0,0,1,2,1.59,4.74,4.74,0,0,1,.72,2.72V234a.89.89,0,0,0,1,1,3.28,3.28,0,0,0,.94-.13l-.16,2a3.79,3.79,0,0,1-1.57.29,3.71,3.71,0,0,1-1.56-.31,2.3,2.3,0,0,1-1.09-.95,3,3,0,0,1-.39-1.59v-.19l.59,0a3.28,3.28,0,0,1-1,1.75,5,5,0,0,1-1.76,1,6.24,6.24,0,0,1-2,.34,6.11,6.11,0,0,1-2.29-.41,3.32,3.32,0,0,1-2.19-3.28,3.35,3.35,0,0,1,1-2.5,5.4,5.4,0,0,1,2.81-1.33l5.27-1,0,2-3.83.79a4.35,4.35,0,0,0-1.71.63,1.37,1.37,0,0,0-.57,1.19,1.45,1.45,0,0,0,.59,1.21,2.49,2.49,0,0,0,1.56.45,5.17,5.17,0,0,0,1.31-.17,3.41,3.41,0,0,0,1.16-.53,2.47,2.47,0,0,0,.8-.95,3.11,3.11,0,0,0,.28-1.39Z" transform="translate(-1.03 -3.07)"/><path d="M73.86,237V223.42h2.47l.27,2.44a4.16,4.16,0,0,1,1.62-2,4.68,4.68,0,0,1,2.64-.7,5.67,5.67,0,0,1,.82.07,2.27,2.27,0,0,1,.68.21L82,226a5,5,0,0,0-.67-.18,6.14,6.14,0,0,0-1-.07,3.36,3.36,0,0,0-1.65.45,3.61,3.61,0,0,0-1.35,1.34,4.47,4.47,0,0,0-.53,2.28V237Z" transform="translate(-1.03 -3.07)"/><path d="M90,237.26a5.75,5.75,0,0,1-3.06-.84A5.86,5.86,0,0,1,84.74,234a8.43,8.43,0,0,1-.78-3.77,8.13,8.13,0,0,1,.84-3.86,5.94,5.94,0,0,1,2.25-2.4,6,6,0,0,1,3.1-.83,4.6,4.6,0,0,1,2.93,1,4.65,4.65,0,0,1,1.6,2.47l-.33.3v-9.55h2.91V237H94.68l-.22-3.69.38,0a4.41,4.41,0,0,1-.89,2.11,4.64,4.64,0,0,1-1.75,1.35A5.33,5.33,0,0,1,90,237.26Zm.62-2.34a3.36,3.36,0,0,0,2-.59,3.86,3.86,0,0,0,1.3-1.69,6.57,6.57,0,0,0,.46-2.6,5.82,5.82,0,0,0-.46-2.43,3.58,3.58,0,0,0-1.29-1.56,3.76,3.76,0,0,0-4.73.7,5.39,5.39,0,0,0-1,3.45,5.52,5.52,0,0,0,1,3.46A3.26,3.26,0,0,0,90.58,234.92Z" transform="translate(-1.03 -3.07)"/><path d="M103.2,233.32a2,2,0,0,1,1.26.37,2.31,2.31,0,0,1,.78,1,3.73,3.73,0,0,1,.27,1.46,5.2,5.2,0,0,1-.38,1.94,5.61,5.61,0,0,1-1.1,1.71,5.93,5.93,0,0,1-1.72,1.26L101,239.89a4.9,4.9,0,0,0,1.3-.7,5,5,0,0,0,1-1,3.59,3.59,0,0,0,.55-1.11l-.11-.06a1.26,1.26,0,0,1-.31.14,2.08,2.08,0,0,1-.5,0,1.73,1.73,0,0,1-.77-.2,1.78,1.78,0,0,1-.67-.61,2.15,2.15,0,0,1,0-2.12,2,2,0,0,1,.74-.72A2.1,2.1,0,0,1,103.2,233.32Z" transform="translate(-1.03 -3.07)"/><path d="M7.41,269.83a8.73,8.73,0,0,1-3.72-.78A6.48,6.48,0,0,1,1,266.82l2-1.74a4.52,4.52,0,0,0,1.72,1.78,5.3,5.3,0,0,0,2.7.66,3.89,3.89,0,0,0,2-.43A1.39,1.39,0,0,0,9.84,265a2.42,2.42,0,0,0-1.29-.61l-2.85-.6a5.71,5.71,0,0,1-3.09-1.4,3.38,3.38,0,0,1-.93-2.45,3.65,3.65,0,0,1,.65-2.07,4.67,4.67,0,0,1,1.92-1.53,7.15,7.15,0,0,1,3-.58,7.7,7.7,0,0,1,3.47.72,5.08,5.08,0,0,1,2.2,2.05l-2,1.68a3.47,3.47,0,0,0-1.52-1.62A4.47,4.47,0,0,0,7.33,258a4.64,4.64,0,0,0-1.49.22,2.16,2.16,0,0,0-1,.6,1.31,1.31,0,0,0-.33.89,1.33,1.33,0,0,0,.41,1,3,3,0,0,0,1.46.62l3.1.65a4.75,4.75,0,0,1,2.75,1.29,3.2,3.2,0,0,1,.8,2.21,4,4,0,0,1-.67,2.3,4.41,4.41,0,0,1-2,1.53A7.76,7.76,0,0,1,7.41,269.83Z" transform="translate(-1.03 -3.07)"/><path d="M25.24,256v2.28H15.07V256Zm-4.66-4v13.49a1.8,1.8,0,0,0,.53,1.46,2.06,2.06,0,0,0,1.42.47,3.36,3.36,0,0,0,1.28-.23,4,4,0,0,0,1-.64l.65,2.11a4.45,4.45,0,0,1-1.53.86,6.16,6.16,0,0,1-2,.31,5.75,5.75,0,0,1-2.15-.38,3,3,0,0,1-1.52-1.23,4.33,4.33,0,0,1-.57-2.24V252.81Z" transform="translate(-1.03 -3.07)"/><path d="M36.05,260.85a2.85,2.85,0,0,0-.75-2.11,2.8,2.8,0,0,0-2-.74,3.74,3.74,0,0,0-2.09.57,3.33,3.33,0,0,0-1.28,1.84l-2.44-1a4.93,4.93,0,0,1,2-2.66,6.93,6.93,0,0,1,3.9-1,7.22,7.22,0,0,1,2.88.53,4.41,4.41,0,0,1,2,1.58,4.84,4.84,0,0,1,.71,2.72v6.05a.9.9,0,0,0,1,1,3.41,3.41,0,0,0,1-.14l-.16,2a3.65,3.65,0,0,1-1.58.3,3.88,3.88,0,0,1-1.56-.31,2.43,2.43,0,0,1-1.08-1,2.93,2.93,0,0,1-.4-1.59v-.19l.6,0a3.31,3.31,0,0,1-1,1.75,4.91,4.91,0,0,1-1.77,1,6.24,6.24,0,0,1-2,.34,6.15,6.15,0,0,1-2.29-.4,3.56,3.56,0,0,1-1.6-1.24,3.47,3.47,0,0,1-.58-2.05,3.37,3.37,0,0,1,1-2.5,5.37,5.37,0,0,1,2.8-1.33l5.27-1,0,2-3.83.78a4.51,4.51,0,0,0-1.71.63,1.37,1.37,0,0,0-.57,1.19,1.44,1.44,0,0,0,.58,1.21,2.49,2.49,0,0,0,1.56.45,5.81,5.81,0,0,0,1.32-.16,3.55,3.55,0,0,0,1.15-.53,2.55,2.55,0,0,0,.8-.95,3.18,3.18,0,0,0,.29-1.4Z" transform="translate(-1.03 -3.07)"/><path d="M51.76,256v2.28H41.59V256Zm-4.66-4v13.49a1.8,1.8,0,0,0,.53,1.46,2.06,2.06,0,0,0,1.42.47,3.36,3.36,0,0,0,1.28-.23,4,4,0,0,0,1-.64l.65,2.11a4.55,4.55,0,0,1-1.53.86,6.16,6.16,0,0,1-2,.31,5.75,5.75,0,0,1-2.15-.38,3,3,0,0,1-1.52-1.23,4.33,4.33,0,0,1-.57-2.24V252.81Z" transform="translate(-1.03 -3.07)"/><path d="M60.61,269.83A7.4,7.4,0,0,1,57,269a5.86,5.86,0,0,1-2.4-2.43,8.76,8.76,0,0,1,0-7.57A5.91,5.91,0,0,1,57,256.56a7,7,0,0,1,3.45-.84,6.6,6.6,0,0,1,3.37.81,5.4,5.4,0,0,1,2.11,2.23,6.83,6.83,0,0,1,.74,3.2c0,.33,0,.63,0,.92s0,.55-.08.76H55.64v-2.22h9.64l-1.44.43a4,4,0,0,0-.92-2.83,3.26,3.26,0,0,0-2.52-1,3.79,3.79,0,0,0-2,.55A3.45,3.45,0,0,0,57,260.18a6.61,6.61,0,0,0-.46,2.62,6,6,0,0,0,.49,2.58,3.46,3.46,0,0,0,1.38,1.6,4,4,0,0,0,2.12.54,4.21,4.21,0,0,0,2.2-.51,3.63,3.63,0,0,0,1.33-1.44l2.3,1.09a5.38,5.38,0,0,1-1.31,1.69,5.65,5.65,0,0,1-2,1.1A7.67,7.67,0,0,1,60.61,269.83Z" transform="translate(-1.03 -3.07)"/><path class="cls-13" d="M400.26,381.41c6.85-5.39,63.45-51.5,63.1-130.48-.25-58-31.11-98-49.82-117" transform="translate(-1.03 -3.07)"/><polygon class="cls-10" points="426.11 128.56 415.11 133.52 411.04 144.88 399.23 118.85 426.11 128.56"/><path class="cls-13" d="M185,121.92c-6.85,5.38-63.45,51.49-63.1,130.47.25,58.05,31.11,98,49.82,117" transform="translate(-1.03 -3.07)"/><polygon class="cls-10" points="157.07 368.63 168.08 363.67 172.15 352.31 183.96 378.34 157.07 368.63"/><g id="layer1"><path id="path2309" class="cls-14" d="M294.68,42.56,185.14,80.06v5.43l-6.87,3.1-.07,1.33,100.44,68,52.74-19.71V137l-.15-.05.15-.05-6.69-3.82V126l2.57,1.91,8-2.91,3.47,2.61-4.12,2.06.2.15-.05,1.06,6,4.42,50.92-18.7v-1l-5-3.75v-7.14L294.68,42.56Zm-.15.8,90.83,61-42.87,15L335.35,114l-7.84,2.91L325,115.05,358,102.78l-29.41-21,3.17-1.46,32.43,23.23-24.94,9.1,4.73,4L380.8,104,331.53,70.26l-27.4,10.61L300.92,79l27.9-10.51L294,44.57,268.24,54,289.3,68.7l18.5-6.48-12.57-7.9L284.07,59.2,281.66,57l13.88-5.28L312.48,63,289,71.42l-6.13-4.18-18.1,7.19-2.36-1.76,18.09-7.34L265.78,55,233.65,66.29l8,7.09,18.76-7,3.11,2.16L224.9,82.48l-2.91-2,16.64-6.13-7.94-7.14L190.37,80.72l19.75,12.46,22.47-8.44,2.82,1.71-22.27,8.79,25,16.44,33-12.21L258.59,88.36,243.05,94l-3-1.66,32.28-11.61,1.91,1.6L260.4,87.65l13,11,30.21-11.41,14.08,8.3,12.56-5,2.12,1.31-12.52,5,10.51,6.69-30.57,12.52-13.78-10,2.57-1,11.26,8.9,26.59-10.46L303.08,89.41l-7.54,3,17.09,10.05-3,1.51-17-10.61L260.65,105.4l20.51,15.43-12.82,5.33-2.52-1.51,11.42-4.22-19.41-14.07-17.74,6.73,38.45,26.34,23.73-8.14-14-10,3.11-1.15,13.18,10.25,15.08-5.32-9.71-7.6,2.27-.8,10.91,9-44.6,16.09L186.85,79.91,294.53,43.36Zm-.85,2.06v6.19l-13,5.18v2.76l-2.17.75-9.1-6.18Zm.7.16,33.13,22.77-8.85,3.27-5-3.42V63.32L295.79,50.75l-1.41.56Zm.35,10v9.1L288.35,67l-4.18-2.91V59.7Zm.71,0L306.09,62l-9.35,3.42-1.3-.8ZM265.22,56v9.25l-3.72,1.31-.9-.65-18.45,6.83-7.39-6.38Zm.71.2,13,9.1-8.1,3.32-4.87-3.47Zm15.48,1.41,2.06,1.91v4.12l-2.06-1.4Zm-.7,2.57v1.55l-1.51-1ZM313,63.57v9.2L289.7,81.22a5.07,5.07,0,0,0-.65-.35v-8.8Zm-17.9,1.91.51.3L289.75,68l-.6-.36ZM265.47,66l4.33,3-5.23,2.16-.15-2.41-2.16-1.66ZM230.18,67.9v9l-9.1,3.51,0,.2L201.48,87.2,191.67,81,230.18,67.9Zm.71,0L237.57,74l-6.68,2.56Zm51.58.1V77.5L273.67,81l-1-.86-7.64,2.72v-8.2Zm.7.35L288.35,72v8.55l-.05.1a9.59,9.59,0,0,0-1-.21l-4.17-2.86Zm30.51.55,4.28,3-4.28,1.56Zm-49.82,0v2.52l-2.76,1.1v6.94l-24,8.65V86.45L232.55,84l-10.81,4.13V80.92l2.81,2.16Zm67.32,2v9l-3.92,1.71.35.25-19.46,7.44-3.82-2.26V81.32Zm.7.35,47.27,32.43-9,3.07-38.21-27.2Zm-70,1.77L264.37,75v8.1l-1.11.4-1.41-.7Zm51.38.15-.05.35L299.61,78.8l-.15,9.56-25.69,9.5-3.87-3.22,5.38-2v-10l-1.21-1.26,8.5-3.22,3.16,2.21c-.42,0-.84-.07-1.25-.1-3,0-5.49-.45-6.84,2.57v0l.05,6c4.73,3.43,8.57,2.12,13.62.3l-.2-6.23.1-.15a3.21,3.21,0,0,0-.95-1.16Zm-13.07,5.83,3.47,2.26V86.8l-3.47,1.31Zm-39.06,1v3l1.46.6L239,92.13l.05,10.3,3.62,2.27,15.08-5.18.6-.15,3.32,3L238.28,111l-14.48-9.35,13.37-5.23,0-7.74Zm-75.26.4,92.4,61.89v9.3l-92.4-62.09v-9.1Zm98.59,0a9.6,9.6,0,0,1,2.91.31c.12,0,.28.06.4.1a6.23,6.23,0,0,1,2.82,1.86c-1.18,2.11-3.85,2.15-6.13,2.31-2.64.11-5.42,0-6.14-2.31C279.25,80.37,282.16,80.66,284.43,80.51Zm-63.4.61v7.24l-11,4.22-7.89-5Zm61.54.15c-1.42.12-2.49.69-2.82,1.61,1,1.5,2.59,1.42,4.32,1.56,2.06.27,3.75-.51,4.33-1.56-.94-1.49-2.62-1.43-4.33-1.56A7.68,7.68,0,0,0,282.57,81.27Zm2.06.35a5,5,0,0,1,.55,0,4,4,0,0,1,2.76,1.26c-.88,1.28-2.6,1.06-3.87,1.15-1.49.29-3.51-.26-3.62-1.15.13-1.63,2.35-1.1,3.62-1.21A3.43,3.43,0,0,1,284.63,81.62Zm43.53.76,28.06,20.25-8.2,3.12-14.38-10.2.05-3.42L330.27,90l-2.11.8Zm-.7.2v8.54l-9.85,3.82-8.85-5.23Zm-52.94.3v9.45l-5,1.91-8-6.59Zm16.14.7.15,5.23c-3.94,1.83-9.3,2.78-12.67-.35V84.08c1.19,1.77,4.06,1.48,6.29,1.61C287,85.73,289.34,85.15,290.66,83.58ZM185.14,85.84v4l93.25,62.74,46.3-16.38V134l5,3-51.18,19L179.06,88.86l6.08-3Zm51.28.91v9.3l-13.17,5.33-9.25-6ZM178.6,89l99.84,67.51-.05.71L178.55,89.82l0-.81Zm79.18.35v9.4l-14.38,5.18V94.29Zm.71,0,11.31,10L262.61,102l-4-3.57Zm44.84.86,21.66,13-9.55,3.82-2-1.16v-3.22l-10.15-6.18Zm-.71.1v5.78l-6-3.57Zm30.32,2v9.35l-2.47,1-9.6-5.68Zm-93.16.2,2.92,1.66v9.65l-2.92-1.71Zm52.39,1.71v9.3L289,104.74l-.35-.25-3.77,1.36-.15.51-14.38,5.47-8.6-6.18Zm.7,0,16.34,10v5.18l-4.62,1.86-11.72-7.79Zm40.77,2.11L347,106.1l-15.13,5.78v-8.14l-.7-.55,2.46-1Zm-20.86,6.64v5.08l-2.82,1.1v-4.73Zm18.4.85v8.2l-7.09,2.76-.1,1.51-7.34,2.86-4.52-3.62-3.32,1.71.05.06v5l-8.4,3.47v-9.3Zm33.64.15v4.63L344,115.91l-3.37-3Zm-72.3.15,11.26,7.59L300,113.24,289.7,105.3Zm73,.3,3.82,2.62-3.82,1.31ZM386,105l.16,9.4-43.24,14.93v-9.4Zm-100.59,1.25,14.33,10.66v8.9l-8.3-6.28-.55.2-5.48-4Zm28.05.21,1.41.85-1.41.55Zm-28.75.7,0,8.75,5.53,4.07-3,1.1-.15,10.06,4.17,3.17-12.62,4.37-5.52-3.77,9.4-3.87V121L271,112.34Zm-26.9,0,18.05,13-8.4,3.32-9.65-7Zm-.7.2v9.3l-6.84,2.61-8.9-6Zm129.6,5.13,3.72,3-49.77,18-5.08-3.72,3.67-1.76,3.27,2.47,44.19-15.69Zm-51.93,2.51v9.2l-7.09,2.67v-9.3Zm.7,0,6.74,5.08v9.1l-6.74-5.13Zm55.56.71.15.45-50.43,18.35-5.58-3.82-.05-.71,5.53,3.92Zm-66.37,0,2.32,2v8.74l-2.32-1.45Zm-67,1.4,9,6.49-2,.8-.1,4.53-13.73-9.3Zm66.26,0v8.1l-6.74-5.58Zm-14.43.66,8.75,6.93-8.14,2.82-.61-.65Zm-27.65,3.22,0,9.34-9.35,4-4.22-2.87v-4.82Zm6,.35,12.66,9.55-8.49,3-4.13-3.16Zm21,1.71v4.17l.6.55-4.72,1.66-4-3ZM265.37,125l2.32,1.66v4.53l-2.32-1.56ZM324,126.26v9.25l-45,16.25V142.3Zm6.84,10.86V138L279,157.08v-.56Z" transform="translate(-1.03 -3.07)"/></g></g></g></svg>