<?xml version="1.0" encoding="utf-8"?>
<!-- Generator: Adobe Illustrator 25.0.0, SVG Export Plug-In . SVG Version: 6.00 Build 0)  -->
<svg version="1.1" id="Layer_1" xmlns="http://www.w3.org/2000/svg" xmlns:xlink="http://www.w3.org/1999/xlink" x="0px" y="0px"
	 viewBox="0 0 660.98 454.18" style="enable-background:new 0 0 660.98 454.18;" xml:space="preserve">
<g id="Layer_2_1_">
	<g id="Layer_1-2">
		<path style="fill:#CEB4A7;" d="M268.8,188.44c90.09,1.46,153.92,26.11,180.69,36.45c27.52,10.63,83.88,32.4,87.6,62.77
			c6.28,51.27-140.41,103.19-268.29,99.22c-63.56-2-111.11-18.09-153.32-32.4C72.47,339.9,6.67,317.6,0.5,287.66
			C-9.43,239.52,130.64,186.22,268.8,188.44z"/>
		<path style="fill-rule:evenodd;clip-rule:evenodd;fill:#BC7219;" d="M28.39,101.11L89.9,49.05c13.09-11.4,29.92-17.56,47.27-17.32
			h121c43.36,0,116.21,47.73,146.16,76.94l72.11,25.41c25.34,8.93,42.67,29.16,47.6,55.58l6.06,32.44H18.13L8,155.67
			C4.73,134.57,12.1,114.9,28.39,101.11z"/>
		<path style="fill-rule:evenodd;clip-rule:evenodd;fill:#D39A50;" d="M33.64,101.11l61.51-52.06
			c13.09-11.4,29.92-17.56,47.27-17.32h121c43.36,0,116.2,47.73,146.16,76.94l72.1,25.41c20.24,7.13,35.37,21.48,43.16,40.42
			c-149.29-26.19-320.23-32.1-511.6-18.83C10,134.57,17.35,114.9,33.64,101.11z"/>
		<path style="fill-rule:evenodd;clip-rule:evenodd;fill:#343433;" d="M325.58,50.72c15.76-1.29,79.25,44.31,84,58
			c-88.1-4.11-176.42-6.44-265.83,0l-37.3-29.41C115.59,70.94,121.74,62,124,50.72H325.58z"/>
		<rect x="24.27" y="221.22" style="fill:#343433;" width="511.94" height="33.54"/>
		<path style="fill-rule:evenodd;clip-rule:evenodd;fill:#343433;" d="M431.75,313.35c33.78,0.01,61.16-27.37,61.17-61.15
			s-27.37-61.16-61.15-61.17c-33.78-0.01-61.16,27.37-61.17,61.15c0,0,0,0.01,0,0.01C370.67,285.94,398,313.28,431.75,313.35z"/>
		<path style="fill-rule:evenodd;clip-rule:evenodd;fill:#BDBABA;" d="M431.75,296c24.2,0,43.82-19.62,43.82-43.82
			c0-24.2-19.62-43.82-43.82-43.82s-43.82,19.62-43.82,43.82C387.98,276.36,407.57,295.95,431.75,296z"/>
		<path style="fill-rule:evenodd;clip-rule:evenodd;fill:#343433;" d="M434,216.65c4.73,0.29,9.35,1.52,13.59,3.63l-3.37,6.8
			c-3.34-1.66-6.98-2.64-10.7-2.86L434,216.65z M451.47,222.53l-4.19,6.31c3.1,2.07,5.76,4.74,7.83,7.84l6.32-4.2
			c-2.64-3.95-6.04-7.33-10-9.95H451.47z M463.67,236.35c2.11,4.26,3.35,8.9,3.63,13.65l-7.58,0.48c-0.23-3.72-1.2-7.36-2.86-10.7
			l6.8-3.38L463.67,236.35z M467.31,254.43c-0.3,4.72-1.54,9.34-3.65,13.57l-6.8-3.37c1.66-3.34,2.63-6.98,2.86-10.7l7.58,0.48
			L467.31,254.43z M461.43,271.9l-6.32-4.2c-2.07,3.1-4.73,5.76-7.83,7.83l4.19,6.32c3.97-2.63,7.37-6.03,10-10L461.43,271.9z
			 M447.59,284.1c-4.24,2.11-8.86,3.34-13.59,3.63l-0.48-7.57c3.72-0.23,7.36-1.2,10.7-2.86L447.59,284.1L447.59,284.1z
			 M429.52,287.73c-4.73-0.29-9.35-1.52-13.59-3.63l3.37-6.8c3.34,1.66,6.98,2.63,10.7,2.86L429.52,287.73z M412,281.85l4.2-6.32
			c-3.1-2.06-5.77-4.73-7.83-7.83l-6.32,4.2c2.63,3.97,6.03,7.37,10,10L412,281.85z M399.84,268c-2.11-4.24-3.34-8.86-3.63-13.59
			l7.57-0.48c0.23,3.72,1.2,7.36,2.86,10.7L399.84,268z M396.21,250c0.29-4.73,1.53-9.35,3.63-13.6l6.8,3.38
			c-1.66,3.34-2.63,6.98-2.86,10.7L396.21,250z M402.09,232.53l6.32,4.2c2.07-3.1,4.73-5.77,7.83-7.84l-4.2-6.31
			c-3.96,2.62-7.36,6-10,9.95H402.09z M415.92,220.33c4.24-2.11,8.86-3.34,13.59-3.63l0.48,7.57c-3.72,0.23-7.36,1.2-10.7,2.86
			L415.92,220.33z"/>
		<path style="fill-rule:evenodd;clip-rule:evenodd;fill:#343433;" d="M109.14,312.46c33.78,0.01,61.17-27.36,61.18-61.14
			s-27.36-61.17-61.14-61.18S48.01,217.5,48,251.28c0,0.01,0,0.02,0,0.03C48.07,285.05,75.4,312.38,109.14,312.46z"/>
		<path style="fill-rule:evenodd;clip-rule:evenodd;fill:#BDBABA;" d="M108.26,296c24.2,0,43.82-19.62,43.82-43.82
			s-19.62-43.82-43.82-43.82s-43.82,19.62-43.82,43.82C64.48,276.36,84.08,295.96,108.26,296z"/>
		<path style="fill-rule:evenodd;clip-rule:evenodd;fill:#343433;" d="M110.5,216.65c4.73,0.29,9.35,1.52,13.59,3.63l-3.37,6.8
			c-3.34-1.66-6.98-2.64-10.7-2.86L110.5,216.65z M128,222.53l-4.2,6.31c3.1,2.07,5.76,4.74,7.83,7.84l6.32-4.2
			C135.33,228.54,131.94,225.15,128,222.53L128,222.53z M140.2,236.35c2.1,4.26,3.32,8.91,3.6,13.65l-7.57,0.48
			c-0.23-3.72-1.2-7.36-2.86-10.7l6.8-3.38L140.2,236.35z M143.83,254.43c-0.3,4.72-1.55,9.34-3.66,13.57l-6.8-3.37
			c1.66-3.34,2.63-6.98,2.86-10.7l7.57,0.48L143.83,254.43z M137.95,271.9l-6.32-4.2c-2.06,3.1-4.73,5.77-7.83,7.83l4.2,6.32
			c3.95-2.64,7.33-6.04,9.95-10L137.95,271.9z M124.12,284.1c-4.24,2.1-8.86,3.34-13.59,3.63l-0.48-7.57
			c3.72-0.23,7.36-1.2,10.7-2.86L124.12,284.1z M106,287.73c-4.73-0.29-9.36-1.52-13.6-3.63l3.38-6.8
			c3.34,1.66,6.97,2.63,10.69,2.86L106,287.73z M88.52,281.85l4.2-6.32c-3.1-2.07-5.76-4.73-7.83-7.83l-6.32,4.2
			c2.64,3.96,6.04,7.36,10,10L88.52,281.85z M76.35,268c-2.11-4.24-3.35-8.86-3.64-13.59l7.58-0.48c0.22,3.72,1.2,7.36,2.86,10.7
			L76.35,268z M72.71,250c0.29-4.73,1.53-9.35,3.64-13.6l6.8,3.38c-1.66,3.34-2.64,6.98-2.86,10.7L72.71,250z M78.59,232.53
			l6.32,4.2c2.07-3.1,4.73-5.77,7.83-7.84l-4.2-6.31c-3.96,2.62-7.36,6-10,9.95H78.59z M92.42,220.33c4.24-2.11,8.87-3.34,13.6-3.63
			l0.47,7.57c-3.72,0.23-7.35,1.2-10.69,2.86L92.42,220.33z"/>
		<path style="fill-rule:evenodd;clip-rule:evenodd;fill:#FFFFFF;" d="M467.64,159.83c-9.59-19.34,39.35-8.82,48.12,7.28
			c5.6,10.27-1.44,20.63-14.92,17.3C488.71,181.41,473.37,171.13,467.64,159.83z"/>
		<path style="fill-rule:evenodd;clip-rule:evenodd;fill:#343433;" d="M106.92,40.79H42.64c-3.35,0-6.06,2.71-6.07,6.05
			c0,0.53,0.07,1.06,0.21,1.58c0,0.2,0.11,0.41,0.16,0.62c0.69,2.7,2.25,5.1,4.45,6.82C46.66,59.9,48.2,67.18,45,73l-20.48,37.61
			C37.43,113.72,116.19,50.74,106.92,40.79z"/>
		<polygon style="fill-rule:evenodd;clip-rule:evenodd;fill:#D39A50;" points="221.22,41.1 233.06,111.13 269.06,110.15 
			242.92,42.09 		"/>
		<path style="fill-rule:evenodd;clip-rule:evenodd;fill:#343433;" d="M24.37,179.72c-4.3-0.3-8.6-0.58-12.92-0.79
			c-0.24-12.49-1.87-23-3.58-35.28c16.3-5.82,27.15-5.12,29.91,22.25c0.7,6.92-4.35,13.09-11.27,13.79
			C25.8,179.76,25.08,179.77,24.37,179.72z"/>
		<path style="fill:#824B2C;" d="M10.63,149.36h12.7c2.39,0,4.32,1.93,4.32,4.32l0,0v14.92c0,2.39-1.93,4.32-4.32,4.32c0,0,0,0,0,0
			h-12.7c-2.38,0-4.31-1.93-4.31-4.31v-14.94C6.32,151.29,8.25,149.36,10.63,149.36z"/>
		<rect x="588.67" y="250.7" style="fill:#4D4441;" width="38.62" height="22.28"/>
		<path style="fill-rule:evenodd;clip-rule:evenodd;fill:#4D4441;" d="M578,262.58h60c7.85,0,14.21-5.08,14.21-11.34V133.45
			c0-6.27-6.36-11.34-14.21-11.34h-60c-7.85,0-14.21,5.07-14.21,11.34v117.79C563.78,257.5,570.14,262.58,578,262.58z"/>
		<rect x="598.32" y="262.58" style="fill:#4D4441;" width="19.31" height="190.12"/>
		<rect x="591.82" y="415.38" style="fill:#4D4441;" width="32.3" height="38.79"/>
		<path style="fill:#A5B2A6;stroke:#A5B2A6;stroke-miterlimit:10;" d="M595.92,143.78h24.1c11.23,0,20.33,9.1,20.33,20.33V192
			c0,11.23-9.1,20.33-20.33,20.33h-24.1c-11.23,0-20.33-9.1-20.33-20.33v-27.89C575.59,152.88,584.69,143.78,595.92,143.78z"/>
		<path style="fill:#F6EBE8;" d="M612,163.85c2.13-0.06,4.24,0.32,6.22,1.11c1.6,0.65,2.95,1.79,3.87,3.25
			c1.77,3.27,1.77,7.2,0,10.47c-0.92,1.46-2.27,2.59-3.87,3.25c-1.98,0.78-4.1,1.14-6.22,1.07h-4.82v8h-9.6v-27.15H612z
			 M610.43,176.24c0.87,0.05,1.74-0.18,2.47-0.67c1.17-1.12,1.22-2.98,0.09-4.16c-0.03-0.03-0.06-0.06-0.09-0.09
			c-0.73-0.49-1.59-0.73-2.47-0.68h-3.25v5.6L610.43,176.24z"/>
		<path style="fill:#E3C7B6;" d="M500.66,80.53c9.95-5.89,22.71-4.21,33.78-3.67c5.56,0.18,11.1,0.85,16.54,2
			c6,1.37,11,4,16.59,6.52c4.87,2.17,10.45-3.61,6.06-7.86C564,68.16,548,67,535.27,66.69c-12.94-0.33-27.62-0.86-38.83,6.62
			C492,76.31,495.98,83.31,500.66,80.53z"/>
		<path style="fill:#E3C7B6;" d="M467.63,55.14c23.33-5.41,45.77-11.65,70-9c21.82,2.43,44.17,9.23,62.14,22.06
			c5.88,4.19,11.5-5.53,5.66-9.68C586.34,45,562.45,38.4,539.45,35.77c-25.4-2.9-50.19,3-74,11.59c-4.85,1.74-3,9,2.14,7.78H467.63z
			"/>
		<path style="fill:#E3C7B6;" d="M432.4,31.52c27.46-14.75,56.84-21.87,88-22.07c29.91-0.19,61.06,4.17,89.56,13.41
			c7.89,2.48,15.49,5.77,22.7,9.82c3.71,2.06,7.23,4.44,10.53,7.12c3.26,2.73,5.62,6.08,8.62,9c5.22,5.11,12.14-2.38,7.82-7.82
			c-4.5-5.67-11.92-10.51-18-14.39c-6.35-3.96-13.08-7.29-20.08-9.95c-14.71-5.77-30.33-9.11-45.87-11.78
			c-32.1-5.52-65.35-7.25-97.4-0.44c-17.57,3.73-34.93,10.19-49.63,20.63c-3.87,2.75-0.53,8.77,3.77,6.45L432.4,31.52z"/>
		<path style="fill:#E3C7B6;" d="M521.89,104.34c5.48-0.51,11.01-0.45,16.48,0.19l-1.25-9.3c-3.92,0.73-7.64,0.35-11.56,0.3
			c-5.47-0.07-6.62,8.13-1.29,9.54c5,1.31,10.46,0.64,15.36-0.71c5.21-1.44,4.06-9.13-1.26-9.3c-5.88-0.16-11.77,0.3-17.56,1.36
			C516.38,97.22,517.35,104.77,521.89,104.34z"/>
	</g>
</g>
</svg>
