<?xml version="1.0" encoding="utf-8"?>
<!-- Generator: Adobe Illustrator 25.0.0, SVG Export Plug-In . SVG Version: 6.00 Build 0)  -->
<svg version="1.1" id="Layer_1" xmlns="http://www.w3.org/2000/svg" xmlns:xlink="http://www.w3.org/1999/xlink" x="0px" y="0px"
	 viewBox="0 0 114 109.5" style="enable-background:new 0 0 114 109.5;" xml:space="preserve">
<g id="Group_1477" transform="translate(-71.558 -4829.01)">
	<g id="Group_1468" transform="translate(-1099.715 3797.533)">
		<g id="Layer_1_1_" transform="translate(1171.273 1032.623)">
			<path id="Path_6832" style="fill:#E0EAEB;" d="M16.97,14.53C27.45,2.59,39.02-0.39,54.13,0.04c14.4,0.41,31.7-0.57,41.26,9.94
				c20.03,22.04,29.79,37.54-3.09,81.69c-7.43,9.97-75.5,1.8-81.52-5.87C-7.03,63.07-1.25,35.31,16.97,14.53z"/>
		</g>
		<g id="hahmo" transform="translate(1201.135 1031.477)">
			<g id="Group_1467">
				<path id="Path_6833" style="fill:#E3C7B6;" d="M26.82,81.42l-0.39,12.66l12.79,7.46l8.01-10.11l0.44-8.68L26.82,81.42z"/>
				
					<ellipse id="Ellipse_117" transform="matrix(0.3899 -0.9208 0.9208 0.3899 -11.932 102.5349)" style="fill:#F2E4DC;" cx="71.42" cy="60.27" rx="12.13" ry="8.68"/>
				<path id="Path_6834" style="fill:#F2E4DC;" d="M75.06,45.74c-1.47,14.23-10.02,34.03-18.63,40.81
					c-5.67,4.46-12.24,3.14-18.76,3.61c-6.68,0.48-11.85-0.31-13.77-1.19c-5.01-2.3-7.51-2.29-11.29-7.34
					C5.72,72.38,2.11,56.64,2.49,45.98C3.19,26.32,11.74,7.8,33.64,7.73C54.37,7.66,77.48,22.35,75.06,45.74z"/>
				<path id="Path_6835" style="fill:#F2E4DC;" d="M31.1,71.97"/>
				<path id="Path_6836" style="fill:none;stroke:#E0B885;stroke-width:0.905;stroke-miterlimit:10;" d="M31.99,63.01
					c0.07-0.79,0.09-1.57,0.06-2.36c-0.03-1.7-0.08-4.31-1.84-4.97c-1.94-0.72-5.13,1.23-6.4,3.49c-0.3,0.54-2.61,2.87-1.51,4.9
					c1.16,2.13,5.58,3.32,7.63,2.5C31.35,66.01,31.83,64.51,31.99,63.01"/>
				<path id="Path_6837" style="fill:none;stroke:#E0B885;stroke-width:4;stroke-linecap:round;stroke-miterlimit:10;" d="
					M23.8,40.81c-1.72-0.7-3.49-1.28-5.3-1.72c-2.64-0.65-3.98-0.97-5.45-0.58c-1.89,0.58-3.48,1.88-4.42,3.62"/>
				<path id="Path_6838" style="fill:none;stroke:#E0B885;stroke-width:4;stroke-linecap:round;stroke-miterlimit:10;" d="
					M55.62,45.59c-0.7-2.23-2.26-4.08-4.34-5.14c-0.44-0.19-1.56-0.62-4.6-0.46c-2.76,0.15-5.48,0.68-8.09,1.57"/>
				<path id="Path_6839" style="fill:#E0B885;" d="M27.74,75.55c0.69-0.85,4.05-0.08,5.88-0.06c1.68,0.02,4.01-0.7,4.8-0.02
					c0.87,0.75-0.79,1.97-2.91,2.45c-1.48,0.33-3.01,0.36-4.5,0.07C28.82,77.55,27.1,76.34,27.74,75.55z"/>
				<path id="Path_6840" style="fill:#2B3233;" d="M35.42,0.82c0.94,0.24,11.95,3.24,12.35,9.61c0.19,3-2.04,5.42-2.56,5.97
					c-4.56,4.84-10.25,1.57-22.78,5.12c-3.81,1-7.5,2.38-11.03,4.13c-6.07,3.06-8,5.51-9.55,4.67c-2.97-1.6-2.29-10.64,1.51-17.15
					C9.54,2.63,24.41-2.03,35.42,0.82z"/>
				<path id="Path_6841" style="fill:#2B3233;" d="M58.49,10.47c-0.68-0.35-8.61-4.3-10.5,0.46c-0.6,2.01-0.55,4.16,0.14,6.14
					C51.49,25.18,62.15,23.76,65,31.4c0.79,2.47,1.43,4.98,1.93,7.52c0.58,2.85,0.43,3.19,0.87,4.75c0.97,3.37,3.16,8.77,5.03,9.13
					c2.34,0.45,4.21-7.03,3.39-14.3C74.9,26.69,66.39,14.52,58.49,10.47z"/>
				<path id="Path_6842" style="fill:#F1F3F4;" d="M47.69,91.51L36.45,97.8l5.04,11.24l14.98-11.31l-7.53-6.23"/>
				<path id="Path_6843" style="fill:#F1F3F4;" d="M24.85,91.99l11.26,6.26l-5,11.26L16.09,98.24l7.51-6.26"/>
				<path id="Path_6844" style="fill:#2B3233;" d="M32.54,106.27l2.32,1.98h2.5l2.32-1.98l-3.57-8.03L32.54,106.27z"/>
				<path id="Path_6845" style="fill:#2B3233;" d="M18.47,48.19c-0.81,3.34-1.09,5-2.44,5s-2.44-2.24-2.44-5s1.09-5,2.44-5
					S19.07,45.72,18.47,48.19z"/>
				<path id="Path_6846" style="fill:#2B3233;" d="M48.49,49.44c-0.81,3.34-1.09,5-2.44,5s-2.44-2.24-2.44-5s1.09-5,2.44-5
					S49.09,46.98,48.49,49.44z"/>
				<path id="Path_6847" style="fill:#D39A50;" d="M26.87,86.61C15.38,85.77,10.15,73.97,8.14,64.16
					C5.8,52.47,5.24,40.49,6.48,28.63c0.06-0.6-0.88-0.6-0.94,0C4.54,38.56,4.76,48.57,6.2,58.44c1.23,8.4,3.11,17.64,9.44,23.8
					c3,3.04,6.98,4.92,11.23,5.3C27.47,87.59,27.47,86.65,26.87,86.61z"/>
				<path id="Path_6848" style="fill:#D39A50;" d="M26.99,88.03c-0.07-0.25-0.33-0.39-0.58-0.33c-0.25,0.07-0.39,0.33-0.33,0.58
					c0.18,0.99,0.21,1.99,0.11,2.98c0,0.26,0.21,0.47,0.47,0.47c0.26-0.01,0.46-0.21,0.47-0.47C27.24,90.18,27.19,89.1,26.99,88.03z
					"/>
				<path id="Path_6849" style="fill:#D39A50;" d="M74.98,56.63c-0.59-0.13-0.84,0.77-0.25,0.9c2.29,0.5,1.41,3.41,0.75,4.84
					c-0.78,1.69-1.71,3.57-3.49,4.39s-3.61-0.43-5.42,0.13c-1.67,0.51-1.93,2.19-1.92,3.71c0,0.26,0.21,0.47,0.47,0.47
					c0.26,0,0.47-0.21,0.47-0.47c-0.01-0.96-0.02-2.23,0.99-2.72c0.95-0.46,2.1-0.08,3.07,0.06c1.9,0.26,3.8-0.55,4.92-2.11
					c0.58-0.77,1.08-1.59,1.48-2.47c0.51-0.94,0.88-1.95,1.09-3C77.5,58.75,76.56,57.12,74.98,56.63z"/>
				<path id="Path_6850" style="fill:#D39A50;" d="M66.76,70.28c-1.3,6.1-4.87,12.11-11.08,14.18c-2.32,0.77-5.82,0.37-7.07,2.97
					c-1.21,2.53,2.01,4.33,3.8,5.36c0.23,0.12,0.51,0.03,0.63-0.2c0.11-0.21,0.04-0.48-0.16-0.61c-1.13-0.65-2.96-1.56-3.47-2.84
					c-0.8-2,1.85-2.85,3.28-3.09c2.5-0.32,4.89-1.2,7-2.57c4.37-3,6.89-7.86,7.97-12.95C67.79,69.94,66.88,69.69,66.76,70.28z"/>
				<path id="Path_6851" style="fill:#D39A50;" d="M26.3,46.25c-0.09-0.24-0.36-0.36-0.61-0.27c-0.21,0.08-0.33,0.3-0.29,0.52
					c1.11,3.82,0.64,7.93-1.29,11.41c-0.29,0.53,0.52,1,0.81,0.47C26.97,54.68,27.47,50.32,26.3,46.25z"/>
				<path id="Path_6852" style="fill:#D39A50;" d="M47.35,37.5c-2.94,0.39-5.92,0.53-8.88,0.4c-0.6-0.03-0.6,0.91,0,0.94
					c2.97,0.13,5.94-0.01,8.88-0.4C47.94,38.36,47.94,37.42,47.35,37.5z"/>
				<path id="Path_6853" style="fill:#D39A50;" d="M51.27,38.74c-1.24,0.09-2.48,0.08-3.72-0.02c-0.26,0-0.47,0.21-0.47,0.47
					c0.01,0.26,0.21,0.46,0.47,0.47c1.24,0.1,2.48,0.11,3.72,0.02c0.26-0.01,0.46-0.21,0.47-0.47
					C51.74,38.95,51.53,38.74,51.27,38.74z"/>
				<path id="Path_6854" style="fill:#D39A50;" d="M54.16,39.97h-3.1c-0.26,0-0.47,0.21-0.47,0.47c0,0.26,0.21,0.47,0.47,0.47h3.1
					c0.26,0,0.47-0.21,0.47-0.47C54.63,40.18,54.42,39.97,54.16,39.97z"/>
				<path id="Path_6855" style="fill:#D39A50;" d="M57.81,42.86c-1.34-0.54-2.72-0.97-4.13-1.28c-0.25-0.06-0.5,0.08-0.58,0.33
					c-0.07,0.25,0.08,0.51,0.33,0.58c1.41,0.31,2.79,0.73,4.13,1.27c0.25,0.07,0.51-0.08,0.58-0.33
					C58.2,43.19,58.05,42.93,57.81,42.86z"/>
				<path id="Path_6856" style="fill:#D39A50;" d="M19.79,38.53l-3.1-1.02c-0.25-0.07-0.51,0.08-0.58,0.33
					c-0.06,0.25,0.08,0.5,0.33,0.58l3.1,1.02c0.25,0.07,0.51-0.08,0.58-0.33C20.18,38.86,20.04,38.61,19.79,38.53z"/>
				<path id="Path_6857" style="fill:#D39A50;" d="M18.75,39.36c-2.74-0.63-5.44-1.44-8.08-2.43c-0.54-0.2-0.78,0.61-0.31,0.86
					l-1.12-0.28c-0.25-0.06-0.51,0.09-0.57,0.34c-0.06,0.25,0.08,0.5,0.32,0.57l2.48,0.62c0.25,0.06,0.51-0.08,0.58-0.33
					c0.03-0.12,0.01-0.24-0.04-0.34c2.13,0.75,4.3,1.38,6.49,1.89C19.09,40.41,19.34,39.5,18.75,39.36z"/>
				<path id="Path_6858" style="fill:#1C3B40;" d="M68.9,24.57c-3.33-5.76-8.6-10.14-14.86-12.35c3.08-0.16,6.13,0.6,8.77,2.19
					c0.5,0.34,0.97-0.47,0.47-0.81c-4-2.68-8.96-2.45-13.55-2.15c-0.6,0.04-0.6,0.98,0,0.94c0.98-0.07,1.98-0.13,2.98-0.16
					c-0.09,0.24,0.04,0.51,0.28,0.59c0.01,0,0.01,0,0.02,0.01c0.92,0.3,1.82,0.65,2.69,1.05c0,0.1,0.04,0.2,0.11,0.28
					c2.21,2.54,4.32,5.15,6.34,7.84c0.36,0.48,1.17,0.01,0.81-0.47c-1.73-2.31-3.55-4.55-5.41-6.75c4.39,2.38,8.04,5.94,10.54,10.27
					c0.14,0.22,0.43,0.28,0.65,0.14C68.94,25.05,69.01,24.78,68.9,24.57z"/>
				<path id="Path_6859" style="fill:#1C3B40;" d="M40.94,15.89c-4.72,0.27-9.42,0.64-14.12,1.12c-0.6,0.06-0.6,1,0,0.94
					c4.7-0.48,9.41-0.86,14.12-1.12C41.54,16.8,41.54,15.86,40.94,15.89z"/>
				<path id="Path_6860" style="fill:#1C3B40;" d="M42.47,14.61c-5.24-1.65-10.66-2.71-16.14-3.14c-0.6-0.05-0.6,0.89,0,0.94
					c5.4,0.43,10.73,1.47,15.89,3.11C42.8,15.69,43.05,14.79,42.47,14.61z"/>
				<path id="Path_6861" style="fill:#1C3B40;" d="M44.64,12.19c-3.03-1.55-6.26-2.65-9.61-3.26c-3.61-0.81-7.26-1.42-10.91-2
					c-0.59-0.09-0.84,0.81-0.25,0.9c3.52,0.55,7.04,1.14,10.52,1.91c3.4,0.6,6.69,1.69,9.77,3.25c0.24,0.1,0.51-0.01,0.61-0.25
					C44.86,12.54,44.8,12.32,44.64,12.19z"/>
				<path id="Path_6862" style="fill:#D39A50;" d="M17.73,54.47l-5.37-0.15c-0.26,0-0.47,0.21-0.47,0.47c0,0.26,0.21,0.47,0.47,0.47
					l5.37,0.15c0.26,0,0.47-0.21,0.47-0.47C18.2,54.68,17.99,54.47,17.73,54.47z"/>
				<path id="Path_6863" style="fill:#D39A50;" d="M51.62,55.44c-1.51,0.13-3.03,0.16-4.55,0.09c-0.6-0.03-0.6,0.91,0,0.94
					c1.52,0.07,3.04,0.04,4.55-0.09c0.26-0.01,0.46-0.21,0.47-0.47C52.08,55.65,51.88,55.44,51.62,55.44z"/>
			</g>
		</g>
	</g>
</g>
</svg>
