<?xml version="1.0" encoding="utf-8"?>
<!-- Generator: Adobe Illustrator 25.0.0, SVG Export Plug-In . SVG Version: 6.00 Build 0)  -->
<svg version="1.1" id="Layer_1" xmlns="http://www.w3.org/2000/svg" xmlns:xlink="http://www.w3.org/1999/xlink" x="0px" y="0px"
	 viewBox="0 0 315.95 305.57" style="enable-background:new 0 0 315.95 305.57;" xml:space="preserve">
<g id="Group_1413" transform="matrix(0.174, 0.985, -0.985, 0.174, 764.048, -636.088)">
	<path id="Path_6782" style="fill:#A5C4C6;" d="M676.28,834.85c-2.26-18.27,3.91-30.6,15.62-43.39
		c11.16-12.18,23.33-27.96,39.42-28.17c33.73-0.45,54.2,3.01,66.95,65.47c2.88,14.11-55.17,66.91-66.2,66.23
		C699.41,892.99,680.21,866.64,676.28,834.85z"/>
	<path id="Path_6783" style="fill:#A5C4C6;" d="M663.13,670.32c-0.93-19.4,6.61-31.84,20.07-44.3
		c12.82-11.87,27.01-27.43,44.12-26.31c35.84,2.36,57.3,7.7,65.8,74.43c1.92,15.07-63.95,65.71-75.6,64.07
		C683.02,733.36,664.76,704.06,663.13,670.32z"/>
	<path id="Path_6784" style="fill:#A5C4C6;" d="M551.21,661.21c-8.34-15.47-7.19-28.56-1.31-43.97
		c5.6-14.67,10.84-32.89,24.95-38.62c29.56-12.01,48.8-15.98,81.73,35.18c7.44,11.56-25.36,78.49-35.32,81.69
		C591.79,704.94,565.72,688.11,551.21,661.21z"/>
</g>
</svg>
