<?xml version="1.0" encoding="utf-8"?>
<!-- Generator: Adobe Illustrator 25.0.0, SVG Export Plug-In . SVG Version: 6.00 Build 0)  -->
<svg version="1.1" id="Layer_1" xmlns="http://www.w3.org/2000/svg" xmlns:xlink="http://www.w3.org/1999/xlink" x="0px" y="0px"
	 viewBox="0 0 181.02 150.43" style="enable-background:new 0 0 181.02 150.43;" xml:space="preserve">
<g id="Layer_2_1_">
	<g id="Layer_1-2">
		<path style="fill:#D39A50;" d="M48.9,21.94c17.06-9.85,31.84-8.73,49.41-2.2c16.74,6.22,37.45,12,44.48,28.12
			c14.74,33.86,20,56-36.19,94.67c-12.69,8.75-89.35-28-93.36-39.39C1.39,69.36,19.23,39.07,48.9,21.94z"/>
		
			<rect x="11.71" y="47.15" transform="matrix(0.9633 -0.2686 0.2686 0.9633 -23.939 15.5077)" style="fill:#E3E3E3;" width="66" height="96.19"/>
		
			<rect x="103.31" y="7.1" transform="matrix(0.9633 -0.2686 0.2686 0.9633 -9.8164 38.6377)" style="fill:#E3E3E3;" width="66" height="96.19"/>
		<polygon style="fill:#C9C8C6;" points="117.49,110.55 89.36,132.53 63.53,39.88 91.66,17.9 		"/>
		
			<ellipse transform="matrix(0.9718 -0.2357 0.2357 0.9718 -27.3537 14.8573)" style="fill:none;stroke:#2A3F55;stroke-miterlimit:10;" cx="48.48" cy="121.87" rx="5.2" ry="5.29"/>
		
			<ellipse transform="matrix(0.9428 -0.3335 0.3335 0.9428 -19.8188 36.0729)" style="fill:none;stroke:#2A3F55;stroke-miterlimit:10;" cx="95.17" cy="75.77" rx="2.7" ry="2.74"/>
		
			<ellipse transform="matrix(0.8564 -0.5164 0.5164 0.8564 -31.0255 53.1095)" style="fill:none;stroke:#2A3F55;stroke-miterlimit:10;" cx="79.95" cy="82.32" rx="3.77" ry="3.84"/>
		
			<ellipse transform="matrix(0.9718 -0.2357 0.2357 0.9718 -12.2498 28.1927)" style="fill:none;stroke:#2A3F55;stroke-miterlimit:10;" cx="111.83" cy="65.35" rx="5.2" ry="5.29"/>
		
			<ellipse transform="matrix(0.9718 -0.2357 0.2357 0.9718 -9.3432 38.007)" style="fill:none;stroke:#2A3F55;stroke-miterlimit:10;" cx="154.34" cy="58.09" rx="8.4" ry="8.55"/>
		
			<ellipse transform="matrix(0.9718 -0.2357 0.2357 0.9718 -2.3485 32.6694)" style="fill:none;stroke:#2A3F55;stroke-miterlimit:10;" cx="135.51" cy="26.16" rx="3.29" ry="3.35"/>
		<path style="fill:none;stroke:#2A3F55;stroke-miterlimit:10;" d="M53.75,119.39c8.92-6.55,12.16-12.46,13.43-16.74
			c0.61-2.52,1.38-5.01,2.31-7.43c1.58-3.92,3.66-7.62,6.21-11"/>
		<line style="fill:none;stroke:#2A3F55;stroke-miterlimit:10;" x1="133.25" y1="28.89" x2="113.25" y2="59.89"/>
		<line style="fill:none;stroke:#2A3F55;stroke-miterlimit:10;" x1="98.04" y1="74.21" x2="106.3" y2="66.62"/>
		<line style="fill:none;stroke:#2A3F55;stroke-miterlimit:10;" x1="92.57" y1="76.85" x2="83.73" y2="81.71"/>
		<line style="fill:none;stroke:#2A3F55;stroke-miterlimit:10;" x1="117.25" y1="63.89" x2="145.75" y2="59.39"/>
	</g>
</g>
</svg>
