<?xml version="1.0" encoding="utf-8"?>
<!-- Generator: Adobe Illustrator 25.0.0, SVG Export Plug-In . SVG Version: 6.00 Build 0)  -->
<svg version="1.1" id="Layer_1" xmlns="http://www.w3.org/2000/svg" xmlns:xlink="http://www.w3.org/1999/xlink" x="0px" y="0px"
	 viewBox="0 0 205.18 132.12" style="enable-background:new 0 0 205.18 132.12;" xml:space="preserve">
<g id="Group_1373" transform="translate(-740.978 -1359.559)">
	<path id="Path_6739" style="fill:#1C3B40;" d="M786.6,1384.93c12.03-16.94,26.7-22.35,46.41-23.81
		c18.78-1.39,41.17-4.97,55.01,7.44c28.99,26,43.75,44.87,6.86,106.68c-8.33,13.96-97.97,12.41-106.83,3.22
		C761.85,1451.27,765.66,1414.39,786.6,1384.93z"/>
	<path id="Path_6740" style="fill:#A5C4C6;" d="M806.71,1377.85l5.1,55.2c0.87,9.49-3.98,14.17-9.46,16.68
		c-2.3,1.05-10.4,3.94-11.32,9.04c-0.85,4.69,2.23,6.96,5.42,7.53c11.05,2,21.64-20.86,36.28-18.21
		c10.65,1.92,12.96,12.2,12.96,12.2c-7.7,0.21-15.99,4.99-24.7,16.46c-7.53,9.93-17.98,16.63-29.53,14.55
		c-17.16-3.1-20.17-19.29-24.46-24.81c-4.05-5.24-14.84-4.29-19.45-6.22c-5.23-2.19-6.57-11.24-6.57-11.24l28.18,5.09
		c1.4-7.73-17.47-14.19-24.37-23.1c-6.54-8.44-1.48-17.62-1.48-17.62l36.97,29.89c0,0,2.03-2.32-0.3-7.75
		c-3.77-8.79-14.82-21.69-18.44-31.64c-3.48-9.57,6.78-18.3,6.78-18.3l26.23,48.31c6.46-5.6-2.62-33.31-1.09-41.77
		c1.73-9.56,10.67-13.41,13.25-14.29"/>
	<g id="Group_1372" transform="translate(832.368 1361.068)">
		<path id="Path_6741" style="fill:#D39A50;" d="M22.15,71.02c0.74,1.16,5.27,7.44,6.47,8.28l13.05,10.17
			c15.97,11.24,38.03,7.41,49.27-8.56c0,0,0,0,0,0l9.88-14.04c3.49-4.96,2.3-11.81-2.65-15.3c0,0,0,0,0,0L64.19,27.66
			c-0.63-0.44-1.3-0.82-2.01-1.12l10.6-15.06c2.48-3.53,1.64-8.4-1.89-10.88c0,0,0,0,0,0l0,0c-0.85-0.61-1.94-0.77-2.92-0.42
			c-2.41,0.86-4.5,2.42-6.02,4.48L37.96,38.73c-0.2,0.28-0.37,0.59-0.51,0.91c-1,2.32-1.37,4.86-1.07,7.36l0,0
			c0.32,3.85,0.57,2.02,2.8,4.95c0.99,1.33,0.93,3.16-0.14,4.42l0,0c-3.19,3.76-5.19,3.32-7.04-1.75l-18.52-16.7
			c-3.96-1.28-8.16-1.47-10.87,1l-0.2,0.19C0.17,41.07-0.58,44.24,0.55,47c0.28,0.32,0.62,0.58,1.02,0.74
			c2.58,1.36,4.85,3.24,6.67,5.53L22.15,71.02"/>
		<path id="Rectangle_468" style="fill:#BD8B46;" d="M95.79,47.57l4.84,3.41c1.8,1.27,2.23,3.76,0.97,5.56l-5.29,7.52
			c-1.27,1.8-3.76,2.23-5.56,0.97l-4.84-3.41c-1.8-1.27-2.23-3.76-0.97-5.56l5.29-7.52C91.5,46.73,93.99,46.3,95.79,47.57z"/>
		<path id="Rectangle_469" style="fill:#D39A50;" d="M105.68,32.5l4.84,3.41c1.8,1.27,2.23,3.76,0.97,5.56l-5.29,7.52
			c-1.27,1.8-3.76,2.23-5.56,0.97l-4.84-3.41c-1.8-1.27-2.23-3.76-0.97-5.56l5.29-7.52C101.39,31.66,103.88,31.23,105.68,32.5z"/>
		<path id="Rectangle_470" style="fill:#BD8B46;" d="M86.33,33.78l4.84,3.41c1.8,1.27,2.23,3.76,0.97,5.56l-5.29,7.52
			c-1.27,1.8-3.76,2.23-5.56,0.97l-4.84-3.41c-1.8-1.27-2.23-3.76-0.97-5.56l5.29-7.52C82.04,32.94,84.53,32.51,86.33,33.78z"/>
		<path id="Rectangle_471" style="fill:#D39A50;" d="M96.71,19.03l4.84,3.41c1.8,1.27,2.23,3.76,0.97,5.56l-5.29,7.52
			c-1.27,1.8-3.76,2.23-5.56,0.97l-4.84-3.41c-1.8-1.27-2.23-3.76-0.97-5.56L91.15,20C92.42,18.2,94.91,17.76,96.71,19.03z"/>
		<path id="Rectangle_472" style="fill:#BD8B46;" d="M73.96,23.71l4.84,3.41c1.8,1.27,2.23,3.76,0.97,5.56l-5.29,7.52
			c-1.27,1.8-3.76,2.23-5.56,0.97l-4.84-3.41c-1.8-1.27-2.23-3.76-0.97-5.56l5.29-7.52C69.66,22.87,72.15,22.44,73.96,23.71z"/>
		<path id="Rectangle_473" style="fill:#D39A50;" d="M84.22,9.13l4.84,3.41c1.8,1.27,2.23,3.76,0.97,5.56l-5.29,7.52
			c-1.27,1.8-3.76,2.23-5.56,0.97l-4.84-3.41c-1.8-1.27-2.23-3.76-0.97-5.56l5.29-7.52C79.92,8.3,82.41,7.87,84.22,9.13z"/>
		<path id="Path_6742" style="fill:#BD8B46;" d="M71.38,73.48c3.89,1.48,5.85,5.83,4.37,9.71c-1.39,3.66-5.36,5.65-9.13,4.57
			L71.38,73.48z"/>
		<path id="Path_6743" style="fill:#BD8B46;" d="M65.07,87.15c-3.99-1.16-6.29-5.33-5.14-9.33c1.16-3.99,5.33-6.3,9.33-5.14
			c0.19,0.06,0.38,0.12,0.56,0.19L65.07,87.15z"/>
	</g>
</g>
</svg>
