<?xml version="1.0" encoding="utf-8"?>
<!-- Generator: Adobe Illustrator 25.0.0, SVG Export Plug-In . SVG Version: 6.00 Build 0)  -->
<svg version="1.1" id="Layer_1" xmlns="http://www.w3.org/2000/svg" xmlns:xlink="http://www.w3.org/1999/xlink" x="0px" y="0px"
	 viewBox="0 0 177.65 154.82" style="enable-background:new 0 0 177.65 154.82;" xml:space="preserve">
<g id="Group_1371" transform="translate(-147.399 -439.763)">
	<path id="Path_6735" style="fill:#D39A50;" d="M271.67,466.07c21.96,12.2,31.31,38.9,21.76,62.13l24.88,12.71
		c16.5-36.99,1.69-80.45-33.96-99.66L271.67,466.07z"/>
	<path id="Path_6736" style="fill:#1C3B40;" d="M182.72,491.09c13.1-21.15,39.86-29.3,62.53-19.05l12.68-24.82
		c-36.39-17.23-79.91-3.68-100.09,31.16L182.72,491.09z"/>
	<path id="Path_6737" style="fill:#A5B2A6;" d="M203.83,562.04l-12.68,24.82c37.88,18.32,83.46,3.01,102.61-34.45l-24.82-12.68
		C256.8,563.49,228,573.35,203.83,562.04z"/>
	<path id="Path_6738" style="fill:#A5C4C6;" d="M200.21,560.17c-22.95-13.14-31.54-41.99-19.51-65.54l-24.82-12.68
		c-19.03,37.25-5.01,82.88,31.65,103.04L200.21,560.17z"/>
</g>
</svg>
