<svg xmlns="http://www.w3.org/2000/svg" width="100%" height="100%" viewBox="0 0 328.395 124.82">
  <g id="Group_1445" data-name="Group 1445" transform="translate(-220.425 -1197.622)">
    <g id="Group_1444" data-name="Group 1444">
      <g id="Group_1437" data-name="Group 1437" opacity="0.2">
        <g id="Group_1434" data-name="Group 1434">
          <g id="Group_1433" data-name="Group 1433">
            <path id="Path_6800" data-name="Path 6800" d="M345.075,1251.534h0Z" fill="#1c3b40"/>
          </g>
        </g>
        <g id="Group_1436" data-name="Group 1436">
          <g id="Group_1435" data-name="Group 1435">
            <path id="Path_6801" data-name="Path 6801" d="M397.29,1248.375h0v59.414l51.454-29.707Z" fill="#1c3b40"/>
          </g>
        </g>
      </g>
      <g id="Group_1443" data-name="Group 1443">
        <g id="Group_1440" data-name="Group 1440">
          <g id="Group_1438" data-name="Group 1438">
            <path id="Path_6802" data-name="Path 6802" d="M447.193,1251.533h0Z" fill="#f6ebe8"/>
          </g>
          <g id="Group_1439" data-name="Group 1439">
            <path id="Path_6803" data-name="Path 6803" d="M447.193,1251.533h0Z" fill="none" stroke="#f6ebe8" stroke-miterlimit="10" stroke-width="0.832"/>
          </g>
        </g>
        <g id="Group_1442" data-name="Group 1442" opacity="0.12">
          <g id="Group_1441" data-name="Group 1441">
            <path id="Path_6804" data-name="Path 6804" d="M396.5,1248.375l-51.454,29.707,51.454,29.707v-59.414Z" fill="#1c3b40"/>
          </g>
        </g>
      </g>
      <path id="Path_6805" data-name="Path 6805" d="M396.514,1261.247v51.758l59.632-34.429V1242.76l-8.192,19.713-10.973-15.609-10.651,22.274-9.415-9.965-9.261,18.909-11.148-15.849" fill="#1c3b40" opacity="0.2"/>
      <path id="Path_6806" data-name="Path 6806" d="M336.911,1229.632l-.792,48.251,59.632-34.429-2.593-45.832-5.6,29.728-10.98-19.506-10.651,22.274-9.414-9.965-8.462,26.313-8.728-12.582" fill="#1c3b40" opacity="0.2"/>
      <line id="Line_59" data-name="Line 59" y2="0.814" transform="translate(395.752 1233.885)" fill="#1c3b40" opacity="0.2"/>
      <path id="Path_6807" data-name="Path 6807" d="M396.72,1234.7l-.191-.316v-.5" fill="#1c3b40" opacity="0.2"/>
      <path id="Path_6808" data-name="Path 6808" d="M386.971,1278.082l-9.261-20.626-14.2,7.578-15.435-15.156-11.164,10.467v18.232l59.632,34.429v-50.833Z" fill="#1c3b40" opacity="0.12"/>
      <path id="Path_6809" data-name="Path 6809" d="M397.29,1229.568v13.886l58.852,34.429V1231.4l-11.018,10.467-18.409-18.5-14.015,7.578-9.14-20.626-6.272,19.257" fill="#1c3b40" opacity="0.12"/>
    </g>
    <path id="Path_6810" data-name="Path 6810" d="M484.2,1272.473v13.392l22.821,2.391,11.8-15.784-34.624-4.566Z" fill="#1c3b40" opacity="0.12"/>
    <path id="Path_6811" data-name="Path 6811" d="M269.727,1315.007l3.564,7.436,34.765-15.03,13.452-17.224-53,22.284Z" fill="#1c3b40" opacity="0.12"/>
    <path id="Path_6812" data-name="Path 6812" d="M234.3,1286.019h26.422l-40.294,15.891Z" fill="#1c3b40" opacity="0.12"/>
    <path id="Path_6813" data-name="Path 6813" d="M534.948,1315.735H508.526l40.293-15.891Z" fill="#1c3b40" opacity="0.2"/>
    <path id="Path_6814" data-name="Path 6814" d="M313.345,1267.425H286.923l40.293-15.891Z" fill="#1c3b40" opacity="0.2"/>
  </g>
</svg>
