<svg xmlns="http://www.w3.org/2000/svg" viewBox="0 0 143.4 127.92"><defs><style>.cls-1,.cls-2,.cls-4,.cls-6{fill:none;stroke-miterlimit:10;}.cls-1,.cls-2{stroke:#d39a50;}.cls-1{stroke-width:5px;}.cls-2{opacity:0.13;}.cls-3{fill:#d39a50;opacity:0.25;}.cls-4{stroke:#fff;stroke-width:0.5px;}.cls-5{fill:#e3c7b6;}.cls-6{stroke:#2a3f55;stroke-width:2px;}.cls-7{fill:#2a3f55;}</style></defs><g id="Layer_2" data-name="Layer 2"><g id="Layer_1-2" data-name="Layer 1"><g id="suurennuslasi"><path class="cls-1" d="M82.64,121.83c-3.57,1.16-7.38,2.29-11.47,3.41-4.44,1.21-13.29-3.83-23.2-11.55"/><path class="cls-1" d="M120.39,33.34c5.76,6.14,10.09,13,10.67,21,.43,5.84.72,11.29.6,16.4"/><path class="cls-1" d="M57.86,3.48c15.3-2.89,26.65.79,38,8.92"/><path class="cls-1" d="M16.82,84.27C8.4,74.83,2.5,66.49,2.5,62.86A58.66,58.66,0,0,1,5,45.7"/><path class="cls-2" d="M67.51,10.9q2.82.9,5.74,2.09"/><circle class="cls-3" cx="67.09" cy="60.38" r="34.78"/><path class="cls-4" d="M47.39,39.55a27.79,27.79,0,0,1,25.4-8.39"/><path class="cls-5" d="M98.37,76.46l40,33.94c1.49,1.26,1.34,3.87-.32,5.84l-4.62,5.45c-1.66,2-4.22,2.53-5.7,1.27L87.55,88.87"/><ellipse class="cls-6" cx="17.47" cy="115.79" rx="4.15" ry="4.22" transform="translate(-89.34 67.77) rotate(-57.21)"/><ellipse class="cls-6" cx="34.07" cy="90.97" rx="8" ry="8.15" transform="translate(-55.59 53.59) rotate(-46.84)"/><line class="cls-6" x1="19.77" y1="112.22" x2="29.12" y2="97.71"/><ellipse class="cls-6" cx="138.19" cy="9.88" rx="4.15" ry="4.22" transform="matrix(0.36, -0.93, 0.93, 0.36, 78.64, 134.97)"/><ellipse class="cls-6" cx="101.99" cy="30.67" rx="7.69" ry="7.83" transform="translate(1.52 66) rotate(-36.11)"/><line class="cls-6" x1="134.18" y1="11.94" x2="107.72" y2="25.55"/><polyline class="cls-7" points="73.25 61.82 98.22 37.92 94.82 34.17 67.92 53.33 70.77 54.14 69.41 58.95 73.56 57.47"/><polygon class="cls-7" points="66.34 69.71 61.41 68.88 62.67 65.32 58.98 66.1 58.38 61.82 38.51 83.55 40.55 85.83 66.34 69.71"/></g></g></g></svg>