<svg xmlns="http://www.w3.org/2000/svg" viewBox="0 0 193.96 125.77"><path d="M43.75,24.05C55.17,8,69.07,2.86,87.76,1.48c17.81-1.31,39-4.71,52.15,7,27.49,24.65,41.48,42.54,6.51,101.15-7.9,13.23-92.89,11.76-101.29,3C20.29,87,23.91,52,43.75,24.05Z" style="fill:#a5c4c6"/><path d="M62.82,17.34l4.83,52.34c.82,9-3.78,13.43-9,15.81-2.18,1-9.86,3.74-10.74,8.57-.8,4.45,2.12,6.6,5.14,7.14,10.47,1.9,20.52-19.77,34.4-17.27C97.58,85.76,99.77,95.5,99.77,95.5c-7.3.2-15.17,4.73-23.42,15.61-7.14,9.42-17,15.77-28,13.79C32.08,122,29.22,106.62,25.17,101.38c-3.85-5-14.07-4.07-18.45-5.9C1.77,93.41.5,84.82.5,84.82l26.72,4.83c1.32-7.33-16.57-13.45-23.11-21.9-6.2-8-1.4-16.71-1.4-16.71L37.76,79.38s1.92-2.2-.29-7.35C33.89,63.7,23.42,51.46,20,42c-3.3-9.08,6.43-17.35,6.43-17.35L51.29,70.49c6.13-5.32-2.48-31.58-1-39.6,1.63-9.06,10.11-12.71,12.56-13.55" style="fill:none;stroke:#1c3b40;stroke-linecap:round;stroke-linejoin:round"/><path d="M149.08,28.41,148,27.66a9.88,9.88,0,0,0-1.9-1.06l10.05-14.28A7.41,7.41,0,0,0,154.36,2h0a3,3,0,0,0-2.77-.39,12.09,12.09,0,0,0-5.71,4.24l-22.74,32.3a4.28,4.28,0,0,0-.48.86,13.43,13.43,0,0,0-1,7h0c.3,3.65.54,1.92,2.65,4.7a3.34,3.34,0,0,1-.14,4.19h0c-3,3.56-4.92,3.14-6.67-1.66L99.92,37.39c-3.75-1.22-7.73-1.4-10.3,1l-.19.18A6.62,6.62,0,0,0,87.66,46a2.68,2.68,0,0,0,1,.7A19.9,19.9,0,0,1,95,51.94l13.2,16.83" style="fill:none;stroke:#1c3b40;stroke-linecap:round;stroke-linejoin:round"/><path d="M108.15,68.77c.7,1.09,5,7,6.13,7.85l12.37,9.65a33.53,33.53,0,0,0,46.72-8.12l9.37-13.31a10.38,10.38,0,0,0,1.21-9.7" style="fill:none;stroke:#1c3b40;stroke-linecap:round;stroke-linejoin:round"/><rect x="168.99" y="46.66" width="13.18" height="16.28" rx="3.99" transform="translate(63.56 -91.09) rotate(35.15)" style="fill:none;stroke:#1c3b40;stroke-linecap:round;stroke-linejoin:round"/><rect x="178.36" y="32.37" width="13.18" height="16.28" rx="3.99" transform="translate(57.05 -99.09) rotate(35.15)" style="fill:none;stroke:#1c3b40;stroke-linecap:round;stroke-linejoin:round"/><rect x="160.01" y="33.59" width="13.18" height="16.28" rx="3.99" transform="translate(54.4 -88.3) rotate(35.15)" style="fill:none;stroke:#1c3b40;stroke-linecap:round;stroke-linejoin:round"/><rect x="169.86" y="19.61" width="13.18" height="16.28" rx="3.99" transform="translate(48.15 -96.52) rotate(35.15)" style="fill:none;stroke:#1c3b40;stroke-linecap:round;stroke-linejoin:round"/><rect x="148.28" y="24.04" width="13.18" height="16.28" rx="3.99" transform="translate(46.76 -83.29) rotate(35.15)" style="fill:none;stroke:#1c3b40;stroke-linecap:round;stroke-linejoin:round"/><rect x="158.01" y="10.22" width="13.18" height="16.28" rx="3.99" transform="translate(40.58 -91.41) rotate(35.15)" style="fill:none;stroke:#1c3b40;stroke-linecap:round;stroke-linejoin:round"/><path d="M154.83,71.1a7.14,7.14,0,0,1-4.51,13.54Z" style="fill:none;stroke:#1c3b40;stroke-miterlimit:10"/><path d="M148.84,84.06A7.14,7.14,0,0,1,147.37,71a7.16,7.16,0,0,1,6-.43Z" style="fill:none;stroke:#1c3b40;stroke-miterlimit:10"/></svg>