<svg xmlns="http://www.w3.org/2000/svg" viewBox="0 0 181.02 150.43">
    <g data-name="Layer 2">
        <g data-name="Layer 1">
            <path d="M48.9 21.94c17.06-9.85 31.84-8.73 49.41-2.2 16.74 6.22 37.45 12 44.48 28.12 14.74 33.86 20 56-36.19 94.67-12.69 8.75-89.35-28-93.36-39.39-11.85-33.78 5.99-64.07 35.66-81.2z" fill="#d39a50"/>
            <path fill="#e3e3e3" d="M.003 57.782l63.575-17.726 25.835 92.656-63.574 17.726zM91.601 17.732L155.176.005l25.835 92.656-63.575 17.726z"/>
            <path fill="#c9c8c6" d="M117.49 110.55l-28.13 21.98-25.83-92.65L91.66 17.9l25.83 92.65z"/>
            <ellipse cx="48.49" cy="121.87" rx="5.2" ry="5.29" transform="rotate(-13.63 48.491 121.899)" fill="none" stroke="#2a3f55" stroke-miterlimit="10"/>
            <ellipse cx="95.17" cy="75.76" rx="2.7" ry="2.74" transform="rotate(-19.48 95.187 75.773)" fill="none" stroke="#2a3f55" stroke-miterlimit="10"/>
            <ellipse cx="79.95" cy="82.31" rx="3.77" ry="3.84" transform="rotate(-31.09 79.971 82.317)" fill="none" stroke="#2a3f55" stroke-miterlimit="10"/>
            <ellipse cx="111.83" cy="65.34" rx="5.2" ry="5.29" transform="rotate(-13.63 111.858 65.352)" fill="none" stroke="#2a3f55" stroke-miterlimit="10"/>
            <ellipse cx="154.34" cy="58.09" rx="8.4" ry="8.55" transform="rotate(-13.63 154.357 58.082)" fill="none" stroke="#2a3f55" stroke-miterlimit="10"/>
            <ellipse cx="135.51" cy="26.16" rx="3.29" ry="3.35" transform="rotate(-13.63 135.51 26.167)" fill="none" stroke="#2a3f55" stroke-miterlimit="10"/>
            <path d="M53.75 119.39c8.92-6.55 12.16-12.46 13.43-16.74a59.92 59.92 0 012.31-7.43 48 48 0 016.21-11M133.25 28.89l-20 31M98.04 74.21l8.26-7.59M92.57 76.85l-8.84 4.86M117.25 63.89l28.5-4.5" fill="none" stroke="#2a3f55" stroke-miterlimit="10"/>
        </g>
    </g>
</svg>
