<?xml version="1.0" encoding="utf-8"?>
<!-- Generator: Adobe Illustrator 25.0.0, SVG Export Plug-In . SVG Version: 6.00 Build 0)  -->
<svg version="1.1" id="Layer_1" xmlns="http://www.w3.org/2000/svg" xmlns:xlink="http://www.w3.org/1999/xlink" x="0px" y="0px"
	 viewBox="0 0 514.02 427.16" style="enable-background:new 0 0 514.02 427.16;" xml:space="preserve">
<g id="Group_1471" transform="translate(-1041.881 -432.666)">
	<g id="Group_1285" transform="translate(1041.881 432.666)">
		
			<rect id="Rectangle_464" x="33.24" y="133.88" transform="matrix(0.9632 -0.2686 0.2686 0.9632 -67.9801 44.0395)" style="fill:#F2F2F2;" width="187.41" height="273.13"/>
		
			<rect id="Rectangle_465" x="293.37" y="20.15" transform="matrix(0.9632 -0.2686 0.2686 0.9632 -27.8708 109.7349)" style="fill:#F2F2F2;" width="187.41" height="273.13"/>
		<g id="Group_1284" transform="translate(180.388 50.829)">
			<g id="Group_1283">
				<path id="Path_6652" style="fill:#E0DEDC;" d="M153.24,263.1L73.37,325.5L0,62.4L79.88,0L153.24,263.1z"/>
			</g>
		</g>
	</g>
	<g id="Group_1308" transform="translate(1161.674 495.53)">
		<g id="Group_1287" transform="translate(0 265.116)">
			<g id="Group_1286" transform="translate(0 0)">
				
					<ellipse id="Ellipse_109" transform="matrix(0.9718 -0.2357 0.2357 0.9718 -3.7582 4.7262)" style="fill:none;stroke:#2A3F55;stroke-miterlimit:10;" cx="17.89" cy="18.09" rx="14.77" ry="15.03"/>
			</g>
		</g>
		<g id="Group_1289" transform="translate(140.622 142.365)">
			<g id="Group_1288" transform="translate(0 0)">
				
					<ellipse id="Ellipse_110" transform="matrix(0.9426 -0.3339 0.3339 0.9426 -2.7417 3.8485)" style="fill:none;stroke:#2A3F55;stroke-width:1.0004;stroke-miterlimit:10.004;" cx="9.83" cy="9.9" rx="7.66" ry="7.8"/>
			</g>
		</g>
		<g id="Group_1291" transform="translate(92.42 155.989)">
			<g id="Group_1290" transform="translate(0 0)">
				
					<ellipse id="Ellipse_111" transform="matrix(0.8564 -0.5163 0.5163 0.8564 -5.555 9.7781)" style="fill:none;stroke:#2A3F55;stroke-width:0.9995;stroke-miterlimit:9.995;" cx="14.8" cy="14.88" rx="10.71" ry="10.9"/>
			</g>
		</g>
		<g id="Group_1293" transform="translate(179.876 104.582)">
			<g id="Group_1292" transform="translate(0 0)">
				
					<ellipse id="Ellipse_112" transform="matrix(0.9718 -0.2357 0.2357 0.9718 -3.7582 4.7262)" style="fill:none;stroke:#2A3F55;stroke-miterlimit:10;" cx="17.89" cy="18.09" rx="14.77" ry="15.03"/>
			</g>
		</g>
		<g id="Group_1295" transform="translate(289.565 72.889)">
			<g id="Group_1294" transform="translate(0 0)">
				
					<ellipse id="Ellipse_113" transform="matrix(0.9718 -0.2357 0.2357 0.9718 -6.0683 7.6312)" style="fill:none;stroke:#2A3F55;stroke-miterlimit:10;" cx="28.89" cy="29.2" rx="23.84" ry="24.27"/>
			</g>
		</g>
		<g id="Group_1297" transform="translate(253.694 0)">
			<g id="Group_1296" transform="translate(0)">
				
					<ellipse id="Ellipse_114" transform="matrix(0.9718 -0.2357 0.2357 0.9718 -2.3759 2.9877)" style="fill:none;stroke:#2A3F55;stroke-miterlimit:10;" cx="11.31" cy="11.43" rx="9.34" ry="9.5"/>
			</g>
		</g>
		<g id="Group_1299" transform="translate(32.828 176.39)">
			<g id="Group_1298">
				<path id="Path_6653" style="fill:none;stroke:#2A3F55;stroke-miterlimit:10;" d="M0,99.77c25.33-18.61,34.52-35.39,38.13-47.55
					c1.47-4.94,2.67-11.33,6.58-21.09C49.19,20.02,55.12,9.55,62.34,0"/>
			</g>
		</g>
		<g id="Group_1301" transform="translate(201.781 19.181)">
			<g id="Group_1300">
				<line id="Line_48" style="fill:none;stroke:#2A3F55;stroke-miterlimit:10;" x1="56.79" y1="0" x2="0" y2="88.03"/>
			</g>
		</g>
		<g id="Group_1303" transform="translate(158.604 126.301)">
			<g id="Group_1302">
				<line id="Line_49" style="fill:none;stroke:#2A3F55;stroke-miterlimit:10;" x1="0" y1="21.55" x2="23.44" y2="0"/>
			</g>
		</g>
		<g id="Group_1305" transform="translate(117.969 155.365)">
			<g id="Group_1304">
				<line id="Line_50" style="fill:none;stroke:#2A3F55;stroke-miterlimit:10;" x1="25.09" y1="0" x2="0" y2="13.78"/>
			</g>
		</g>
		<g id="Group_1307" transform="translate(213.139 105.788)">
			<g id="Group_1306">
				<line id="Line_51" style="fill:none;stroke:#2A3F55;stroke-miterlimit:10;" x1="0" y1="12.78" x2="80.93" y2="0"/>
			</g>
		</g>
	</g>
</g>
</svg>
