<svg id="NewGroup0-46" xmlns="http://www.w3.org/2000/svg" width="110" height="100" viewBox="-14 -15 100 100">
  <g id="Group_184" data-name="Group 184">
    <path id="Path_157" data-name="Path 157" d="M362.84,235.67v0Z" transform="translate(-321.335 -218.6)" fill="#333"/>
    <path id="Path_158" data-name="Path 158" d="M359.818,236.678a3.666,3.666,0,1,1-3.666,3.666,3.678,3.678,0,0,1,3.666-3.666ZM349.66,248.039h18.469V229.57a18.469,18.469,0,0,0-18.469,18.469Z" transform="translate(-345.036 -229.57)" fill="#202020"/>
    <path id="Path_159" data-name="Path 159" d="M362.84,236.66h0v0Z" transform="translate(-321.335 -216.82)" fill="#202020"/>
    <path id="Path_160" data-name="Path 160" d="M383.322,257.927a19.243,19.243,0,0,0,2.518-5.625,19.244,19.244,0,0,1-2.518,5.625Zm2.938-12.257a7.04,7.04,0,0,0-.112-.756c-.028-.112-.028-.252-.056-.364a1.4,1.4,0,0,1-.056-.336c0-.056-.028-.084-.028-.14-.028-.112-.056-.224-.084-.364-.028-.112-.056-.224-.084-.308v-.028c-.028-.112-.056-.252-.084-.364s-.056-.2-.084-.308c-.028-.056-.028-.112-.056-.168-.028-.112-.056-.2-.084-.308-.084-.252-.168-.476-.252-.728,0-.028-.028-.028-.028-.056a1.72,1.72,0,0,0-.14-.336c-.028-.112-.084-.2-.112-.308,0-.028-.028-.056-.028-.084-.056-.112-.084-.224-.14-.336s-.112-.252-.168-.364-.112-.224-.168-.364c-.112-.224-.224-.448-.364-.672l-.028-.028-.168-.336c-.056-.112-.14-.224-.2-.336s-.14-.224-.2-.336a2.33,2.33,0,0,0-.224-.336h0a3073.771,3073.771,0,0,0-.448-.616c-.056-.084-.14-.2-.2-.28l-.056-.056c-.084-.084-.14-.2-.224-.28h0a1.956,1.956,0,0,1-.224-.28,1.4,1.4,0,0,0-.2-.224c-.028-.028-.056-.056-.056-.084-.168-.2-.336-.392-.5-.56l-.028-.028-.252-.252-.224-.224-.084-.084a1.813,1.813,0,0,0-.252-.224l-.028-.028c-.084-.084-.168-.14-.252-.224-.2-.2-.42-.364-.616-.56a1.965,1.965,0,0,0-.28-.224h0a1.246,1.246,0,0,0-.308-.224c-.028,0-.028-.028-.056-.028-.084-.056-.2-.14-.28-.2s-.168-.14-.252-.2c-.028-.028-.056-.028-.056-.056a1.535,1.535,0,0,1-.252-.2,3.65,3.65,0,0,1-.42-.28c-.084-.056-.2-.112-.28-.168-.112-.056-.224-.14-.336-.2a2.079,2.079,0,0,1-.336-.2.027.027,0,0,1-.028-.028l-.336-.168c-.224-.112-.448-.252-.7-.364l-.336-.168H375.4l-.336-.168a1.942,1.942,0,0,0-.364-.14c-.112-.056-.224-.084-.336-.14h-.028c-.112-.056-.252-.084-.364-.14h-.028c-.112-.028-.224-.084-.364-.112-.084-.028-.2-.056-.28-.084-.028,0-.056-.028-.084-.028-.112-.028-.224-.084-.364-.112h-.028a7.516,7.516,0,0,0-.756-.2c-.112-.028-.252-.056-.364-.084h-.028v21.911H349.77v.028c.028.112.056.252.084.364s.056.224.084.364v.028c.028.112.056.252.084.364v.056a2.606,2.606,0,0,0,.112.364c.028.112.056.2.084.308.028.084.056.14.084.224.084.224.14.42.224.644a3.29,3.29,0,0,0,.14.308h0c.028.084.084.2.112.28.056.14.14.308.2.448.056.084.084.2.14.28.028.028.028.084.056.112.056.084.084.2.14.28h0a1.31,1.31,0,0,1,.14.28c.028.028.028.056.056.084.056.112.112.2.168.308l.028.028c.056.084.112.2.168.28s.112.2.168.28l.084.168a1.889,1.889,0,0,0,.2.308l.168.252c.028.028.028.056.056.084l.168.252c.028.028.056.056.056.084a1.532,1.532,0,0,0,.2.252c.168.224.308.42.476.644a1.963,1.963,0,0,1,.224.28c.056.084.14.14.2.224l.084.084a1.1,1.1,0,0,1,.224.28,1.682,1.682,0,0,0,.224.224c.028.028.056.084.112.112l.2.2.084.084.224.224.252.252a.386.386,0,0,0,.112.084c.084.056.14.14.224.2a1.812,1.812,0,0,0,.252.224,2.976,2.976,0,0,0,.308.252,1.964,1.964,0,0,0,.28.224c.2.168.42.308.644.476.112.084.2.14.308.224a.981.981,0,0,0,.224.14,2.6,2.6,0,0,0,.224.14c.028.028.056.028.084.056a.587.587,0,0,1,.168.112c.028,0,.028.028.056.028.084.056.14.084.224.14.112.056.224.14.336.2A3.047,3.047,0,0,1,359,264l.028.028c.224.112.42.224.644.336.028,0,.056.028.084.028a2.6,2.6,0,0,0,.28.14c.14.056.28.14.42.2.112.056.224.084.336.14l.084.028c.112.028.2.084.308.112.112.056.224.084.336.14.028,0,.028.028.056.028.112.028.224.084.336.112a1.806,1.806,0,0,0,.364.112c.112.028.2.056.308.084a1.779,1.779,0,0,0,.2.056c.112.028.224.056.308.084l.336.084h.028c.112.028.2.056.308.084s.224.056.364.084a1.213,1.213,0,0,0,.14.028,1.4,1.4,0,0,0,.336.056,1.64,1.64,0,0,0,.364.056c.252.028.5.084.755.112.056,0,.112.028.168.028a5.89,5.89,0,0,0,.7.056.953.953,0,0,1,.28.028h.923c.308,0,.644,0,.951-.028A18.449,18.449,0,0,0,386.2,249.2h0v-.056h0a4.341,4.341,0,0,0,.028-.616v0h0v-.14h0v-.616h0v-.923a.954.954,0,0,0-.028-.28c-.028-.224-.028-.476-.056-.7.141-.084.141-.14.113-.2Z" transform="translate(-344.839 -229.3)" fill="#202020"/>
    <path id="Path_161" data-name="Path 161" d="M419.847,236.1l-13.04,2.826a.744.744,0,0,0-.392,1.231l3.554,3.918-10.746,9.43-8.171-2.491a1.582,1.582,0,0,0-1.679.476l-10.13,11.641L363.8,258.631a1.563,1.563,0,0,0-1.315.2l-13.74,8.871a1.611,1.611,0,0,0,.868,2.966,1.571,1.571,0,0,0,.867-.252l13.1-8.479,15.727,4.589a1.649,1.649,0,0,0,1.679-.5l10.13-11.641,8.031,2.435a1.624,1.624,0,0,0,1.539-.336L412.123,246.4l3.246,3.554a.741.741,0,0,0,1.259-.28l4.058-12.7a.682.682,0,0,0-.839-.867Z" transform="translate(-348.008 -217.86)" fill="#202020"/>
    <path id="Path_162" data-name="Path 162" d="M359.982,255.572l-1.287.84v15.894h-3.33a2.952,2.952,0,0,0-2.043-.784,3.022,3.022,0,0,0,0,6.044,3.086,3.086,0,0,0,2.043-.784h54.371a2.951,2.951,0,0,0,2.043.784,3.022,3.022,0,0,0,0-6.044,3.085,3.085,0,0,0-2.043.784h-2.518V241.58l-5.82,5.093v25.633h-8.451V249.723l-4.925-1.483-.9,1.007v23.058h-8.451v-13.46a4.949,4.949,0,0,1-3.078,1.119,4.339,4.339,0,0,1-1.343-.2l-1.371-.392v12.956h-8.451V256.915l-4.449-1.343Z" transform="translate(-343.886 -207.972)" fill="#202020"/>
  </g>
</svg>
