<?xml version="1.0" encoding="utf-8"?>
<!-- Generator: Adobe Illustrator 25.0.0, SVG Export Plug-In . SVG Version: 6.00 Build 0)  -->
<svg version="1.1" id="Layer_1" xmlns="http://www.w3.org/2000/svg" xmlns:xlink="http://www.w3.org/1999/xlink" x="0px" y="0px"
	 viewBox="0 0 54.24 67.59" style="enable-background:new 0 0 54.24 67.59;" xml:space="preserve">
<g id="Component_9_1" transform="translate(0.271)">
	<g id="Group_1419" transform="matrix(0.996, -0.087, 0.087, 0.996, -415.121, -513.645)">
		<path id="Path_6603" style="fill:#A5B2A6;" d="M413.86,570.94c4.55,6.88,3.03,15.19,2.4,18.67c-0.65,3.58-1.99,10.92-7.87,15.6
			c-9.93,7.91-28.2,4.58-34.27-5.47c-3.02-4.99-2.34-10.85-1.74-16.06c0.61-5.3,1.55-13.41,7.21-18.21
			C388.7,557.75,406.89,560.38,413.86,570.94z"/>
		<g id="suurennuslasi" transform="translate(368.405 552.092)">
			
				<circle id="Ellipse_72" style="fill:none;stroke:#2B3233;stroke-width:0.4999;stroke-miterlimit:9.9979;" cx="19.14" cy="19.14" r="19.14"/>
			<path id="Path_6618" style="fill:none;stroke:#2B3233;stroke-width:0.4999;stroke-miterlimit:9.9979;" d="M4.76,13.86
				c1.8-4.91,5.98-8.56,11.09-9.68"/>
			<path id="Path_6619" style="fill:none;stroke:#2B3233;stroke-width:0.4999;stroke-miterlimit:9.9979;" d="M31.8,33.77
				l13.48,25.55c0.5,0.96,0.12,2.14-0.84,2.64l-2.67,1.41c-0.95,0.51-2.14,0.15-2.65-0.8L25.59,36.9"/>
		</g>
	</g>
</g>
</svg>
