<?xml version="1.0" encoding="utf-8"?>
<!-- Generator: Adobe Illustrator 25.0.0, SVG Export Plug-In . SVG Version: 6.00 Build 0)  -->
<svg version="1.1" id="Layer_1" xmlns="http://www.w3.org/2000/svg" xmlns:xlink="http://www.w3.org/1999/xlink" x="0px" y="0px"
	 viewBox="0 0 312.32 123.86" style="enable-background:new 0 0 312.32 123.86;" xml:space="preserve">
<g id="Layer_2_1_">
	<g id="Layer_1-2">
		<polygon style="opacity:0.96;fill:#A5B2A6;enable-background:new    ;" points="149.57,79.19 128.81,37.22 158.69,0 179.46,41.97 
					"/>
		<polygon style="opacity:0.73;fill:#A5B2A6;enable-background:new    ;" points="200.21,83.93 149.56,79.18 179.44,41.96 
			230.1,46.71 		"/>
		<path style="fill:none;stroke:#2A3F55;stroke-miterlimit:10;" d="M179.42,63.68c0.25,2.48-1.53,4.7-4,5
			c-2.42,0.29-4.61-1.43-4.9-3.85c-0.01-0.05-0.01-0.1-0.02-0.15c-0.25-2.48,1.53-4.7,4-5c1.99-0.24,3.9,0.9,4.63,2.77
			C179.29,62.84,179.39,63.26,179.42,63.68z"/>
		<path style="fill:none;stroke:#2A3F55;stroke-miterlimit:10;" d="M204.42,58.43c0.2,1.88-1.13,3.59-3,3.85
			c-1.85,0.23-3.53-1.09-3.75-2.94c0-0.02,0-0.04-0.01-0.06c-0.21-1.89,1.12-3.6,3-3.85c1.52-0.18,2.98,0.69,3.54,2.12
			C204.31,57.83,204.39,58.13,204.42,58.43z"/>
		<path style="fill:none;stroke:#2A3F55;stroke-miterlimit:10;" d="M197.35,48.87c0.21,1.88-1.12,3.59-3,3.85
			c-1.85,0.22-3.53-1.1-3.76-2.96c0-0.01,0-0.03,0-0.04c-0.21-1.88,1.12-3.59,3-3.84c1.53-0.19,2.98,0.69,3.54,2.12
			C197.24,48.28,197.31,48.57,197.35,48.87z"/>
		<path style="fill:none;stroke:#2A3F55;stroke-miterlimit:10;" d="M189.42,30.67c0.16,1.48-0.89,2.81-2.37,3
			c-1.45,0.18-2.76-0.85-2.94-2.3c0-0.02-0.01-0.05-0.01-0.07c-0.15-1.48,0.9-2.81,2.37-3c1.21-0.14,2.35,0.56,2.78,1.7
			C189.33,30.22,189.39,30.44,189.42,30.67z"/>
		<path style="fill:none;stroke:#2A3F55;stroke-miterlimit:10;" d="M201.01,28.63c0.15,1.48-0.91,2.81-2.38,3
			c-1.45,0.2-2.79-0.81-2.99-2.26c0-0.04-0.01-0.07-0.01-0.11c-0.15-1.48,0.91-2.81,2.38-3c1.22-0.19,2.41,0.51,2.85,1.66
			C200.94,28.15,200.99,28.39,201.01,28.63z"/>
		<path style="fill:none;stroke:#2A3F55;stroke-miterlimit:10;" d="M210.78,41.89c0.16,1.48-0.9,2.82-2.38,3
			c-1.45,0.17-2.77-0.87-2.94-2.32c0-0.02,0-0.03-0.01-0.05c-0.15-1.48,0.91-2.81,2.38-3c1.19-0.15,2.34,0.54,2.77,1.66
			C210.69,41.41,210.75,41.65,210.78,41.89z"/>
		<path style="fill:none;stroke:#2A3F55;stroke-miterlimit:10;" d="M224.16,51.93c0.16,1.48-0.89,2.81-2.37,3
			c-1.45,0.2-2.79-0.81-2.99-2.26c0-0.04-0.01-0.07-0.01-0.11c-0.14-1.48,0.91-2.8,2.38-3c1.2-0.14,2.34,0.54,2.78,1.66
			C224.05,51.45,224.12,51.69,224.16,51.93z"/>
		
			<ellipse transform="matrix(0.3289 -0.9444 0.9444 0.3289 59.9202 176.3696)" style="fill:none;stroke:#2A3F55;stroke-miterlimit:10;" cx="154.05" cy="46.03" rx="7.33" ry="7.2"/>
		<path style="fill:none;stroke:#2A3F55;stroke-width:1.7;stroke-miterlimit:10;" d="M136.7,97.06c11-19.71,29-28.66,34.17-31"/>
		<path style="fill:none;stroke:#2A3F55;stroke-width:1.7;stroke-miterlimit:10;" d="M156.92,52.69c0.67,3.32,2.17,13.08-3.1,21.93
			c-1.28,2.27-2.86,4.35-4.71,6.18"/>
		<path style="fill:none;stroke:#2A3F55;stroke-miterlimit:10;" d="M198.6,61c-2.84,2.16-6.15,3.62-9.66,4.27
			c-3.25,0.66-6.61,0.54-9.8-0.34"/>
		<path style="fill:none;stroke:#2A3F55;stroke-miterlimit:10;" d="M188.94,65.3c2.25-1.59,3.89-3.9,4.67-6.54
			c0.56-2.01,0.59-4.13,0.09-6.15"/>
		<path style="fill:none;stroke:#2A3F55;stroke-miterlimit:10;" d="M194.05,45.46c0.12-1.24,0.3-2.55,0.55-3.91
			c0.64-3.49,1.65-6.91,3-10.19"/>
		<path style="fill:none;stroke:#2A3F55;stroke-miterlimit:10;" d="M204.44,59.17c4.04-3.61,9.06-5.95,14.42-6.71"/>
		<path style="fill:none;stroke:#2A3F55;stroke-miterlimit:10;" d="M209.7,55.46c0.52-2,0.7-4.06,0.54-6.12
			c-0.13-1.6-0.46-3.18-1-4.69"/>
		<path style="fill:none;stroke:#2A3F55;stroke-miterlimit:10;" d="M194.44,42.49c0.09-2.09-0.5-4.14-1.69-5.86
			c-1.02-1.58-2.47-2.84-4.17-3.63"/>
		<path style="fill:none;stroke:#2A3F55;stroke-miterlimit:10;" d="M167.49,31.92c-0.84,1.24-2.52,1.58-3.77,0.76
			c-1.22-0.82-1.55-2.47-0.73-3.69c0.01-0.01,0.01-0.02,0.02-0.03c0.84-1.23,2.51-1.57,3.76-0.76c0.99,0.68,1.4,1.94,1,3.07
			C167.71,31.5,167.61,31.72,167.49,31.92z"/>
		<path style="fill:none;stroke:#2A3F55;stroke-miterlimit:10;" d="M177.63,37.87c-0.83,1.24-2.51,1.58-3.76,0.76
			c-1.22-0.8-1.55-2.44-0.75-3.66c0.01-0.02,0.03-0.04,0.04-0.06c0.84-1.23,2.51-1.57,3.76-0.76c0.99,0.68,1.4,1.94,1,3.07
			C177.85,37.45,177.75,37.67,177.63,37.87z"/>
		<path style="fill:none;stroke:#2A3F55;stroke-miterlimit:10;" d="M161.43,46.19c0.91-0.87,1.89-1.74,3-2.62
			c2.75-2.25,5.72-4.2,8.88-5.83"/>
		<path style="fill:none;stroke:#2A3F55;stroke-miterlimit:10;" d="M163.66,44.18c1.42-1.53,2.3-3.48,2.51-5.56
			c0.26-1.87-0.02-3.78-0.8-5.5"/>
		<path style="fill:none;stroke:#2A3F55;stroke-miterlimit:10;" d="M150.17,28.13c-0.96,1.65-0.41,3.76,1.22,4.75
			c1.61,0.95,3.68,0.41,4.63-1.19c0.01-0.02,0.02-0.04,0.03-0.06c0.96-1.64,0.43-3.75-1.19-4.75c-1.32-0.78-3-0.57-4.09,0.51
			C150.54,27.61,150.34,27.86,150.17,28.13z"/>
		<path style="fill:none;stroke:#2A3F55;stroke-miterlimit:10;" d="M164.79,14.69c-0.75,1.29-0.33,2.95,0.95,3.72
			c1.27,0.74,2.9,0.31,3.64-0.96c0.01-0.01,0.02-0.03,0.02-0.04c0.75-1.29,0.33-2.95-0.95-3.72c-1.04-0.61-2.36-0.45-3.21,0.4
			C165.06,14.26,164.91,14.47,164.79,14.69z"/>
		<path style="fill:none;stroke:#2A3F55;stroke-miterlimit:10;" d="M155.02,8.14c-0.75,1.3-0.3,2.97,1,3.72
			c1.26,0.74,2.89,0.32,3.63-0.94c0.01-0.02,0.02-0.04,0.03-0.06c0.74-1.31,0.29-2.96-1-3.72c-1.04-0.61-2.36-0.45-3.21,0.4
			C155.29,7.72,155.14,7.92,155.02,8.14z"/>
		<path style="fill:none;stroke:#2A3F55;stroke-miterlimit:10;" d="M150.66,39.59c-1.08-1.71-1.52-4.24-0.64-5.59
			c0.32-0.49,0.75-0.89,1.26-1.16"/>
		<path style="fill:none;stroke:#2A3F55;stroke-miterlimit:10;" d="M154.58,26.35c0.38-1.19,0.75-2.46,1.07-3.8
			c0.83-3.46,1.3-6.99,1.39-10.55"/>
		<path style="fill:none;stroke:#2A3F55;stroke-miterlimit:10;" d="M155.42,23.47c0.75-1.95,2.13-3.59,3.91-4.68
			c1.57-1.05,3.41-1.63,5.3-1.68"/>
		<path style="fill:#1C3B40;" d="M31.68,111.76c-0.83,3.71-1.44,7.46-1.82,11.24l-0.44,0.51c-8.58-0.3-15.11-0.45-19.59-0.45
			c-3.29-0.01-6.58,0.21-9.85,0.64l0.38-3.52c1.42-0.06,2.77-0.6,3.84-1.54c0.78-1.14,1.14-2.52,1-3.9L5.31,89
			c0.08-0.95-0.07-1.9-0.45-2.77c-0.44-0.53-1.11-0.8-1.79-0.71l-2.11,0.13L0.7,85.27L1.21,82c4.99,0.13,8.36,0.19,10.11,0.19
			c4.95,0,8.91-0.05,11.88-0.16c2.49-0.07,4.98-0.27,7.45-0.6l0.32,0.51c-0.34,1.58-0.65,3.39-0.93,5.44
			c-0.27,2.05-0.45,3.92-0.54,5.63l-4.29,0.32l0.13-2.69c0.08-1.01-0.12-2.01-0.58-2.91c-0.59-0.69-1.43-1.1-2.33-1.15
			c-2.03-0.24-4.07-0.34-6.11-0.29c-0.92-0.02-1.84,0.02-2.76,0.13c-0.42,0.02-0.79,0.25-1,0.61c-0.19,0.52-0.28,1.07-0.29,1.63
			L11.77,100l6.34,0.06c0.94,0,2.12-0.06,3.55-0.19s2.8-0.28,4.13-0.45l0.32,0.45l-0.9,4.54c-4.48-0.13-7.36-0.2-8.64-0.19
			c-1.65,0.03-3.3,0.16-4.93,0.38l-0.19,10.88c-0.04,0.86,0.06,1.73,0.29,2.56c0.2,0.51,0.65,0.88,1.18,1
			c1.03,0.21,2.09,0.29,3.14,0.25c2.31,0.07,4.63-0.1,6.91-0.51c1.23-0.22,2.32-0.95,3-2c0.77-1.6,1.25-3.32,1.41-5.09l4-0.39
			L31.68,111.76z"/>
		<path style="fill:#1C3B40;" d="M42.86,122c-1.28-1.21-1.92-3.21-1.92-6v-15c0.11-0.91-0.16-1.82-0.74-2.53
			c-0.84-0.55-1.84-0.82-2.84-0.74l-0.39-0.45l0.32-2.43c1.45-0.7,2.84-1.51,4.16-2.43c1.37-0.94,2.5-1.76,3.4-2.46
			s1.44-1.17,1.66-1.38l1.53,0.64c0,0.21-0.12,0.76-0.25,1.63s-0.26,2.06-0.38,3.55l8.57-0.19l0.26,0.19l-0.64,3.84L47.1,98
			c-0.3,4.57-0.45,9.57-0.45,15c-0.13,1.52,0.24,3.04,1.06,4.32c0.91,0.97,2.23,1.45,3.55,1.31c0.61,0,1.21-0.08,1.79-0.25
			c0.51-0.14,1.01-0.31,1.5-0.51c0.41-0.17,0.68-0.28,0.81-0.32l0.7,1.85l-1.7,1.38c-0.91,0.73-1.86,1.42-2.85,2.05
			c-0.67,0.52-1.46,0.87-2.3,1C46.22,123.85,44.1,123.24,42.86,122z"/>
		<path style="fill:#1C3B40;" d="M62.91,119.09c0.54-0.73,0.79-1.63,0.7-2.53v-32.7c0.08-0.92-0.13-1.85-0.58-2.66
			c-0.49-0.58-1.24-0.88-2-0.8h-1.32l-0.32-0.25l0.32-2.63c3.72-0.44,7.42-1.08,11.07-1.92l0.38,1c-0.34,0.47-0.65,2.67-0.92,6.62
			s-0.51,9-0.68,15.07c1.5-1.21,3.08-2.31,4.74-3.29c1.96-1.21,3.41-1.81,4.35-1.82c2.94,0,5.21,0.71,6.78,2.14
			c1.65,1.59,2.51,3.82,2.37,6.11c0,1.03-0.15,3.13-0.44,6.28c-0.43,4.43-0.65,7.38-0.65,8.83c-0.06,0.89,0.11,1.78,0.48,2.59
			c0.36,0.55,0.99,0.86,1.64,0.8l2.11-0.13l0.13,0.26l-0.52,3.26c-3.33-0.13-5.42-0.19-6.27-0.19c-2.3,0.03-4.59,0.25-6.85,0.64
			l0.33-3.2c0.97-0.22,1.86-0.7,2.56-1.41c0.54-0.71,0.81-1.6,0.76-2.49l0.32-12c0.11-1.62-0.31-3.23-1.21-4.58
			c-0.87-1.07-2.21-1.66-3.59-1.57c-1.18,0.07-2.33,0.38-3.39,0.9c-1.33,0.58-2.58,1.33-3.71,2.24c-0.13,4.27-0.19,9.24-0.19,14.91
			c-0.07,0.87,0.1,1.75,0.48,2.53c0.37,0.52,0.99,0.8,1.63,0.74l2-0.07l0.13,0.26l-0.58,3.26c-3.32-0.13-5.44-0.19-6.33-0.19
			c-2.43,0-4.65,0.06-6.66,0.19l0.45-3.26C61.34,120.01,62.21,119.68,62.91,119.09z"/>
		<path style="fill:#1C3B40;" d="M96.76,120.59c1.04-0.21,1.99-0.71,2.75-1.44c0.6-0.75,0.9-1.69,0.84-2.65v-15.17
			c0.07-0.93-0.13-1.87-0.58-2.69c-0.46-0.59-1.18-0.9-1.92-0.83c-0.3,0-0.6,0.04-0.9,0.1c-0.22,0.03-0.43,0.08-0.64,0.16l0.26-2.95
			c2.09-0.3,4.22-0.67,6.37-1.12l4.19-0.86l0.45,0.89c-0.43,0.9-0.78,3.57-1.06,8s-0.42,9.31-0.41,14.63
			c-0.07,0.85,0.1,1.7,0.48,2.46c0.37,0.52,0.99,0.8,1.63,0.74c0.42,0,0.84,0,1.25-0.07s0.67-0.06,0.8-0.06l0.12,0.32l-0.51,3.26
			c-0.42,0-1.25-0.08-2.46-0.13s-2.51-0.06-3.87-0.06c-1.38,0.02-2.76,0.12-4.13,0.32c-1.56,0.21-2.57,0.36-3,0.45L96.76,120.59z
			 M100.03,85.46c-0.67-0.76-1.03-1.74-1-2.75c-0.04-1.18,0.39-2.32,1.21-3.17c0.83-0.84,1.96-1.29,3.14-1.25
			c1.02-0.05,2.02,0.34,2.72,1.09c0.68,0.75,1.03,1.74,1,2.75c0.04,1.18-0.4,2.32-1.22,3.17c-0.82,0.84-1.96,1.29-3.13,1.25
			C101.73,86.6,100.73,86.21,100.03,85.46z"/>
		<path style="fill:#1C3B40;" d="M119.35,120c-2.47-2.6-3.7-6.1-3.71-10.49c-0.04-2.91,0.65-5.78,2-8.35
			c1.24-2.42,3.12-4.44,5.44-5.86c2.34-1.44,5.03-2.19,7.78-2.16c2.17-0.01,4.33,0.26,6.43,0.8c0.45,0.11,0.88,0.24,1.31,0.41
			l0.26,0.52c0,0.21-0.16,0.74-0.35,1.6s-0.4,2-0.61,3.36s-0.36,2.84-0.45,4.38l-3.26,0.19v-2.05c0.05-1.32-0.43-2.61-1.33-3.58
			c-0.89-0.91-2.12-1.4-3.39-1.34c-2.1-0.12-4.11,0.82-5.38,2.49c-1.24,1.67-1.86,4.08-1.86,7.23c0,3.63,0.71,6.45,2.12,8.48
			c1.3,1.96,3.53,3.09,5.88,3c1.05-0.01,2.1-0.15,3.11-0.44c0.89-0.25,1.77-0.56,2.62-0.93c0.45-0.19,0.89-0.41,1.31-0.67l0.39,0.19
			l0.89,2.56l-2,1.41c-1.15,0.78-2.36,1.48-3.62,2.08c-1.1,0.59-2.33,0.94-3.58,1C125.62,124.03,121.99,122.64,119.35,120z"/>
		<path style="fill:#1C3B40;" d="M149.14,123.51c-0.94-0.18-1.87-0.41-2.78-0.71c-0.44-0.14-0.86-0.3-1.28-0.48l-0.25-0.51
			c0.12-0.81,0.27-2.17,0.44-4.06s0.28-3.38,0.32-4.45l2.82-0.32c0.04,2.52,0.53,4.33,1.47,5.44c0.94,1.11,2.45,1.66,4.54,1.66
			c1.27,0.03,2.52-0.32,3.59-1c0.88-0.47,1.44-1.37,1.47-2.37c-0.04-1.05-0.56-2.03-1.41-2.65c-1.74-1.28-3.6-2.38-5.56-3.3
			c-2.03-0.91-3.87-2.21-5.41-3.81c-1.1-1.22-1.71-2.8-1.7-4.44c-0.02-1.75,0.54-3.45,1.6-4.84c1.16-1.49,2.7-2.65,4.45-3.36
			c2.03-0.82,4.22-1.22,6.41-1.17c1.06-0.01,2.12,0.08,3.17,0.25c1,0.17,1.81,0.35,2.43,0.52l1.18,0.32l0.19,0.44
			c-0.08,0.43-0.28,1.43-0.57,3c-0.31,1.65-0.53,3.32-0.64,5l-2.95,0.26c0.01-0.21,0.03-0.43,0.07-0.64c0.04-0.3,0.06-0.6,0.06-0.9
			c0.11-1.25-0.34-2.49-1.22-3.39c-1.08-0.78-2.4-1.13-3.72-1c-1.18-0.04-2.34,0.28-3.33,0.93c-0.82,0.47-1.33,1.33-1.35,2.27
			c0.02,0.99,0.45,1.93,1.19,2.59c1.16,1.04,2.46,1.91,3.87,2.59c1.93,0.93,3.79,2,5.57,3.2c1.11,0.72,2.06,1.68,2.78,2.79
			c0.55,0.96,0.83,2.05,0.8,3.16c-0.01,1.69-0.59,3.33-1.66,4.64c-1.2,1.5-2.75,2.68-4.51,3.43c-1.95,0.86-4.05,1.3-6.18,1.28
			C151.73,123.88,150.43,123.76,149.14,123.51z"/>
		<path style="fill:#1C3B40;" d="M190.86,122c-1.96-1.24-3.53-3-4.54-5.08c-1.12-2.33-1.68-4.9-1.63-7.49
			c-0.05-2.91,0.62-5.8,1.95-8.39c1.23-2.4,3.11-4.41,5.41-5.82c2.33-1.42,5.01-2.15,7.74-2.11c2.39-0.04,4.74,0.58,6.79,1.79
			c1.97,1.21,3.55,2.97,4.54,5.06c1.11,2.36,1.65,4.94,1.6,7.55c0.03,2.92-0.65,5.79-2,8.38c-2.52,4.94-7.62,8.02-13.16,7.94
			C195.2,123.87,192.87,123.24,190.86,122z M204.17,117.33c1.34-2.17,1.98-4.71,1.83-7.26c0-3.93-0.72-7.02-2.15-9.28
			c-1.16-2.11-3.38-3.41-5.79-3.39c-2.01-0.07-3.91,0.92-5,2.62c-1.31,2.2-1.93,4.74-1.79,7.3c0,3.92,0.71,7,2.14,9.24
			c1.14,2.12,3.35,3.44,5.75,3.44c2.02,0.05,3.92-0.95,5.02-2.64L204.17,117.33z"/>
		<path style="fill:#1C3B40;" d="M219,120.27c2.43-0.29,3.65-1.52,3.65-3.71v-16.25c0.07-0.78-0.27-1.54-0.9-2
			c-1.01-0.42-2.1-0.63-3.2-0.61l-0.25-0.38l0.44-2.63l3.91-0.7v-0.38c-0.08-3.3,0.56-6.58,1.89-9.61c1.12-2.55,2.97-4.71,5.32-6.22
			c2.42-1.49,5.22-2.24,8.06-2.18c1.19-0.01,2.38,0.09,3.56,0.29c0.87,0.14,1.74,0.33,2.59,0.58c0.41,0.11,0.82,0.25,1.21,0.41
			l0.2,0.77c-0.13,0.26-0.41,0.84-0.84,1.76s-0.85,1.93-1.28,3l-0.76,0.19c-0.17-0.13-0.57-0.38-1.19-0.77
			c-0.79-0.45-1.62-0.82-2.49-1.08c-1.09-0.35-2.22-0.52-3.36-0.52c-2.07-0.14-4.06,0.87-5.16,2.63c-1.08,1.75-1.67,4.55-1.76,8.38
			v3.07c2.18,0,4,0,5.54-0.06s2.51-0.08,3-0.13l0.25,0.19l-0.64,3.84c-0.42,0-1.36-0.08-2.81-0.12s-3.25-0.07-5.38-0.07l-0.26,18.43
			c-0.07,0.89,0.19,1.77,0.74,2.47c0.61,0.57,1.43,0.86,2.27,0.8c1,0,1.83,0,2.53-0.07l1.38-0.06l0.12,0.26l-0.51,3.45
			c-0.64,0-1.81,0-3.52-0.09s-3.37-0.1-5-0.1s-3,0-4.64,0.13s-2.63,0.15-3.1,0.19L219,120.27z"/>
		<path style="fill:#1C3B40;" d="M273.08,123.22l0.26-3.14c1.46-0.04,2.92-0.28,4.32-0.7c0.68-0.27,1.1-0.94,1.05-1.67
			c-0.02-0.91-0.18-1.81-0.45-2.68l-1.79-6c-1.07-0.02-3.16-0.03-6.27-0.03c-2.2,0.01-4.4,0.16-6.59,0.44l-2.05,5.89
			c-0.26,0.72-0.43,1.48-0.51,2.24c-0.08,0.71,0.23,1.41,0.8,1.83c0.81,0.43,1.73,0.61,2.65,0.54h3.27l0.19,0.32l-0.38,3.26
			l-3.65-0.22c-1.88-0.11-3.69-0.16-5.44-0.16s-3.19,0-4.58,0.06s-2.31,0.09-2.78,0.13l0.51-3.52c1.01-0.12,1.95-0.56,2.69-1.25
			c0.87-0.99,1.53-2.16,1.92-3.42l12-32.58l6.65-1.08l0.65,0.19c0.29,1.06,1,3.5,2,7.29s2.26,8.21,3.71,13.22s2.8,9.42,4,13.22
			c0.28,1.26,0.94,2.41,1.89,3.29c1.11,0.73,2.41,1.14,3.74,1.19l0.2,0.32l-0.45,3.13c-0.51,0-1.48-0.08-2.91-0.13
			s-2.87-0.06-4.32-0.06c-2.18,0-4.27,0.07-6.28,0.22c-2,0.15-3.28,0.27-3.83,0.36L273.08,123.22z M270.08,105.22
			c1.71,0,3.5-0.08,5.38-0.25l-4.42-15.62h-0.64l-5.44,15.87H270.08z"/>
		<path style="fill:#1C3B40;" d="M295.22,120.34c2-0.39,3.28-1,3.94-1.7c0.77-1.11,1.13-2.46,1-3.81L300.22,89
			c0.09-0.94-0.08-1.89-0.48-2.75c-0.47-0.54-1.18-0.8-1.89-0.71l-2.5,0.13l-0.19-0.38l0.45-3.2l4.29,0.06
			c0.93,0,2.24,0.06,3.9,0.06c1.15,0,3.86-0.17,8.13-0.51l-0.32,3.46c-1.22,0.03-2.41,0.38-3.46,1c-0.69,0.66-1.05,1.58-1,2.53
			c-0.21,4.44-0.4,9.27-0.57,14.5s-0.26,9.27-0.26,12.13c-0.1,1.18,0.08,2.37,0.51,3.48c0.49,0.65,1.3,0.98,2.11,0.87
			c0.69,0,1.73-0.07,3.14-0.19l0.19,0.32l-0.57,3.45c-0.82,0-1.46-0.02-1.92-0.06l-6.92-0.13c-2.7,0.02-5.4,0.26-8.06,0.7
			L295.22,120.34z"/>
	</g>
</g>
</svg>
