<?xml version="1.0" encoding="utf-8"?>
<!-- Generator: Adobe Illustrator 25.0.0, SVG Export Plug-In . SVG Version: 6.00 Build 0)  -->
<svg version="1.1" id="Layer_1" xmlns="http://www.w3.org/2000/svg" xmlns:xlink="http://www.w3.org/1999/xlink" x="0px" y="0px"
	 viewBox="0 0 76.87 93.07" style="enable-background:new 0 0 76.87 93.07;" xml:space="preserve">
<g id="Group_1405" transform="matrix(0.996, -0.087, 0.087, 0.996, -414.851, -512.83)">
	<path id="Path_6603" style="fill:#A5B2A6;" d="M433.56,579.11c6.52,9.86,4.35,21.77,3.44,26.76c-0.93,5.13-2.85,15.65-11.28,22.36
		c-14.23,11.33-40.42,6.57-49.12-7.84c-4.32-7.16-3.35-15.56-2.5-23.01c0.88-7.6,2.21-19.22,10.33-26.11
		C397.5,560.2,423.57,563.98,433.56,579.11z"/>
	<g id="suurennuslasi" transform="translate(368.405 552.092)">
		
			<circle id="Ellipse_72" style="fill:none;stroke:#2B3233;stroke-width:0.4999;stroke-miterlimit:9.9979;" cx="27.43" cy="27.43" r="27.43"/>
		<path id="Path_6618" style="fill:none;stroke:#2B3233;stroke-width:0.4999;stroke-miterlimit:9.9979;" d="M6.83,19.87
			C9.41,12.83,15.4,7.6,22.73,6"/>
		<path id="Path_6619" style="fill:none;stroke:#2B3233;stroke-width:0.4999;stroke-miterlimit:9.9979;" d="M45.59,48.4l19.32,36.63
			c0.71,1.37,0.18,3.06-1.2,3.77c0,0,0,0,0,0l-3.83,2.02c-1.36,0.74-3.06,0.23-3.79-1.13c0,0,0-0.01-0.01-0.01L36.67,52.9"/>
	</g>
</g>
</svg>
