<svg xmlns="http://www.w3.org/2000/svg" viewBox="0 0 832.22 544.51"><defs><style>.cls-1{fill:#1d1d1b;}.cls-2{fill:none;opacity:0.19;}.cls-3{fill:#fff;}</style></defs><title>#1logo</title><g id="Layer_1" data-name="Layer 1"><rect class="cls-1" x="-0.33" y="0.7" width="832.54" height="543.82"/><rect class="cls-2" x="696.05" y="0.7" width="136.16" height="543.82"/><rect class="cls-2" x="-0.33" y="0.7" width="136.16" height="543.82"/><rect class="cls-2" x="347.86" y="60.16" width="136.16" height="832.54" transform="translate(-60.48 892.37) rotate(-90)"/><rect class="cls-2" x="347.86" y="-347.49" width="136.16" height="832.54" transform="translate(347.17 484.72) rotate(-90)"/><polygon class="cls-3" points="256.96 211.27 256.96 182.43 135.41 182.43 135.41 361.94 170.76 361.94 170.76 287.89 247.38 287.89 247.38 259.18 170.76 259.18 170.76 211.27 256.96 211.27"/><path class="cls-3" d="M402.46,238.48l.33-1,0-.1c.33-19.26-4.84-33.85-15.35-43.38s-25.74-14.34-45.31-14.34c-18.59,0-33.58,5.83-44.53,17.31s-16.49,27.84-16.49,48.63v53.05c0,20.88,5.74,37.22,17.05,48.57s26.81,17.12,46.06,17.12c18.76,0,33.4-4.85,43.54-14.41s15.11-24.13,14.78-43.31l-.34-1.09H368.07v.36c0,11.49-1.87,19.57-5.56,24s-9.82,6.68-18.27,6.68c-9.25,0-16.26-3.11-20.83-9.25s-6.93-15.82-6.93-28.7v-53.3c0-12.8,2.17-22.42,6.45-28.59s10.71-9.24,19.22-9.24c9.35,0,16.1,2.27,20.06,6.76s6,12.51,6,23.83v.36Z"/><path class="cls-3" d="M523.61,324.57H469.94L459.38,361.9H423l58.58-178.8h31.31l57.47,178.8H534.05Zm-45.19-29.35H515.5L497.21,229.4Z"/><path class="cls-3" d="M592.06,183.1h103.4V211H660.58V334.14h34.88V361.9H592.06V334.14h34V211h-34Z"/></g></svg>