<?xml version="1.0" encoding="UTF-8" standalone="no"?>
<svg
   xmlns:dc="http://purl.org/dc/elements/1.1/"
   xmlns:cc="http://creativecommons.org/ns#"
   xmlns:rdf="http://www.w3.org/1999/02/22-rdf-syntax-ns#"
   xmlns:svg="http://www.w3.org/2000/svg"
   xmlns="http://www.w3.org/2000/svg"
   version="1.1"
   id="svg2"
   xml:space="preserve"
   width="1445.2133"
   height="100.58667"
   viewBox="0 0 1445.2133 453.58667"><metadata
     id="metadata8"><rdf:RDF><cc:Work
         rdf:about=""><dc:format>image/svg+xml</dc:format><dc:type
           rdf:resource="http://purl.org/dc/dcmitype/StillImage" /><dc:title></dc:title></cc:Work></rdf:RDF></metadata><defs
     id="defs6" /><g
     id="g10"
     transform="matrix(1.3333333,0,0,-1.3333333,0,453.58667)"><path
       d="M 0,20 29.9973,49.998 0,79.9988 l 20,20 30,-30 30,30 20,-20 L 70,49.998 100,20 80,0 50,29.998 20,0 0,20"
       style="fill:#000000;fill-opacity:1;fill-rule:nonzero;stroke:none;stroke-width:0.1"
       id="path14" /><path
       d="M 0.003125,260.189 30.0027,290.19 0.003125,320.192 20,340.19 l 30.0027,-30 30,30 L 100.003,320.192 70,290.19 100.003,260.189 80.0027,240.19 l -30,30.001 L 20.0059,240.19 0.003125,260.189"
       style="fill:#000000;fill-opacity:1;fill-rule:nonzero;stroke:none;stroke-width:0.1"
       id="path16" /><path
       d="M 0.003125,139.991 30.0027,169.99 0.003125,199.991 20.0039,219.992 l 29.9988,-30.001 30,30.001 20.0003,-20.001 -29.9991,-30.001 29.9991,-29.999 -20.0003,-20 -30,29.999 -29.9988,-29.999 -20.000775,20"
       style="fill:#000000;fill-opacity:1;fill-rule:nonzero;stroke:none;stroke-width:0.1"
       id="path18" /><path
       d="M 249.074,66.2609 230.416,115.561 211.414,66.2609 Z m -27.388,74.9751 h 18.658 L 292.553,20.043 h -24.65 L 256.606,47.7738 H 204.054 L 193.099,20.043 h -24.136 l 52.723,121.193"
       style="fill:#000000;fill-opacity:1;fill-rule:nonzero;stroke:none;stroke-width:0.1"
       id="path20" /><path
       d="M 303.337,102.208 H 322.85 V 89.3699 h 0.343 c 3.595,7.7039 11.468,14.8951 25.162,14.8951 12.669,0 21.398,-4.9662 25.681,-15.2369 5.993,10.4418 14.725,15.2369 27.051,15.2369 21.908,0 29.613,-15.5798 29.613,-35.2638 V 20.043 h -20.543 v 46.5621 c 0,10.2711 -3.08,19.1711 -15.234,19.1711 -12.838,0 -17.632,-10.6141 -17.632,-21.225 V 20.043 h -20.548 v 48.9582 c 0,10.0976 -4.107,16.775 -14.036,16.775 -13.523,0 -18.83,-9.9301 -18.83,-20.8852 V 20.043 h -20.54 v 82.165"
       style="fill:#000000;fill-opacity:1;fill-rule:nonzero;stroke:none;stroke-width:0.1"
       id="path22" /><path
       d="m 496.948,79.443 c -3.939,5.475 -9.074,8.3859 -16.09,8.3859 -5.48,0 -11.984,-2.5668 -11.984,-8.7301 0,-14.7199 44.336,-2.7367 44.336,-34.7488 0,-19.5121 -18.658,-26.359 -35.434,-26.359 -12.668,0 -23.623,3.2512 -32.013,12.6692 l 13.697,12.8347 c 5.305,-5.8211 10.783,-10.098 19.514,-10.098 5.99,0 13.695,2.909 13.695,9.414 0,16.9469 -44.338,3.593 -44.338,34.918 0,18.3172 16.434,26.5361 33.037,26.5361 10.957,0 22.598,-3.426 29.274,-12.4978 L 496.948,79.443"
       style="fill:#000000;fill-opacity:1;fill-rule:nonzero;stroke:none;stroke-width:0.1"
       id="path24" /><path
       d="m 519.54,84.7488 v 17.4592 h 16.949 v 23.793 h 20.539 v -23.793 h 22.596 V 84.7488 h -22.596 v -35.95 c 0,-8.2148 2.397,-13.35 11.471,-13.35 3.594,0 8.559,0.6864 11.125,2.5684 V 20.7301 c -4.279,-2.0551 -11.469,-2.7391 -16.262,-2.7391 -21.74,0 -26.873,9.7559 -26.873,29.0981 V 84.7488 H 519.54"
       style="fill:#000000;fill-opacity:1;fill-rule:nonzero;stroke:none;stroke-width:0.1"
       id="path26" /><path
       d="m 654.257,69.3449 c -0.172,11.9813 -8.045,19.5121 -20.883,19.5121 -12.156,0 -19.687,-7.7019 -21.228,-19.5121 z m -42.111,-15.409 c 1.369,-12.1531 10.613,-19.5129 22.082,-19.5129 10.271,0 16.947,4.793 22.084,11.1258 l 14.72,-11.1258 c -9.588,-11.8128 -21.738,-16.432 -34.75,-16.432 -24.82,0 -44.678,17.2852 -44.678,43.1371 0,25.8481 19.858,43.1369 44.678,43.1369 22.94,0 38.516,-16.092 38.516,-44.6779 v -5.6512 h -62.652"
       style="fill:#000000;fill-opacity:1;fill-rule:nonzero;stroke:none;stroke-width:0.1"
       id="path28" /><path
       d="m 693.97,102.208 h 20.543 V 89.1988 h 0.341 c 4.45,9.416 13.522,15.0662 24.307,15.0662 2.568,0 4.963,-0.516 7.361,-1.2 V 83.2082 c -3.423,0.8578 -6.673,1.5406 -9.927,1.5406 -19.342,0 -22.082,-16.2629 -22.082,-20.7117 V 20.043 H 693.97 v 82.165"
       style="fill:#000000;fill-opacity:1;fill-rule:nonzero;stroke:none;stroke-width:0.1"
       id="path30" /><path
       d="m 798.216,36.4762 c 15.064,0 24.138,11.8109 24.138,24.6519 0,12.8348 -9.074,24.6481 -24.138,24.6481 -15.065,0 -24.137,-11.8133 -24.137,-24.6481 0,-12.841 9.072,-24.6519 24.137,-24.6519 z m 24.478,-4.1071 h -0.34 C 816.36,22.4398 805.579,17.991 794.108,17.991 c -25.336,0 -40.57,18.8281 -40.57,43.1371 0,24.3047 16.262,43.1369 39.715,43.1369 15.406,0 23.621,-7.1912 27.9,-12.4978 h 0.514 V 149.452 H 842.21 V 20.043 h -19.516 v 12.3261"
       style="fill:#000000;fill-opacity:1;fill-rule:nonzero;stroke:none;stroke-width:0.1"
       id="path32" /><path
       d="m 915.644,56.8469 h -4.28 c -11.299,0 -30.81,-0.8559 -30.81,-12.6637 0,-7.5352 7.703,-10.7863 14.379,-10.7863 14.033,0 20.711,7.3601 20.711,18.8301 z m 1.197,-25.5039 h -0.51 c -5.822,-9.245 -15.408,-13.352 -26.365,-13.352 -15.233,0 -29.955,8.384 -29.955,24.6488 0,26.7051 31.154,28.5872 51.697,28.5872 h 5.133 v 2.2218 c 0,10.1012 -7.875,15.4082 -18.83,15.4082 -8.557,0 -16.43,-3.4242 -21.908,-8.559 l -10.784,10.786 c 9.073,9.243 21.909,13.181 34.918,13.181 35.094,0 35.094,-25.3349 35.094,-36.9779 V 20.043 h -18.49 v 11.3"
       style="fill:#000;fill-opacity:1;fill-rule:nonzero;stroke:none;stroke-width:0.1"
       id="path34" /><path
       d="m 956.556,102.208 h 19.513 V 89.3699 h 0.342 c 3.596,7.7039 11.471,14.8951 25.159,14.8951 12.67,0 21.4,-4.9662 25.68,-15.2369 5.99,10.4418 14.72,15.2369 27.05,15.2369 21.91,0 29.61,-15.5798 29.61,-35.2638 V 20.043 h -20.54 v 46.5621 c 0,10.2711 -3.08,19.1711 -15.24,19.1711 -12.83,0 -17.63,-10.6141 -17.63,-21.225 V 20.043 h -20.54 v 48.9582 c 0,10.0976 -4.11,16.775 -14.035,16.775 -13.522,0 -18.83,-9.9301 -18.83,-20.8852 V 20.043 h -20.539 v 82.165"
       style="fill:#000000;fill-opacity:1;fill-rule:nonzero;stroke:none;stroke-width:0.1"
       id="path36" /><path
       d="m 265.457,293.019 c -8.904,9.414 -17.12,11.981 -25.506,11.981 -24.991,0 -41.593,-19.17 -41.593,-43.304 0,-25.847 16.602,-45.017 41.593,-45.017 9.757,0 19.171,4.45 27.216,14.72 l 17.801,-12.667 c -10.954,-15.062 -27.386,-21.566 -45.187,-21.566 -37.318,0 -64.02,25.331 -64.02,63.16 0,38.854 26.702,64.187 64.02,64.187 16.431,0 30.468,-5.306 42.45,-19.169 l -16.774,-12.325"
       style="fill:#000000;fill-opacity:1;fill-rule:nonzero;stroke:none;stroke-width:0.1"
       id="path38" /><path
       d="m 297.635,282.407 h 20.54 v -82.161 h -20.54 z m 10.1,40.223 c 7.531,0 13.351,-5.306 13.351,-12.323 0,-7.018 -5.82,-12.324 -13.351,-12.324 -7.531,0 -13.009,5.819 -13.009,12.324 0,6.504 5.478,12.323 13.009,12.323"
       style="fill:#000000;fill-opacity:1;fill-rule:nonzero;stroke:none;stroke-width:0.1"
       id="path40" /><path
       d="m 331.869,264.948 v 17.459 h 16.946 V 306.2 h 20.54 v -23.793 h 22.595 v -17.459 h -22.595 v -35.946 c 0,-8.216 2.397,-13.352 11.47,-13.352 3.595,0 8.559,0.685 11.125,2.568 v -17.287 c -4.279,-2.055 -11.467,-2.739 -16.262,-2.739 -21.737,0 -26.873,9.756 -26.873,29.098 v 37.658 h -16.946"
       style="fill:#000000;fill-opacity:1;fill-rule:nonzero;stroke:none;stroke-width:0.1"
       id="path42" /><path
       d="m 400.85,282.407 h 22.596 l 22.936,-57 h 0.344 l 20.54,57 h 21.394 l -38.855,-99.792 c -5.991,-15.406 -13.179,-23.451 -31.325,-23.451 -5.303,0 -10.611,0.686 -15.746,2.055 l 2.568,18.487 c 3.253,-1.198 6.846,-2.054 10.44,-2.054 10.1,0 12.839,3.593 16.262,12.152 l 3.937,9.756 -35.091,82.847"
       style="fill:#000000;fill-opacity:1;fill-rule:nonzero;stroke:none;stroke-width:0.1"
       id="path44" /><path
       d="m 566.543,216.679 c 15.061,0 24.132,11.809 24.132,24.647 0,12.838 -9.071,24.648 -24.132,24.648 -15.066,0 -24.136,-11.81 -24.136,-24.648 0,-12.838 9.07,-24.647 24.136,-24.647 z m 0,67.78 c 24.817,0 44.672,-17.286 44.672,-43.133 0,-25.847 -19.855,-43.134 -44.672,-43.134 -24.822,0 -44.676,17.287 -44.676,43.134 0,25.847 19.854,43.133 44.676,43.133"
       style="fill:#000000;fill-opacity:1;fill-rule:nonzero;stroke:none;stroke-width:0.1"
       id="path46" /><path
       d="m 635.694,264.948 h -16.949 v 17.459 h 16.949 v 11.638 c 0,22.766 5.134,37.658 30.636,37.658 4.451,0 8.732,-0.341 13.009,-1.198 l -1.368,-17.459 c -2.909,0.685 -5.649,1.197 -8.558,1.197 -11.471,0 -13.179,-7.873 -13.179,-16.946 v -14.89 h 18.997 v -17.459 h -18.997 v -64.702 h -20.54 v 64.702"
       style="fill:#000000;fill-opacity:1;fill-rule:nonzero;stroke:none;stroke-width:0.1"
       id="path48" /></g></svg>
