<?xml version="1.0" encoding="UTF-8" standalone="no"?>
<svg
   xmlns:dc="http://purl.org/dc/elements/1.1/"
   xmlns:cc="http://creativecommons.org/ns#"
   xmlns:rdf="http://www.w3.org/1999/02/22-rdf-syntax-ns#"
   xmlns:svg="http://www.w3.org/2000/svg"
   xmlns="http://www.w3.org/2000/svg"
   version="1.1"
   id="svg2"
   xml:space="preserve"
   width="1088.504"
   height="100.284"
   viewBox="0 0 1088.504 612.284"><metadata
     id="metadata8"><rdf:RDF><cc:Work
         rdf:about=""><dc:format>image/svg+xml</dc:format><dc:type
           rdf:resource="http://purl.org/dc/dcmitype/StillImage" /><dc:title></dc:title></cc:Work></rdf:RDF></metadata><defs
     id="defs6"><clipPath
       clipPathUnits="userSpaceOnUse"
       id="clipPath18"><path
         d="M 0,0 H 816.378 V 459.213 H 0 Z"
         id="path16" /></clipPath></defs><g
     id="g10"
     transform="matrix(1.3333333,0,0,-1.3333333,0,612.284)"><path
       d="m 765.6567,111.0771 v 6.225 h -14.778 v 7.412 h 12.83 v 6.225 h -12.83 v 7.175 h 14.588 v 6.225 h -21.43 v -33.262 z m -37.995,60.272 h 37.995 l -63.234,177.357 h -35.645 l -63.234,-177.357 h 36.982 l 12.919,38.502 h 61.045 z m -24.317,70.924 h -38.755 l 19.504,57.753 z m -114.101,72.444 h 44.581 v 33.943 h -125.637 v -33.943 h 44.581 v -143.368 h 36.475 z m -50.764,-143.368 -63.234,177.357 h -35.645 l -63.234,-177.357 h 36.982 l 12.919,38.502 h 61.045 l 13.172,-38.502 z m -62.312,70.924 h -38.755 l 19.504,57.753 z m -86.856,16.718 v 2.28 c 0,51.926 -33.182,87.389 -84.602,87.389 h -57.247 v -177.311 h 57.247 c 51.42,0 84.602,35.715 84.602,87.642 m -37.995,0.253 c 0,-35.208 -18.998,-54.713 -46.861,-54.713 h -20.264 v 110.946 h 20.264 c 27.863,0 46.861,-19.757 46.861,-54.966 z m -98.577,-114.43 c -8.791,0 -15.063,-6.843 -15.063,-16.916 v -0.428 c 0,-10.168 5.892,-16.868 14.635,-16.868 5.084,0 8.268,1.901 11.261,4.989 l -4.134,4.894 c -2.233,-2.233 -4.181,-3.468 -6.842,-3.468 -4.419,0 -7.84,4.039 -7.84,10.643 v 0.143 c 0,6.462 3.278,10.596 7.745,10.596 2.708,0 4.799,-1.283 6.795,-3.326 l 4.134,5.322 c -2.566,2.613 -5.75,4.419 -10.691,4.419 m -55.572,26.535 h 35.978 v 126.639 h -35.978 z m 0,141.382 h 35.978 v 35.975 h -35.978 z m 1.817,-168.392 h -6.89 v -33.262 h 6.89 v 9.788 l 3.088,3.897 8.316,-13.685 h 8.077 l -11.641,19.149 11.166,14.113 h -8.125 l -10.881,-14.35 z m -16.954,-33.262 h 5.892 v 33.262 h -6.748 v -19.387 l -12.734,19.387 h -6.32 v -33.262 h 6.748 v 20.1 z m -36.297,60.272 h 36.738 v 177.357 h -36.738 v -71.196 h -58.274 v 71.196 h -36.738 v -177.357 h 36.738 v 72.209 h 58.274 z m -88.123,-27.01 h -6.889 v -33.262 h 6.889 v 13.542 h 10.929 v -13.542 h 6.89 v 33.262 h -6.89 v -13.352 h -10.929 z m 43.42,0 h -21.43 v -33.262 h 21.62 v 6.225 h -14.777 v 7.412 h 12.829 v 6.225 h -12.829 v 7.175 h 14.587 z m 10.149,0 h -6.89 v -33.262 h 20.337 v 6.32 h -13.447 z m 17.861,-23.711 -4.086,-5.084 c 3.659,-3.422 8.078,-4.895 12.307,-4.895 6.462,0 11.166,3.802 11.166,9.979 v 0.095 c 0,5.179 -3.136,7.65 -8.933,9.931 -5.179,2.138 -6.32,3.041 -6.32,4.941 v 0.048 c 0,1.711 1.473,2.899 3.849,2.899 2.566,0 4.989,-1.378 7.08,-3.089 l 3.849,5.227 c -3.041,2.756 -6.843,4.086 -10.739,4.086 -6.415,0 -10.881,-3.944 -10.881,-9.741 v -0.095 c 0,-5.702 3.658,-7.935 9.551,-10.216 4.751,-1.805 5.702,-2.851 5.702,-4.514 v -0.047 c 0,-1.948 -1.616,-3.279 -4.277,-3.279 -3.326,0 -6.035,1.806 -8.268,3.754 m 28.871,23.711 h -6.89 v -33.262 h 6.89 z m 68.646,0 h -6.89 v -33.262 h 6.89 z m 60.018,0 h -21.431 v -33.262 h 21.621 v 6.225 h -14.778 v 7.412 h 12.829 v 6.225 h -12.829 v 7.175 h 14.588 z m 9.578,0 h -6.32 v -33.262 h 6.748 v 20.1 l 13.162,-20.1 h 5.892 v 33.262 h -6.748 v -19.387 z m 44.599,0 h -23.568 v -6.368 h 8.363 v -26.894 h 6.842 v 26.894 h 8.363 z m 14.021,0 h -12.497 v -33.262 h 6.89 v 10.929 h 4.324 l 6.13,-10.929 h 7.888 l -7.08,12.354 c 3.659,1.616 6.177,4.8 6.177,9.836 v 0.19 c 0,3.279 -0.998,5.892 -2.803,7.698 -2.091,2.091 -5.18,3.184 -9.029,3.184 m -0.665,-6.225 c 3.516,0 5.56,-1.663 5.56,-4.989 v -0.048 c 0,-2.993 -1.901,-4.989 -5.417,-4.989 h -5.085 v 10.026 z m 36.802,6.225 h -21.43 v -33.262 h 21.62 v 6.225 h -14.778 v 7.412 h 12.829 v 6.225 h -12.829 v 7.175 h 14.588 z m 32.452,0 h -21.429 v -33.262 h 6.889 v 13.162 h 12.782 v 6.32 h -12.782 v 7.46 h 14.54 z m 0.156,-16.394 v -0.57 c 0,-9.931 6.177,-16.868 15.016,-16.868 8.79,0 15.062,7.032 15.062,16.963 v 0.57 c 0,9.931 -6.177,16.869 -15.015,16.869 -8.79,0 -15.063,-6.985 -15.063,-16.964 m 7.08,-0.047 c 0,6.557 3.279,10.644 7.936,10.644 4.609,0 7.935,-4.134 7.935,-10.692 v -0.332 c 0,-6.558 -3.279,-10.644 -7.888,-10.644 -4.609,0 -7.983,4.134 -7.983,10.691 z m 38.298,16.441 h -12.497 v -33.262 h 6.89 v 10.929 h 4.324 l 6.13,-10.929 h 7.888 l -7.08,12.354 c 3.659,1.616 6.177,4.8 6.177,9.836 v 0.19 c 0,3.279 -0.998,5.892 -2.804,7.698 -2.09,2.091 -5.179,3.184 -9.028,3.184 m -0.665,-6.225 c 3.516,0 5.559,-1.663 5.559,-4.989 v -0.048 c 0,-2.993 -1.9,-4.989 -5.416,-4.989 h -5.085 v 10.026 z m 34.117,6.225 h -10.739 v -33.262 h 10.739 c 9.645,0 15.87,6.7 15.87,16.441 v 0.427 c 0,9.741 -6.225,16.394 -15.87,16.394 m -0.048,-6.225 c 5.227,0 8.791,-3.706 8.791,-10.311 v -0.238 c 0,-6.605 -3.564,-10.263 -8.791,-10.263 h -3.801 v 20.812 z m 26.338,6.415 -11.926,-33.452 h 6.937 l 2.423,7.223 h 11.452 l 2.471,-7.223 h 7.127 l -11.927,33.452 z m -0.475,-20.147 3.659,10.833 3.611,-10.833 z m 14.949,13.589 h 8.363 v -26.894 h 6.842 v 26.894 h 8.363 v 6.368 h -23.568 z m 31.46,6.558 -11.927,-33.452 h 6.937 l 2.424,7.223 h 11.451 l 2.471,-7.223 h 7.127 l -11.926,33.452 z m -0.476,-20.147 3.659,10.833 3.611,-10.833 z m 30.173,-3.754 -4.086,-5.084 c 3.658,-3.422 8.077,-4.895 12.306,-4.895 6.463,0 11.167,3.802 11.167,9.979 v 0.095 c 0,5.179 -3.136,7.65 -8.933,9.931 -5.18,2.138 -6.32,3.041 -6.32,4.941 v 0.048 c 0,1.711 1.473,2.899 3.849,2.899 2.566,0 4.989,-1.378 7.08,-3.089 l 3.849,5.227 c -3.041,2.756 -6.843,4.086 -10.739,4.086 -6.415,0 -10.881,-3.944 -10.881,-9.741 v -0.095 c 0,-5.702 3.658,-7.935 9.55,-10.216 4.752,-1.805 5.702,-2.851 5.702,-4.514 v -0.047 c 0,-1.948 -1.615,-3.279 -4.276,-3.279 -3.326,0 -6.035,1.806 -8.268,3.754 m 20.322,7.27 v -0.428 c 0,-10.168 5.892,-16.868 14.635,-16.868 5.085,0 8.268,1.901 11.262,4.989 l -4.134,4.894 c -2.233,-2.233 -4.182,-3.468 -6.843,-3.468 -4.418,0 -7.84,4.039 -7.84,10.643 v 0.143 c 0,6.462 3.279,10.596 7.745,10.596 2.709,0 4.8,-1.283 6.795,-3.326 l 4.134,5.322 c -2.566,2.613 -5.749,4.419 -10.691,4.419 -8.79,0 -15.063,-6.843 -15.063,-16.916 m 34.473,16.441 h -6.89 v -33.262 h 6.89 z m 25.64,0 h -21.43 v -33.262 h 21.62 v 6.225 h -14.778 v 7.412 h 12.83 v 6.225 h -12.83 v 7.175 h 14.588 z m 9.578,0 h -6.32 v -33.262 h 6.748 v 20.1 l 13.162,-20.1 h 5.892 v 33.262 h -6.747 v -19.387 z m 22.285,-16.441 v -0.428 c 0,-10.168 5.892,-16.868 14.635,-16.868 5.085,0 8.268,1.901 11.262,4.989 l -4.134,4.894 c -2.233,-2.233 -4.182,-3.468 -6.843,-3.468 -4.419,0 -7.84,4.039 -7.84,10.643 v 0.143 c 0,6.462 3.279,10.596 7.745,10.596 2.709,0 4.8,-1.283 6.795,-3.326 l 4.134,5.322 c -2.566,2.613 -5.749,4.419 -10.691,4.419 -8.791,0 -15.063,-6.843 -15.063,-16.916"
       style="fill:#000000;fill-opacity:1;fill-rule:nonzero;stroke:none"
       id="path22" /></g></svg>
