<?xml version="1.0" encoding="UTF-8" standalone="no"?>
<!-- Generator: Adobe Illustrator 25.0.0, SVG Export Plug-In . SVG Version: 6.00 Build 0)  -->

<svg
   xmlns:dc="http://purl.org/dc/elements/1.1/"
   xmlns:cc="http://creativecommons.org/ns#"
   xmlns:rdf="http://www.w3.org/1999/02/22-rdf-syntax-ns#"
   xmlns:svg="http://www.w3.org/2000/svg"
   xmlns="http://www.w3.org/2000/svg"
   xmlns:sodipodi="http://sodipodi.sourceforge.net/DTD/sodipodi-0.dtd"
   xmlns:inkscape="http://www.inkscape.org/namespaces/inkscape"
   version="1.1"
   id="Layer_1"
   x="0px"
   y="0px"
   viewBox="0 0 436.97 204.45"
   style="enable-background:new 0 0 436.97 204.45;"
   xml:space="preserve"
   sodipodi:docname="hume-guillotine_sv.svg"
   inkscape:version="0.92.5 (2060ec1f9f, 2020-04-08)"><metadata
   id="metadata46"><rdf:RDF><cc:Work
       rdf:about=""><dc:format>image/svg+xml</dc:format><dc:type
         rdf:resource="http://purl.org/dc/dcmitype/StillImage" /><dc:title /></cc:Work></rdf:RDF></metadata><defs
   id="defs44">
	

		
		
		
		
		
		
		
		
		
	</defs><sodipodi:namedview
   pagecolor="#ffffff"
   bordercolor="#666666"
   borderopacity="1"
   objecttolerance="10"
   gridtolerance="10"
   guidetolerance="10"
   inkscape:pageopacity="0"
   inkscape:pageshadow="2"
   inkscape:window-width="2560"
   inkscape:window-height="1324"
   id="namedview42"
   showgrid="false"
   inkscape:zoom="2.2460677"
   inkscape:cx="27.906225"
   inkscape:cy="17.398197"
   inkscape:window-x="0"
   inkscape:window-y="27"
   inkscape:window-maximized="1"
   inkscape:current-layer="Layer_1" />
<rect
   y="0.25"
   style="fill:#e3c7b6"
   width="436.97"
   height="204.2"
   id="rect2"
   x="0" /><polygon
   style="fill:#1c3b40"
   points="232.07,0 210.07,0 210.07,96.15 232.07,81.31 "
   id="polygon4" /><polygon
   style="fill:#1c3b40"
   points="210.07,204 232.07,204 232.07,107.85 210.07,122.69 "
   id="polygon6" /><g
   id="suurennuslasi">
			<circle
   style="fill:none;stroke:#1c3b40;stroke-width:1.10000002;stroke-miterlimit:10"
   cx="86.889999"
   cy="83.470001"
   r="50.810001"
   id="circle8" />
			<path
   style="fill:none;stroke:#1c3b40;stroke-width:1.10000002;stroke-miterlimit:10"
   d="M 46.53,78.54 C 48.21,64.75 56.82,52.78 69.35,46.8"
   id="path10"
   inkscape:connector-curvature="0" />
			<path
   style="fill:none;stroke:#1c3b40;stroke-width:1.10000002;stroke-miterlimit:10"
   d="m 128.5,113.62 50.32,57.91 c 1.86,2.18 1.61,5.45 -0.57,7.32 0,0 0,0 0,0 l -6.06,5.26 c -2.14,1.89 -5.42,1.69 -7.31,-0.45 0,0 -0.01,-0.01 -0.01,-0.01 l -50.54,-58.14"
   id="path12"
   inkscape:connector-curvature="0" />
		</g><path
   style="fill:none;stroke:#1c3b40;stroke-width:0.88;stroke-miterlimit:10"
   d="m 314.08,143.54 c 3.36,13.11 16.72,21.01 29.83,17.65 12.12,-3.11 19.95,-14.85 18.17,-27.24 4.02,2.92 8.69,4.82 13.61,5.54 16.98,2.54 32.81,-9.17 35.35,-26.15 2.31,-15.43 -7.17,-30.17 -22.17,-34.48 13.78,-10.25 16.65,-29.73 6.4,-43.51 -10.25,-13.78 -29.73,-16.65 -43.51,-6.4 -3.75,2.79 -6.83,6.39 -9,10.53 -16.37,-17.46 -43.8,-18.35 -61.26,-1.98 -16.81,15.76 -18.35,41.92 -3.5,59.55 -16.25,5.57 -24.91,23.26 -19.34,39.5 5.57,16.24 23.26,24.91 39.5,19.34 6.53,-2.24 12.13,-6.58 15.92,-12.35 z"
   id="path15"
   inkscape:connector-curvature="0" /><circle
   style="fill:none;stroke:#1c3b40;stroke-width:0.5;stroke-miterlimit:10"
   cx="379.07001"
   cy="158.60001"
   r="5.5999999"
   id="circle35" /><circle
   style="fill:none;stroke:#1c3b40;stroke-width:0.5;stroke-miterlimit:10"
   cx="388.17001"
   cy="170.5"
   r="3.5"
   id="circle37" />
<text
   xml:space="preserve"
   style="font-style:normal;font-variant:normal;font-weight:normal;font-stretch:normal;font-size:21.18463326px;line-height:1.25;font-family:Poppins;-inkscape-font-specification:'Poppins, Normal';font-variant-ligatures:normal;font-variant-caps:normal;font-variant-numeric:normal;font-feature-settings:normal;text-align:start;letter-spacing:0px;word-spacing:0px;writing-mode:lr-tb;text-anchor:start;fill:#1c3b40;fill-opacity:1;stroke:none;stroke-width:0.52962255"
   x="75.153114"
   y="93.32222"
   id="text894"><tspan
     sodipodi:role="line"
     id="tspan892"
     x="75.153114"
     y="93.32222"
     style="font-style:normal;font-variant:normal;font-weight:normal;font-stretch:normal;font-size:21.18463326px;font-family:Poppins;-inkscape-font-specification:'Poppins, Normal';font-variant-ligatures:normal;font-variant-caps:normal;font-variant-numeric:normal;font-feature-settings:normal;text-align:start;writing-mode:lr-tb;text-anchor:start;stroke-width:0.52962255">ÄR</tspan></text>

<text
   xml:space="preserve"
   style="font-style:normal;font-variant:normal;font-weight:normal;font-stretch:normal;font-size:21.20786476px;line-height:1.25;font-family:Poppins;-inkscape-font-specification:'Poppins, Normal';font-variant-ligatures:normal;font-variant-caps:normal;font-variant-numeric:normal;font-feature-settings:normal;text-align:start;letter-spacing:0px;word-spacing:0px;writing-mode:lr-tb;text-anchor:start;fill:#1c3b40;fill-opacity:1;stroke:none;stroke-width:0.53020632"
   x="300.41272"
   y="98.371414"
   id="text898"><tspan
     sodipodi:role="line"
     id="tspan896"
     x="300.41272"
     y="98.371414"
     style="font-style:normal;font-variant:normal;font-weight:normal;font-stretch:normal;font-size:21.20786476px;font-family:Poppins;-inkscape-font-specification:'Poppins, Normal';font-variant-ligatures:normal;font-variant-caps:normal;font-variant-numeric:normal;font-feature-settings:normal;text-align:start;writing-mode:lr-tb;text-anchor:start;stroke-width:0.53020632">BORDE</tspan></text>

</svg>