<svg xmlns="http://www.w3.org/2000/svg" viewBox="0 0 918.97 607.17"><defs><style>.cls-1{fill:#ceb4a7;}.cls-2{fill:#bc7219;}.cls-2,.cls-3,.cls-4,.cls-6,.cls-7{fill-rule:evenodd;}.cls-3{fill:#d39a50;}.cls-4,.cls-5{fill:#343433;}.cls-6{fill:#bdbaba;}.cls-7{fill:#fff;}.cls-8{fill:#824b2c;}.cls-9{fill:#e3c7b6;}.cls-10{fill:#2b3233;}.cls-11,.cls-12,.cls-13,.cls-14{fill:none;stroke-miterlimit:10;stroke-width:4px;}.cls-11,.cls-12{stroke:#2b3233;}.cls-12,.cls-13,.cls-14{stroke-linecap:round;}.cls-13,.cls-14{stroke:#fff;}.cls-14{stroke-dasharray:15.13 17.45;}</style></defs><g id="Layer_2" data-name="Layer 2"><g id="Layer_1-2" data-name="Layer 1"><path class="cls-1" d="M467.23,408.52C557.32,410,621.15,434.63,647.92,445c27.52,10.63,83.89,32.4,87.61,62.77C741.81,559,595.12,610.92,467.23,607c-63.56-2-111.11-18.09-153.31-32.4-43-14.57-108.81-36.88-115-66.82C189,459.59,329.07,406.29,467.23,408.52Z"/><path class="cls-2" d="M237.48,321.18,299,269.12a70.48,70.48,0,0,1,47.27-17.32h121c43.36,0,116.2,47.73,146.16,76.94l72.1,25.41c25.35,8.93,42.68,29.17,47.61,55.58q3,16.23,6,32.45H227.22l-10.17-66.44C213.82,354.65,221.19,335,237.48,321.18Z"/><path class="cls-3" d="M242.73,321.18l61.5-52.06a70.51,70.51,0,0,1,47.28-17.32h121c43.36,0,116.21,47.73,146.16,76.94l72.11,25.41c20.24,7.14,35.37,21.48,43.15,40.42-149.29-26.19-320.22-32.09-511.6-18.83C219.07,354.65,226.44,335,242.73,321.18Z"/><path class="cls-4" d="M534.66,270.79c15.77-1.29,79.26,44.31,84,57.95-88.09-4.11-176.41-6.43-265.82,0l-37.31-29.41c9.17-8.32,15.32-17.25,17.58-28.54Z"/><rect class="cls-5" x="233.35" y="441.3" width="511.94" height="33.54"/><path class="cls-4" d="M640.84,533.42a61.16,61.16,0,1,0-61.16-61.16A61.27,61.27,0,0,0,640.84,533.42Z"/><path class="cls-6" d="M640.84,516.08A43.82,43.82,0,1,0,597,472.26,43.9,43.9,0,0,0,640.84,516.08Z"/><path class="cls-4" d="M643.08,436.72a35.33,35.33,0,0,1,13.59,3.64l-3.37,6.79a27.89,27.89,0,0,0-10.7-2.86l.48-7.57Zm17.47,5.88-4.2,6.32a28.07,28.07,0,0,1,7.83,7.83l6.32-4.2a35.71,35.71,0,0,0-10-9.95Zm12.19,13.83A35.33,35.33,0,0,1,676.38,470l-7.57.48A27.94,27.94,0,0,0,666,459.8l6.79-3.37Zm3.64,18.07a35.37,35.37,0,0,1-3.64,13.6L666,484.73a27.94,27.94,0,0,0,2.86-10.7l7.57.47ZM670.5,492l-6.32-4.2a28.2,28.2,0,0,1-7.83,7.83l4.2,6.32a35.71,35.71,0,0,0,10-9.95Zm-13.83,12.19a35.33,35.33,0,0,1-13.59,3.64l-.48-7.57a27.9,27.9,0,0,0,10.7-2.87l3.37,6.8Zm-18.07,3.64a35.37,35.37,0,0,1-13.6-3.64l3.37-6.8a28,28,0,0,0,10.7,2.87l-.47,7.57Zm-17.48-5.88,4.2-6.32a28.33,28.33,0,0,1-7.83-7.83l-6.32,4.2a35.84,35.84,0,0,0,10,9.95ZM608.93,488.1a35.55,35.55,0,0,1-3.64-13.6l7.58-.47a27.76,27.76,0,0,0,2.86,10.7l-6.8,3.37ZM605.29,470a35.5,35.5,0,0,1,3.64-13.59l6.8,3.37a27.76,27.76,0,0,0-2.86,10.7l-7.58-.48Zm5.88-17.47,6.32,4.2a28.2,28.2,0,0,1,7.83-7.83l-4.2-6.32a35.84,35.84,0,0,0-10,9.95ZM625,440.36a35.37,35.37,0,0,1,13.6-3.64l.47,7.57a27.85,27.85,0,0,0-10.69,2.86Z"/><path class="cls-4" d="M318.23,532.54a61.16,61.16,0,1,0-61.16-61.16A61.27,61.27,0,0,0,318.23,532.54Z"/><path class="cls-6" d="M317.34,516.08a43.82,43.82,0,1,0-43.81-43.82A43.9,43.9,0,0,0,317.34,516.08Z"/><path class="cls-4" d="M319.58,436.72a35.37,35.37,0,0,1,13.6,3.64l-3.37,6.79a27.94,27.94,0,0,0-10.7-2.86l.47-7.57Zm17.48,5.88-4.2,6.32a28.2,28.2,0,0,1,7.83,7.83l6.32-4.2a35.84,35.84,0,0,0-9.95-9.95Zm12.19,13.83A35.33,35.33,0,0,1,352.89,470l-7.57.48a28,28,0,0,0-2.87-10.7l6.8-3.37Zm3.64,18.07a35.37,35.37,0,0,1-3.64,13.6l-6.8-3.37a28,28,0,0,0,2.87-10.7l7.57.47ZM347,492l-6.32-4.2a28.33,28.33,0,0,1-7.83,7.83l4.2,6.32A35.84,35.84,0,0,0,347,492Zm-13.83,12.19a35.37,35.37,0,0,1-13.6,3.64l-.47-7.57a27.85,27.85,0,0,0,10.69-2.87l3.38,6.8Zm-18.08,3.64a35.33,35.33,0,0,1-13.59-3.64l3.37-6.8a28,28,0,0,0,10.7,2.87l-.48,7.57Zm-17.47-5.88,4.2-6.32a28.2,28.2,0,0,1-7.83-7.83l-6.32,4.2a35.71,35.71,0,0,0,9.95,9.95ZM285.44,488.1a35.37,35.37,0,0,1-3.64-13.6l7.57-.47a27.94,27.94,0,0,0,2.86,10.7l-6.79,3.37ZM281.8,470a35.33,35.33,0,0,1,3.64-13.59l6.79,3.37a27.94,27.94,0,0,0-2.86,10.7L281.8,470Zm5.88-17.47,6.32,4.2a28.07,28.07,0,0,1,7.83-7.83l-4.2-6.32a35.71,35.71,0,0,0-9.95,9.95Zm13.83-12.19a35.33,35.33,0,0,1,13.59-3.64l.48,7.57a27.94,27.94,0,0,0-10.7,2.86Z"/><path class="cls-7" d="M676.72,379.9c-9.58-19.34,39.36-8.81,48.13,7.28,5.59,10.28-1.44,20.63-14.93,17.3C697.8,401.48,682.46,391.2,676.72,379.9Z"/><path class="cls-4" d="M316,260.86H251.72a6.05,6.05,0,0,0-5.85,7.63c0,.21.11.41.16.62a12.6,12.6,0,0,0,4.45,6.83A13.44,13.44,0,0,1,254,293L233.6,330.69C246.52,333.8,325.28,270.82,316,260.86Z"/><polygon class="cls-3" points="430.31 261.17 442.15 331.21 478.15 330.22 452.01 262.16 430.31 261.17"/><path class="cls-4" d="M233.45,399.79c-4.29-.3-8.59-.58-12.92-.78-.23-12.5-1.86-23-3.58-35.29,16.3-5.82,27.16-5.12,29.91,22.25a12.59,12.59,0,0,1-13.41,13.82Z"/><path class="cls-8" d="M219.72,369.43h12.7a4.32,4.32,0,0,1,4.32,4.32v14.92a4.32,4.32,0,0,1-4.32,4.32h-12.7a4.31,4.31,0,0,1-4.31-4.31V373.75A4.31,4.31,0,0,1,219.72,369.43Z"/><path class="cls-9" d="M778.73,323.21c-8.72-42,4.78-86.32,46.78-95a77.66,77.66,0,1,1,31.57,152.08C815.09,389,787.45,365.21,778.73,323.21Z"/><path class="cls-9" d="M622.42,211.24c-33.67-26.58-51.81-69.22-25.23-102.89A77.67,77.67,0,0,1,719.1,204.61C692.52,238.27,656.08,237.82,622.42,211.24Z"/><path class="cls-9" d="M449.79,142.53c-42.86,1.55-84.29-19.2-85.84-62.06a77.66,77.66,0,1,1,155.22-5.61C520.72,117.72,492.66,141,449.79,142.53Z"/><path class="cls-9" d="M267.68,179.61c-32.09,28.46-77.26,38.81-105.72,6.72A77.66,77.66,0,1,1,278.17,83.27C306.63,115.36,299.77,151.15,267.68,179.61Z"/><path class="cls-9" d="M142.8,329.08c-7.61,42.2-36.71,78.27-78.92,70.65A77.66,77.66,0,0,1,91.47,246.87C133.68,254.49,150.42,286.87,142.8,329.08Z"/><rect class="cls-10" x="34.6" y="347.35" width="92.71" height="5.49" rx="2.34"/><path class="cls-10" d="M29.27,302.91c12,16,30.67,21.21,43.58,15.54h0c1.62,2.09,3.16,4,4.57,5.76h0c-13.26,9.68-36.7,4.31-50-16.09h0c.58-1.71,1.18-3.44,1.8-5.21Z"/><path class="cls-10" d="M63.6,318.25h42.49a3.72,3.72,0,0,1,3.72,3.72v.1a3.72,3.72,0,0,1-3.72,3.72H63.6a3.54,3.54,0,0,1-3.54-3.54v-.45A3.54,3.54,0,0,1,63.6,318.25Z" transform="translate(269.5 44.81) rotate(48.43)"/><path class="cls-11" d="M167.93,143.16a48.38,48.38,0,1,1,96.75,0"/><circle class="cls-10" cx="216.3" cy="143.16" r="4.67"/><path class="cls-10" d="M215.44,110l-2.08,29.36h5.89L217.17,110C217.07,108.5,215.55,108.5,215.44,110Z"/><line class="cls-12" x1="216.3" y1="94.78" x2="216.3" y2="103.05"/><line class="cls-12" x1="191.91" y1="101.71" x2="196.05" y2="108.87"/><line class="cls-12" x1="175.28" y1="117.97" x2="182.44" y2="122.1"/><line class="cls-12" x1="167.93" y1="143.16" x2="176.2" y2="143.16"/><line class="cls-12" x1="240.24" y1="101.38" x2="236.11" y2="108.54"/><line class="cls-12" x1="256.87" y1="117.63" x2="249.71" y2="121.77"/><line class="cls-12" x1="264.22" y1="142.82" x2="255.96" y2="142.82"/><path class="cls-10" d="M441.56,24.21c-17,0-30.73,13.4-30.73,29.92s30.73,64.27,30.73,64.27S472.3,70.66,472.3,54.13,458.54,24.21,441.56,24.21Zm0,39.83c-4.48,0-8.11-4-8.11-8.85s3.63-8.84,8.11-8.84,8.12,4,8.12,8.84S446,64,441.56,64Z"/><path class="cls-10" d="M660.13,109.52a41.66,41.66,0,1,0,41.66,41.66A41.67,41.67,0,0,0,660.13,109.52ZM652.86,144c-8.34,0-17.22,1.44-25.55,1.44a33.32,33.32,0,0,1,65.64,0L668.47,144Zm-25.28,14.38s20.37-1.61,24.74,2.76,0,22.48,0,22.48A33.35,33.35,0,0,1,627.58,158.34Zm40.35,25.24s-4.46-18,0-22.48,24.75-2.76,24.75-2.76A33.37,33.37,0,0,1,667.93,183.58Z"/><polygon class="cls-10" points="910.47 334.45 784.41 334.45 820.86 271.42 872.86 271.42 910.47 334.45"/><line class="cls-13" x1="847.44" y1="271.42" x2="847.44" y2="277.92"/><line class="cls-14" x1="847.44" y1="295.37" x2="847.44" y2="319.23"/><line class="cls-13" x1="847.44" y1="327.95" x2="847.44" y2="334.45"/></g></g></svg>