<?xml version="1.0" encoding="utf-8"?>
<!-- Generator: Adobe Illustrator 25.0.0, SVG Export Plug-In . SVG Version: 6.00 Build 0)  -->
<svg version="1.1" id="Layer_1" xmlns="http://www.w3.org/2000/svg" xmlns:xlink="http://www.w3.org/1999/xlink" x="0px" y="0px"
	 viewBox="0 0 918.97 607.17" style="enable-background:new 0 0 918.97 607.17;" xml:space="preserve">
<g id="Layer_2_1_">
	<g id="Layer_1-2">
		<path style="fill:#CEB4A7;" d="M467.23,408.52C557.32,410,621.15,434.63,647.92,445c27.52,10.63,83.89,32.4,87.61,62.77
			C741.81,559,595.12,610.92,467.23,607c-63.56-2-111.11-18.09-153.31-32.4c-43-14.57-108.81-36.88-115-66.82
			C189,459.59,329.07,406.29,467.23,408.52z"/>
		<path style="fill-rule:evenodd;clip-rule:evenodd;fill:#BC7219;" d="M237.48,321.18L299,269.12
			c13.09-11.4,29.92-17.56,47.27-17.32h121c43.36,0,116.2,47.73,146.16,76.94l72.1,25.41c25.35,8.93,42.68,29.17,47.61,55.58
			c2,10.82,4,21.64,6,32.45H227.22l-10.17-66.44C213.82,354.65,221.19,335,237.48,321.18z"/>
		<path style="fill-rule:evenodd;clip-rule:evenodd;fill:#D39A50;" d="M242.73,321.18l61.5-52.06
			c13.09-11.4,29.93-17.56,47.28-17.32h121c43.36,0,116.21,47.73,146.16,76.94l72.11,25.41c20.24,7.14,35.37,21.48,43.15,40.42
			c-149.29-26.19-320.22-32.09-511.6-18.83C219.07,354.65,226.44,335,242.73,321.18z"/>
		<path style="fill-rule:evenodd;clip-rule:evenodd;fill:#343433;" d="M534.66,270.79c15.77-1.29,79.26,44.31,84,57.95
			c-88.09-4.11-176.41-6.43-265.82,0l-37.31-29.41c9.17-8.32,15.32-17.25,17.58-28.54H534.66z"/>
		<rect x="233.35" y="441.3" style="fill:#343433;" width="511.94" height="33.54"/>
		<path style="fill-rule:evenodd;clip-rule:evenodd;fill:#343433;" d="M640.84,533.42c33.78,0,61.16-27.38,61.16-61.16
			s-27.38-61.16-61.16-61.16c-33.78,0-61.16,27.38-61.16,61.16v0C579.74,506.01,607.09,533.36,640.84,533.42z"/>
		<path style="fill-rule:evenodd;clip-rule:evenodd;fill:#BDBABA;" d="M640.84,516.08c24.2-0.01,43.81-19.64,43.8-43.84
			c-0.01-24.2-19.64-43.81-43.84-43.8c-24.19,0.01-43.8,19.63-43.8,43.82C597.04,496.45,616.65,516.05,640.84,516.08z"/>
		<path style="fill-rule:evenodd;clip-rule:evenodd;fill:#343433;" d="M643.08,436.72c4.73,0.29,9.35,1.53,13.59,3.64l-3.37,6.79
			c-3.34-1.66-6.98-2.63-10.7-2.86L643.08,436.72L643.08,436.72z M660.55,442.6l-4.2,6.32c3.1,2.06,5.77,4.73,7.83,7.83l6.32-4.2
			c-2.64-3.95-6.04-7.33-10-9.95L660.55,442.6z M672.74,456.43c2.11,4.23,3.35,8.85,3.64,13.57l-7.57,0.48
			c-0.22-3.71-1.17-7.34-2.81-10.68l6.79-3.37H672.74z M676.38,474.5c-0.29,4.73-1.53,9.36-3.64,13.6l-6.74-3.37
			c1.66-3.34,2.63-6.98,2.86-10.7l7.57,0.47H676.38z M670.5,492l-6.32-4.2c-2.07,3.1-4.73,5.76-7.83,7.83l4.2,6.32
			c3.96-2.62,7.36-6,10-9.95L670.5,492z M656.67,504.19c-4.24,2.11-8.86,3.35-13.59,3.64l-0.48-7.57c3.72-0.23,7.36-1.21,10.7-2.87
			L656.67,504.19z M638.6,507.83c-4.73-0.29-9.36-1.53-13.6-3.64l3.37-6.8c3.34,1.66,6.98,2.64,10.7,2.87L638.6,507.83L638.6,507.83
			z M621.12,501.95l4.2-6.32c-3.1-2.07-5.76-4.73-7.83-7.83l-6.32,4.2c2.64,3.95,6.04,7.33,10,9.95L621.12,501.95z M608.93,488.1
			c-2.11-4.25-3.35-8.87-3.64-13.6l7.58-0.47c0.22,3.72,1.2,7.36,2.86,10.7L608.93,488.1z M605.29,470
			c0.29-4.73,1.53-9.35,3.64-13.59l6.8,3.37c-1.66,3.34-2.64,6.98-2.86,10.7L605.29,470z M611.17,452.53l6.32,4.2
			c2.07-3.1,4.73-5.76,7.83-7.83l-4.2-6.32c-3.96,2.62-7.36,6-10,9.95L611.17,452.53z M625,440.36c4.24-2.11,8.87-3.35,13.6-3.64
			l0.47,7.57c-3.72,0.23-7.35,1.2-10.69,2.86L625,440.36z"/>
		<path style="fill-rule:evenodd;clip-rule:evenodd;fill:#343433;" d="M318.23,532.54c33.78,0,61.16-27.38,61.16-61.16
			s-27.38-61.16-61.16-61.16s-61.16,27.38-61.16,61.16C257.13,505.13,284.48,532.48,318.23,532.54z"/>
		<path style="fill-rule:evenodd;clip-rule:evenodd;fill:#BDBABA;" d="M317.34,516.08c24.2,0.01,43.82-19.61,43.83-43.81
			s-19.61-43.82-43.81-43.83c-24.2-0.01-43.82,19.61-43.83,43.81c0,0,0,0.01,0,0.01C273.57,496.44,293.16,516.03,317.34,516.08z"/>
		<path style="fill-rule:evenodd;clip-rule:evenodd;fill:#343433;" d="M319.58,436.72c4.73,0.29,9.36,1.53,13.6,3.64l-3.37,6.79
			c-3.34-1.66-6.98-2.63-10.7-2.86L319.58,436.72L319.58,436.72z M337.06,442.6l-4.2,6.32c3.1,2.07,5.76,4.73,7.83,7.83l6.32-4.2
			C344.38,448.61,341,445.23,337.06,442.6L337.06,442.6z M349.25,456.43c2.11,4.23,3.35,8.85,3.64,13.57l-7.57,0.48
			c-0.23-3.72-1.21-7.36-2.87-10.7l6.8-3.37V456.43z M352.89,474.5c-0.29,4.73-1.53,9.36-3.64,13.6l-6.8-3.37
			c1.66-3.34,2.64-6.98,2.87-10.7L352.89,474.5z M347,492l-6.32-4.2c-2.07,3.1-4.73,5.76-7.83,7.83l4.2,6.32
			C340.99,499.32,344.37,495.94,347,492z M333.17,504.19c-4.24,2.11-8.87,3.35-13.6,3.64l-0.47-7.57c3.72-0.23,7.35-1.21,10.69-2.87
			L333.17,504.19z M315.09,507.83c-4.73-0.29-9.35-1.53-13.59-3.64l3.37-6.8c3.34,1.66,6.98,2.64,10.7,2.87L315.09,507.83z
			 M297.62,501.95l4.2-6.32c-3.1-2.07-5.76-4.73-7.83-7.83l-6.32,4.2C290.29,495.94,293.68,499.33,297.62,501.95L297.62,501.95z
			 M285.44,488.1c-2.11-4.24-3.35-8.87-3.64-13.6l7.57-0.47c0.23,3.72,1.2,7.36,2.86,10.7L285.44,488.1L285.44,488.1z M281.8,470
			c0.29-4.73,1.53-9.35,3.64-13.59l6.79,3.37c-1.66,3.34-2.63,6.98-2.86,10.7L281.8,470z M287.68,452.53l6.32,4.2
			c2.06-3.1,4.73-5.77,7.83-7.83l-4.2-6.32C293.69,445.2,290.3,448.59,287.68,452.53L287.68,452.53z M301.51,440.34
			c4.24-2.11,8.86-3.35,13.59-3.64l0.48,7.57c-3.72,0.23-7.36,1.2-10.7,2.86L301.51,440.34z"/>
		<path style="fill-rule:evenodd;clip-rule:evenodd;fill:#FFFFFF;" d="M676.72,379.9c-9.58-19.34,39.36-8.81,48.13,7.28
			c5.59,10.28-1.44,20.63-14.93,17.3C697.8,401.48,682.46,391.2,676.72,379.9z"/>
		<path style="fill-rule:evenodd;clip-rule:evenodd;fill:#343433;" d="M316,260.86h-64.28c-3.34-0.01-6.05,2.7-6.06,6.04
			c0,0.54,0.07,1.07,0.21,1.59c0,0.21,0.11,0.41,0.16,0.62c0.69,2.71,2.25,5.11,4.45,6.83c5.2,4.05,6.69,11.28,3.52,17.06
			l-20.4,37.69C246.52,333.8,325.28,270.82,316,260.86z"/>
		<polygon style="fill-rule:evenodd;clip-rule:evenodd;fill:#D39A50;" points="430.31,261.17 442.15,331.21 478.15,330.22 
			452.01,262.16 		"/>
		<path style="fill-rule:evenodd;clip-rule:evenodd;fill:#343433;" d="M233.45,399.79c-4.29-0.3-8.59-0.58-12.92-0.78
			c-0.23-12.5-1.86-23-3.58-35.29c16.3-5.82,27.16-5.12,29.91,22.25c0.7,6.92-4.35,13.09-11.27,13.79
			C234.88,399.83,234.16,399.84,233.45,399.79z"/>
		<path style="fill:#824B2C;" d="M219.72,369.43h12.7c2.39,0,4.32,1.93,4.32,4.32l0,0v14.92c0,2.39-1.93,4.32-4.32,4.32h0h-12.7
			c-2.38,0-4.31-1.93-4.31-4.31v-14.93c-0.01-2.38,1.92-4.31,4.3-4.32C219.71,369.43,219.72,369.43,219.72,369.43z"/>
		<path style="fill:#E3C7B6;" d="M778.73,323.21c-8.72-42,4.78-86.32,46.78-95c42-8.72,83.11,18.26,91.83,60.26
			c8.72,42-18.26,83.11-60.26,91.82C815.09,389,787.45,365.21,778.73,323.21z"/>
		<path style="fill:#E3C7B6;" d="M622.42,211.24c-33.67-26.58-51.81-69.22-25.23-102.89c26.92-33.39,75.82-38.64,109.22-11.72
			c32.92,26.54,38.56,74.53,12.69,107.98C692.52,238.27,656.08,237.82,622.42,211.24z"/>
		<path style="fill:#E3C7B6;" d="M449.79,142.53c-42.86,1.55-84.29-19.2-85.84-62.06C362.4,37.61,395.89,1.6,438.76,0.05
			S517.62,32,519.17,74.86C520.72,117.72,492.66,141,449.79,142.53z"/>
		<path style="fill:#E3C7B6;" d="M267.68,179.61c-32.09,28.46-77.26,38.81-105.72,6.72c-28.46-32.09-25.52-81.18,6.58-109.64
			s81.18-25.52,109.64,6.58C306.63,115.36,299.77,151.15,267.68,179.61z"/>
		<path style="fill:#E3C7B6;" d="M142.8,329.08c-7.61,42.2-36.71,78.27-78.92,70.65c-42.21-7.62-70.25-48.01-62.63-90.22
			s48.01-70.25,90.22-62.64C133.68,254.49,150.42,286.87,142.8,329.08z"/>
		<path style="fill:#2B3233;" d="M36.94,347.35h88.03c1.29,0,2.34,1.05,2.34,2.34v0.81c0,1.29-1.05,2.34-2.34,2.34H36.94
			c-1.29,0-2.34-1.05-2.34-2.34v-0.81C34.6,348.4,35.65,347.35,36.94,347.35z"/>
		<path style="fill:#2B3233;" d="M29.27,302.91c12,16,30.67,21.21,43.58,15.54l0,0c1.62,2.09,3.16,4,4.57,5.76l0,0
			c-13.26,9.68-36.7,4.31-50-16.09l0,0c0.58-1.71,1.18-3.44,1.8-5.21L29.27,302.91z"/>
		<path style="fill:#2B3233;" d="M73.6,303.56l28.19,31.79c1.36,1.54,1.22,3.89-0.31,5.25l0,0l-0.07,0.07
			c-1.54,1.36-3.89,1.22-5.25-0.31l0,0l-28.19-31.79c-1.3-1.46-1.16-3.7,0.3-5l0,0l0.34-0.3C70.06,301.97,72.3,302.1,73.6,303.56
			C73.6,303.56,73.6,303.56,73.6,303.56z"/>
		<path style="fill:none;stroke:#2B3233;stroke-width:4;stroke-miterlimit:10;" d="M167.93,143.16
			c-0.38-26.72,20.96-48.69,47.68-49.07c26.72-0.38,48.69,20.96,49.07,47.68c0.01,0.46,0.01,0.93,0,1.39"/>
		<circle style="fill:#2B3233;" cx="216.3" cy="143.16" r="4.67"/>
		<path style="fill:#2B3233;" d="M215.44,110l-2.08,29.36h5.89L217.17,110C217.07,108.5,215.55,108.5,215.44,110z"/>
		
			<line style="fill:none;stroke:#2B3233;stroke-width:4;stroke-linecap:round;stroke-miterlimit:10;" x1="216.3" y1="94.78" x2="216.3" y2="103.05"/>
		
			<line style="fill:none;stroke:#2B3233;stroke-width:4;stroke-linecap:round;stroke-miterlimit:10;" x1="191.91" y1="101.71" x2="196.05" y2="108.87"/>
		
			<line style="fill:none;stroke:#2B3233;stroke-width:4;stroke-linecap:round;stroke-miterlimit:10;" x1="175.28" y1="117.97" x2="182.44" y2="122.1"/>
		
			<line style="fill:none;stroke:#2B3233;stroke-width:4;stroke-linecap:round;stroke-miterlimit:10;" x1="167.93" y1="143.16" x2="176.2" y2="143.16"/>
		
			<line style="fill:none;stroke:#2B3233;stroke-width:4;stroke-linecap:round;stroke-miterlimit:10;" x1="240.24" y1="101.38" x2="236.11" y2="108.54"/>
		
			<line style="fill:none;stroke:#2B3233;stroke-width:4;stroke-linecap:round;stroke-miterlimit:10;" x1="256.87" y1="117.63" x2="249.71" y2="121.77"/>
		
			<line style="fill:none;stroke:#2B3233;stroke-width:4;stroke-linecap:round;stroke-miterlimit:10;" x1="264.22" y1="142.82" x2="255.96" y2="142.82"/>
		<path style="fill:#2B3233;" d="M441.56,24.21c-17,0-30.73,13.4-30.73,29.92s30.73,64.27,30.73,64.27s30.74-47.74,30.74-64.27
			S458.54,24.21,441.56,24.21z M441.56,64.04c-4.48,0-8.11-4-8.11-8.85s3.63-8.84,8.11-8.84s8.12,4,8.12,8.84S446,64,441.56,64
			V64.04z"/>
		<path style="fill:#2B3233;" d="M660.13,109.52c-23.01,0-41.66,18.65-41.66,41.66s18.65,41.66,41.66,41.66s41.66-18.65,41.66-41.66
			c0,0,0,0,0,0C701.78,128.17,683.14,109.53,660.13,109.52z M652.86,144c-8.34,0-17.22,1.44-25.55,1.44
			c3.18-18.13,20.44-30.25,38.57-27.07c13.82,2.42,24.65,13.25,27.07,27.07L668.47,144H652.86z M627.58,158.38
			c0,0,20.37-1.61,24.74,2.76s0,22.48,0,22.48c-12.4-3-22.01-12.81-24.74-25.28L627.58,158.38z M667.93,183.62c0,0-4.46-18,0-22.48
			s24.75-2.76,24.75-2.76c-2.76,12.44-12.37,22.21-24.75,25.2L667.93,183.62z"/>
		<polygon style="fill:#2B3233;" points="910.47,334.45 784.41,334.45 820.86,271.42 872.86,271.42 		"/>
		
			<line style="fill:none;stroke:#FFFFFF;stroke-width:4;stroke-linecap:round;stroke-miterlimit:10;" x1="847.44" y1="271.42" x2="847.44" y2="277.92"/>
		
			<line style="fill:none;stroke:#FFFFFF;stroke-width:4;stroke-linecap:round;stroke-miterlimit:10;stroke-dasharray:15.13,17.45;" x1="847.44" y1="295.37" x2="847.44" y2="319.23"/>
		
			<line style="fill:none;stroke:#FFFFFF;stroke-width:4;stroke-linecap:round;stroke-miterlimit:10;" x1="847.44" y1="327.95" x2="847.44" y2="334.45"/>
	</g>
</g>
</svg>
