<?xml version="1.0" encoding="UTF-8" standalone="no"?>
<svg
   xmlns:dc="http://purl.org/dc/elements/1.1/"
   xmlns:cc="http://creativecommons.org/ns#"
   xmlns:rdf="http://www.w3.org/1999/02/22-rdf-syntax-ns#"
   xmlns:svg="http://www.w3.org/2000/svg"
   xmlns="http://www.w3.org/2000/svg"
   version="1.1"
   id="svg2"
   xml:space="preserve"
   width="377.95334"
   height="100.17334"
   viewBox="0 0 377.95334 374.17334"><metadata
     id="metadata8"><rdf:RDF><cc:Work
         rdf:about=""><dc:format>image/svg+xml</dc:format><dc:type
           rdf:resource="http://purl.org/dc/dcmitype/StillImage" /><dc:title></dc:title></cc:Work></rdf:RDF></metadata><defs
     id="defs6"><clipPath
       clipPathUnits="userSpaceOnUse"
       id="clipPath18"><path
         d="M 0,280.63 H 283.465 V 0 H 0 Z"
         id="path16" /></clipPath></defs><g
     id="g10"
     transform="matrix(1.3333333,0,0,-1.3333333,0,374.17333)"><g
       id="g12"><g
         id="g14"
         clip-path="url(#clipPath18)"><g
           id="g20"
           transform="translate(68.6821,83.253)"><path
             d="m 0,0 c 0,-2.938 0.382,-3.437 2.819,-3.437 v -0.851 h -6.931 v 0.851 c 2.437,0 2.79,0.499 2.79,3.437 v 9.047 c 0,2.937 -0.353,3.436 -2.79,3.436 v 0.853 H 2.026 L 7.373,0.588 12.719,13.336 h 5.933 v -0.853 c -2.467,0 -2.82,-0.499 -2.82,-3.436 V 0 c 0,-2.938 0.353,-3.437 2.82,-3.437 V -4.288 H 9.546 v 0.851 c 2.438,0 2.82,0.499 2.82,3.437 V 9.224 L 6.521,-4.788 H 5.875 L 0,9.224 Z"
             style="fill:#231f20;fill-opacity:1;fill-rule:nonzero;stroke:none"
             id="path22" /></g><g
           id="g24"
           transform="translate(91.7397,78.9649)"><path
             d="m 0,0 v 0.852 c 2.438,0 2.79,0.499 2.79,3.436 v 9.047 c 0,2.937 -0.352,3.436 -2.79,3.436 v 0.853 h 9.282 v -0.853 c -2.438,0 -2.82,-0.499 -2.82,-3.436 V 4.288 c 0,-2.937 0.382,-3.436 2.82,-3.436 V 0 Z"
             style="fill:#231f20;fill-opacity:1;fill-rule:nonzero;stroke:none"
             id="path26" /></g><g
           id="g28"
           transform="translate(121.1431,92.2999)"><path
             d="M 0,0 C 0,2.938 -0.382,3.437 -2.82,3.437 V 4.289 H 4.142 V 3.437 C 1.674,3.437 1.321,2.938 1.321,0 V -13.835 H 0.587 l -12.16,14.511 v -9.723 c 0,-2.937 0.382,-3.436 2.819,-3.436 v -0.852 h -6.932 v 0.852 c 2.438,0 2.79,0.499 2.79,3.436 V 0 c 0,2.938 -0.352,3.437 -2.79,3.437 v 0.852 h 5.875 L 0,-7.401 Z"
             style="fill:#231f20;fill-opacity:1;fill-rule:nonzero;stroke:none"
             id="path30" /></g><g
           id="g32"
           transform="translate(129.6606,78.9649)"><path
             d="m 0,0 v 0.852 c 2.438,0 2.79,0.499 2.79,3.436 v 9.047 c 0,2.937 -0.352,3.436 -2.79,3.436 v 0.853 h 9.282 v -0.853 c -2.438,0 -2.82,-0.499 -2.82,-3.436 V 4.288 c 0,-2.937 0.382,-3.436 2.82,-3.436 V 0 Z"
             style="fill:#231f20;fill-opacity:1;fill-rule:nonzero;stroke:none"
             id="path34" /></g><g
           id="g36"
           transform="translate(144.8447,78.4649)"><path
             d="M 0,0 H -0.852 V 6.463 H 0.029 C 0.587,3.319 3.025,1.322 5.434,1.322 c 1.704,0 2.937,0.97 2.937,2.908 0,1.057 -0.793,2.262 -2.174,2.967 l -2.79,1.468 c -2.497,1.264 -3.995,2.645 -3.995,5.552 0,2.409 2.262,4.406 5.111,4.406 1.734,0 2.703,-0.559 3.583,-1.204 0.353,0.294 0.706,0.734 0.853,1.351 H 9.781 V 12.308 H 8.93 c -0.206,2.349 -1.146,5.023 -4.231,5.023 -1.204,0 -2.379,-0.882 -2.379,-2.351 0,-0.88 0.793,-2.203 2.35,-2.996 L 7.49,10.545 C 9.575,9.459 11.279,7.667 11.279,5.347 11.279,2.145 8.459,0 5.434,0 3.201,0 1.792,1.176 0.852,1.381 0.499,1.087 0.146,0.646 0,0"
             style="fill:#231f20;fill-opacity:1;fill-rule:nonzero;stroke:none"
             id="path38" /></g><g
           id="g40"
           transform="translate(178.2998,92.4473)"><path
             d="M 0,0 H -0.852 L -0.998,0.587 C -1.38,2.144 -1.703,2.819 -4.405,2.819 H -7.343 V -9.194 c 0,-2.938 0.382,-3.437 2.82,-3.437 v -0.851 h -9.282 v 0.851 c 2.438,0 2.79,0.499 2.79,3.437 V 2.819 h -2.937 c -2.673,0 -2.996,-0.675 -3.378,-2.232 L -17.477,0 h -0.88 l 0.263,4.142 h 17.86 z"
             style="fill:#231f20;fill-opacity:1;fill-rule:nonzero;stroke:none"
             id="path42" /></g><g
           id="g44"
           transform="translate(193.7207,91.6241)"><path
             d="M 0,0 C 0,1.998 -1.204,3.643 -3.76,3.643 H -5.375 V -3.612 H -3.76 C -1.204,-3.612 0,-1.997 0,0 m 1.587,-8.048 c 2.585,-2.849 3.701,-3.524 5.492,-3.76 v -0.851 H 0.705 l -5.228,7.724 h -0.852 v -3.436 c 0,-2.938 0.382,-3.437 2.82,-3.437 v -0.851 h -9.282 v 0.851 c 2.438,0 2.79,0.499 2.79,3.437 v 9.047 c 0,2.937 -0.352,3.436 -2.79,3.436 v 0.853 h 9.84 c 3.643,0 5.934,-2.233 5.934,-4.965 0,-2.555 -1.998,-4.641 -5.2,-4.935 z"
             style="fill:#231f20;fill-opacity:1;fill-rule:nonzero;stroke:none"
             id="path46" /></g><g
           id="g48"
           transform="translate(216.7207,93.1514)"><path
             d="m 0,0 -4.2,-6.344 v -3.554 c 0,-2.938 0.351,-3.437 2.79,-3.437 v -0.852 h -9.164 v 0.852 c 2.437,0 2.819,0.499 2.819,3.437 v 3.465 L -12.014,0 c -1.381,2.086 -2.174,2.585 -4.259,2.585 v 0.853 h 9.958 V 2.585 c -2.057,0 -2.615,-0.675 -1.557,-2.232 l 3.29,-4.964 3.289,4.964 c 1.058,1.586 0.734,2.232 -1.586,2.232 V 3.438 H 4.229 V 2.585 C 1.791,2.585 1.233,1.91 0,0"
             style="fill:#231f20;fill-opacity:1;fill-rule:nonzero;stroke:none"
             id="path50" /></g><g
           id="g52"
           transform="translate(56.2866,61.6622)"><path
             d="m 0,0 c -4.171,0 -5.846,-4.347 -5.846,-7.901 0,-3.554 1.675,-7.902 5.846,-7.902 4.142,0 5.845,4.348 5.845,7.902 C 5.845,-4.347 4.142,0 0,0 m 0,-17.213 c -5.405,0 -9.811,4.201 -9.811,9.312 0,5.111 4.406,9.311 9.811,9.311 5.375,0 9.781,-4.2 9.781,-9.311 0,-5.111 -4.406,-9.312 -9.781,-9.312"
             style="fill:#231f20;fill-opacity:1;fill-rule:nonzero;stroke:none"
             id="path54" /></g><g
           id="g56"
           transform="translate(77.1118,54.9356)"><path
             d="M 0,0 H 1.615 C 4.553,0 5.023,0.382 5.023,2.82 H 5.875 V -4.142 H 5.023 c 0,2.468 -0.47,2.821 -3.408,2.821 H 0 v -4.377 c 0,-2.938 0.382,-3.437 2.82,-3.437 v -0.851 h -9.282 v 0.851 c 2.438,0 2.79,0.499 2.79,3.437 v 9.047 c 0,2.937 -0.352,3.436 -2.79,3.436 V 7.638 H 9.135 L 9.399,3.496 H 8.519 L 8.371,4.083 C 7.989,5.64 7.667,6.315 4.993,6.315 H 0 Z"
             style="fill:#231f20;fill-opacity:1;fill-rule:nonzero;stroke:none"
             id="path58" /></g><g
           id="g60"
           transform="translate(104.0767,54.9356)"><path
             d="M 0,0 H 1.615 C 4.553,0 5.023,0.382 5.023,2.82 H 5.875 V -4.142 H 5.023 c 0,2.468 -0.47,2.821 -3.408,2.821 H 0 v -4.377 c 0,-2.938 0.382,-3.437 2.82,-3.437 v -0.851 h -9.282 v 0.851 c 2.438,0 2.79,0.499 2.79,3.437 v 9.047 c 0,2.937 -0.352,3.436 -2.79,3.436 V 7.638 H 9.135 L 9.399,3.496 H 8.519 L 8.371,4.083 C 7.989,5.64 7.667,6.315 4.993,6.315 H 0 Z"
             style="fill:#231f20;fill-opacity:1;fill-rule:nonzero;stroke:none"
             id="path62" /></g><g
           id="g64"
           transform="translate(117.2651,44.9493)"><path
             d="m 0,0 v 0.852 c 2.438,0 2.79,0.499 2.79,3.436 v 9.047 c 0,2.937 -0.352,3.436 -2.79,3.436 v 0.853 h 9.282 v -0.853 c -2.438,0 -2.82,-0.499 -2.82,-3.436 V 4.288 c 0,-2.937 0.382,-3.436 2.82,-3.436 V 0 Z"
             style="fill:#231f20;fill-opacity:1;fill-rule:nonzero;stroke:none"
             id="path66" /></g><g
           id="g68"
           transform="translate(146.667,58.2842)"><path
             d="M 0,0 C 0,2.938 -0.382,3.437 -2.82,3.437 V 4.289 H 4.142 V 3.437 C 1.674,3.437 1.321,2.938 1.321,0 V -13.835 H 0.587 l -12.16,14.511 v -9.723 c 0,-2.937 0.382,-3.436 2.819,-3.436 v -0.852 h -6.931 v 0.852 c 2.437,0 2.79,0.499 2.79,3.436 V 0 c 0,2.938 -0.353,3.437 -2.79,3.437 V 4.289 H -9.81 L 0,-7.401 Z"
             style="fill:#231f20;fill-opacity:1;fill-rule:nonzero;stroke:none"
             id="path70" /></g><g
           id="g72"
           transform="translate(161.1182,57.668)"><path
             d="M 0,0 -2.379,-5.522 H 2.35 Z m -4.171,-9.635 c -0.676,-1.586 -0.235,-2.232 2.203,-2.232 v -0.852 h -7.108 v 0.852 c 2.026,0 2.702,0.499 3.613,2.585 L 0.911,5.404 H 1.527 L 7.931,-9.282 c 0.822,-1.88 1.234,-2.585 3.584,-2.585 v -0.852 H 1.938 v 0.852 c 2.585,0 2.879,0.676 2.204,2.232 l -1.234,2.79 h -5.875 z"
             style="fill:#231f20;fill-opacity:1;fill-rule:nonzero;stroke:none"
             id="path74" /></g><g
           id="g76"
           transform="translate(190.5215,58.2842)"><path
             d="M 0,0 C 0,2.938 -0.382,3.437 -2.82,3.437 V 4.289 H 4.142 V 3.437 C 1.674,3.437 1.321,2.938 1.321,0 V -13.835 H 0.587 l -12.16,14.511 v -9.723 c 0,-2.937 0.382,-3.436 2.819,-3.436 v -0.852 h -6.932 v 0.852 c 2.438,0 2.79,0.499 2.79,3.436 V 0 c 0,2.938 -0.352,3.437 -2.79,3.437 v 0.852 h 5.875 L 0,-7.401 Z"
             style="fill:#231f20;fill-opacity:1;fill-rule:nonzero;stroke:none"
             id="path78" /></g><g
           id="g80"
           transform="translate(214.666,45.2725)"><path
             d="m 0,0 c -0.176,0.704 -0.382,1.409 -0.764,1.674 -1.498,-1.557 -3.407,-2.497 -5.463,-2.497 -4.964,0 -9.017,4.201 -9.017,9.311 0,5.112 4.053,9.312 9.017,9.312 2.056,0 3.965,-0.91 5.463,-2.497 0.382,0.294 0.588,0.94 0.764,1.675 h 0.822 v -6.462 h -0.851 c -0.793,3.818 -3.172,5.874 -6.08,5.874 -4.025,0 -5.17,-4.259 -5.17,-7.902 0,-3.641 1.145,-7.901 5.17,-7.901 2.908,0 5.287,2.115 6.08,5.875 H 0.822 L 0.822,0 Z"
             style="fill:#231f20;fill-opacity:1;fill-rule:nonzero;stroke:none"
             id="path82" /></g><g
           id="g84"
           transform="translate(220.9814,45.8008)"><path
             d="m 0,0 c 2.438,0 2.79,0.499 2.79,3.437 v 9.046 C 2.79,15.421 2.438,15.92 0,15.92 v 0.852 h 15.127 l 0.235,-4.141 h -0.851 l -0.148,0.587 c -0.411,1.556 -0.705,2.232 -3.407,2.232 H 6.462 V 9.135 h 1.615 c 2.938,0 3.408,0.382 3.408,2.82 h 0.852 V 4.993 h -0.852 c 0,2.468 -0.47,2.82 -3.408,2.82 H 6.462 V 3.906 C 6.462,0.97 6.844,0.47 9.282,0.47 h 2.644 c 2.702,0 3.025,0.676 3.407,2.232 l 0.146,0.588 h 0.852 L 16.097,-0.852 H 0 Z"
             style="fill:#231f20;fill-opacity:1;fill-rule:nonzero;stroke:none"
             id="path86" /></g><g
           id="g88"
           transform="translate(179.1743,189.0279)"><path
             d="m 0,0 c 0.973,-0.186 1.72,-0.143 2.181,0.187 0,0 -0.25,2.651 -0.5,3.727 -0.719,-0.184 -2.11,-0.342 -3.06,1.05 -0.182,0.327 -0.385,0.646 -0.614,0.957 -1.975,2.685 -4.294,4.432 -6.582,5.779 4.179,2.077 5.47,4.04 6.174,5.21 1.284,2.135 2.371,8.891 -3.575,12.164 -4.303,2.369 -8.773,1.347 -10.669,0.454 -3.613,-1.7 -6.174,-5.478 -5.271,-10.301 0.797,-4.257 3.614,-5.771 7.169,-7.545 -2.79,-1.499 -4.628,-3.165 -4.64,-6.473 -0.006,-2.061 1.589,-4.039 0.651,-7.903 -0.088,-0.361 2.524,1.018 2.601,1.175 0.901,2.026 0.6,4.827 0.6,4.827 0.926,-0.75 0.901,-2.851 0.626,-4.058 0,0 1.687,1.032 1.856,1.557 0.889,2.763 -0.018,4.464 -0.544,5.853 -0.52,1.375 0.408,2.733 1.737,3.539 0.788,-0.432 1.592,-0.905 2.403,-1.449 0.644,-0.432 4.094,-2.798 5.291,-5.794 1.903,-4.764 0.627,-7.362 -0.014,-8.352 -1.218,-1.88 -2.81,-3.315 -5.204,-3.564 -0.079,0.011 -0.162,0.018 -0.254,0.013 -0.767,-0.04 -1.41,-0.015 -1.99,0.058 -0.64,0.096 -1.249,0.247 -1.813,0.424 -0.476,0.161 -0.955,0.353 -1.479,0.565 -1.52,0.748 -5.438,2.928 -8.748,6.522 -2.749,2.984 -4.379,5.116 -5.64,6.712 1.617,-0.741 3.597,-0.481 3.623,-0.477 0.011,0.002 0.116,1.539 0.116,2.303 l 0.1,2.301 c 0,0 0.1,1.05 0.1,1.851 0,0 -4.752,0.3 -5.652,2.551 0,0 0.95,-0.601 2.551,-0.7 1.423,-0.089 3.201,0.2 3.201,0.2 0.15,0.375 0.3,4.201 0.3,4.201 0.051,0.4 0.051,2.001 0.051,2.001 -0.799,-0.21 -2.03,-0.023 -3.402,0.3 -0.85,0.2 -2.301,1.051 -2.851,2.001 0,0 1,-0.45 2.664,-0.65 1.78,-0.215 3.76,0.136 3.785,0.375 0.103,0.975 0.08,3.938 0.078,4.014 0,0 0.177,2.196 0.072,2.177 -0.494,-0.091 -3.298,-0.001 -5.549,2.363 0,0 -0.853,0.675 -0.027,1.875 0,0 -4.503,2.025 -4.502,2.026 0,0 0.95,0.926 0.975,1.876 0.028,1.05 -1.601,1.676 -2.876,1.451 -1.219,-0.215 -2.151,-1.501 -2.151,-1.501 l -5.626,2.502 -4.454,-4.49 c -0.041,-0.042 -0.337,-0.413 -0.275,-0.851 l 0.063,-0.4 c 0.037,-0.288 -0.116,-0.506 -0.151,-0.55 -0.399,-0.525 -0.937,-1.063 -1.337,-1.563 -0.38,-0.475 -0.674,-0.878 -0.826,-1.125 -0.458,-0.748 -0.622,-1.25 -0.788,-1.727 0,0 -0.576,-1.241 1.572,-2.927 l 0.128,-0.101 c 10e-4,0.002 0.212,0.301 0.214,0.303 l 0.184,-0.191 c 0.171,-0.173 0.525,-0.506 0.886,-0.717 0,0 0.156,0.754 0.583,1.382 0.373,0.551 1.173,1.251 1.723,1.601 0.697,0.444 1.376,0.676 2.176,0.7 0.677,0.022 1.149,-0.231 1.626,-0.725 0.7,-0.725 0.975,-2.526 0.741,-3.285 -0.274,0.183 -0.483,0.31 -0.483,0.31 -0.9,0.45 -2.705,1.254 -5.002,0.25 -0.801,-0.351 -2.236,-1.051 -4.652,-1.751 -1.253,-0.364 -2.124,-0.228 -2.35,0.85 -0.201,0.95 0.25,1.651 0.25,1.651 0,0 -1.567,-0.27 -1.912,-1.651 -0.35,-1.401 0.19,-2.699 1.501,-3.026 1.2,-0.3 3.101,0.575 4.502,1.325 0.502,0.27 1.533,0.814 2.25,1.126 1.326,0.575 2.248,0.645 3.627,0.024 1.003,-0.45 1.578,-1.075 1.578,-1.075 0,0 -0.45,-1.176 -2.116,-1.25 -1.332,-0.059 -2.365,0.65 -2.778,1.287 0,0 -0.287,-0.681 -0.412,-0.9 -0.432,-0.75 0.093,-1.163 -0.096,-1.688 -0.199,-0.546 -1.135,-1.17 -1.651,-1.525 -0.801,-0.55 -2.23,-0.97 -2.574,-1.051 0,0 0.867,-1.935 0.982,-2.151 0.442,-0.832 1.23,-2.602 1.932,-3.271 0,0 1.602,0.35 2.702,1 1.04,0.615 1.838,1.333 2.1,1.933 -1.463,-3.414 -2.552,-4.577 -3.509,-5.196 -3.773,-2.442 -11.314,-7.822 -18.517,-8.797 -2.101,-0.075 -5.505,3.027 -6.399,4.126 -0.65,0.801 -2.001,-0.349 -2.001,-0.349 0,0 -2.758,0.464 -4.001,-1.401 -0.201,-0.3 1.45,0.25 2.5,-0.1 0.712,-0.238 -0.25,-0.6 -0.25,-1.251 0,-1.001 3.091,-1.784 4.333,-2.201 0.414,-0.138 0.375,-0.506 0.175,-0.5 -2.351,0.075 -3.77,1.095 -4.702,1.376 -1.826,0.55 -2.425,0.178 -2.556,-0.676 -0.101,-0.65 -2.251,-0.05 -2.631,-3.901 -0.037,-0.374 2.311,2.597 2.476,1.576 0.505,-3.127 5.863,-0.525 6.978,-1.351 0.736,-0.544 -5.523,-0.475 -4.573,-2.376 0.146,-0.291 -2.75,-2.101 -0.3,-4.402 0,0 0.151,2.601 1.701,2.501 1.278,-0.082 1.901,-1.301 3.502,-0.1 0.588,0.44 0.903,1.046 3.047,1.676 0.159,0.047 0.16,-0.719 0.504,-1.226 0.206,-0.304 0.847,-0.296 0.846,-0.575 0,-0.996 -1.238,-1.837 -1.2,-1.876 0.041,-0.042 1.425,-0.75 2.701,1.576 0.244,0.446 0.704,0.075 1.204,0.225 1.847,0.554 -0.025,1.713 1.047,2.701 1.355,1.25 2.855,1.951 4.256,2.501 0,0 -0.605,-1.642 0.171,-3.176 l 5.552,1.426 c -0.608,1.43 0.326,3.255 1.452,4.681 0.256,0.323 -0.745,-3.467 0.08,-4.292 l 5.451,1.411 c -0.391,0.907 -0.187,2.338 0.242,3.409 0.595,-2.505 1.817,-5.175 4.355,-6.282 4.123,-1.799 7.758,-2.642 13.836,-4.439 1.634,-0.483 3.374,-1.091 4.176,-1.491 1.2,-0.601 -0.625,-1.851 -0.625,-1.851 0.6,-0.376 1.515,-0.584 3.151,-1.801 1.816,-1.351 2.517,-3.971 3.191,-6.828 0.526,-2.226 0.926,-5.202 0.176,-6.078 -0.394,-0.459 -0.826,-0.9 -3.226,-1.351 l 0.45,-2.1 c 1.675,-0.125 3.091,0.583 3.091,0.583 0,0 -0.15,-0.143 -0.35,-0.412 -0.568,-0.769 -0.776,-1.329 -0.911,-2.268 l 2.221,-1.43 c 0.601,1.901 1.318,3.579 1.951,3.827 0.981,0.384 5.527,-1.901 7.288,-6.352 1.034,-2.617 0.636,-8.117 -2.001,-8.604 -1.41,-0.26 -4.652,2.551 -5.352,1.25 -0.733,-1.359 -4.552,-1.2 -3.152,-5.052 0.735,0.971 1.648,1.965 2.251,1.751 0.399,-0.141 0.372,-0.709 0.75,-1.15 0.477,-0.557 4.051,0.468 4.252,-0.151 0.1,-0.281 -0.489,-0.258 -0.847,-0.324 -1.766,-0.325 -3.972,-0.553 -4.305,-1.427 -0.106,-0.277 0.068,-0.345 -0.1,-0.85 -0.35,-1.05 -2.001,-0.95 -1.901,-3.451 0.101,-1.2 1.25,-2.148 1.401,-2.151 0.236,-0.005 -0.106,2.578 1,2.801 0.534,0.108 0.751,-0.93 1.551,-0.9 1.354,0.05 4.089,4.145 5.353,3.801 0.386,-0.2 -2.402,-1.9 -2.752,-3.401 -0.287,-1.232 1.13,-1.4 1.151,-2.251 0.05,-2.001 3.895,-2.901 4.151,-2.651 0.266,0.258 -2.307,2.204 -1.65,3.052 0.339,0.437 0.898,-0.239 1.801,0.149 0.299,0.301 -1.351,3.002 1.951,6.103 0,0 0.65,-1.201 1.9,-1.351 1.108,-0.133 0.392,-2.69 0.55,-2.701 0.23,-0.016 1.601,1.651 1.301,3.702 0,0 0.901,0.699 1.05,1.25 0.5,1.851 -1.9,0.6 -1.65,5.603 0.045,0.915 -0.243,0.643 -0.951,1.35 -0.4,0.4 -0.598,1.108 -0.25,0.951 1.276,-0.576 2.912,-0.056 2.912,-0.056 0.489,4.932 0.14,5.308 0.14,5.308 -1.751,-0.05 -2.561,0.375 -3.053,0.98 1.172,-0.266 2.502,-0.08 3.053,0.37 0,0 -0.112,5.17 -0.5,5.052 -1.325,-0.401 -2.287,-0.34 -3.355,0.372 -0.901,0.6 0.013,2.207 -1.038,2.357 -2.126,0.538 -3.853,1.991 -4.271,2.548 -0.9,1.201 -0.675,1.951 -0.675,1.951 0.808,-0.408 1.691,-0.56 2.523,-0.282 l 0.327,4.083 c 0,0 -0.811,0.053 -1.462,0.352 -0.777,0.359 -1.378,1.38 -1.378,1.38 0,0 0.69,-0.309 1.529,-0.447 0.88,-0.144 1.496,0.142 1.496,0.142 l 0.556,4.608 c -2.53,-0.192 -2.493,1.308 -2.462,1.597 4.601,0.763 7.439,4.963 8.302,8.604 0.455,-0.268 1.574,-0.697 2.472,-0.373 0,0 0.225,3.101 0.1,3.577 C 1.508,-1.206 0.51,-0.995 0,0 m -43.918,31.653 c 0.067,-0.205 -2.4,-0.57 -2.603,-0.413 -0.213,0.164 -0.303,1.268 -0.154,1.51 0.195,0.316 2.459,-0.178 2.757,-1.097 m 29.407,-39.731 c -0.11,0.044 -0.216,0.089 -0.319,0.133 -0.017,0.008 -0.035,0.017 -0.053,0.027 0.154,-0.065 0.277,-0.119 0.372,-0.16 m 3.098,21.302 c -3.035,1.527 -5.717,2.723 -7.067,5.002 -1.234,2.268 -0.765,6.538 2.493,8.481 0.744,-0.698 0.744,-1.546 0.744,-1.546 0.831,-0.033 2.522,0.132 3.352,0.1 0.05,0.65 0.041,1.637 -0.46,2.437 0.851,-0.6 1.417,-1.069 1.631,-2.433 0.523,-0.016 3.022,-0.106 3.022,-0.106 0.033,0.775 -0.162,1.39 -0.618,1.898 3.284,-1.365 4.064,-4.512 4.01,-6.1 0.078,-2.409 -1.196,-4.516 -3.005,-5.631 -1.575,-0.971 -2.922,-1.592 -4.102,-2.102 m 5.252,21.298 4.001,1.951 -4.051,1.701 c -2.829,-0.111 -9.532,0.086 -17.5,0.214 l -3.363,-4.346 c 8.9,0.196 17.479,0.375 20.913,0.48 m -23.157,-1.256 6.24,8.142 c 0,0 -0.732,0.257 -1.573,-0.213 -0.84,-0.468 -1.038,-1.667 -0.942,-1.913 -0.658,1.684 -2.575,0.592 -2.575,0.592 1.233,-1.963 0.196,-2.767 -0.631,-2.55 -1.107,0.291 -0.929,1.512 -0.929,1.512 0,0 -1.137,-0.983 -1.972,0.02 -0.637,0.767 0.269,1.799 2.097,1.744 0,0 0.119,1.085 -0.876,1.781 -0.765,0.535 -1.969,0.011 -1.969,0.011 0,0 0.807,0.405 0.974,1.278 0.122,0.635 -0.113,1.588 -0.764,2.308 l -0.025,0.027 -0.036,-0.001 c -0.97,-0.008 -1.83,-0.48 -2.215,-1 -0.529,-0.714 -0.281,-1.582 -0.281,-1.582 0,0 -0.431,1.241 -1.342,1.441 -1.185,0.26 -1.903,-0.562 -1.903,-0.562 1.278,-1.307 1.134,-2.674 0.137,-2.724 -1.304,-0.065 -1.351,1.438 -1.351,1.438 0,0 -0.778,-0.959 -1.741,-0.342 -0.72,0.462 -0.83,1.769 1.448,2.191 0,0 -0.495,2.152 -2.179,1.494 0.247,0.096 0.994,1.055 0.77,1.989 -0.225,0.937 -0.91,1.302 -0.91,1.302 l -1.763,-10.106 4.577,-2.021 c 0.548,0.473 1.075,0.786 1.45,0.951 1.251,0.55 2.552,0.402 3.602,-0.05 1.582,-0.681 1.769,-1.601 1.825,-2.295 0.033,-0.394 -0.318,-1.219 -0.45,-1.425 z m -21.736,0.147 4.887,4.944 c -1.903,0.01 -4.09,0.067 -7.064,0.067 -0.601,0 -2.626,1.4 -2.814,1.138 0,0 -0.457,-1.102 -0.608,-1.514 0,0 0.946,-1 0.908,-2.125 -0.009,-0.266 0.043,-1.252 -0.92,-2.189 0,0 0.737,-1.545 0.883,-1.663 0,0 1.5,0.95 2.701,1.201 0.204,0.042 0.823,0.089 2.027,0.141 m -6.479,4.248 c 0,0 -0.05,5.065 0.025,5.277 0,0 0.162,0.163 0.275,0.438 0.145,0.353 -0.013,0.9 -0.013,0.9 h -3.088 c -0.062,-0.125 -0.038,-0.55 0.012,-0.725 0.063,-0.25 0.238,-0.55 0.45,-0.688 v -5.202 c 0,0 -0.447,-0.516 -0.55,-1.675 -0.087,-0.988 0.588,-1.814 0.588,-1.814 l -0.063,-4.364 c 0,0 -0.265,-0.202 -0.299,-0.65 -0.038,-0.476 0.062,-0.688 0.062,-0.688 h 2.901 c 0.033,0.091 0.075,0.625 0,0.938 -0.052,0.215 -0.215,0.391 -0.312,0.463 l -0.023,4.288 c 0.275,0.466 0.744,0.976 0.735,1.764 -0.009,0.787 -0.505,1.466 -0.7,1.738 m -3.474,-25.902 -3.845,-4.944 6.283,-2.609 c 3.621,1.857 8.686,5.321 8.686,5.321 l -8.857,3.33 z m 1.427,2.077 c 0,0 -1.103,0.78 -1.211,0.914 -0.106,0.135 -0.188,1.452 -0.188,1.452 l -2.07,-1.667 -6.352,0.003 c -0.162,0.026 -0.15,-4.633 -0.15,-4.633 0,0 3.22,-2.705 3.357,-2.608 l 4.274,5.41 z m -3.03,10.756 h -6.503 l -0.03,-8.61 5.63,-0.137 1.785,1.407 z m -6.653,1.251 h 6.653 c 0,0 0.375,1.03 0.403,1.338 l -0.305,1.088 h -6.728 l -0.376,-1.126 z m 8.378,6.604 0.01,1.599 c 0,0 -0.608,0.503 -0.666,1.932 -0.037,0.938 0.637,1.857 0.637,1.857 l -0.018,1.539 c 0,0 -1.013,0.787 -1.482,0.731 l 0.019,-5.583 c 0.015,-0.963 -1.402,-2.058 -2.589,-2.276 -2.648,-0.488 -5.337,-0.325 -5.337,-0.325 0,0 0.085,-0.763 0.31,-1.439 0.167,-0.5 0.753,-0.938 0.753,-0.938 h 6.613 z m -2.792,2.618 c 0.055,0.419 0.027,1.041 0.026,1.463 -0.002,0.834 -0.005,1.882 -0.01,2.74 0,0 0.004,1.082 -0.347,1.091 -0.234,0.007 -0.928,0.009 -1.053,-0.029 -0.108,-0.167 -0.272,-0.895 -0.38,-1.062 l -0.342,1.062 c -0.176,0.033 -1.164,0.015 -1.333,-0.031 -0.1,-0.183 -0.269,-0.847 -0.368,-1.031 l -0.344,1.008 c -0.083,0.028 -1.177,0.019 -1.258,-0.025 -0.142,-0.158 -0.356,-0.834 -0.442,-0.983 l -0.323,0.983 c 0,0 -0.475,0.01 -0.816,0 -0.437,-0.011 -0.63,-0.604 -0.641,-0.964 0,-1.083 0.02,-1.555 0.036,-2.667 0.009,-0.613 0.089,-3.091 0.089,-3.091 0.466,0.01 0.875,0.065 1.135,0.296 0.463,0.412 0.515,1.15 0.52,1.147 -0.014,-0.318 -0.005,-1.373 0.045,-1.762 0.015,-0.11 0.849,-0.224 1.379,0.317 0.413,0.42 0.515,1.178 0.62,1.445 -0.026,-0.609 0.006,-1.742 0.097,-1.762 0.22,-0.049 0.95,-0.003 1.344,0.392 0.411,0.411 0.561,1.012 0.602,1.37 0,0.003 0.009,-0.886 0.056,-1.257 0.139,0 0.319,-0.002 0.526,0.064 0.035,0.011 0.418,0.157 0.601,0.314 0.219,0.19 0.501,0.361 0.581,0.972 m -12.12,-1.919 c 1.242,0 3.297,0.35 3.297,0.35 l -0.067,5.177 c 0,0 -1.332,0.216 -2.558,0.401 -2.484,0.374 -2.417,-2.176 -2.417,-2.176 l 0.067,-1.426 c 0,0 0.107,-2.325 1.678,-2.326 m -1.144,-83.405 c -0.017,-0.113 -0.155,-1.12 0.579,-1.775 0.514,-0.458 1.404,-0.697 1.813,-0.347 0.576,0.493 0.151,1.446 0.501,2.083 0.098,0.177 0.463,0.27 0.463,0.27 0.151,0.032 0.286,0.11 0.411,0.217 3.757,-1.55 7.456,-3.902 10.794,-6.309 0.231,-0.167 0.439,-0.304 0.63,-0.42 -0.13,-0.49 -0.336,-1.033 -0.647,-1.627 -0.887,-1.698 -1.967,-3.473 -1.775,-4.63 0.142,-0.849 0.708,-1.432 1.544,-1.466 0.925,-0.039 1.658,0.578 1.813,1.273 0.359,1.619 -1.158,1.775 -1.158,1.775 0,0 0.473,1.396 0.656,1.851 1.536,3.811 3.499,3.573 3.499,3.573 0,0 -1.685,1.442 0.127,4.683 0.976,1.743 1.389,3.047 1.582,4.32 0.122,0.802 -0.673,1.801 -1.543,1.852 -0.913,0.054 -1.781,-0.716 -1.851,-1.466 -0.194,-2.045 1.49,-1.733 1.388,-2.083 -0.494,-1.695 -1.149,-2.799 -1.781,-3.519 -0.278,0.181 -0.622,0.385 -1.042,0.617 -3.541,1.956 -6.442,3.652 -10.628,4.61 0.093,0.187 0.191,0.377 0.296,0.568 0.652,1.178 1.049,1.693 0.926,1.813 -0.089,0.086 -0.451,-0.264 -1.389,-0.771 -1.056,-0.572 -1.427,-0.656 -2.121,-0.733 -0.409,-0.045 -0.828,0.203 -1.081,0.115 -0.287,-0.099 -0.453,-0.569 -0.771,-1.504 -0.459,-1.345 -0.473,-1.391 -0.541,-1.543 -0.405,-0.922 -0.616,-0.922 -0.694,-1.427 m 53.883,32.927 c -1.538,1.238 -3.245,1.876 -4.558,2.533 0,0 1.725,1.163 1.425,1.369 -0.531,0.366 -1.256,0.393 -1.256,0.393 -5.617,-2.121 -11.264,-5.35 -14.138,-7.306 -0.029,-0.017 -0.06,-0.037 -0.091,-0.058 -2.001,-1.351 -4.652,0.274 -4.652,0.274 l -0.351,-2.176 c 1.104,-0.643 1.857,-0.903 2.361,-0.985 -0.838,-0.16 -2.013,-0.496 -2.56,-1.165 l 0.75,-2.001 c 0,0 1.177,0.978 3.079,1.029 0.021,-0.107 0.039,-0.201 0.047,-0.279 0.264,-2.538 -3.651,-6.122 -7.103,-7.503 -3.501,-1.4 -6.261,-1.419 -6.903,-1 -2.301,1.5 -2.434,3.599 -3.614,3.914 -0.312,0.083 -0.637,-0.374 -1.087,-0.3 -1.839,0.3 -3.969,0.172 -4.603,-1.413 0,0 4.261,0.33 2.501,-0.726 -1.741,-1.045 2.778,-2.882 4.005,-3.626 0.412,-0.25 0.068,-0.35 -0.048,-0.35 -0.82,-0.051 -3.418,1.15 -4.832,1.6 -1.101,0.35 -1.232,-0.532 -1.451,-0.5 -1.7,0.25 -4.902,-1.451 -3.601,-3.952 0,0 1.25,2.051 2.526,1.651 0.494,-0.155 -0.336,-1.553 0.663,-2.176 1.303,-0.812 6.07,0.775 6.94,0.075 0.76,-0.612 -5.222,-0.476 -5.396,-1.662 -0.008,-0.056 -0.044,-0.401 0.069,-0.627 0.225,-0.525 -1.201,-1.099 -1.276,-2.813 -0.075,-1.726 1.838,-2.889 1.838,-2.889 0.226,0.188 -0.522,2.259 0.263,2.589 0.416,0.175 0.766,-0.789 1.601,-0.901 1.716,-0.228 2.388,2.53 5.202,3.902 4.101,2.001 0.897,-0.858 2.401,-1.2 2.416,-0.551 -0.335,-2.702 -0.335,-2.702 0.666,-0.447 2.836,0.301 3.636,2.401 0.29,0.76 0.663,0.405 1.114,0.938 0.412,0.488 0.037,1.313 0.312,1.864 0.558,1.115 3.101,0.65 2.951,1.7 -0.195,1.37 1.001,1.751 1.732,2.048 0.254,0.102 0.295,-1.767 2.871,-2.698 0.793,0.346 1.568,0.62 3.014,1.381 0.713,0.375 1.463,0.788 1.725,1.088 0.05,0.056 -1.084,0.89 -1.468,2.061 -0.19,0.578 -0.172,0.981 -0.107,1.015 0,0 1.239,-1.695 2.926,-2.326 1.204,0.612 2.436,1.32 3.677,2.138 0.198,0.131 0.394,0.263 0.587,0.395 0.012,0.009 0.018,0.017 0.019,0.019 0.173,0.296 -3.086,2.449 -1.706,3.121 1.249,0.608 -1.885,3.759 -0.339,4.564 4.546,2.368 9.918,4.803 13.003,6.346 0,0 -0.3,1.651 -1.763,2.926 m -36.259,-40.855 c 2.124,-1.451 3.615,-2.448 5.445,-3.337 4.479,-2.175 13.522,-5.38 25.539,-4.244 11.418,1.08 16.819,5.152 16.819,5.152 -1.918,0.665 -3.554,1.846 -4.739,2.899 -0.1,-0.188 -0.176,-0.533 -0.221,-0.939 -0.094,-0.844 -0.225,-1.744 -0.225,-1.744 0,0 -0.305,0.053 -1.013,0.375 -0.825,0.375 -2.157,1.594 -2.269,3.283 -0.011,0.155 -0.015,0.298 -0.014,0.431 -2.32,-0.932 -6.723,-2.425 -11.271,-2.513 -8.024,-0.154 -16.047,1.08 -23.763,4.475 -1.022,0.45 -2.206,1.002 -2.206,1.002 0,0 -0.526,-1.163 1.463,-3.489 -0.844,0.15 -1.801,0.131 -2.363,-0.188 -0.669,-0.378 -1.087,-0.974 -1.182,-1.163"
             style="fill:#231f20;fill-opacity:1;fill-rule:nonzero;stroke:none"
             id="path90" /></g></g></g></g></svg>
