<?xml version="1.0" encoding="utf-8"?>
<!-- Generator: Adobe Illustrator 25.0.0, SVG Export Plug-In . SVG Version: 6.00 Build 0)  -->
<svg version="1.1" id="Layer_1" xmlns="http://www.w3.org/2000/svg" xmlns:xlink="http://www.w3.org/1999/xlink" x="0px" y="0px"
	 viewBox="0 0 1031.36 644.23" style="enable-background:new 0 0 1031.36 644.23;" xml:space="preserve">
<g id="Layer_2_1_">
	<g id="Layer_1-2">
		<path style="fill:#A5C4C6;" d="M1031.32,336.41c-0.55-7.8-8.26-13.1-10.94-14.94c-34.94-24-504-197.8-506.62-298.47
			c-0.13-4.81,0.72-12.83,7.43-23L8.24,296.15c-21.85,31.19,5.53,61.61,15.66,67.45L509.47,644v0.28l0.24-0.14l0.24,0.14V644
			l512.61-291.23C1028.43,349.5,1031.85,343.11,1031.32,336.41z"/>
		<polygon style="fill:#89A4A6;" points="390.18,251.95 390.18,387.58 435.29,361.53 435.29,279.51 471.41,258.55 471.41,340.68 
			471.21,340.79 507.64,319.76 507.64,184.14 		"/>
		<polygon style="fill:#738A8C;" points="625.09,251.95 625.09,387.58 579.98,361.53 579.98,279.51 543.86,258.55 543.86,340.68 
			544.06,340.79 507.64,319.76 507.64,184.14 		"/>
		<polygon style="fill:#8ABCC5;" points="507.58,329.01 507.58,328.96 507.58,328.96 507.54,328.99 507.49,328.96 507.49,328.96 
			507.49,329.01 406.24,387.47 507.49,445.93 507.49,445.98 507.54,445.96 507.58,445.98 507.58,445.93 610.48,387.47 		"/>
		<polygon style="opacity:0.4;fill:#89A4A6;enable-background:new    ;" points="625.09,251.95 625.09,387.58 670.2,361.53 
			670.2,279.51 706.33,258.55 706.33,340.68 706.13,340.79 742.55,319.76 742.55,184.14 		"/>
		<polygon style="opacity:0.4;fill:#738A8C;enable-background:new    ;" points="860,251.95 860,387.58 814.89,361.53 
			814.89,279.51 778.77,258.55 778.77,340.68 778.97,340.79 742.55,319.76 742.55,184.14 		"/>
		<g style="opacity:0.4;">
			<polygon style="fill:#F2F2F2;" points="742.49,329.01 742.49,328.96 742.49,328.96 742.45,328.99 742.4,328.96 742.4,328.96 
				742.4,329.01 641.15,387.47 742.4,445.93 742.4,445.98 742.45,445.96 742.49,445.98 742.49,445.93 845.39,387.47 			"/>
		</g>
		
			<linearGradient id="path6107_1_" gradientUnits="userSpaceOnUse" x1="969.9089" y1="496.3999" x2="985.4289" y2="374.9399" gradientTransform="matrix(1 0 0 1 -256 -161.86)">
			<stop  offset="0" style="stop-color:#D39A50"/>
			<stop  offset="1" style="stop-color:#FFFFFF"/>
		</linearGradient>
		<path id="path6107" style="fill-rule:evenodd;clip-rule:evenodd;fill:url(#path6107_1_);" d="M713.77,347.93l-0.22-55.19
			l3.88,1.94l0.22,55.19L713.77,347.93z"/>
		
			<linearGradient id="path6107-2_1_" gradientUnits="userSpaceOnUse" x1="998.8389" y1="538.1799" x2="1014.3588" y2="416.7198" gradientTransform="matrix(1 0 0 1 -256 -161.86)">
			<stop  offset="0" style="stop-color:#D39A50"/>
			<stop  offset="1" style="stop-color:#FFFFFF"/>
		</linearGradient>
		<path id="path6107-2" style="fill-rule:evenodd;clip-rule:evenodd;fill:url(#path6107-2_1_);" d="M742.7,389.71l-0.22-55.19
			l3.88,1.94l0.22,55.19L742.7,389.71z"/>
		
			<linearGradient id="path6107-3_1_" gradientUnits="userSpaceOnUse" x1="1000.8889" y1="537.2798" x2="1016.4088" y2="415.8199" gradientTransform="matrix(1 0 0 1 -256 -161.86)">
			<stop  offset="0" style="stop-color:#D39A50"/>
			<stop  offset="1" style="stop-color:#FFFFFF"/>
		</linearGradient>
		<path id="path6107-3" style="fill-rule:evenodd;clip-rule:evenodd;fill:url(#path6107-3_1_);" d="M744.75,388.81l-0.22-55.19
			l3.88,1.94l0.22,55.19L744.75,388.81z"/>
		
			<linearGradient id="path6109_1_" gradientUnits="userSpaceOnUse" x1="1021.1684" y1="463.8018" x2="956.2284" y2="399.6518" gradientTransform="matrix(1 0 0 1 -256 -161.86)">
			<stop  offset="0" style="stop-color:#D39A50"/>
			<stop  offset="1" style="stop-color:#FFFFFF"/>
		</linearGradient>
		<path id="path6109" style="fill-rule:evenodd;clip-rule:evenodd;fill:url(#path6109_1_);" d="M773,268.1l-55.49,26.52l-4-2.13l0,0
			l54.88-26.22"/>
		
			<linearGradient id="path6111_1_" gradientUnits="userSpaceOnUse" x1="1005.1371" y1="498.3704" x2="989.097" y2="389.9004" gradientTransform="matrix(1 0 0 1 -256 -161.86)">
			<stop  offset="0" style="stop-color:#D39A50"/>
			<stop  offset="1" style="stop-color:#FFFFFF"/>
		</linearGradient>
		<path id="path6111" style="fill-rule:evenodd;clip-rule:evenodd;fill:url(#path6111_1_);" d="M717.51,350l55.18-26.07v-55.51
			l-55.18,26.22V350z"/>
		<g id="use6113">
			
				<linearGradient id="path6111-2_1_" gradientUnits="userSpaceOnUse" x1="1119.4904" y1="555.3863" x2="1103.4604" y2="446.9163" gradientTransform="matrix(0.89 0 0 0.88 -247.16 -155.32)">
				<stop  offset="0" style="stop-color:#D39A50"/>
				<stop  offset="1" style="stop-color:#FFFFFF"/>
			</linearGradient>
			<path id="path6111-2" style="fill-rule:evenodd;clip-rule:evenodd;fill:url(#path6111-2_1_);" d="M721,345.11l49.13-23v-48.84
				L721,296.37V345.11z"/>
		</g>
		
			<linearGradient id="path6115_1_" gradientUnits="userSpaceOnUse" x1="1030.936" y1="402.9606" x2="1020.2661" y2="511.4106" gradientTransform="matrix(1 0 0 1 -256 -161.86)">
			<stop  offset="0" style="stop-color:#D39A50"/>
			<stop  offset="1" style="stop-color:#FFFFFF"/>
		</linearGradient>
		<path id="path6115" style="fill-rule:evenodd;clip-rule:evenodd;fill:url(#path6115_1_);" d="M770.09,273.43l0.16,48.63
			l-1.83-1.22V274l1.67-0.61L770.09,273.43z"/>
		
			<linearGradient id="path6117_1_" gradientUnits="userSpaceOnUse" x1="1004.5383" y1="505.5546" x2="991.3184" y2="461.0246" gradientTransform="matrix(1 0 0 1 -256 -161.86)">
			<stop  offset="0" style="stop-color:#D39A50"/>
			<stop  offset="1" style="stop-color:#FFFFFF"/>
		</linearGradient>
		<path id="path6117" style="fill-rule:evenodd;clip-rule:evenodd;fill:url(#path6117_1_);" d="M768.2,320.83l2,1.14l-49.32,23.25
			v-2.44l47.34-21.95H768.2z"/>
		
			<linearGradient id="path6119_1_" gradientUnits="userSpaceOnUse" x1="988.9711" y1="427.1197" x2="1031.9812" y2="589.5697" gradientTransform="matrix(1 0 0 1 -256 -161.86)">
			<stop  offset="0" style="stop-color:#BDBABA"/>
			<stop  offset="0.03" style="stop-color:#C4C2C2"/>
			<stop  offset="0.12" style="stop-color:#DAD8D8"/>
			<stop  offset="0.23" style="stop-color:#EBEAEA"/>
			<stop  offset="0.37" style="stop-color:#F6F6F6"/>
			<stop  offset="0.55" style="stop-color:#FDFDFD"/>
			<stop  offset="1" style="stop-color:#FFFFFF"/>
		</linearGradient>
		<path id="path6119" style="fill-rule:evenodd;clip-rule:evenodd;fill:url(#path6119_1_);" d="M768.3,274.65l0.22,46.35
			l-47.87,21.77l0.22-46.56L768.3,274.65L768.3,274.65z"/>
		
			<linearGradient id="SVGID_1_" gradientUnits="userSpaceOnUse" x1="745.8261" y1="295.4595" x2="761.1361" y2="175.6095" gradientTransform="matrix(1 0 0 -1 0 646)">
			<stop  offset="0" style="stop-color:#D39A50"/>
			<stop  offset="1" style="stop-color:#FFFFFF"/>
		</linearGradient>
		<polygon style="fill-rule:evenodd;clip-rule:evenodd;fill:url(#SVGID_1_);" points="746.58,391.65 748.63,390.75 748.41,335.56 
			746.36,336.46 		"/>
		<g style="enable-background:new    ;">
			<path style="fill:#1C3B40;" d="M742.44,306.82c-0.04,0.58,0.12,0.95,0.46,1.13c0.35,0.17,0.9,0.29,1.65,0.35l1.44,0.25
				c1.13,0.29,1.64,1.17,1.53,2.66c-0.09,1.25-0.54,2.46-1.36,3.63c-0.82,1.17-1.84,2.05-3.06,2.65c-1.38,0.67-2.76,0.85-4.13,0.53
				l1.2-3.43c1.26,0.59,2.65,0.71,4.15,0.35c0.39-0.58,0.6-1.16,0.64-1.73c0.04-0.54-0.08-0.92-0.37-1.15
				c-0.28-0.23-0.96-0.39-2.04-0.5c-1.08-0.11-1.8-0.37-2.16-0.8c-0.36-0.43-0.51-1.06-0.46-1.88c0.09-1.31,0.6-2.56,1.53-3.75
				c0.92-1.19,2.02-2.1,3.28-2.71c1.16-0.56,2.16-0.76,3.02-0.61l0.02-0.01l-0.03,0.68c-0.08,1.08-0.29,2.19-0.63,3.34l-1.46,0.71
				l-0.17-2.26c-0.77,0.06-1.51,0.29-2.2,0.68C742.78,305.54,742.49,306.17,742.44,306.82z"/>
		</g>
		<polygon style="opacity:0.4;fill:#89A4A6;enable-background:new    ;" points="155.27,251.95 155.27,387.58 200.38,361.53 
			200.38,279.51 236.5,258.55 236.5,340.68 236.3,340.79 272.73,319.76 272.73,184.14 		"/>
		<polygon style="opacity:0.4;fill:#738A8C;enable-background:new    ;" points="390.18,251.95 390.18,387.58 345.07,361.53 
			345.07,279.51 308.95,258.55 308.95,340.68 309.15,340.79 272.73,319.76 272.73,184.14 		"/>
		<g style="opacity:0.4;">
			<polygon style="fill:#F2F2F2;" points="272.67,329.01 272.67,328.96 272.67,328.96 272.63,328.99 272.58,328.96 272.58,328.96 
				272.58,329.01 171.32,387.47 272.58,445.93 272.58,445.98 272.63,445.96 272.67,445.98 272.67,445.93 375.57,387.47 			"/>
		</g>
		
			<linearGradient id="path6107-4_1_" gradientUnits="userSpaceOnUse" x1="1121.3082" y1="500.471" x2="1136.8281" y2="379.001" gradientTransform="matrix(-1 0 0 1 1424.12 -161.86)">
			<stop  offset="0" style="stop-color:#D39A50"/>
			<stop  offset="1" style="stop-color:#FFFFFF"/>
		</linearGradient>
		<path id="path6107-4" style="fill-rule:evenodd;clip-rule:evenodd;fill:url(#path6107-4_1_);" d="M299.07,353.94l0.22-55.2
			l3.88-1.94L303,352L299.07,353.94z"/>
		
			<linearGradient id="path6107-5_1_" gradientUnits="userSpaceOnUse" x1="1150.2388" y1="542.2511" x2="1165.7588" y2="420.7811" gradientTransform="matrix(-1 0 0 1 1424.12 -161.86)">
			<stop  offset="0" style="stop-color:#D39A50"/>
			<stop  offset="1" style="stop-color:#FFFFFF"/>
		</linearGradient>
		<path id="path6107-5" style="fill-rule:evenodd;clip-rule:evenodd;fill:url(#path6107-5_1_);" d="M270.14,395.72l0.22-55.19
			l3.88-1.94L274,393.78L270.14,395.72z"/>
		
			<linearGradient id="path6107-6_1_" gradientUnits="userSpaceOnUse" x1="1152.2887" y1="541.3511" x2="1167.8087" y2="419.8911" gradientTransform="matrix(-1 0 0 1 1424.12 -161.86)">
			<stop  offset="0" style="stop-color:#D39A50"/>
			<stop  offset="1" style="stop-color:#FFFFFF"/>
		</linearGradient>
		<path id="path6107-6" style="fill-rule:evenodd;clip-rule:evenodd;fill:url(#path6107-6_1_);" d="M268.09,394.82l0.22-55.19
			l3.88-1.94L272,392.88L268.09,394.82z"/>
		
			<linearGradient id="path6109-2_1_" gradientUnits="userSpaceOnUse" x1="1172.5731" y1="467.8468" x2="1107.6432" y2="403.7068" gradientTransform="matrix(-1 0 0 1 1424.12 -161.86)">
			<stop  offset="0" style="stop-color:#D39A50"/>
			<stop  offset="1" style="stop-color:#FFFFFF"/>
		</linearGradient>
		<path id="path6109-2" style="fill-rule:evenodd;clip-rule:evenodd;fill:url(#path6109-2_1_);" d="M248.3,270.34l54.88,26.22l0,0
			l-4,2.13l-55.49-26.52"/>
		
			<linearGradient id="path6111-3_1_" gradientUnits="userSpaceOnUse" x1="1156.5541" y1="502.4364" x2="1140.524" y2="393.9664" gradientTransform="matrix(-1 0 0 1 1424.12 -161.86)">
			<stop  offset="0" style="stop-color:#D39A50"/>
			<stop  offset="1" style="stop-color:#FFFFFF"/>
		</linearGradient>
		<path id="path6111-3" style="fill-rule:evenodd;clip-rule:evenodd;fill:url(#path6111-3_1_);" d="M299.21,298.71L244,272.49V328
			l55.21,26V298.71z"/>
		<g id="use6113-2">
			
				<linearGradient id="path6111-4_1_" gradientUnits="userSpaceOnUse" x1="1289.5864" y1="559.98" x2="1273.5465" y2="451.52" gradientTransform="matrix(-0.89 0 0 0.88 1415.28 -155.32)">
				<stop  offset="0" style="stop-color:#D39A50"/>
				<stop  offset="1" style="stop-color:#FFFFFF"/>
			</linearGradient>
			<path id="path6111-4" style="fill-rule:evenodd;clip-rule:evenodd;fill:url(#path6111-4_1_);" d="M295.73,300.43l-49.13-23.09
				v48.88l49.13,23V300.43z"/>
		</g>
		
			<linearGradient id="path6115-2_1_" gradientUnits="userSpaceOnUse" x1="1182.338" y1="407.0308" x2="1171.6681" y2="515.4808" gradientTransform="matrix(-1 0 0 1 1424.12 -161.86)">
			<stop  offset="0" style="stop-color:#D39A50"/>
			<stop  offset="1" style="stop-color:#FFFFFF"/>
		</linearGradient>
		<path id="path6115-2" style="fill-rule:evenodd;clip-rule:evenodd;fill:url(#path6115-2_1_);" d="M246.63,277.5l1.67,0.61v46.8
			l-1.83,1.22L246.63,277.5L246.63,277.5z"/>
		
			<linearGradient id="path6117-2_1_" gradientUnits="userSpaceOnUse" x1="1155.9159" y1="509.6212" x2="1142.6958" y2="465.0912" gradientTransform="matrix(-1 0 0 1 1424.12 -161.86)">
			<stop  offset="0" style="stop-color:#D39A50"/>
			<stop  offset="1" style="stop-color:#FFFFFF"/>
		</linearGradient>
		<path id="path6117-2" style="fill-rule:evenodd;clip-rule:evenodd;fill:url(#path6117-2_1_);" d="M248.52,324.9l47.34,22v2.44
			L246.54,326l2-1.14L248.52,324.9z"/>
		
			<linearGradient id="path6119-2_1_" gradientUnits="userSpaceOnUse" x1="1140.3706" y1="431.1798" x2="1183.3806" y2="593.6398" gradientTransform="matrix(-1 0 0 1 1424.12 -161.86)">
			<stop  offset="0" style="stop-color:#BDBABA"/>
			<stop  offset="0.03" style="stop-color:#C4C2C2"/>
			<stop  offset="0.12" style="stop-color:#DAD8D8"/>
			<stop  offset="0.23" style="stop-color:#EBEAEA"/>
			<stop  offset="0.37" style="stop-color:#F6F6F6"/>
			<stop  offset="0.55" style="stop-color:#FDFDFD"/>
			<stop  offset="1" style="stop-color:#FFFFFF"/>
		</linearGradient>
		<path id="path6119-2" style="fill-rule:evenodd;clip-rule:evenodd;fill:url(#path6119-2_1_);" d="M248.42,278.71l47.43,21.56
			l0.22,46.57l-47.87-21.77L248.42,278.71L248.42,278.71z"/>
		
			<linearGradient id="SVGID_2_" gradientUnits="userSpaceOnUse" x1="897.2238" y1="291.4005" x2="912.5438" y2="171.5405" gradientTransform="matrix(-1 0 0 -1 1168.12 646)">
			<stop  offset="0" style="stop-color:#D39A50"/>
			<stop  offset="1" style="stop-color:#FFFFFF"/>
		</linearGradient>
		<polygon style="fill-rule:evenodd;clip-rule:evenodd;fill:url(#SVGID_2_);" points="270.14,395.72 268.09,394.82 268.31,339.63 
			270.36,340.53 		"/>
		<g style="enable-background:new    ;">
			<path style="fill:#1C3B40;" d="M273.08,307.78c0.03,1.67-0.17,3.25-0.58,4.75l-1.41-0.81l-0.35-3.43
				c-0.98,0.3-1.83,0.85-2.56,1.65v6.18c1.08,0.81,1.83,1.5,2.25,2.07l-0.09,1.34l-6.21-3.56l-0.09-1.03c0.46-0.04,1-0.02,1.6,0.08
				v-9.93l-1.62-0.96l-0.22-1.51c1,0.03,2.13,0.36,3.4,1l0.97,1.71v2.45l2.21-1.94c0.35,0.01,0.72,0.12,1.1,0.34
				C272.12,306.54,272.64,307.07,273.08,307.78z"/>
		</g>
		<polygon style="fill:#89A4A6;" points="272.73,319.77 272.73,455.39 317.84,429.35 317.84,347.32 353.96,326.37 353.96,408.49 
			353.76,408.61 390.18,387.58 390.18,251.96 		"/>
		
			<linearGradient id="path6107-7_1_" gradientUnits="userSpaceOnUse" x1="734.2738" y1="512.6605" x2="749.7938" y2="391.2005" gradientTransform="matrix(1 0 0 1 -256 -161.86)">
			<stop  offset="0" style="stop-color:#D39A50"/>
			<stop  offset="1" style="stop-color:#FFFFFF"/>
		</linearGradient>
		<path id="path6107-7" style="fill-rule:evenodd;clip-rule:evenodd;fill:url(#path6107-7_1_);" d="M478.13,364.19L477.92,309
			l3.88,1.94l0.21,55.19L478.13,364.19z"/>
		
			<linearGradient id="path6107-8_1_" gradientUnits="userSpaceOnUse" x1="763.2064" y1="554.4508" x2="778.7264" y2="432.9808" gradientTransform="matrix(1 0 0 1 -256 -161.86)">
			<stop  offset="0" style="stop-color:#D39A50"/>
			<stop  offset="1" style="stop-color:#FFFFFF"/>
		</linearGradient>
		<path id="path6107-8" style="fill-rule:evenodd;clip-rule:evenodd;fill:url(#path6107-8_1_);" d="M507.06,406l-0.21-55.19
			l3.88,1.94l0.21,55.19L507.06,406z"/>
		
			<linearGradient id="path6107-9_1_" gradientUnits="userSpaceOnUse" x1="765.257" y1="553.5509" x2="780.777" y2="432.0809" gradientTransform="matrix(1 0 0 1 -256 -161.86)">
			<stop  offset="0" style="stop-color:#D39A50"/>
			<stop  offset="1" style="stop-color:#FFFFFF"/>
		</linearGradient>
		<path id="path6107-9" style="fill-rule:evenodd;clip-rule:evenodd;fill:url(#path6107-9_1_);" d="M509.11,405.07l-0.21-55.19
			l3.88,1.94L513,407L509.11,405.07z"/>
		
			<linearGradient id="path6109-3_1_" gradientUnits="userSpaceOnUse" x1="785.5284" y1="480.0617" x2="720.5984" y2="415.9218" gradientTransform="matrix(1 0 0 1 -256 -161.86)">
			<stop  offset="0" style="stop-color:#D39A50"/>
			<stop  offset="1" style="stop-color:#FFFFFF"/>
		</linearGradient>
		<path id="path6109-3" style="fill-rule:evenodd;clip-rule:evenodd;fill:url(#path6109-3_1_);" d="M537.36,284.36l-55.49,26.53
			l-4-2.14l0,0l54.88-26.22"/>
		
			<linearGradient id="path6111-5_1_" gradientUnits="userSpaceOnUse" x1="769.4964" y1="514.6306" x2="753.4664" y2="406.1705" gradientTransform="matrix(1 0 0 1 -256 -161.86)">
			<stop  offset="0" style="stop-color:#D39A50"/>
			<stop  offset="1" style="stop-color:#FFFFFF"/>
		</linearGradient>
		<path id="path6111-5" style="fill-rule:evenodd;clip-rule:evenodd;fill:url(#path6111-5_1_);" d="M481.87,366.24l55.18-26.07
			v-55.49l-55.18,26.22V366.24z"/>
		<g id="use6113-3">
			
				<linearGradient id="path6111-6_1_" gradientUnits="userSpaceOnUse" x1="854.7189" y1="573.8569" x2="838.6889" y2="465.3868" gradientTransform="matrix(0.89 0 0 0.88 -247.16 -155.32)">
				<stop  offset="0" style="stop-color:#D39A50"/>
				<stop  offset="1" style="stop-color:#FFFFFF"/>
			</linearGradient>
			<path id="path6111-6" style="fill-rule:evenodd;clip-rule:evenodd;fill:url(#path6111-6_1_);" d="M485.36,361.38l49.12-23v-48.85
				l-49.12,23.1V361.38z"/>
		</g>
		
			<linearGradient id="path6115-3_1_" gradientUnits="userSpaceOnUse" x1="795.2991" y1="419.2199" x2="784.6292" y2="527.6699" gradientTransform="matrix(1 0 0 1 -256 -161.86)">
			<stop  offset="0" style="stop-color:#D39A50"/>
			<stop  offset="1" style="stop-color:#FFFFFF"/>
		</linearGradient>
		<path id="path6115-3" style="fill-rule:evenodd;clip-rule:evenodd;fill:url(#path6115-3_1_);" d="M534.46,289.7l0.15,48.63
			l-1.83-1.22v-46.8L534.46,289.7L534.46,289.7z"/>
		
			<linearGradient id="path6117-3_1_" gradientUnits="userSpaceOnUse" x1="768.8981" y1="521.8146" x2="755.6881" y2="477.2846" gradientTransform="matrix(1 0 0 1 -256 -161.86)">
			<stop  offset="0" style="stop-color:#D39A50"/>
			<stop  offset="1" style="stop-color:#FFFFFF"/>
		</linearGradient>
		<path id="path6117-3" style="fill-rule:evenodd;clip-rule:evenodd;fill:url(#path6117-3_1_);" d="M532.56,337.09l2,1.15
			l-49.31,23.25v-2.44l47.33-22L532.56,337.09z"/>
		
			<linearGradient id="path6119-3_1_" gradientUnits="userSpaceOnUse" x1="753.3309" y1="443.3824" x2="796.3408" y2="605.8325" gradientTransform="matrix(1 0 0 1 -256 -161.86)">
			<stop  offset="0" style="stop-color:#BDBABA"/>
			<stop  offset="0.03" style="stop-color:#C4C2C2"/>
			<stop  offset="0.12" style="stop-color:#DAD8D8"/>
			<stop  offset="0.23" style="stop-color:#EBEAEA"/>
			<stop  offset="0.37" style="stop-color:#F6F6F6"/>
			<stop  offset="0.55" style="stop-color:#FDFDFD"/>
			<stop  offset="1" style="stop-color:#FFFFFF"/>
		</linearGradient>
		<path id="path6119-3" style="fill-rule:evenodd;clip-rule:evenodd;fill:url(#path6119-3_1_);" d="M532.66,290.91l0.22,46.35
			L485,359l0.21-46.57l47.43-21.56L532.66,290.91z"/>
		
			<linearGradient id="SVGID_3_" gradientUnits="userSpaceOnUse" x1="510.191" y1="279.2001" x2="525.501" y2="159.3501" gradientTransform="matrix(1 0 0 -1 0 646)">
			<stop  offset="0" style="stop-color:#D39A50"/>
			<stop  offset="1" style="stop-color:#FFFFFF"/>
		</linearGradient>
		<polygon style="fill-rule:evenodd;clip-rule:evenodd;fill:url(#SVGID_3_);" points="510.94,407.91 512.99,407.01 512.78,351.82 
			510.73,352.72 		"/>
		<g style="enable-background:new    ;">
			<path style="fill:#1C3B40;" d="M508.28,330.51c0.41-0.2,1.08-0.7,2.02-1.51l0.2,1.24l-3.31,3.54c-0.6,0.33-1.15,0.34-1.65,0.03
				c-0.5-0.31-0.73-0.82-0.68-1.51l0.62-8.8l-1.47,0.74l-0.03-1.38c0.65-0.74,1.24-1.36,1.78-1.85l1.25-4.18l1.31-0.64l-0.07,3.52
				l3.15-1.54l0,1.01l-1.19,2.06l-2.09,1.02l-0.5,7.16c-0.04,0.54-0.01,0.89,0.09,1.06C507.78,330.65,507.98,330.66,508.28,330.51z"
				/>
		</g>
		<polygon style="fill:#738A8C;" points="507.64,319.77 507.64,455.39 462.52,429.35 462.52,347.32 426.4,326.37 426.4,408.49 
			426.61,408.61 390.18,387.58 390.18,251.96 		"/>
		<polygon style="fill:#8ABCC5;" points="390.13,396.83 390.13,396.77 390.13,396.77 390.08,396.8 390.04,396.77 390.04,396.77 
			390.04,396.83 288.78,455.29 390.04,513.75 390.04,513.8 390.08,513.77 390.13,513.8 390.13,513.75 493.03,455.29 		"/>
		<polygon style="fill:#8ABCC5;" points="507.58,464.62 507.58,464.57 507.58,464.57 507.54,464.6 507.49,464.57 507.49,464.57 
			507.49,464.62 406.24,523.08 507.49,581.54 507.49,581.6 507.54,581.57 507.58,581.6 507.58,581.54 610.48,523.08 		"/>
		<polygon style="opacity:0.9;fill:#89A4A6;enable-background:new    ;" points="507.64,319.77 507.64,455.39 552.75,429.35 
			552.75,347.32 588.87,326.37 588.87,408.49 588.67,408.61 625.09,387.58 625.09,251.96 		"/>
		
			<linearGradient id="path6107-10_1_" gradientUnits="userSpaceOnUse" x1="1003.8527" y1="564.2203" x2="1019.3727" y2="442.7503" gradientTransform="matrix(-1 0 0 1 1424.12 -161.86)">
			<stop  offset="0" style="stop-color:#D39A50"/>
			<stop  offset="1" style="stop-color:#FFFFFF"/>
		</linearGradient>
		<path id="path6107-10" style="fill-rule:evenodd;clip-rule:evenodd;fill:url(#path6107-10_1_);" d="M416.53,417.68l0.21-55.19
			l3.88-1.94l-0.21,55.19L416.53,417.68z"/>
		
			<linearGradient id="path6107-11_1_" gradientUnits="userSpaceOnUse" x1="1032.7826" y1="606.0003" x2="1048.3026" y2="484.5303" gradientTransform="matrix(-1 0 0 1 1424.12 -161.86)">
			<stop  offset="0" style="stop-color:#D39A50"/>
			<stop  offset="1" style="stop-color:#FFFFFF"/>
		</linearGradient>
		<path id="path6107-11" style="fill-rule:evenodd;clip-rule:evenodd;fill:url(#path6107-11_1_);" d="M387.6,459.46l0.21-55.19
			l3.88-1.94l-0.21,55.19L387.6,459.46z"/>
		
			<linearGradient id="path6107-12_1_" gradientUnits="userSpaceOnUse" x1="1034.8333" y1="605.1004" x2="1050.3533" y2="483.6304" gradientTransform="matrix(-1 0 0 1 1424.12 -161.86)">
			<stop  offset="0" style="stop-color:#D39A50"/>
			<stop  offset="1" style="stop-color:#FFFFFF"/>
		</linearGradient>
		<path id="path6107-12" style="fill-rule:evenodd;clip-rule:evenodd;fill:url(#path6107-12_1_);" d="M385.55,458.57l0.21-55.2
			l3.88-1.94l-0.21,55.2L385.55,458.57z"/>
		
			<linearGradient id="path6109-4_1_" gradientUnits="userSpaceOnUse" x1="1055.1298" y1="531.5901" x2="990.1898" y2="467.4501" gradientTransform="matrix(-1 0 0 1 1424.12 -161.86)">
			<stop  offset="0" style="stop-color:#D39A50"/>
			<stop  offset="1" style="stop-color:#FFFFFF"/>
		</linearGradient>
		<path id="path6109-4" style="fill-rule:evenodd;clip-rule:evenodd;fill:url(#path6109-4_1_);" d="M365.75,334.08l54.88,26.22l0,0
			l-4,2.14l-55.49-26.53"/>
		
			<linearGradient id="path6111-7_1_" gradientUnits="userSpaceOnUse" x1="1039.0789" y1="566.1802" x2="1023.0389" y2="457.7202" gradientTransform="matrix(-1 0 0 1 1424.12 -161.86)">
			<stop  offset="0" style="stop-color:#D39A50"/>
			<stop  offset="1" style="stop-color:#FFFFFF"/>
		</linearGradient>
		<path id="path6111-7" style="fill-rule:evenodd;clip-rule:evenodd;fill:url(#path6111-7_1_);" d="M416.67,362.45l-55.18-26.22
			v55.49l55.18,26.07V362.45z"/>
		<g id="use6113-4">
			
				<linearGradient id="path6111-8_1_" gradientUnits="userSpaceOnUse" x1="1157.6" y1="632.3555" x2="1141.5699" y2="523.8854" gradientTransform="matrix(-0.89 0 0 0.88 1415.28 -155.32)">
				<stop  offset="0" style="stop-color:#D39A50"/>
				<stop  offset="1" style="stop-color:#FFFFFF"/>
			</linearGradient>
			<path id="path6111-8" style="fill-rule:evenodd;clip-rule:evenodd;fill:url(#path6111-8_1_);" d="M413.18,364.18l-49.12-23.1V390
				l49.12,23V364.18z"/>
		</g>
		
			<linearGradient id="path6115-4_1_" gradientUnits="userSpaceOnUse" x1="1064.8785" y1="470.7708" x2="1054.2085" y2="579.2308" gradientTransform="matrix(-1 0 0 1 1424.12 -161.86)">
			<stop  offset="0" style="stop-color:#D39A50"/>
			<stop  offset="1" style="stop-color:#FFFFFF"/>
		</linearGradient>
		<path id="path6115-4" style="fill-rule:evenodd;clip-rule:evenodd;fill:url(#path6115-4_1_);" d="M364.08,341.25l1.68,0.61v46.8
			l-1.83,1.22L364.08,341.25L364.08,341.25z"/>
		
			<linearGradient id="path6117-4_1_" gradientUnits="userSpaceOnUse" x1="1038.4559" y1="573.3712" x2="1025.246" y2="528.8412" gradientTransform="matrix(-1 0 0 1 1424.12 -161.86)">
			<stop  offset="0" style="stop-color:#D39A50"/>
			<stop  offset="1" style="stop-color:#FFFFFF"/>
		</linearGradient>
		<path id="path6117-4" style="fill-rule:evenodd;clip-rule:evenodd;fill:url(#path6117-4_1_);" d="M366,388.65l47.33,22V413
			L364,389.79L366,388.65z"/>
		
			<linearGradient id="path6119-4_1_" gradientUnits="userSpaceOnUse" x1="1022.9243" y1="494.9262" x2="1065.9342" y2="657.3762" gradientTransform="matrix(-1 0 0 1 1424.12 -161.86)">
			<stop  offset="0" style="stop-color:#BDBABA"/>
			<stop  offset="0.03" style="stop-color:#C4C2C2"/>
			<stop  offset="0.12" style="stop-color:#DAD8D8"/>
			<stop  offset="0.23" style="stop-color:#EBEAEA"/>
			<stop  offset="0.37" style="stop-color:#F6F6F6"/>
			<stop  offset="0.55" style="stop-color:#FDFDFD"/>
			<stop  offset="1" style="stop-color:#FFFFFF"/>
		</linearGradient>
		<path id="path6119-4" style="fill-rule:evenodd;clip-rule:evenodd;fill:url(#path6119-4_1_);" d="M365.88,342.46L413.3,364
			l0.22,46.57l-47.86-21.78l0.21-46.35L365.88,342.46z"/>
		
			<linearGradient id="SVGID_4_" gradientUnits="userSpaceOnUse" x1="779.771" y1="227.6501" x2="795.0809" y2="107.8001" gradientTransform="matrix(-1 0 0 -1 1168.12 646)">
			<stop  offset="0" style="stop-color:#D39A50"/>
			<stop  offset="1" style="stop-color:#FFFFFF"/>
		</linearGradient>
		<polygon style="fill-rule:evenodd;clip-rule:evenodd;fill:url(#SVGID_4_);" points="387.6,459.46 385.55,458.56 385.76,403.37 
			387.81,404.27 		"/>
		<g style="enable-background:new    ;">
			<path style="fill:#1C3B40;" d="M387.24,383.39c-0.53-0.31-1.08-0.71-1.65-1.2v3.52c0.97,0.88,1.59,1.5,1.86,1.85l-0.09,1.34
				l-5.65-3.24l-0.09-1l1.43,0.1v-15.94l-1.58-0.93l-0.22-1.51c1.01,0.02,2.14,0.35,3.4,1v0.03l0.93,1.66v1.15l2.4-0.79l0.82,0.36
				c1.15,0.66,2.11,1.85,2.86,3.57c0.75,1.72,1.13,3.54,1.13,5.47c0,2.23-0.52,3.79-1.57,4.66
				C390.18,384.34,388.85,384.31,387.24,383.39z M387.65,371.84c-0.52-0.3-1.21-0.36-2.06-0.2v8.05c0.72,0.86,1.47,1.51,2.25,1.96
				l0.63,0.3c0.51-0.17,0.91-0.64,1.2-1.39c0.3-0.75,0.44-1.63,0.44-2.63c0-1.27-0.23-2.5-0.68-3.68
				C388.98,373.07,388.38,372.27,387.65,371.84z"/>
		</g>
		<polygon style="opacity:0.9;fill:#738A8C;enable-background:new    ;" points="742.55,319.77 742.55,455.39 697.43,429.35 
			697.43,347.32 661.31,326.37 661.31,408.49 661.51,408.61 625.09,387.58 625.09,251.96 		"/>
		<g style="opacity:0.4;">
			<polygon style="fill:#F2F2F2;" points="625.04,396.83 625.04,396.77 625.04,396.77 624.99,396.8 624.95,396.77 624.95,396.77 
				624.95,396.83 523.69,455.29 624.95,513.75 624.95,513.8 624.99,513.77 625.04,513.8 625.04,513.75 727.94,455.29 			"/>
		</g>
		
			<linearGradient id="path6107-13_1_" gradientUnits="userSpaceOnUse" x1="850.4127" y1="559.6104" x2="865.9327" y2="438.1404" gradientTransform="matrix(1 0 0 1 -256 -161.86)">
			<stop  offset="0" style="stop-color:#D39A50"/>
			<stop  offset="1" style="stop-color:#FFFFFF"/>
		</linearGradient>
		<path id="path6107-13" style="fill-rule:evenodd;clip-rule:evenodd;fill:url(#path6107-13_1_);" d="M594.27,411.13l-0.21-55.19
			l3.88,1.94l0.21,55.19L594.27,411.13z"/>
		
			<linearGradient id="path6107-14_1_" gradientUnits="userSpaceOnUse" x1="879.3433" y1="601.3904" x2="894.8633" y2="479.9204" gradientTransform="matrix(1 0 0 1 -256 -161.86)">
			<stop  offset="0" style="stop-color:#D39A50"/>
			<stop  offset="1" style="stop-color:#FFFFFF"/>
		</linearGradient>
		<path id="path6107-14" style="fill-rule:evenodd;clip-rule:evenodd;fill:url(#path6107-14_1_);" d="M623.2,452.92l-0.21-55.2
			l3.88,1.94l0.21,55.2L623.2,452.92z"/>
		
			<linearGradient id="path6107-15_1_" gradientUnits="userSpaceOnUse" x1="881.3546" y1="600.4855" x2="896.8745" y2="479.0155" gradientTransform="matrix(1 0 0 1 -256 -161.86)">
			<stop  offset="0" style="stop-color:#D39A50"/>
			<stop  offset="1" style="stop-color:#FFFFFF"/>
		</linearGradient>
		<path id="path6107-15" style="fill-rule:evenodd;clip-rule:evenodd;fill:url(#path6107-15_1_);" d="M625.25,452L625,396.83
			l3.88,1.94l0.21,55.19L625.25,452z"/>
		
			<linearGradient id="path6109-5_1_" gradientUnits="userSpaceOnUse" x1="901.6635" y1="527.0068" x2="836.7335" y2="462.8668" gradientTransform="matrix(1 0 0 1 -256 -161.86)">
			<stop  offset="0" style="stop-color:#D39A50"/>
			<stop  offset="1" style="stop-color:#FFFFFF"/>
		</linearGradient>
		<path id="path6109-5" style="fill-rule:evenodd;clip-rule:evenodd;fill:url(#path6109-5_1_);" d="M653.5,331.3L598,357.83l-4-2.13
			l0,0l54.88-26.22"/>
		
			<linearGradient id="path6111-9_1_" gradientUnits="userSpaceOnUse" x1="885.627" y1="561.5819" x2="869.5969" y2="453.1119" gradientTransform="matrix(1 0 0 1 -256 -161.86)">
			<stop  offset="0" style="stop-color:#D39A50"/>
			<stop  offset="1" style="stop-color:#FFFFFF"/>
		</linearGradient>
		<path id="path6111-9" style="fill-rule:evenodd;clip-rule:evenodd;fill:url(#path6111-9_1_);" d="M598,413.18l55.18-26.06v-55.49
			L598,357.85V413.18z"/>
		<g id="use6113-5">
			
				<linearGradient id="path6111-10_1_" gradientUnits="userSpaceOnUse" x1="985.2052" y1="627.1429" x2="969.1752" y2="518.673" gradientTransform="matrix(0.89 0 0 0.88 -247.16 -155.32)">
				<stop  offset="0" style="stop-color:#D39A50"/>
				<stop  offset="1" style="stop-color:#FFFFFF"/>
			</linearGradient>
			<path id="path6111-10" style="fill-rule:evenodd;clip-rule:evenodd;fill:url(#path6111-10_1_);" d="M601.5,408.32l49.12-23
				v-48.85l-49.12,23.1V408.32z"/>
		</g>
		
			<linearGradient id="path6115-5_1_" gradientUnits="userSpaceOnUse" x1="911.4385" y1="466.1599" x2="900.7686" y2="574.6199" gradientTransform="matrix(1 0 0 1 -256 -161.86)">
			<stop  offset="0" style="stop-color:#D39A50"/>
			<stop  offset="1" style="stop-color:#FFFFFF"/>
		</linearGradient>
		<path id="path6115-5" style="fill-rule:evenodd;clip-rule:evenodd;fill:url(#path6115-5_1_);" d="M650.6,336.64l0.15,48.63
			l-1.83-1.22v-46.8L650.6,336.64L650.6,336.64z"/>
		
			<linearGradient id="path6117-5_1_" gradientUnits="userSpaceOnUse" x1="885.0491" y1="568.7514" x2="871.8391" y2="524.2214" gradientTransform="matrix(1 0 0 1 -256 -161.86)">
			<stop  offset="0" style="stop-color:#D39A50"/>
			<stop  offset="1" style="stop-color:#FFFFFF"/>
		</linearGradient>
		<path id="path6117-5" style="fill-rule:evenodd;clip-rule:evenodd;fill:url(#path6117-5_1_);" d="M648.7,384l2,1.14l-49.31,23.25
			V406L648.7,384z"/>
		
			<linearGradient id="path6119-5_1_" gradientUnits="userSpaceOnUse" x1="869.4734" y1="490.3217" x2="912.4835" y2="652.7817" gradientTransform="matrix(1 0 0 1 -256 -161.86)">
			<stop  offset="0" style="stop-color:#BDBABA"/>
			<stop  offset="0.03" style="stop-color:#C4C2C2"/>
			<stop  offset="0.12" style="stop-color:#DAD8D8"/>
			<stop  offset="0.23" style="stop-color:#EBEAEA"/>
			<stop  offset="0.37" style="stop-color:#F6F6F6"/>
			<stop  offset="0.55" style="stop-color:#FDFDFD"/>
			<stop  offset="1" style="stop-color:#FFFFFF"/>
		</linearGradient>
		<path id="path6119-5" style="fill-rule:evenodd;clip-rule:evenodd;fill:url(#path6119-5_1_);" d="M648.8,337.85l0.22,46.36
			L601.16,406l0.21-46.57l47.43-21.56V337.85z"/>
		
			<linearGradient id="SVGID_5_" gradientUnits="userSpaceOnUse" x1="626.3299" y1="232.26" x2="641.6399" y2="112.4" gradientTransform="matrix(1 0 0 -1 0 646)">
			<stop  offset="0" style="stop-color:#D39A50"/>
			<stop  offset="1" style="stop-color:#FFFFFF"/>
		</linearGradient>
		<polygon style="fill-rule:evenodd;clip-rule:evenodd;fill:url(#SVGID_5_);" points="627.08,454.86 629.13,453.96 628.92,398.77 
			626.87,399.67 		"/>
		<g style="enable-background:new    ;">
			<path style="fill:#1C3B40;" d="M629.05,381.22c0.53-0.07,0.93-0.07,1.22-0.01l-0.19,1.43l-5.88,2.86l-0.02-0.91
				c0.6-0.68,1.34-1.38,2.24-2.09l0.38-5.49l-2.39,3.12c-1.46,0.73-2.63,0.64-3.52-0.27c-0.89-0.91-1.26-2.37-1.12-4.39
				c0.15-2.14,0.84-4.2,2.08-6.18c1.23-1.99,2.68-3.38,4.35-4.2c1.02-0.5,2.01-0.64,2.97-0.44l1.94-1.31l0.29,1.2l-1.29,1.72
				L629.05,381.22z M625.03,377.13c0.54-0.26,1.16-0.78,1.87-1.55l0.57-8.14c-0.7-0.24-1.48-0.14-2.37,0.29l-0.68,0.39
				c-1.07,1.64-1.68,3.51-1.83,5.6c-0.1,1.37,0.08,2.38,0.52,3.04S624.19,377.54,625.03,377.13z"/>
		</g>
		<polygon style="fill:#89A4A6;" points="390.18,387.57 390.18,523.19 435.29,497.15 435.29,415.12 471.41,394.16 471.41,476.29 
			471.21,476.41 507.64,455.38 507.64,319.75 		"/>
		<polygon style="fill:#738A8C;" points="625.09,387.57 625.09,523.19 579.98,497.15 579.98,415.12 543.86,394.16 543.86,476.29 
			544.06,476.41 507.64,455.38 507.64,319.75 		"/>
	</g>
</g>
</svg>
