<svg xmlns="http://www.w3.org/2000/svg" xmlns:xlink="http://www.w3.org/1999/xlink" viewBox="0 0 1031.36 644.23"><defs><style>.cls-1{fill:#a5c4c6;}.cls-2,.cls-40,.cls-5{fill:#89a4a6;}.cls-3,.cls-52,.cls-6{fill:#738a8c;}.cls-4{fill:#8abcc5;}.cls-5,.cls-6,.cls-7{opacity:0.4;}.cls-8{fill:#f2f2f2;}.cls-10,.cls-11,.cls-12,.cls-13,.cls-14,.cls-15,.cls-16,.cls-17,.cls-18,.cls-20,.cls-21,.cls-22,.cls-23,.cls-24,.cls-25,.cls-26,.cls-27,.cls-28,.cls-29,.cls-30,.cls-31,.cls-32,.cls-33,.cls-34,.cls-35,.cls-36,.cls-37,.cls-38,.cls-39,.cls-41,.cls-42,.cls-43,.cls-44,.cls-45,.cls-46,.cls-47,.cls-48,.cls-49,.cls-50,.cls-53,.cls-54,.cls-55,.cls-56,.cls-57,.cls-58,.cls-59,.cls-60,.cls-61,.cls-62,.cls-9{fill-rule:evenodd;}.cls-9{fill:url(#linear-gradient);}.cls-10{fill:url(#linear-gradient-2);}.cls-11{fill:url(#linear-gradient-3);}.cls-12{fill:url(#linear-gradient-4);}.cls-13{fill:url(#linear-gradient-5);}.cls-14{fill:url(#linear-gradient-6);}.cls-15{fill:url(#linear-gradient-7);}.cls-16{fill:url(#linear-gradient-8);}.cls-17{fill:url(#linear-gradient-9);}.cls-18{fill:url(#linear-gradient-10);}.cls-19,.cls-51{font-size:28.87px;fill:#1c3b40;font-family:Eczar-Medium, Eczar;font-weight:500;}.cls-19{letter-spacing:0em;}.cls-20{fill:url(#linear-gradient-11);}.cls-21{fill:url(#linear-gradient-12);}.cls-22{fill:url(#linear-gradient-13);}.cls-23{fill:url(#linear-gradient-14);}.cls-24{fill:url(#linear-gradient-15);}.cls-25{fill:url(#linear-gradient-16);}.cls-26{fill:url(#linear-gradient-17);}.cls-27{fill:url(#linear-gradient-18);}.cls-28{fill:url(#linear-gradient-19);}.cls-29{fill:url(#linear-gradient-20);}.cls-30{fill:url(#linear-gradient-21);}.cls-31{fill:url(#linear-gradient-22);}.cls-32{fill:url(#linear-gradient-23);}.cls-33{fill:url(#linear-gradient-24);}.cls-34{fill:url(#linear-gradient-25);}.cls-35{fill:url(#linear-gradient-26);}.cls-36{fill:url(#linear-gradient-27);}.cls-37{fill:url(#linear-gradient-28);}.cls-38{fill:url(#linear-gradient-29);}.cls-39{fill:url(#linear-gradient-30);}.cls-40,.cls-52{opacity:0.9;}.cls-41{fill:url(#linear-gradient-31);}.cls-42{fill:url(#linear-gradient-32);}.cls-43{fill:url(#linear-gradient-33);}.cls-44{fill:url(#linear-gradient-34);}.cls-45{fill:url(#linear-gradient-35);}.cls-46{fill:url(#linear-gradient-36);}.cls-47{fill:url(#linear-gradient-37);}.cls-48{fill:url(#linear-gradient-38);}.cls-49{fill:url(#linear-gradient-39);}.cls-50{fill:url(#linear-gradient-40);}.cls-51{letter-spacing:0em;}.cls-53{fill:url(#linear-gradient-41);}.cls-54{fill:url(#linear-gradient-42);}.cls-55{fill:url(#linear-gradient-43);}.cls-56{fill:url(#linear-gradient-44);}.cls-57{fill:url(#linear-gradient-45);}.cls-58{fill:url(#linear-gradient-46);}.cls-59{fill:url(#linear-gradient-47);}.cls-60{fill:url(#linear-gradient-48);}.cls-61{fill:url(#linear-gradient-49);}.cls-62{fill:url(#linear-gradient-50);}</style><linearGradient id="linear-gradient" x1="969.91" y1="271.6" x2="985.43" y2="393.06" gradientTransform="matrix(1, 0, 0, -1, -256, 606.14)" gradientUnits="userSpaceOnUse"><stop offset="0" stop-color="#d39a50"/><stop offset="1" stop-color="#fff"/></linearGradient><linearGradient id="linear-gradient-2" x1="998.84" y1="229.82" x2="1014.36" y2="351.28" xlink:href="#linear-gradient"/><linearGradient id="linear-gradient-3" x1="1000.89" y1="230.72" x2="1016.41" y2="352.18" xlink:href="#linear-gradient"/><linearGradient id="linear-gradient-4" x1="1021.18" y1="304.21" x2="956.24" y2="368.36" xlink:href="#linear-gradient"/><linearGradient id="linear-gradient-5" x1="1005.14" y1="269.63" x2="989.1" y2="378.1" xlink:href="#linear-gradient"/><linearGradient id="linear-gradient-6" x1="1098.69" y1="220.89" x2="1082.66" y2="329.36" gradientTransform="matrix(0.89, 0, 0, -0.88, -228.9, 527.84)" xlink:href="#linear-gradient"/><linearGradient id="linear-gradient-7" x1="1030.93" y1="365.04" x2="1020.26" y2="256.59" xlink:href="#linear-gradient"/><linearGradient id="linear-gradient-8" x1="1004.52" y1="262.44" x2="991.3" y2="306.97" xlink:href="#linear-gradient"/><linearGradient id="linear-gradient-9" x1="988.97" y1="340.88" x2="1031.98" y2="178.43" gradientTransform="matrix(1, 0, 0, -1, -256, 606.14)" gradientUnits="userSpaceOnUse"><stop offset="0" stop-color="#bdbaba"/><stop offset="0.03" stop-color="#c4c2c2"/><stop offset="0.12" stop-color="#dad8d8"/><stop offset="0.23" stop-color="#ebeaea"/><stop offset="0.37" stop-color="#f6f6f6"/><stop offset="0.55" stop-color="#fdfdfd"/><stop offset="1" stop-color="#fff"/></linearGradient><linearGradient id="linear-gradient-10" x1="745.83" y1="350.54" x2="761.14" y2="470.39" gradientTransform="matrix(1, 0, 0, 1, 0, 0)" xlink:href="#linear-gradient"/><linearGradient id="linear-gradient-11" x1="1453.3" y1="267.53" x2="1468.82" y2="389" gradientTransform="translate(1756.12 606.14) rotate(180)" xlink:href="#linear-gradient"/><linearGradient id="linear-gradient-12" x1="1482.23" y1="225.75" x2="1497.75" y2="347.22" gradientTransform="translate(1756.12 606.14) rotate(180)" xlink:href="#linear-gradient"/><linearGradient id="linear-gradient-13" x1="1484.28" y1="226.65" x2="1499.8" y2="348.11" gradientTransform="translate(1756.12 606.14) rotate(180)" xlink:href="#linear-gradient"/><linearGradient id="linear-gradient-14" x1="1504.57" y1="300.15" x2="1439.64" y2="364.29" gradientTransform="translate(1756.12 606.14) rotate(180)" xlink:href="#linear-gradient"/><linearGradient id="linear-gradient-15" x1="1488.53" y1="265.56" x2="1472.5" y2="374.03" gradientTransform="translate(1756.12 606.14) rotate(180)" xlink:href="#linear-gradient"/><linearGradient id="linear-gradient-16" x1="1641.71" y1="216.28" x2="1625.67" y2="324.74" gradientTransform="translate(1729.02 527.84) rotate(180) scale(0.89 0.88)" xlink:href="#linear-gradient"/><linearGradient id="linear-gradient-17" x1="1514.33" y1="360.97" x2="1503.66" y2="252.52" gradientTransform="translate(1756.12 606.14) rotate(180)" xlink:href="#linear-gradient"/><linearGradient id="linear-gradient-18" x1="1487.92" y1="258.38" x2="1474.7" y2="302.91" gradientTransform="translate(1756.12 606.14) rotate(180)" xlink:href="#linear-gradient"/><linearGradient id="linear-gradient-19" x1="1472.37" y1="336.82" x2="1515.38" y2="174.36" gradientTransform="translate(1756.12 606.14) rotate(180)" xlink:href="#linear-gradient-9"/><linearGradient id="linear-gradient-20" x1="1229.22" y1="354.6" x2="1244.54" y2="474.46" gradientTransform="matrix(-1, 0, 0, 1, 1500.12, 0)" xlink:href="#linear-gradient"/><linearGradient id="linear-gradient-21" x1="734.27" y1="255.34" x2="749.79" y2="376.8" xlink:href="#linear-gradient"/><linearGradient id="linear-gradient-22" x1="763.2" y1="213.55" x2="778.72" y2="335.02" xlink:href="#linear-gradient"/><linearGradient id="linear-gradient-23" x1="765.25" y1="214.45" x2="780.77" y2="335.92" xlink:href="#linear-gradient"/><linearGradient id="linear-gradient-24" x1="785.54" y1="287.95" x2="720.61" y2="352.09" xlink:href="#linear-gradient"/><linearGradient id="linear-gradient-25" x1="769.5" y1="253.37" x2="753.47" y2="361.83" xlink:href="#linear-gradient"/><linearGradient id="linear-gradient-26" x1="833.99" y1="202.43" x2="817.96" y2="310.9" gradientTransform="matrix(0.89, 0, 0, -0.88, -228.9, 527.84)" xlink:href="#linear-gradient"/><linearGradient id="linear-gradient-27" x1="795.3" y1="348.78" x2="784.63" y2="240.33" xlink:href="#linear-gradient"/><linearGradient id="linear-gradient-28" x1="768.88" y1="246.18" x2="755.67" y2="290.71" xlink:href="#linear-gradient"/><linearGradient id="linear-gradient-29" x1="753.34" y1="324.62" x2="796.35" y2="162.17" xlink:href="#linear-gradient-9"/><linearGradient id="linear-gradient-30" x1="510.19" y1="366.8" x2="525.5" y2="486.65" gradientTransform="matrix(1, 0, 0, 1, 0, 0)" xlink:href="#linear-gradient"/><linearGradient id="linear-gradient-31" x1="1335.85" y1="203.78" x2="1351.37" y2="325.25" gradientTransform="translate(1756.12 606.14) rotate(180)" xlink:href="#linear-gradient"/><linearGradient id="linear-gradient-32" x1="1364.78" y1="162" x2="1380.3" y2="283.47" gradientTransform="translate(1756.12 606.14) rotate(180)" xlink:href="#linear-gradient"/><linearGradient id="linear-gradient-33" x1="1366.83" y1="162.9" x2="1382.35" y2="284.37" gradientTransform="translate(1756.12 606.14) rotate(180)" xlink:href="#linear-gradient"/><linearGradient id="linear-gradient-34" x1="1387.12" y1="236.4" x2="1322.18" y2="300.54" gradientTransform="translate(1756.12 606.14) rotate(180)" xlink:href="#linear-gradient"/><linearGradient id="linear-gradient-35" x1="1371.08" y1="201.82" x2="1355.04" y2="310.28" gradientTransform="translate(1756.12 606.14) rotate(180)" xlink:href="#linear-gradient"/><linearGradient id="linear-gradient-36" x1="1509.76" y1="143.91" x2="1493.73" y2="252.38" gradientTransform="translate(1729.02 527.84) rotate(180) scale(0.89 0.88)" xlink:href="#linear-gradient"/><linearGradient id="linear-gradient-37" x1="1396.87" y1="297.23" x2="1386.2" y2="188.77" gradientTransform="translate(1756.12 606.14) rotate(180)" xlink:href="#linear-gradient"/><linearGradient id="linear-gradient-38" x1="1370.46" y1="194.63" x2="1357.25" y2="239.16" gradientTransform="translate(1756.12 606.14) rotate(180)" xlink:href="#linear-gradient"/><linearGradient id="linear-gradient-39" x1="1354.91" y1="273.07" x2="1397.92" y2="110.62" gradientTransform="translate(1756.12 606.14) rotate(180)" xlink:href="#linear-gradient-9"/><linearGradient id="linear-gradient-40" x1="1111.77" y1="418.35" x2="1127.08" y2="538.2" gradientTransform="matrix(-1, 0, 0, 1, 1500.12, 0)" xlink:href="#linear-gradient"/><linearGradient id="linear-gradient-41" x1="850.41" y1="208.39" x2="865.93" y2="329.86" xlink:href="#linear-gradient"/><linearGradient id="linear-gradient-42" x1="879.34" y1="166.61" x2="894.86" y2="288.08" xlink:href="#linear-gradient"/><linearGradient id="linear-gradient-43" x1="881.39" y1="167.51" x2="896.91" y2="288.98" xlink:href="#linear-gradient"/><linearGradient id="linear-gradient-44" x1="901.68" y1="241.01" x2="836.75" y2="305.15" xlink:href="#linear-gradient"/><linearGradient id="linear-gradient-45" x1="885.64" y1="206.42" x2="869.61" y2="314.89" xlink:href="#linear-gradient"/><linearGradient id="linear-gradient-46" x1="964.45" y1="149.14" x2="948.42" y2="257.61" gradientTransform="matrix(0.89, 0, 0, -0.88, -228.9, 527.84)" xlink:href="#linear-gradient"/><linearGradient id="linear-gradient-47" x1="911.44" y1="301.84" x2="900.77" y2="193.38" xlink:href="#linear-gradient"/><linearGradient id="linear-gradient-48" x1="885.02" y1="199.24" x2="871.81" y2="243.77" xlink:href="#linear-gradient"/><linearGradient id="linear-gradient-49" x1="869.48" y1="277.68" x2="912.49" y2="115.22" xlink:href="#linear-gradient-9"/><linearGradient id="linear-gradient-50" x1="626.33" y1="413.74" x2="641.64" y2="533.6" gradientTransform="matrix(1, 0, 0, 1, 0, 0)" xlink:href="#linear-gradient"/></defs><g id="Layer_2" data-name="Layer 2"><g id="Layer_1-2" data-name="Layer 1"><path class="cls-1" d="M1031.32,336.41c-.55-7.8-8.26-13.1-10.94-14.94-34.94-24-504-197.8-506.62-298.47-.13-4.81.72-12.83,7.43-23L8.24,296.15c-21.85,31.19,5.53,61.61,15.66,67.45L509.47,644v.28l.24-.14.24.14V644l512.61-291.23A17.18,17.18,0,0,0,1031.32,336.41Z"/><polygon class="cls-2" points="390.18 251.95 390.18 387.58 435.29 361.53 435.29 279.51 471.41 258.55 471.41 340.68 471.21 340.79 507.64 319.76 507.64 184.14 390.18 251.95"/><polygon class="cls-3" points="625.09 251.95 625.09 387.58 579.98 361.53 579.98 279.51 543.86 258.55 543.86 340.68 544.06 340.79 507.64 319.76 507.64 184.14 625.09 251.95"/><polygon class="cls-4" points="507.58 329.01 507.58 328.96 507.58 328.96 507.54 328.99 507.49 328.96 507.49 328.96 507.49 329.01 406.24 387.47 507.49 445.93 507.49 445.98 507.54 445.96 507.58 445.98 507.58 445.93 610.48 387.47 507.58 329.01"/><polygon class="cls-5" points="625.09 251.95 625.09 387.58 670.2 361.53 670.2 279.51 706.33 258.55 706.33 340.68 706.13 340.79 742.55 319.76 742.55 184.14 625.09 251.95"/><polygon class="cls-6" points="860 251.95 860 387.58 814.89 361.53 814.89 279.51 778.77 258.55 778.77 340.68 778.97 340.79 742.55 319.76 742.55 184.14 860 251.95"/><g class="cls-7"><polygon class="cls-8" points="742.49 329.01 742.49 328.96 742.49 328.96 742.45 328.99 742.4 328.96 742.4 328.96 742.4 329.01 641.15 387.47 742.4 445.93 742.4 445.98 742.45 445.96 742.49 445.98 742.49 445.93 845.39 387.47 742.49 329.01"/></g><path id="path6107" class="cls-9" d="M713.77,347.93l-.22-55.19,3.88,1.94.22,55.19Z"/><path id="path6107-2" data-name="path6107" class="cls-10" d="M742.7,389.71l-.22-55.19,3.88,1.94.22,55.19Z"/><path id="path6107-3" data-name="path6107" class="cls-11" d="M744.75,388.81l-.22-55.19,3.88,1.94.22,55.19Z"/><path id="path6109" class="cls-12" d="M773,268.1l-55.49,26.52-4-2.13h0l54.88-26.22"/><path id="path6111" class="cls-13" d="M717.51,350l55.18-26.07V268.42l-55.18,26.22Z"/><g id="use6113"><path id="path6111-2" data-name="path6111" class="cls-14" d="M721,345.11l49.13-23V273.27L721,296.37Z"/></g><path id="path6115" class="cls-15" d="M770.09,273.43l.16,48.63-1.83-1.22V274l1.67-.61Z"/><path id="path6117" class="cls-16" d="M768.2,320.83l2,1.14-49.32,23.25v-2.44l47.34-21.95Z"/><path id="path6119" class="cls-17" d="M768.3,274.65l.22,46.35-47.87,21.77.22-46.56,47.43-21.56Z"/><polygon class="cls-18" points="746.58 391.65 748.63 390.75 748.41 335.56 746.36 336.46 746.58 391.65"/><text class="cls-19" transform="matrix(0.78, -0.38, -0.07, 1, 738.42, 319.21)">s</text><polygon class="cls-5" points="155.27 251.95 155.27 387.58 200.38 361.53 200.38 279.51 236.5 258.55 236.5 340.68 236.3 340.79 272.73 319.76 272.73 184.14 155.27 251.95"/><polygon class="cls-6" points="390.18 251.95 390.18 387.58 345.07 361.53 345.07 279.51 308.95 258.55 308.95 340.68 309.15 340.79 272.73 319.76 272.73 184.14 390.18 251.95"/><g class="cls-7"><polygon class="cls-8" points="272.67 329.01 272.67 328.96 272.67 328.96 272.63 328.99 272.58 328.96 272.58 328.96 272.58 329.01 171.32 387.47 272.58 445.93 272.58 445.98 272.63 445.96 272.67 445.98 272.67 445.93 375.57 387.47 272.67 329.01"/></g><path id="path6107-4" data-name="path6107" class="cls-20" d="M299.07,353.94l.22-55.2,3.88-1.94L303,352Z"/><path id="path6107-5" data-name="path6107" class="cls-21" d="M270.14,395.72l.22-55.19,3.88-1.94L274,393.78Z"/><path id="path6107-6" data-name="path6107" class="cls-22" d="M268.09,394.82l.22-55.19,3.88-1.94L272,392.88Z"/><path id="path6109-2" data-name="path6109" class="cls-23" d="M248.3,270.34l54.88,26.22h0l-4,2.13-55.49-26.52"/><path id="path6111-3" data-name="path6111" class="cls-24" d="M299.21,298.71,244,272.49V328L299.21,354Z"/><g id="use6113-2" data-name="use6113"><path id="path6111-4" data-name="path6111" class="cls-25" d="M295.73,300.43,246.6,277.34v48.88l49.13,23Z"/></g><path id="path6115-2" data-name="path6115" class="cls-26" d="M246.63,277.5l1.67.61v46.8l-1.83,1.22.16-48.63Z"/><path id="path6117-2" data-name="path6117" class="cls-27" d="M248.52,324.9l47.34,22v2.44L246.54,326l2-1.14Z"/><path id="path6119-2" data-name="path6119" class="cls-28" d="M248.42,278.71l47.43,21.56.22,46.57L248.2,325.07l.22-46.36Z"/><polygon class="cls-29" points="270.14 395.72 268.09 394.82 268.31 339.63 270.36 340.53 270.14 395.72"/><text class="cls-19" transform="matrix(0.75, 0.43, 0, 1, 263.55, 315.63)">r</text><polygon class="cls-2" points="272.73 319.77 272.73 455.39 317.84 429.35 317.84 347.32 353.96 326.37 353.96 408.49 353.76 408.61 390.18 387.58 390.18 251.96 272.73 319.77"/><path id="path6107-7" data-name="path6107" class="cls-30" d="M478.13,364.19,477.92,309l3.88,1.94.21,55.19Z"/><path id="path6107-8" data-name="path6107" class="cls-31" d="M507.06,406l-.21-55.19,3.88,1.94.21,55.19Z"/><path id="path6107-9" data-name="path6107" class="cls-32" d="M509.11,405.07l-.21-55.19,3.88,1.94L513,407Z"/><path id="path6109-3" data-name="path6109" class="cls-33" d="M537.36,284.36l-55.49,26.53-4-2.14h0l54.88-26.22"/><path id="path6111-5" data-name="path6111" class="cls-34" d="M481.87,366.24l55.18-26.07V284.68L481.87,310.9Z"/><g id="use6113-3" data-name="use6113"><path id="path6111-6" data-name="path6111" class="cls-35" d="M485.36,361.38l49.12-23V289.53l-49.12,23.1Z"/></g><path id="path6115-3" data-name="path6115" class="cls-36" d="M534.46,289.7l.15,48.63-1.83-1.22v-46.8l1.68-.61Z"/><path id="path6117-3" data-name="path6117" class="cls-37" d="M532.56,337.09l2,1.15-49.31,23.25v-2.44l47.33-22Z"/><path id="path6119-3" data-name="path6119" class="cls-38" d="M532.66,290.91l.22,46.35L485,359l.21-46.57,47.43-21.56Z"/><polygon class="cls-39" points="510.94 407.91 512.99 407.01 512.78 351.82 510.73 352.72 510.94 407.91"/><text class="cls-19" transform="matrix(0.78, -0.38, -0.07, 1, 502.78, 335.48)">t</text><polygon class="cls-3" points="507.64 319.77 507.64 455.39 462.52 429.35 462.52 347.32 426.4 326.37 426.4 408.49 426.61 408.61 390.18 387.58 390.18 251.96 507.64 319.77"/><polygon class="cls-4" points="390.13 396.83 390.13 396.77 390.13 396.77 390.08 396.8 390.04 396.77 390.04 396.77 390.04 396.83 288.78 455.29 390.04 513.75 390.04 513.8 390.08 513.77 390.13 513.8 390.13 513.75 493.03 455.29 390.13 396.83"/><polygon class="cls-4" points="507.58 464.62 507.58 464.57 507.58 464.57 507.54 464.6 507.49 464.57 507.49 464.57 507.49 464.62 406.24 523.08 507.49 581.54 507.49 581.6 507.54 581.57 507.58 581.6 507.58 581.54 610.48 523.08 507.58 464.62"/><polygon class="cls-40" points="507.64 319.77 507.64 455.39 552.75 429.35 552.75 347.32 588.87 326.37 588.87 408.49 588.67 408.61 625.09 387.58 625.09 251.96 507.64 319.77"/><path id="path6107-10" data-name="path6107" class="cls-41" d="M416.53,417.68l.21-55.19,3.88-1.94-.21,55.19Z"/><path id="path6107-11" data-name="path6107" class="cls-42" d="M387.6,459.46l.21-55.19,3.88-1.94-.21,55.19Z"/><path id="path6107-12" data-name="path6107" class="cls-43" d="M385.55,458.57l.21-55.2,3.88-1.94-.21,55.2Z"/><path id="path6109-4" data-name="path6109" class="cls-44" d="M365.75,334.08l54.88,26.22h0l-4,2.14-55.49-26.53"/><path id="path6111-7" data-name="path6111" class="cls-45" d="M416.67,362.45l-55.18-26.22v55.49l55.18,26.07Z"/><g id="use6113-4" data-name="use6113"><path id="path6111-8" data-name="path6111" class="cls-46" d="M413.18,364.18l-49.12-23.1V390l49.12,23Z"/></g><path id="path6115-4" data-name="path6115" class="cls-47" d="M364.08,341.25l1.68.61v46.8l-1.83,1.22.15-48.63Z"/><path id="path6117-4" data-name="path6117" class="cls-48" d="M366,388.65l47.33,22V413L364,389.79l2-1.14Z"/><path id="path6119-4" data-name="path6119" class="cls-49" d="M365.88,342.46,413.3,364l.22,46.57-47.86-21.78.21-46.35Z"/><polygon class="cls-50" points="387.6 459.46 385.55 458.56 385.76 403.37 387.81 404.27 387.6 459.46"/><text class="cls-51" transform="matrix(0.75, 0.43, 0, 1, 381, 379.38)">p</text><polygon class="cls-52" points="742.55 319.77 742.55 455.39 697.43 429.35 697.43 347.32 661.31 326.37 661.31 408.49 661.51 408.61 625.09 387.58 625.09 251.96 742.55 319.77"/><g class="cls-7"><polygon class="cls-8" points="625.04 396.83 625.04 396.77 625.04 396.77 624.99 396.8 624.95 396.77 624.95 396.77 624.95 396.83 523.69 455.29 624.95 513.75 624.95 513.8 624.99 513.77 625.04 513.8 625.04 513.75 727.94 455.29 625.04 396.83"/></g><path id="path6107-13" data-name="path6107" class="cls-53" d="M594.27,411.13l-.21-55.19,3.88,1.94.21,55.19Z"/><path id="path6107-14" data-name="path6107" class="cls-54" d="M623.2,452.92l-.21-55.2,3.88,1.94.21,55.2Z"/><path id="path6107-15" data-name="path6107" class="cls-55" d="M625.25,452,625,396.83l3.88,1.94.21,55.19Z"/><path id="path6109-5" data-name="path6109" class="cls-56" d="M653.5,331.3,598,357.83l-4-2.13h0l54.88-26.22"/><path id="path6111-9" data-name="path6111" class="cls-57" d="M598,413.18l55.18-26.06V331.63L598,357.85Z"/><g id="use6113-5" data-name="use6113"><path id="path6111-10" data-name="path6111" class="cls-58" d="M601.5,408.32l49.12-23V336.47l-49.12,23.1Z"/></g><path id="path6115-5" data-name="path6115" class="cls-59" d="M650.6,336.64l.15,48.63-1.83-1.22v-46.8l1.68-.61Z"/><path id="path6117-5" data-name="path6117" class="cls-60" d="M648.7,384l2,1.14-49.31,23.25V406L648.7,384Z"/><path id="path6119-5" data-name="path6119" class="cls-61" d="M648.8,337.85l.22,46.36L601.16,406l.21-46.57,47.43-21.56Z"/><polygon class="cls-62" points="627.08 454.86 629.13 453.96 628.92 398.77 626.87 399.67 627.08 454.86"/><text class="cls-19" transform="matrix(0.78, -0.38, -0.07, 1, 618.92, 382.42)">q</text><polygon class="cls-2" points="390.18 387.57 390.18 523.19 435.29 497.15 435.29 415.12 471.41 394.16 471.41 476.29 471.21 476.41 507.64 455.38 507.64 319.75 390.18 387.57"/><polygon class="cls-3" points="625.09 387.57 625.09 523.19 579.98 497.15 579.98 415.12 543.86 394.16 543.86 476.29 544.06 476.41 507.64 455.38 507.64 319.75 625.09 387.57"/><path class="cls-4" d="M534.16,609.15c1,3.59-1.37,5.42-3.72,5.66s-5.08-1.08-4.78-4.8,1.22-6.91,3.56-7.15S533.22,605.81,534.16,609.15Z"/><path class="cls-4" d="M533.35,616.94a2.72,2.72,0,1,1-5.33.54c-.18-1.75,1-1.8,2.49-2S533.17,615.18,533.35,616.94Z"/><path class="cls-4" d="M521.58,637.35a4.49,4.49,0,0,1-.14-1.2c0-3.74.7-7,3-7.4s3.44,1.08,4.61,4.34"/><path class="cls-4" d="M518.36,591.17c.57,3.68-2,5.22-4.36,5.18s-4.92-1.66-4.18-5.32,2-6.72,4.38-6.69S517.82,587.74,518.36,591.17Z"/><path class="cls-4" d="M516.64,598.81a2.72,2.72,0,1,1-5.36-.09c0-1.76,1.23-1.67,2.71-1.64S516.67,597.05,516.64,598.81Z"/><path class="cls-4" d="M511,623.75c-1.26,3.51-4.25,3.62-6.3,2.46s-3.53-3.82-1.12-6.68,5-4.93,7-3.76S512.2,620.49,511,623.75Z"/><path class="cls-4" d="M505.85,629.63a2.72,2.72,0,1,1-4.66-2.65c.87-1.53,1.87-.88,3.16-.14S506.72,628.1,505.85,629.63Z"/></g></g></svg>