<svg id="NewGroup0-11" xmlns="http://www.w3.org/2000/svg" width="110" height="100" viewBox="-14 -15 100 100">
  <g id="Group_254" data-name="Group 254">
    <path id="Path_666" data-name="Path 666" d="M834.568,535.087h2.312v12.287h-2.312V535.087Zm5.538-3.334h2.312v15.62h-2.312v-15.62Zm5.511,6.076h2.312v9.544h-2.312v-9.544Zm5.538-3.979h2.312v13.523h-2.312V533.85Zm-35.6-4.436v20.3a3.419,3.419,0,0,0,3.415,3.414h11.211v.054a1.8,1.8,0,0,0,1.8,1.8h0l-6.721,11.641a1.005,1.005,0,1,0,1.747.995l7.313-12.636h5.619l7.313,12.636a1.006,1.006,0,1,0,1.748-.995l-6.721-11.641h0a1.8,1.8,0,0,0,1.8-1.8v-.054H855.3a3.419,3.419,0,0,0,3.415-3.414v-20.3A3.419,3.419,0,0,0,855.3,526H819.028a3.431,3.431,0,0,0-3.468,3.414Z" transform="translate(-790.449 -526)" fill="#202020"/>
    <path id="Path_667" data-name="Path 667" d="M827.884,544.342a9.652,9.652,0,1,0-9.652,9.652,9.661,9.661,0,0,0,9.652-9.652Z" transform="translate(-802.235 -511.327)" fill="#202020"/>
    <path id="Path_668" data-name="Path 668" d="M838.16,552.667a9.076,9.076,0,0,0-9.087-9.087h-3.145a2.3,2.3,0,0,1-.323,1.559l-1.21,2.1v.027a2.353,2.353,0,0,1-.349,1.21l1.425,5.054a3.786,3.786,0,0,1-.188,2.608l-3.092,6.721-3.092-6.721a3.64,3.64,0,0,1-.188-2.608l1.425-5.054a2.279,2.279,0,0,1-.349-1.21v-.027l-1.21-2.1a2.648,2.648,0,0,1-.323-1.559h-3.145a9.076,9.076,0,0,0-9.087,9.087v13.55h31.913v-13.55Z" transform="translate(-806.22 -496.316)" fill="#202020"/>
    <path id="Path_669" data-name="Path 669" d="M816.026,545.068a1.22,1.22,0,0,0-1.048-1.828h-2.5a1.212,1.212,0,0,0-1.049,1.828l1.264,2.178a2.3,2.3,0,0,0,.188.269.742.742,0,0,0-.081.349.974.974,0,0,0,.511.833l-1.64,5.78a2.535,2.535,0,0,0,.134,1.721l1.909,4.194,1.909-4.194a2.531,2.531,0,0,0,.134-1.721l-1.64-5.78a.942.942,0,0,0,.511-.833.745.745,0,0,0-.081-.349.967.967,0,0,0,.188-.269l1.291-2.178Z" transform="translate(-797.717 -496.89)" fill="#202020"/>
    <path id="Path_670" data-name="Path 670" d="M851.433,542.27a1.916,1.916,0,0,0-1.909,1.909,2.108,2.108,0,0,0,.188.833l-4.571,6.049-1.21-.78a1.912,1.912,0,0,0-3.791.35,2.356,2.356,0,0,0,.054.43l-4.221,4.866a1.732,1.732,0,0,0-.538-.081,1.887,1.887,0,0,0-.941.242l-2.581-1.855a1.923,1.923,0,0,0-3.818.054l-8.738,6.909a.995.995,0,0,0,.618,1.775,1.078,1.078,0,0,0,.618-.215l8.388-6.641a1.872,1.872,0,0,0,.995.3,1.793,1.793,0,0,0,1.049-.323l2.446,1.747a1.91,1.91,0,0,0,3.818-.081,1.31,1.31,0,0,0-.027-.323l4.275-4.947a2.647,2.647,0,0,0,.457.054,1.84,1.84,0,0,0,1.129-.376l1.64,1.076a.981.981,0,0,0,1.344-.242l5.216-6.936h.027a1.916,1.916,0,0,0,1.909-1.909,1.762,1.762,0,0,0-1.828-1.882Z" transform="translate(-784.677 -498.528)" fill="#202020"/>
  </g>
</svg>
