<?xml version="1.0" encoding="UTF-8" standalone="no"?>
<!-- Generator: Adobe Illustrator 25.0.0, SVG Export Plug-In . SVG Version: 6.00 Build 0)  -->

<svg
   xmlns:dc="http://purl.org/dc/elements/1.1/"
   xmlns:cc="http://creativecommons.org/ns#"
   xmlns:rdf="http://www.w3.org/1999/02/22-rdf-syntax-ns#"
   xmlns:svg="http://www.w3.org/2000/svg"
   xmlns="http://www.w3.org/2000/svg"
   xmlns:sodipodi="http://sodipodi.sourceforge.net/DTD/sodipodi-0.dtd"
   xmlns:inkscape="http://www.inkscape.org/namespaces/inkscape"
   version="1.1"
   id="Layer_1"
   x="0px"
   y="0px"
   viewBox="0 0 794.2 241.95"
   style="enable-background:new 0 0 794.2 241.95;"
   xml:space="preserve"
   sodipodi:docname="rl1.svg"
   inkscape:version="0.92.5 (2060ec1f9f, 2020-04-08)"><metadata
   id="metadata133"><rdf:RDF><cc:Work
       rdf:about=""><dc:format>image/svg+xml</dc:format><dc:type
         rdf:resource="http://purl.org/dc/dcmitype/StillImage" /></cc:Work></rdf:RDF></metadata><defs
   id="defs131">
	

		
		
		
		
		
		
		
		
		
		
		
		
		
		
		
		
		
		
		
		
		
		
		
		
		
		
		
		
		
		
		
		
		
		
		
		
		
		
		
		
		
		
		
		
		
		
		
		
		
		
		
		
		
		
		
		
		
			
		
		
		
		
		
	</defs><sodipodi:namedview
   pagecolor="#ffffff"
   bordercolor="#666666"
   borderopacity="1"
   objecttolerance="10"
   gridtolerance="10"
   guidetolerance="10"
   inkscape:pageopacity="0"
   inkscape:pageshadow="2"
   inkscape:window-width="2560"
   inkscape:window-height="1324"
   id="namedview129"
   showgrid="false"
   inkscape:zoom="2.4715794"
   inkscape:cx="308.47098"
   inkscape:cy="162.21336"
   inkscape:window-x="0"
   inkscape:window-y="27"
   inkscape:window-maximized="1"
   inkscape:current-layer="Layer_1" />
<g
   id="g1105"><path
     inkscape:connector-curvature="0"
     id="path2"
     d="m 431.36,65 6.76,-17.91 h 3.47 L 448.35,65 h -3.06 l -4.62,-12.85 -0.81,-2.58 h -0.08 l -0.81,2.53 -4.62,12.9 z m 3.61,-4.73 v -2.36 h 9.69 v 2.36 z" /><path
     inkscape:connector-curvature="0"
     id="path4"
     d="m 458.78,62.85 c 1.14,-0.07 2.27,0.25 3.2,0.91 0.76,0.6 1.19,1.54 1.14,2.51 0.02,0.89 -0.3,1.76 -0.9,2.43 -0.66,0.72 -1.5,1.26 -2.43,1.56 -1.13,0.38 -2.32,0.56 -3.51,0.54 -1.71,0.13 -3.42,-0.22 -4.94,-1 -0.96,-0.51 -1.57,-1.49 -1.6,-2.58 0,-0.71 0.27,-1.39 0.77,-1.9 0.73,-0.62 1.66,-0.95 2.62,-0.92 l -0.16,0.43 c -0.68,-0.12 -1.31,-0.43 -1.83,-0.88 -0.49,-0.47 -0.74,-1.13 -0.7,-1.81 -0.01,-0.77 0.32,-1.5 0.9,-2 0.71,-0.6 1.59,-0.96 2.52,-1 l 1.52,0.73 h -0.32 c -0.63,0.01 -1.25,0.21 -1.77,0.57 -0.3,0.25 -0.49,0.61 -0.51,1 -0.03,0.4 0.16,0.78 0.5,1 0.43,0.24 0.92,0.36 1.42,0.33 z m -2.61,-11.73 c 1.06,-0.02 2.12,0.17 3.11,0.57 0.8,0.33 1.5,0.89 2,1.6 0.96,1.47 0.96,3.36 0,4.83 -0.5,0.71 -1.2,1.27 -2,1.6 -0.99,0.4 -2.05,0.59 -3.11,0.57 -1.55,0.09 -3.08,-0.36 -4.33,-1.29 -0.99,-0.81 -1.55,-2.04 -1.51,-3.32 -0.02,-0.86 0.24,-1.71 0.74,-2.42 0.51,-0.71 1.2,-1.26 2,-1.6 0.98,-0.39 2.04,-0.58 3.1,-0.54 z m 0.11,17.51 c 0.83,0.02 1.66,-0.08 2.46,-0.29 0.53,-0.13 1.02,-0.38 1.43,-0.73 0.3,-0.25 0.47,-0.61 0.48,-1 0,-0.39 -0.18,-0.77 -0.5,-1 -0.55,-0.3 -1.18,-0.44 -1.81,-0.38 h -4.37 c -0.46,-0.02 -0.9,0.13 -1.27,0.4 -0.34,0.25 -0.54,0.65 -0.52,1.07 0.03,0.65 0.47,1.21 1.09,1.41 0.95,0.39 1.98,0.57 3.01,0.52 z m -0.11,-15.47 c -0.75,-0.03 -1.49,0.22 -2.08,0.69 -0.55,0.46 -0.85,1.15 -0.82,1.86 -0.03,0.72 0.27,1.41 0.82,1.87 1.23,0.95 2.95,0.95 4.18,0 0.55,-0.46 0.86,-1.15 0.83,-1.87 0.03,-0.72 -0.28,-1.41 -0.83,-1.86 -0.59,-0.48 -1.34,-0.72 -2.1,-0.69 z m 6.89,-4.62 0.47,2.28 h -0.17 -0.16 c -0.71,-0.05 -1.42,0.15 -2,0.56 -0.46,0.41 -0.72,1 -0.68,1.62 l -1.41,-0.66 c -0.01,-0.68 0.15,-1.34 0.46,-1.94 0.3,-0.59 0.77,-1.07 1.34,-1.4 0.59,-0.33 1.26,-0.5 1.94,-0.49 h 0.21 z" /><path
     inkscape:connector-curvature="0"
     id="path6"
     d="m 471.75,65.23 c -1.25,0.03 -2.48,-0.26 -3.58,-0.84 -1.02,-0.55 -1.86,-1.38 -2.41,-2.39 -1.13,-2.4 -1.13,-5.17 0,-7.57 0.54,-1.02 1.37,-1.87 2.38,-2.43 1.06,-0.57 2.25,-0.86 3.45,-0.84 1.17,-0.04 2.33,0.24 3.36,0.81 0.91,0.53 1.64,1.3 2.12,2.23 0.5,0.99 0.75,2.09 0.73,3.2 0,0.33 0,0.64 0,0.93 -0.02,0.25 -0.05,0.51 -0.09,0.76 h -10.93 v -2.27 h 9.64 l -1.44,0.43 c 0.07,-1.03 -0.26,-2.04 -0.92,-2.83 -0.66,-0.68 -1.58,-1.05 -2.53,-1 -0.7,-0.01 -1.4,0.18 -2,0.54 -0.6,0.38 -1.07,0.95 -1.33,1.61 -0.33,0.83 -0.49,1.72 -0.46,2.62 -0.03,0.88 0.14,1.76 0.48,2.58 0.29,0.66 0.77,1.22 1.39,1.6 0.64,0.38 1.38,0.57 2.12,0.55 0.76,0.04 1.52,-0.14 2.19,-0.52 0.55,-0.34 1,-0.82 1.3,-1.4 l 2.31,1.09 c -0.32,0.65 -0.76,1.23 -1.31,1.7 -0.59,0.49 -1.27,0.86 -2,1.09 -0.8,0.25 -1.63,0.37 -2.47,0.35 z" /><path
     inkscape:connector-curvature="0"
     id="path8"
     d="M 481.47,65 V 51.39 h 2.58 l 0.19,3.53 -0.38,-0.38 c 0.22,-0.72 0.6,-1.39 1.11,-1.94 0.47,-0.51 1.06,-0.9 1.71,-1.13 0.68,-0.23 1.39,-0.35 2.1,-0.35 0.89,-0.01 1.78,0.18 2.59,0.56 0.76,0.36 1.4,0.94 1.83,1.67 0.49,0.86 0.72,1.83 0.68,2.82 V 65 h -2.91 v -7.9 c 0.11,-1 -0.19,-2 -0.83,-2.78 -0.57,-0.52 -1.31,-0.79 -2.08,-0.77 -0.6,0 -1.19,0.15 -1.73,0.42 -0.59,0.3 -1.07,0.77 -1.4,1.34 -0.41,0.76 -0.6,1.61 -0.56,2.47 V 65 Z" /><path
     inkscape:connector-curvature="0"
     id="path10"
     d="m 506.74,51.39 v 2.28 h -10.18 v -2.28 z m -4.67,-4 v 13.5 c -0.05,0.54 0.15,1.08 0.53,1.47 0.4,0.32 0.91,0.49 1.42,0.46 0.44,0.01 0.87,-0.07 1.28,-0.23 0.36,-0.16 0.7,-0.38 1,-0.64 l 0.66,2.12 c -0.45,0.38 -0.98,0.67 -1.54,0.85 -0.64,0.21 -1.32,0.32 -2,0.31 -0.73,0.01 -1.46,-0.12 -2.14,-0.38 -0.63,-0.23 -1.16,-0.66 -1.52,-1.23 -0.4,-0.68 -0.6,-1.45 -0.57,-2.24 V 48.22 Z" /></g><rect
   x="350.29001"
   y="0.5"
   style="fill:none;stroke:#000000;stroke-miterlimit:10"
   width="232.99001"
   height="107.76"
   id="rect12" /><g
   id="g1118"><path
     inkscape:connector-curvature="0"
     id="path14"
     d="m 396.08,199.14 v -17.92 h 13 v 2.5 h -10.11 v 5.16 h 7.87 v 2.44 h -7.87 v 5.32 h 10.45 v 2.5 z" /><path
     inkscape:connector-curvature="0"
     id="path16"
     d="m 412.97,199.14 v -13.57 h 2.58 l 0.19,3.53 -0.38,-0.38 c 0.22,-0.72 0.59,-1.38 1.1,-1.94 0.47,-0.51 1.05,-0.9 1.71,-1.13 0.67,-0.24 1.38,-0.36 2.1,-0.35 0.9,-0.02 1.79,0.17 2.6,0.55 0.76,0.37 1.39,0.95 1.83,1.67 0.48,0.86 0.72,1.84 0.68,2.83 v 8.79 h -2.91 v -7.9 c 0.12,-1 -0.18,-2.01 -0.83,-2.78 -0.56,-0.52 -1.3,-0.8 -2.07,-0.78 -0.61,0 -1.2,0.15 -1.74,0.43 -0.59,0.3 -1.07,0.77 -1.4,1.34 -0.4,0.76 -0.59,1.61 -0.55,2.47 v 7.22 z" /><path
     inkscape:connector-curvature="0"
     id="path18"
     d="m 438.32,185.57 h 3 l -5.35,13.57 h -3.18 l -5.43,-13.57 h 3.18 l 3.85,11.05 z" /><path
     inkscape:connector-curvature="0"
     id="path20"
     d="m 445.3,183.29 c -0.53,0.04 -1.06,-0.13 -1.46,-0.48 -0.35,-0.36 -0.53,-0.84 -0.5,-1.34 -0.03,-0.49 0.15,-0.98 0.5,-1.33 0.41,-0.33 0.93,-0.5 1.46,-0.46 0.51,-0.04 1.02,0.13 1.42,0.46 0.35,0.35 0.54,0.83 0.5,1.33 0.04,0.5 -0.15,0.99 -0.5,1.34 -0.39,0.34 -0.9,0.51 -1.42,0.48 z m 1.43,2.28 v 13.57 h -2.9 v -13.57 z" /><path
     inkscape:connector-curvature="0"
     id="path22"
     d="m 451.27,199.14 v -13.57 h 2.47 l 0.23,2.43 c 0.31,-0.82 0.88,-1.52 1.61,-2 0.8,-0.48 1.72,-0.72 2.65,-0.69 0.27,0 0.55,0.02 0.82,0.06 0.23,0.04 0.46,0.11 0.67,0.21 l -0.4,2.55 c -0.22,-0.08 -0.44,-0.14 -0.67,-0.18 -0.33,-0.05 -0.67,-0.07 -1,-0.06 -0.58,0 -1.15,0.15 -1.65,0.44 -0.57,0.32 -1.03,0.78 -1.35,1.35 -0.38,0.7 -0.56,1.49 -0.53,2.28 v 7.19 z" /><path
     inkscape:connector-curvature="0"
     id="path24"
     d="m 468.04,185.3 c 1.22,-0.02 2.42,0.26 3.5,0.84 1.02,0.56 1.84,1.4 2.38,2.43 1.13,2.4 1.13,5.17 0,7.57 -0.54,1.03 -1.36,1.87 -2.38,2.43 -2.2,1.12 -4.8,1.12 -7,0 -1.01,-0.56 -1.85,-1.41 -2.39,-2.43 -1.16,-2.39 -1.16,-5.18 0,-7.57 0.55,-1.02 1.38,-1.87 2.39,-2.43 1.08,-0.58 2.28,-0.86 3.5,-0.84 z m 0,2.28 c -0.73,-0.02 -1.45,0.17 -2.07,0.55 -0.59,0.4 -1.05,0.96 -1.32,1.62 -0.33,0.83 -0.49,1.71 -0.46,2.6 -0.03,0.89 0.13,1.77 0.46,2.6 0.27,0.66 0.73,1.23 1.32,1.63 0.62,0.38 1.34,0.57 2.07,0.55 1.48,0.09 2.85,-0.79 3.37,-2.18 0.33,-0.83 0.49,-1.71 0.46,-2.6 0.03,-0.89 -0.13,-1.77 -0.46,-2.6 -0.26,-0.66 -0.72,-1.22 -1.3,-1.62 -0.62,-0.39 -1.34,-0.58 -2.07,-0.55 z" /><path
     inkscape:connector-curvature="0"
     id="path26"
     d="m 478.44,199.14 v -13.57 h 2.58 l 0.19,3.53 -0.38,-0.38 c 0.22,-0.72 0.59,-1.38 1.1,-1.94 0.47,-0.51 1.05,-0.9 1.71,-1.13 0.67,-0.24 1.38,-0.36 2.1,-0.35 0.89,-0.02 1.78,0.17 2.59,0.55 0.76,0.37 1.4,0.95 1.84,1.67 0.48,0.86 0.71,1.84 0.67,2.83 v 8.79 h -2.87 v -7.9 c 0.11,-1 -0.19,-2 -0.83,-2.78 -0.56,-0.53 -1.31,-0.81 -2.08,-0.78 -0.6,0.01 -1.19,0.15 -1.73,0.43 -0.59,0.3 -1.07,0.77 -1.4,1.34 -0.41,0.76 -0.6,1.61 -0.56,2.47 v 7.22 z" /><path
     inkscape:connector-curvature="0"
     id="path28"
     d="m 495.24,199.14 v -13.57 h 2.58 l 0.14,2.28 c 0.42,-0.82 1.07,-1.49 1.88,-1.93 0.77,-0.41 1.63,-0.62 2.51,-0.62 0.94,-0.01 1.87,0.22 2.7,0.66 0.83,0.44 1.48,1.15 1.86,2 0.28,-0.59 0.69,-1.1 1.2,-1.5 0.5,-0.39 1.07,-0.69 1.68,-0.88 0.59,-0.18 1.2,-0.28 1.82,-0.28 0.84,-0.01 1.68,0.18 2.44,0.54 0.76,0.36 1.4,0.93 1.85,1.65 0.5,0.87 0.74,1.86 0.7,2.86 v 8.79 h -2.9 v -8.33 c 0.09,-0.87 -0.2,-1.74 -0.79,-2.39 -0.54,-0.5 -1.26,-0.76 -2,-0.74 -0.61,0 -1.22,0.16 -1.75,0.47 -0.55,0.32 -1,0.8 -1.29,1.37 -0.34,0.7 -0.51,1.46 -0.49,2.24 v 7.38 h -2.9 v -8.33 c 0.09,-0.87 -0.2,-1.74 -0.79,-2.39 -0.54,-0.5 -1.26,-0.76 -2,-0.74 -1.25,0.02 -2.39,0.71 -3,1.8 -0.4,0.75 -0.59,1.59 -0.55,2.44 v 7.22 z" /><path
     inkscape:connector-curvature="0"
     id="path30"
     d="m 526.97,199.41 c -1.25,0.03 -2.48,-0.26 -3.58,-0.84 -1.02,-0.55 -1.86,-1.4 -2.4,-2.43 -1.15,-2.39 -1.15,-5.18 0,-7.57 0.54,-1.02 1.36,-1.87 2.37,-2.43 1.06,-0.57 2.25,-0.86 3.45,-0.84 1.18,-0.04 2.34,0.24 3.37,0.81 0.9,0.53 1.63,1.3 2.11,2.23 0.5,0.99 0.76,2.09 0.74,3.2 0,0.33 0,0.63 0,0.92 0,0.29 0,0.55 -0.08,0.76 H 521.97 V 191 h 9.64 l -1.44,0.43 c 0.07,-1.03 -0.26,-2.04 -0.92,-2.84 -0.66,-0.68 -1.58,-1.04 -2.52,-1 -0.71,-0.01 -1.4,0.18 -2,0.55 -0.6,0.39 -1.06,0.95 -1.33,1.61 -0.33,0.83 -0.49,1.72 -0.46,2.62 -0.03,0.89 0.14,1.77 0.49,2.58 0.28,0.66 0.76,1.22 1.38,1.6 0.64,0.37 1.38,0.56 2.12,0.54 0.77,0.03 1.53,-0.14 2.2,-0.51 0.56,-0.35 1.02,-0.85 1.33,-1.44 l 2.3,1.09 c -0.32,0.65 -0.76,1.22 -1.31,1.69 -0.58,0.5 -1.27,0.87 -2,1.1 -0.8,0.26 -1.64,0.39 -2.48,0.39 z" /><path
     inkscape:connector-curvature="0"
     id="path32"
     d="m 536.69,199.14 v -13.57 h 2.58 l 0.19,3.53 -0.38,-0.38 c 0.22,-0.72 0.59,-1.38 1.1,-1.94 0.47,-0.51 1.05,-0.9 1.71,-1.13 0.67,-0.24 1.38,-0.36 2.1,-0.35 0.89,-0.02 1.78,0.17 2.59,0.55 0.76,0.37 1.4,0.95 1.84,1.67 0.48,0.86 0.71,1.84 0.67,2.83 v 8.79 h -2.9 v -7.9 c 0.11,-1 -0.19,-2 -0.83,-2.78 -0.56,-0.53 -1.31,-0.81 -2.08,-0.78 -0.6,0.01 -1.19,0.15 -1.73,0.43 -0.59,0.3 -1.07,0.77 -1.4,1.34 -0.41,0.76 -0.6,1.61 -0.56,2.47 v 7.22 z" /><path
     inkscape:connector-curvature="0"
     id="path34"
     d="m 561.97,185.57 v 2.28 h -10.19 v -2.28 z m -4.67,-4 v 13.49 c -0.05,0.54 0.15,1.08 0.53,1.46 0.4,0.33 0.91,0.5 1.43,0.47 0.44,0.01 0.87,-0.07 1.27,-0.24 0.36,-0.16 0.7,-0.37 1,-0.63 l 0.65,2.11 c -0.45,0.39 -0.97,0.68 -1.54,0.86 -0.64,0.21 -1.32,0.32 -2,0.31 -0.73,0.01 -1.46,-0.12 -2.14,-0.38 -0.63,-0.22 -1.17,-0.65 -1.53,-1.22 -0.39,-0.68 -0.59,-1.45 -0.57,-2.24 v -13.17 z" /></g><rect
   x="350.29001"
   y="133.69"
   style="fill:none;stroke:#000000;stroke-miterlimit:10"
   width="232.99001"
   height="107.76"
   id="rect36" /><g
   id="g1126"><path
     inkscape:connector-curvature="0"
     id="path38"
     d="m 723.7,118.09 c 0.05,-0.77 -0.21,-1.52 -0.73,-2.09 -0.54,-0.51 -1.26,-0.78 -2,-0.75 -0.74,-0.02 -1.47,0.18 -2.09,0.57 -0.63,0.45 -1.08,1.1 -1.28,1.85 l -2.44,-1 c 0.33,-1.09 1.04,-2.04 2,-2.66 1.17,-0.71 2.53,-1.06 3.9,-1 0.98,-0.02 1.96,0.16 2.87,0.53 0.81,0.32 1.51,0.87 2,1.59 0.51,0.81 0.76,1.75 0.72,2.71 v 6 c -0.06,0.49 0.29,0.94 0.79,1 0.07,0.01 0.14,0.01 0.21,0 0.34,0 0.68,-0.04 1,-0.14 l -0.17,2 c -0.49,0.22 -1.03,0.32 -1.57,0.3 -0.54,0.01 -1.07,-0.1 -1.56,-0.31 -0.45,-0.2 -0.83,-0.53 -1.09,-0.95 -0.27,-0.48 -0.41,-1.03 -0.39,-1.59 V 124 h 0.6 c -0.14,0.67 -0.49,1.28 -1,1.75 -0.51,0.45 -1.11,0.8 -1.76,1 -0.65,0.21 -1.32,0.33 -2,0.33 -0.78,0.01 -1.56,-0.12 -2.29,-0.4 -0.64,-0.25 -1.2,-0.68 -1.6,-1.24 -0.41,-0.6 -0.61,-1.32 -0.59,-2.05 -0.03,-0.93 0.33,-1.84 1,-2.49 0.78,-0.72 1.76,-1.18 2.81,-1.33 l 5.27,-1 v 2 l -3.83,0.79 c -0.61,0.08 -1.19,0.3 -1.71,0.62 -0.38,0.28 -0.6,0.73 -0.57,1.2 -0.01,0.47 0.21,0.92 0.59,1.2 0.46,0.32 1,0.48 1.56,0.45 0.44,0 0.89,-0.05 1.32,-0.16 0.41,-0.11 0.8,-0.29 1.15,-0.53 0.34,-0.24 0.62,-0.57 0.8,-0.95 0.2,-0.44 0.29,-0.92 0.28,-1.4 z" /><path
     inkscape:connector-curvature="0"
     id="path40"
     d="m 737.17,113 c 0.95,-0.02 1.89,0.14 2.78,0.47 0.74,0.3 1.4,0.76 1.94,1.35 0.53,0.58 0.93,1.26 1.2,2 l -2.75,1.09 c -0.17,-0.74 -0.56,-1.41 -1.12,-1.92 -0.57,-0.45 -1.28,-0.69 -2,-0.66 -0.74,-0.02 -1.47,0.17 -2.1,0.55 -0.59,0.39 -1.05,0.96 -1.31,1.62 -0.32,0.83 -0.48,1.71 -0.45,2.6 -0.03,0.88 0.13,1.76 0.46,2.58 0.27,0.66 0.73,1.22 1.33,1.6 0.62,0.38 1.34,0.57 2.07,0.55 0.55,0.01 1.1,-0.1 1.6,-0.32 0.44,-0.2 0.83,-0.5 1.12,-0.89 0.32,-0.42 0.53,-0.91 0.61,-1.43 l 2.64,0.9 c -0.24,0.78 -0.65,1.51 -1.18,2.13 -0.55,0.62 -1.23,1.1 -2,1.41 -0.87,0.35 -1.8,0.52 -2.74,0.5 -1.24,0.02 -2.46,-0.26 -3.56,-0.84 -1.02,-0.55 -1.86,-1.4 -2.4,-2.43 -1.13,-2.4 -1.13,-5.17 0,-7.57 0.54,-1.03 1.37,-1.87 2.39,-2.43 1.07,-0.58 2.26,-0.87 3.47,-0.86 z" /><path
     inkscape:connector-curvature="0"
     id="path42"
     d="m 755.19,113.23 v 2.28 h -10.22 v -2.28 z m -4.67,-4 v 13.49 c -0.05,0.54 0.15,1.08 0.53,1.47 0.4,0.32 0.91,0.49 1.43,0.46 0.43,0.01 0.87,-0.07 1.27,-0.23 0.36,-0.16 0.7,-0.38 1,-0.64 l 0.65,2.12 c -0.45,0.38 -0.97,0.66 -1.53,0.85 -0.65,0.21 -1.32,0.32 -2,0.31 -0.73,0.01 -1.46,-0.12 -2.14,-0.38 -0.63,-0.23 -1.16,-0.66 -1.52,-1.23 -0.39,-0.68 -0.59,-1.46 -0.57,-2.24 v -13.16 z" /><path
     inkscape:connector-curvature="0"
     id="path44"
     d="m 759.53,111 c -0.53,0.03 -1.04,-0.13 -1.45,-0.47 -0.35,-0.36 -0.53,-0.85 -0.5,-1.35 -0.03,-0.49 0.15,-0.98 0.5,-1.33 0.41,-0.33 0.93,-0.5 1.45,-0.46 0.52,-0.04 1.03,0.13 1.43,0.46 0.35,0.35 0.53,0.84 0.5,1.33 0.03,0.5 -0.15,0.99 -0.5,1.35 -0.4,0.34 -0.91,0.51 -1.43,0.47 z m 1.44,2.28 v 13.52 h -2.9 v -13.57 z" /><path
     inkscape:connector-curvature="0"
     id="path46"
     d="m 771.4,113 c 1.22,-0.02 2.42,0.27 3.5,0.84 1.01,0.56 1.83,1.41 2.37,2.43 1.15,2.39 1.15,5.18 0,7.57 -0.54,1.02 -1.36,1.87 -2.37,2.43 -2.2,1.12 -4.8,1.12 -7,0 -1.01,-0.56 -1.84,-1.41 -2.38,-2.43 -1.16,-2.39 -1.16,-5.18 0,-7.57 0.54,-1.02 1.37,-1.87 2.38,-2.43 1.08,-0.57 2.28,-0.86 3.5,-0.84 z m 0,2.28 c -0.73,-0.02 -1.46,0.17 -2.08,0.56 -0.59,0.39 -1.05,0.95 -1.32,1.61 -0.61,1.68 -0.61,3.52 0,5.2 0.27,0.66 0.73,1.23 1.32,1.63 0.62,0.38 1.35,0.57 2.08,0.55 1.48,0.09 2.84,-0.79 3.36,-2.18 0.61,-1.68 0.61,-3.52 0,-5.2 -0.27,-0.65 -0.72,-1.21 -1.3,-1.61 -0.61,-0.4 -1.33,-0.61 -2.06,-0.6 z" /><path
     inkscape:connector-curvature="0"
     id="path48"
     d="m 781.79,126.8 v -13.57 h 2.58 l 0.19,3.53 -0.38,-0.38 c 0.22,-0.72 0.59,-1.38 1.1,-1.94 0.47,-0.51 1.06,-0.9 1.71,-1.13 0.68,-0.23 1.39,-0.35 2.1,-0.35 0.9,-0.01 1.79,0.18 2.6,0.56 0.76,0.36 1.4,0.94 1.83,1.67 0.48,0.86 0.72,1.84 0.68,2.82 v 8.79 h -2.91 v -7.9 c 0.11,-1 -0.19,-2 -0.82,-2.78 -0.57,-0.51 -1.31,-0.79 -2.08,-0.77 -0.6,0 -1.2,0.15 -1.74,0.42 -0.59,0.3 -1.07,0.77 -1.4,1.34 -0.4,0.76 -0.59,1.61 -0.55,2.47 v 7.22 z" /></g><path
   d="m 712.66,159.38 10.91,-17.92 h 2.69 l 2.6,17.92 h -2.14 l -1.88,-12.87 -0.38,-2.71 -1.57,2.6 -7.79,13 z m 4.53,-5.13 0.46,-2 h 9.39 l -0.46,2 z"
   id="path50"
   inkscape:connector-curvature="0" /><path
   d="m 732.09,161.59 0.25,-1.09 h 5.32 l -0.25,1.09 z m 2.69,6.95 c -0.45,0.01 -0.9,-0.09 -1.3,-0.3 -0.35,-0.19 -0.62,-0.5 -0.76,-0.87 -0.13,-0.44 -0.13,-0.92 0,-1.36 l 1.67,-7.25 1.37,-0.39 -1.8,7.7 c -0.12,0.34 -0.04,0.73 0.2,1 0.25,0.21 0.56,0.32 0.89,0.31 0.24,0 0.47,-0.03 0.7,-0.11 0.19,-0.07 0.36,-0.17 0.52,-0.29 l 0.25,1 c -0.24,0.17 -0.51,0.29 -0.8,0.37 -0.3,0.1 -0.62,0.17 -0.94,0.19 z"
   id="path52"
   inkscape:connector-curvature="0" /><g
   id="g1098"><path
     inkscape:connector-curvature="0"
     id="path54"
     d="M 144.8,107.34 V 93.77 h 2.47 l 0.27,2.44 c 0.32,-0.82 0.88,-1.52 1.61,-2 0.8,-0.48 1.72,-0.72 2.65,-0.69 0.27,0 0.55,0.02 0.82,0.06 0.23,0.04 0.46,0.11 0.67,0.21 l -0.4,2.55 c -0.22,-0.08 -0.44,-0.14 -0.67,-0.18 -0.33,-0.05 -0.67,-0.07 -1,-0.06 -0.58,0 -1.15,0.15 -1.65,0.44 -0.56,0.32 -1.03,0.79 -1.35,1.35 -0.38,0.7 -0.56,1.49 -0.53,2.28 v 7.19 z" /><path
     inkscape:connector-curvature="0"
     id="path56"
     d="m 161.65,107.61 c -1.24,0.03 -2.48,-0.26 -3.58,-0.84 -1.02,-0.55 -1.86,-1.4 -2.4,-2.43 -1.15,-2.39 -1.15,-5.18 0,-7.57 0.54,-1.02 1.36,-1.87 2.37,-2.43 1.06,-0.57 2.25,-0.86 3.45,-0.84 1.18,-0.04 2.34,0.24 3.37,0.81 0.9,0.52 1.64,1.3 2.11,2.23 0.5,0.99 0.76,2.09 0.74,3.2 0,0.33 0,0.63 0,0.92 -0.01,0.25 -0.04,0.51 -0.08,0.76 H 156.69 V 99.2 h 9.63 l -1.43,0.43 c 0.07,-1.03 -0.26,-2.04 -0.92,-2.83 -0.65,-0.69 -1.57,-1.05 -2.52,-1 -0.7,-0.01 -1.4,0.18 -2,0.55 -0.62,0.39 -1.11,0.97 -1.38,1.65 -0.33,0.83 -0.49,1.72 -0.46,2.62 -0.03,0.89 0.14,1.77 0.49,2.58 0.28,0.66 0.77,1.22 1.38,1.6 0.64,0.37 1.38,0.56 2.12,0.54 0.77,0.03 1.53,-0.14 2.2,-0.51 0.57,-0.35 1.03,-0.85 1.33,-1.44 l 2.31,1.09 c -0.33,0.64 -0.77,1.22 -1.32,1.69 -0.58,0.5 -1.27,0.87 -2,1.1 -0.8,0.25 -1.63,0.36 -2.47,0.34 z" /><path
     inkscape:connector-curvature="0"
     id="path58"
     d="m 188.28,93.77 h 3.15 l -4.56,13.57 h -3.17 l -3.42,-10.07 -3.23,10.07 h -3.18 l -4.53,-13.57 h 3.12 l 3.09,10.72 3.42,-10.72 h 2.9 l 3.37,10.72 z" /><path
     inkscape:connector-curvature="0"
     id="path60"
     d="m 201.8,98.63 c 0.05,-0.78 -0.22,-1.54 -0.75,-2.11 -0.54,-0.5 -1.26,-0.77 -2,-0.74 -0.74,-0.02 -1.47,0.18 -2.09,0.57 -0.63,0.44 -1.08,1.1 -1.28,1.84 l -2.44,-1 c 0.33,-1.1 1.04,-2.04 2,-2.66 1.17,-0.71 2.52,-1.06 3.89,-1 0.97,-0.04 1.93,0.12 2.84,0.47 0.81,0.32 1.5,0.87 2,1.58 0.51,0.81 0.76,1.76 0.72,2.72 v 6 c -0.07,0.49 0.28,0.93 0.76,1 0.08,0.01 0.16,0.01 0.24,0 0.32,0 0.64,-0.05 0.95,-0.14 l -0.16,2 c -0.49,0.22 -1.03,0.32 -1.57,0.3 -0.54,0 -1.07,-0.1 -1.57,-0.31 -0.45,-0.21 -0.83,-0.56 -1.08,-1 -0.27,-0.48 -0.41,-1.03 -0.39,-1.59 v -0.19 h 0.59 c -0.14,0.67 -0.49,1.28 -1,1.75 -0.51,0.45 -1.12,0.79 -1.77,1 -0.64,0.22 -1.32,0.34 -2,0.34 -0.79,0.02 -1.57,-0.12 -2.3,-0.41 -0.64,-0.25 -1.2,-0.67 -1.6,-1.23 -0.39,-0.59 -0.6,-1.29 -0.58,-2 -0.03,-0.94 0.33,-1.84 1,-2.5 0.79,-0.71 1.76,-1.17 2.81,-1.33 l 5.27,-1 v 2 l -3.83,0.78 c -0.61,0.09 -1.19,0.31 -1.71,0.63 -0.38,0.27 -0.6,0.72 -0.57,1.19 -0.01,0.47 0.2,0.92 0.58,1.21 0.46,0.32 1.01,0.48 1.57,0.45 0.44,0 0.88,-0.06 1.31,-0.16 0.42,-0.11 0.81,-0.29 1.16,-0.53 0.35,-0.26 0.62,-0.6 0.8,-1 0.2,-0.44 0.29,-0.92 0.28,-1.4 z" /><path
     inkscape:connector-curvature="0"
     id="path62"
     d="M 209.43,107.34 V 93.77 h 2.47 l 0.27,2.44 c 0.32,-0.82 0.88,-1.52 1.61,-2 0.8,-0.48 1.72,-0.72 2.65,-0.69 0.27,0 0.55,0.02 0.82,0.06 0.23,0.04 0.46,0.11 0.67,0.21 l -0.4,2.55 c -0.22,-0.08 -0.44,-0.14 -0.67,-0.18 -0.33,-0.05 -0.67,-0.07 -1,-0.06 -0.58,0 -1.15,0.15 -1.65,0.44 -0.56,0.32 -1.03,0.79 -1.35,1.35 -0.38,0.7 -0.56,1.49 -0.53,2.28 v 7.19 z" /><path
     inkscape:connector-curvature="0"
     id="path64"
     d="m 225.52,107.61 c -1.08,0.01 -2.13,-0.28 -3.05,-0.84 -0.93,-0.59 -1.68,-1.43 -2.16,-2.42 -0.55,-1.18 -0.82,-2.47 -0.78,-3.77 -0.04,-1.33 0.25,-2.66 0.84,-3.85 1.02,-2 3.09,-3.26 5.34,-3.23 2.13,-0.08 4.03,1.35 4.54,3.42 l -0.33,0.3 v -9.56 h 2.91 v 19.68 h -2.58 l -0.22,-3.69 h 0.38 c -0.11,0.77 -0.42,1.49 -0.9,2.1 -0.47,0.59 -1.07,1.05 -1.75,1.36 -0.7,0.32 -1.47,0.5 -2.24,0.5 z m 0.63,-2.33 c 0.71,0.02 1.41,-0.19 2,-0.6 0.58,-0.43 1.03,-1.01 1.3,-1.68 0.33,-0.83 0.48,-1.72 0.46,-2.61 0.02,-0.83 -0.13,-1.66 -0.46,-2.43 -0.27,-0.63 -0.72,-1.17 -1.29,-1.56 -1.55,-0.93 -3.54,-0.63 -4.74,0.71 -0.72,1 -1.07,2.21 -1,3.44 -0.06,1.24 0.29,2.46 1,3.47 0.65,0.84 1.67,1.31 2.73,1.26 z" /></g><path
   d="M 143.82,139.91 147.97,122 h 5.87 c 1.4,-0.07 2.77,0.39 3.84,1.29 0.97,0.92 1.49,2.23 1.42,3.57 0.02,0.95 -0.22,1.88 -0.69,2.71 -0.44,0.78 -1.07,1.45 -1.82,1.94 -0.73,0.5 -1.56,0.84 -2.43,1 l -1.35,0.19 h -5.57 l 0.46,-2 h 4.89 c 0.83,0.03 1.65,-0.15 2.39,-0.53 0.6,-0.32 1.09,-0.81 1.41,-1.41 0.31,-0.6 0.47,-1.27 0.46,-1.94 0.03,-0.78 -0.31,-1.52 -0.92,-2 -0.75,-0.5 -1.63,-0.75 -2.53,-0.7 h -3.72 l -3.71,15.79 z m 11.46,0 -3.07,-7.62 2.2,-0.28 3.23,7.9 z"
   id="path66"
   inkscape:connector-curvature="0" /><path
   d="m 160.86,142.13 0.26,-1.09 h 5.31 l -0.25,1.09 z m 2.69,7 c -0.45,0.01 -0.89,-0.09 -1.29,-0.3 -0.35,-0.19 -0.62,-0.5 -0.76,-0.87 -0.15,-0.44 -0.17,-0.91 -0.05,-1.36 l 1.66,-7.25 1.38,-0.4 -1.81,7.71 c -0.12,0.34 -0.04,0.73 0.2,1 0.25,0.21 0.57,0.32 0.9,0.31 0.44,0.01 0.87,-0.13 1.22,-0.4 l 0.25,1 c -0.25,0.17 -0.52,0.3 -0.81,0.38 -0.29,0.08 -0.59,0.12 -0.89,0.13 z"
   id="path68"
   inkscape:connector-curvature="0" /><g
   id="g1090"><path
     inkscape:connector-curvature="0"
     id="path70"
     d="m 6.38,109.08 c -1.28,0.01 -2.55,-0.26 -3.72,-0.79 -1.08,-0.48 -2.01,-1.25 -2.69,-2.23 l 2,-1.74 c 0.39,0.74 0.99,1.36 1.72,1.78 0.82,0.47 1.76,0.7 2.7,0.67 0.69,0.03 1.38,-0.12 2,-0.44 0.67,-0.37 0.93,-1.21 0.56,-1.88 -0.05,-0.09 -0.1,-0.17 -0.17,-0.25 -0.36,-0.32 -0.81,-0.54 -1.29,-0.61 L 4.67,103 c -1.15,-0.14 -2.22,-0.62 -3.09,-1.39 -0.63,-0.66 -0.96,-1.55 -0.93,-2.46 0,-0.74 0.23,-1.46 0.65,-2.06 0.49,-0.68 1.15,-1.21 1.92,-1.54 0.95,-0.41 1.97,-0.61 3,-0.58 1.2,-0.03 2.39,0.21 3.48,0.72 0.92,0.43 1.68,1.13 2.2,2 l -2,1.68 C 9.58,98.7 9.05,98.15 8.39,97.8 7.75,97.45 7.03,97.27 6.3,97.27 5.8,97.26 5.29,97.33 4.81,97.48 c -0.38,0.1 -0.73,0.31 -1,0.6 -0.22,0.25 -0.34,0.57 -0.33,0.9 -0.01,0.38 0.14,0.74 0.41,1 0.42,0.34 0.93,0.55 1.46,0.62 l 3.1,0.65 c 1.03,0.13 1.99,0.58 2.75,1.29 0.54,0.61 0.82,1.4 0.8,2.21 0.02,0.82 -0.22,1.62 -0.67,2.3 -0.5,0.69 -1.2,1.23 -2,1.53 -0.94,0.36 -1.94,0.53 -2.95,0.5 z" /><path
     inkscape:connector-curvature="0"
     id="path72"
     d="m 24.21,95.23 v 2.28 H 14.04 v -2.28 z m -4.66,-4 v 13.49 c -0.05,0.54 0.14,1.08 0.52,1.47 0.4,0.32 0.91,0.49 1.43,0.46 0.44,0.01 0.87,-0.07 1.28,-0.23 0.36,-0.16 0.7,-0.38 1,-0.64 l 0.65,2.12 c -0.45,0.38 -0.97,0.66 -1.53,0.85 -0.64,0.22 -1.32,0.32 -2,0.32 -0.73,0.01 -1.46,-0.12 -2.15,-0.38 -0.63,-0.24 -1.16,-0.67 -1.52,-1.24 -0.39,-0.68 -0.59,-1.46 -0.57,-2.24 V 92.06 Z" /><path
     inkscape:connector-curvature="0"
     id="path74"
     d="M 35.02,100.09 C 35.07,99.32 34.8,98.56 34.27,98 c -0.54,-0.51 -1.26,-0.78 -2,-0.75 -0.74,-0.02 -1.46,0.18 -2.09,0.57 -0.63,0.45 -1.08,1.1 -1.28,1.85 l -2.44,-1 c 0.34,-1.09 1.05,-2.03 2,-2.66 1.17,-0.71 2.53,-1.06 3.9,-1 0.99,-0.02 1.96,0.16 2.88,0.53 0.81,0.32 1.51,0.87 2,1.59 0.5,0.81 0.75,1.76 0.71,2.71 v 6.06 c -0.07,0.49 0.28,0.93 0.76,1 0.08,0.01 0.16,0.01 0.24,0 0.34,0 0.68,-0.04 1,-0.14 l -0.16,2 c -1.01,0.41 -2.13,0.41 -3.14,0 -0.45,-0.2 -0.82,-0.53 -1.08,-0.95 -0.28,-0.48 -0.42,-1.03 -0.4,-1.59 V 106 h 0.6 c -0.14,0.67 -0.49,1.29 -1,1.75 -0.51,0.45 -1.11,0.8 -1.76,1 -0.64,0.22 -1.32,0.33 -2,0.34 -0.78,0.01 -1.56,-0.13 -2.29,-0.41 -1.37,-0.5 -2.25,-1.83 -2.18,-3.29 -0.03,-0.93 0.33,-1.84 1,-2.49 0.78,-0.72 1.75,-1.18 2.8,-1.33 l 5.27,-1 v 2 l -3.82,0.79 c -0.61,0.08 -1.19,0.3 -1.71,0.62 -0.38,0.28 -0.6,0.73 -0.57,1.2 -0.02,0.47 0.2,0.92 0.58,1.2 0.46,0.32 1,0.48 1.56,0.45 0.44,0 0.89,-0.05 1.32,-0.16 0.41,-0.11 0.8,-0.29 1.15,-0.53 0.34,-0.24 0.62,-0.57 0.8,-0.95 0.2,-0.44 0.3,-0.92 0.29,-1.4 z" /><path
     inkscape:connector-curvature="0"
     id="path76"
     d="m 50.73,95.23 v 2.28 H 40.55 v -2.28 z m -4.67,-4 v 13.49 c -0.05,0.54 0.15,1.08 0.53,1.47 0.4,0.32 0.91,0.49 1.43,0.46 0.44,0.01 0.87,-0.07 1.28,-0.23 0.36,-0.16 0.7,-0.38 1,-0.64 l 0.65,2.12 c -0.45,0.38 -0.97,0.66 -1.53,0.85 -0.64,0.22 -1.32,0.32 -2,0.32 -0.73,0.01 -1.46,-0.12 -2.14,-0.38 -0.63,-0.24 -1.16,-0.67 -1.52,-1.24 -0.39,-0.68 -0.59,-1.46 -0.57,-2.24 V 92.06 Z" /><path
     inkscape:connector-curvature="0"
     id="path78"
     d="m 59.58,109.08 c -1.25,0.02 -2.48,-0.27 -3.58,-0.85 -1.02,-0.55 -1.86,-1.4 -2.4,-2.43 -1.15,-2.39 -1.15,-5.18 0,-7.57 0.54,-1.02 1.36,-1.87 2.37,-2.43 1.06,-0.56 2.25,-0.83 3.45,-0.8 1.18,-0.04 2.34,0.24 3.37,0.81 0.89,0.52 1.63,1.28 2.11,2.19 0.5,0.99 0.76,2.09 0.74,3.2 0,0.33 0,0.64 0,0.93 0,0.29 0,0.54 -0.08,0.76 H 54.61 v -2.23 h 9.64 l -1.44,0.43 c 0.07,-1.03 -0.26,-2.04 -0.92,-2.83 -0.66,-0.68 -1.58,-1.04 -2.52,-1 -0.7,-0.01 -1.4,0.18 -2,0.54 -0.63,0.38 -1.12,0.95 -1.4,1.63 -0.33,0.83 -0.49,1.72 -0.46,2.61 -0.03,0.89 0.14,1.77 0.49,2.58 0.28,0.66 0.76,1.22 1.38,1.6 0.64,0.38 1.38,0.57 2.12,0.55 0.77,0.04 1.53,-0.14 2.2,-0.52 0.57,-0.35 1.03,-0.85 1.33,-1.44 l 2.3,1.09 c -0.32,0.65 -0.76,1.23 -1.31,1.7 -0.59,0.5 -1.27,0.87 -2,1.1 -0.79,0.25 -1.61,0.38 -2.44,0.38 z" /></g><path
   d="M 8.12,141.59 C 6.88,141.62 5.65,141.42 4.49,141 3.46,140.62 2.52,140.02 1.75,139.23 0.97,138.4 0.38,137.4 0.03,136.32 l 2.17,-1.08 c 0.25,0.94 0.72,1.8 1.36,2.53 0.58,0.64 1.31,1.12 2.12,1.39 0.85,0.29 1.74,0.43 2.63,0.42 0.76,0.03 1.53,-0.13 2.22,-0.45 0.55,-0.26 1.02,-0.66 1.35,-1.17 0.29,-0.46 0.44,-0.99 0.44,-1.53 0.04,-0.59 -0.2,-1.17 -0.63,-1.58 -0.55,-0.44 -1.18,-0.75 -1.86,-0.92 L 6.97,133.1 c -0.85,-0.24 -1.66,-0.61 -2.39,-1.1 -0.61,-0.39 -1.11,-0.92 -1.47,-1.55 -0.34,-0.61 -0.52,-1.3 -0.5,-2 -0.01,-0.97 0.27,-1.91 0.8,-2.72 0.56,-0.84 1.34,-1.51 2.25,-1.94 1.08,-0.5 2.25,-0.75 3.44,-0.72 1.54,-0.05 3.06,0.33 4.39,1.09 1.21,0.77 2.11,1.94 2.53,3.31 l -2.17,1.06 c -0.17,-0.81 -0.55,-1.55 -1.12,-2.15 -0.49,-0.47 -1.09,-0.82 -1.74,-1 -0.65,-0.18 -1.32,-0.27 -2,-0.27 -0.78,-0.03 -1.56,0.11 -2.28,0.41 -0.55,0.22 -1.03,0.59 -1.37,1.08 -0.3,0.44 -0.45,0.96 -0.45,1.49 0,0.63 0.26,1.23 0.71,1.67 0.5,0.58 1.14,1.01 1.87,1.24 l 3.23,0.93 c 1.11,0.26 2.12,0.81 2.93,1.61 0.63,0.7 0.97,1.62 0.95,2.57 0.02,1.04 -0.29,2.07 -0.88,2.93 -0.6,0.83 -1.41,1.5 -2.35,1.93 -1.02,0.44 -2.12,0.65 -3.23,0.62 z"
   id="path80"
   inkscape:connector-curvature="0" /><path
   d="m 17.34,143.6 0.26,-1.1 h 5.31 l -0.25,1.1 z m 2.69,6.94 c -0.45,0.01 -0.89,-0.09 -1.29,-0.3 -0.35,-0.19 -0.62,-0.5 -0.76,-0.87 -0.14,-0.44 -0.15,-0.92 -0.01,-1.37 l 1.66,-7.25 1.38,-0.39 -1.81,7.7 c -0.12,0.34 -0.04,0.73 0.2,1 0.25,0.21 0.57,0.32 0.9,0.31 0.23,0 0.47,-0.03 0.69,-0.11 0.19,-0.07 0.36,-0.17 0.52,-0.29 l 0.26,1 c -0.25,0.17 -0.52,0.29 -0.81,0.37 -0.3,0.11 -0.61,0.18 -0.93,0.2 z"
   id="path82"
   inkscape:connector-curvature="0" /><path
   d="m 297.81,150.63 4.16,-17.92 h 5.86 c 1.4,-0.07 2.77,0.39 3.84,1.29 0.98,0.92 1.5,2.23 1.43,3.57 0.02,0.95 -0.22,1.89 -0.7,2.71 -0.44,0.78 -1.06,1.45 -1.81,1.95 -0.74,0.49 -1.56,0.82 -2.43,1 l -1.36,0.19 h -5.57 l 0.47,-2 h 4.88 c 0.83,0.03 1.65,-0.15 2.39,-0.53 0.6,-0.32 1.09,-0.81 1.41,-1.41 0.31,-0.6 0.47,-1.27 0.46,-1.94 0.06,-0.79 -0.29,-1.56 -0.92,-2.05 -0.74,-0.5 -1.63,-0.74 -2.52,-0.69 h -3.72 l -3.71,15.83 z m 11.46,0 -3.07,-7.63 2.2,-0.27 3.23,7.9 z"
   id="path84"
   inkscape:connector-curvature="0" /><path
   d="m 314.86,152.85 0.25,-1.1 h 5.32 l -0.25,1.1 z m 2.69,6.94 c -0.45,0.01 -0.9,-0.09 -1.3,-0.3 -0.35,-0.19 -0.62,-0.5 -0.76,-0.87 -0.13,-0.44 -0.13,-0.92 0,-1.36 l 1.66,-7.25 1.38,-0.39 -1.8,7.7 c -0.12,0.34 -0.04,0.73 0.2,1 0.25,0.21 0.56,0.32 0.89,0.31 0.24,0 0.47,-0.03 0.7,-0.11 0.19,-0.07 0.36,-0.17 0.52,-0.29 l 0.25,1 c -0.25,0.17 -0.52,0.3 -0.81,0.37 -0.3,0.1 -0.61,0.17 -0.93,0.19 z"
   id="path86"
   inkscape:connector-curvature="0" /><path
   d="m 329.2,154.06 -0.27,1.19 h -7.69 l 0.26,-1.19 z m -2.49,-3.32 -1.8,7.85 h -1.19 l 1.8,-7.85 z"
   id="path88"
   inkscape:connector-curvature="0" /><path
   d="m 331.68,159.67 1.69,-7.38 0.24,-0.86 c 0.07,-0.25 0.15,-0.49 0.24,-0.72 -0.25,0.22 -0.53,0.42 -0.83,0.57 -0.36,0.19 -0.74,0.36 -1.12,0.5 -0.36,0.14 -0.73,0.25 -1.11,0.32 v -1.23 c 0.43,-0.1 0.86,-0.24 1.27,-0.41 0.44,-0.18 0.87,-0.38 1.28,-0.61 0.33,-0.18 0.64,-0.39 0.92,-0.63 h 1.11 l -2.4,10.45 z"
   id="path90"
   inkscape:connector-curvature="0" /><path
   d="m 304.63,199.63 c -1.25,0.02 -2.49,-0.2 -3.66,-0.63 -1.03,-0.38 -1.97,-0.99 -2.74,-1.78 -0.78,-0.83 -1.36,-1.82 -1.72,-2.9 l 2.17,-1.09 c 0.25,0.94 0.71,1.81 1.36,2.54 0.58,0.63 1.3,1.1 2.11,1.38 0.85,0.28 1.74,0.43 2.64,0.42 0.76,0.03 1.53,-0.13 2.22,-0.45 0.55,-0.25 1.02,-0.65 1.35,-1.16 0.29,-0.46 0.44,-1 0.44,-1.54 0.03,-0.59 -0.2,-1.17 -0.63,-1.57 -0.54,-0.44 -1.18,-0.75 -1.86,-0.92 l -2.91,-0.82 c -0.83,-0.23 -1.62,-0.59 -2.34,-1.06 -0.61,-0.39 -1.11,-0.92 -1.47,-1.54 -0.34,-0.61 -0.52,-1.3 -0.5,-2 -0.01,-0.96 0.27,-1.91 0.8,-2.71 0.56,-0.84 1.34,-1.51 2.25,-1.94 1.07,-0.5 2.25,-0.75 3.43,-0.72 1.54,-0.06 3.06,0.32 4.4,1.08 1.21,0.77 2.11,1.95 2.53,3.32 l -2.18,1.05 c -0.16,-0.8 -0.54,-1.55 -1.11,-2.14 -0.49,-0.48 -1.08,-0.82 -1.74,-1 -0.65,-0.19 -1.32,-0.28 -2,-0.28 -0.78,-0.02 -1.56,0.12 -2.28,0.41 -0.55,0.22 -1.03,0.6 -1.37,1.09 -0.3,0.44 -0.45,0.96 -0.45,1.49 0,0.63 0.26,1.23 0.71,1.67 0.51,0.55 1.17,0.96 1.89,1.17 l 3.23,0.92 c 1.11,0.26 2.12,0.82 2.93,1.62 0.63,0.7 0.97,1.62 0.95,2.56 0.02,1.04 -0.29,2.07 -0.88,2.93 -0.6,0.84 -1.41,1.51 -2.35,1.93 -1.01,0.45 -2.11,0.68 -3.22,0.67 z"
   id="path92"
   inkscape:connector-curvature="0" /><path
   d="m 313.85,201.63 0.26,-1.09 h 5.31 l -0.25,1.09 z m 2.69,7 c -0.45,0.01 -0.89,-0.09 -1.29,-0.3 -0.35,-0.19 -0.62,-0.5 -0.76,-0.87 -0.14,-0.44 -0.14,-0.92 0,-1.36 l 1.66,-7.25 1.38,-0.4 -1.81,7.71 c -0.12,0.34 -0.04,0.73 0.2,1 0.25,0.21 0.57,0.32 0.89,0.31 0.24,0.01 0.48,-0.03 0.7,-0.11 0.19,-0.06 0.36,-0.16 0.52,-0.28 l 0.26,1 c -0.25,0.17 -0.52,0.3 -0.81,0.37 -0.31,0.09 -0.62,0.13 -0.94,0.13 z"
   id="path94"
   inkscape:connector-curvature="0" /><path
   d="m 328.19,202.85 -0.22,1.15 h -7.69 l 0.27,-1.19 z m -2.48,-3.32 -1.81,7.84 h -1.18 l 1.8,-7.84 z"
   id="path96"
   inkscape:connector-curvature="0" /><path
   d="m 330.68,208.45 1.69,-7.37 c 0.08,-0.33 0.16,-0.62 0.24,-0.87 0.07,-0.24 0.15,-0.48 0.23,-0.72 -0.25,0.23 -0.53,0.42 -0.83,0.57 -0.36,0.19 -0.73,0.36 -1.11,0.51 -0.36,0.14 -0.73,0.25 -1.11,0.32 v -1.24 c 0.43,-0.1 0.85,-0.23 1.26,-0.4 0.44,-0.18 0.87,-0.39 1.29,-0.62 0.32,-0.18 0.63,-0.38 0.91,-0.62 h 1.11 l -2.39,10.44 z"
   id="path98"
   inkscape:connector-curvature="0" /><polyline
   style="fill:none;stroke:#000000;stroke-width:2;stroke-miterlimit:10"
   points="583.28,54.38 699.78,54.38     699.78,187.57 599.59,187.57   "
   id="polyline100" /><path
   d="m 603.18,187.57 4.38,7.21 -0.25,0.16 -11.75,-4.66 -12.28,-2.71 12.28,-2.7 11.75,-4.66 0.25,0.12 z"
   id="path102"
   inkscape:connector-curvature="0" /><line
   style="fill:none;stroke:#000000;stroke-width:2;stroke-miterlimit:10"
   x1="350.29001"
   y1="168.53999"
   x2="293.25"
   y2="168.53999"
   id="line104" /><path
   d="m 296.84,168.54 4.38,7.21 -0.24,0.16 -11.75,-4.67 -12.26,-2.7 12.28,-2.7 11.72,-4.67 0.24,0.13 z"
   id="path106"
   inkscape:connector-curvature="0" /><line
   style="fill:none;stroke:#000000;stroke-width:2;stroke-miterlimit:10"
   x1="350.29001"
   y1="217.31"
   x2="293.25"
   y2="217.31"
   id="line108" /><path
   d="m 296.84,217.31 4.38,7.21 -0.24,0.16 -11.75,-4.68 -12.26,-2.69 12.28,-2.7 11.72,-4.67 0.24,0.12 z"
   id="path110"
   inkscape:connector-curvature="0" /><line
   style="fill:none;stroke:#000000;stroke-width:2;stroke-miterlimit:10"
   x1="255.37"
   y1="141.46001"
   x2="255.37"
   y2="143.46001"
   id="line112" /><line
   style="fill:none;stroke:#000000;stroke-width:2;stroke-miterlimit:10;stroke-dasharray:3.84, 3.84"
   x1="255.37"
   y1="147.3"
   x2="255.37"
   y2="237.53999"
   id="line114" /><line
   style="fill:none;stroke:#000000;stroke-width:2;stroke-miterlimit:10"
   x1="255.37"
   y1="239.45"
   x2="255.37"
   y2="241.45"
   id="line116" /><polyline
   style="fill:none;stroke:#000000;stroke-width:2;stroke-miterlimit:10"
   points="242.43,168.54 128.09,168.54     128.09,75.86 333.99,75.86   "
   id="polyline118" /><path
   d="m 330.4,75.86 -4.38,-7.2 0.24,-0.17 11.71,4.67 12.28,2.7 -12.28,2.71 -11.75,4.66 -0.24,-0.12 z"
   id="path120"
   inkscape:connector-curvature="0" /><polyline
   style="fill:none;stroke:#000000;stroke-width:2;stroke-miterlimit:10"
   points="238.11,217.31 87.1,217.31 87.1,24.23     333.99,24.23   "
   id="polyline122" /><path
   d="m 330.4,24.23 -4.38,-7.23 0.24,-0.16 11.71,4.69 12.28,2.7 -12.28,2.7 -11.71,4.67 -0.24,-0.12 z"
   id="path124"
   inkscape:connector-curvature="0" />
</svg>