<svg xmlns="http://www.w3.org/2000/svg" width="148.722" height="117.542" viewBox="0 0 148.722 117.542">
  <g id="Group_1217" data-name="Group 1217" transform="translate(-605.575 -285.356)">
    <path id="Path_6629" data-name="Path 6629" d="M634.269,320c4.967-14.315,14.127-21.1,27.633-26.149,12.866-4.808,27.806-11.889,40.029-6.028,25.61,12.278,39.8,22.474,26.6,73.284-2.981,11.477-66.058,28.7-74.134,24.079C630.494,371.5,625.629,344.9,634.269,320Z" fill="#f6ebe8"/>
    <g id="Group_1215" data-name="Group 1215">
      <line id="Line_21" data-name="Line 21" y1="13.744" x2="31.05" transform="translate(621.592 337.383)" fill="none" stroke="#2a3f55" stroke-miterlimit="10" stroke-width="0.5"/>
      <line id="Line_22" data-name="Line 22" x2="28.966" y2="14.071" transform="translate(620.869 358.371)" fill="none" stroke="#2a3f55" stroke-miterlimit="10" stroke-width="0.5"/>
      <line id="Line_23" data-name="Line 23" y1="24.39" x2="28.109" transform="translate(657.707 346.628)" fill="none" stroke="#2a3f55" stroke-miterlimit="10" stroke-width="0.5"/>
      <line id="Line_24" data-name="Line 24" x1="3.987" y1="38.911" transform="translate(686.844 301.728)" fill="none" stroke="#2a3f55" stroke-miterlimit="10" stroke-width="0.5"/>
      <line id="Line_25" data-name="Line 25" x1="32.64" y1="6.293" transform="translate(618.578 323.217)" fill="none" stroke="#2a3f55" stroke-miterlimit="10" stroke-width="0.5"/>
      <line id="Line_26" data-name="Line 26" y1="14.278" x2="34.002" transform="translate(615.898 305.359)" fill="none" stroke="#2a3f55" stroke-miterlimit="10" stroke-width="0.5"/>
      <line id="Line_27" data-name="Line 27" x1="0.378" y2="20.393" transform="translate(612.652 326.253)" fill="none" stroke="#2a3f55" stroke-miterlimit="10" stroke-width="0.5"/>
      <line id="Line_28" data-name="Line 28" y1="8.028" x2="21.921" transform="translate(655.627 295.279)" fill="none" stroke="#2a3f55" stroke-miterlimit="10" stroke-width="0.5"/>
      <line id="Line_29" data-name="Line 29" x2="33.719" y2="1.017" transform="translate(693.293 292.433)" fill="none" stroke="#2a3f55" stroke-miterlimit="10" stroke-width="0.5"/>
      <line id="Line_30" data-name="Line 30" x2="4.909" y2="10.291" transform="translate(711.779 321.609)" fill="none" stroke="#2a3f55" stroke-miterlimit="10" stroke-width="0.5"/>
      <line id="Line_31" data-name="Line 31" y1="2.397" x2="18.875" transform="translate(693.51 341.824)" fill="none" stroke="#2a3f55" stroke-miterlimit="10" stroke-width="0.5"/>
      <line id="Line_32" data-name="Line 32" x2="47.045" y2="1.656" transform="translate(658.063 372.986)" fill="none" stroke="#2a3f55" stroke-miterlimit="10" stroke-width="0.5"/>
      <line id="Line_33" data-name="Line 33" x2="12.771" y2="20.048" transform="translate(692.254 348.512)" fill="none" stroke="#2a3f55" stroke-miterlimit="10" stroke-width="0.5"/>
      <line id="Line_34" data-name="Line 34" x1="19.848" y1="8.606" transform="translate(666.241 333.908)" fill="none" stroke="#2a3f55" stroke-miterlimit="10" stroke-width="0.5"/>
      <line id="Line_35" data-name="Line 35" x2="14.757" y2="92.856" transform="translate(730.32 294.884)" fill="none" stroke="#2a3f55" stroke-miterlimit="10" stroke-width="0.5"/>
      <line id="Line_36" data-name="Line 36" x2="26.998" y2="14.427" transform="translate(712.708 377.333)" fill="none" stroke="#2a3f55" stroke-miterlimit="10" stroke-width="0.5"/>
      <line id="Line_37" data-name="Line 37" x2="17.847" y2="42.503" transform="translate(724.277 345.771)" fill="none" stroke="#2a3f55" stroke-miterlimit="10" stroke-width="0.5"/>
      <line id="Line_38" data-name="Line 38" y1="35.948" x2="7.727" transform="translate(720.624 295.24)" fill="none" stroke="#2a3f55" stroke-miterlimit="10" stroke-width="0.5"/>
    </g>
    <g id="Group_1216" data-name="Group 1216">
      <circle id="Ellipse_73" data-name="Ellipse 73" cx="8" cy="8" r="8" transform="translate(606.075 346.518)" fill="none" stroke="#2a3f55" stroke-miterlimit="10" stroke-width="1"/>
      <circle id="Ellipse_74" data-name="Ellipse 74" cx="4.216" cy="4.216" r="4.216" transform="translate(649.483 367.404)" fill="none" stroke="#2a3f55" stroke-miterlimit="10" stroke-width="1"/>
      <circle id="Ellipse_75" data-name="Ellipse 75" cx="3.655" cy="3.655" r="3.655" transform="translate(610.762 319.287)" fill="none" stroke="#2a3f55" stroke-miterlimit="10" stroke-width="1"/>
      <circle id="Ellipse_76" data-name="Ellipse 76" cx="8" cy="8" r="8" transform="translate(650.818 324.201)" fill="none" stroke="#2a3f55" stroke-miterlimit="10" stroke-width="1"/>
      <circle id="Ellipse_77" data-name="Ellipse 77" cx="4.149" cy="4.149" r="4.149" transform="translate(685.439 340.602)" fill="none" stroke="#2a3f55" stroke-miterlimit="10" stroke-width="1"/>
      <circle id="Ellipse_78" data-name="Ellipse 78" cx="2.98" cy="2.98" r="2.98" transform="translate(650.006 300.831)" fill="none" stroke="#2a3f55" stroke-miterlimit="10" stroke-width="1"/>
      <circle id="Ellipse_79" data-name="Ellipse 79" cx="8" cy="8" r="8" transform="translate(712.08 331.416)" fill="none" stroke="#2a3f55" stroke-miterlimit="10" stroke-width="1"/>
      <circle id="Ellipse_80" data-name="Ellipse 80" cx="7.547" cy="7.547" r="7.547" transform="translate(738.703 387.304)" fill="none" stroke="#2a3f55" stroke-miterlimit="10" stroke-width="1"/>
      <circle id="Ellipse_81" data-name="Ellipse 81" cx="5.484" cy="5.484" r="5.484" transform="translate(704.191 366.532)" fill="none" stroke="#2a3f55" stroke-miterlimit="10" stroke-width="1"/>
      <circle id="Ellipse_82" data-name="Ellipse 82" cx="8" cy="8" r="8" transform="translate(677.42 285.856)" fill="none" stroke="#2a3f55" stroke-miterlimit="10" stroke-width="1"/>
      <circle id="Ellipse_83" data-name="Ellipse 83" cx="5.057" cy="5.057" r="5.057" transform="translate(703.879 312.381)" fill="none" stroke="#2a3f55" stroke-miterlimit="10" stroke-width="1"/>
      <circle id="Ellipse_84" data-name="Ellipse 84" cx="2.564" cy="2.564" r="2.564" transform="translate(727.188 290.128)" fill="none" stroke="#2a3f55" stroke-miterlimit="10" stroke-width="1"/>
    </g>
  </g>
</svg>
