<svg id="NewGroup0-32" xmlns="http://www.w3.org/2000/svg" width="110" height="100" viewBox="-14 -15 100 100">
  <g id="Group_212" data-name="Group 212">
    <path id="Path_358" data-name="Path 358" d="M715.12,354.078a1.872,1.872,0,0,0,1.865,1.865h33.442v16.813a2.393,2.393,0,0,0-1.773,2.293v2.935A6.135,6.135,0,0,0,743,384.1v1.62h18.219v-1.59a6.133,6.133,0,0,0-5.655-6.114v-2.935a2.393,2.393,0,0,0-1.773-2.293V355.974H785.8a1.865,1.865,0,1,0,0-3.729h-4.432a8.656,8.656,0,0,0,4.066-7.367v-6.3h-26.32v6.3a8.656,8.656,0,0,0,4.066,7.367h-9.415v-6.419a1.712,1.712,0,1,0-3.424,0v6.419H740.217a8.62,8.62,0,0,0,3.332-6.847v-6.3H717.23v6.3a8.711,8.711,0,0,0,3.332,6.847h-3.7a1.8,1.8,0,0,0-1.743,1.834Z" transform="translate(-715.12 -306.207)" fill="#202020"/>
    <path id="Path_359" data-name="Path 359" d="M743.826,330.5a12.35,12.35,0,1,1-12.35,12.35,12.355,12.355,0,0,1,12.35-12.35Zm0,27.145A14.826,14.826,0,1,0,729,342.816a14.82,14.82,0,0,0,14.826,14.826Z" transform="translate(-686.57 -327.99)" fill="#202020"/>
    <path id="Path_360" data-name="Path 360" d="M734.519,333.385a1.018,1.018,0,0,0,1.009-1.009v-2.018a1.009,1.009,0,0,0-2.018,0v2.018a1,1,0,0,0,1.009,1.009Z" transform="translate(-677.294 -325.193)" fill="#202020"/>
    <path id="Path_361" data-name="Path 361" d="M737.017,333.434,738.454,332a1.016,1.016,0,1,0-1.437-1.437L735.581,332a1.016,1.016,0,0,0,1.437,1.437Z" transform="translate(-673.648 -323.316)" fill="#202020"/>
    <path id="Path_362" data-name="Path 362" d="M736.02,333.52a1.018,1.018,0,0,0,1.009,1.009h2.017a1.009,1.009,0,1,0,0-2.017h-2.017a.98.98,0,0,0-1.009,1.009Z" transform="translate(-672.131 -318.694)" fill="#202020"/>
    <path id="Path_363" data-name="Path 363" d="M737.027,334.571a1.016,1.016,0,0,0-1.437,1.437l1.437,1.437a1.016,1.016,0,1,0,1.437-1.437l-1.437-1.437Z" transform="translate(-673.627 -315.068)" fill="#202020"/>
    <path id="Path_364" data-name="Path 364" d="M734.539,335.02a1.018,1.018,0,0,0-1.009,1.009v2.017a1.009,1.009,0,0,0,2.018,0v-2.017a1.018,1.018,0,0,0-1.009-1.009Z" transform="translate(-677.253 -313.53)" fill="#202020"/>
    <path id="Path_365" data-name="Path 365" d="M733.017,334.591l-1.437,1.437a1.016,1.016,0,0,0,1.437,1.437l1.437-1.437a1.016,1.016,0,0,0-1.437-1.437Z" transform="translate(-681.875 -315.026)" fill="#202020"/>
    <path id="Path_366" data-name="Path 366" d="M734.4,333.529a1.018,1.018,0,0,0-1.009-1.009h-2.017a1.009,1.009,0,0,0,0,2.018h2.017a.98.98,0,0,0,1.009-1.009Z" transform="translate(-683.773 -318.672)" fill="#202020"/>
    <path id="Path_367" data-name="Path 367" d="M733.007,333.454a1.016,1.016,0,0,0,1.436-1.437l-1.436-1.437a1.016,1.016,0,0,0-1.437,1.437l1.437,1.437Z" transform="translate(-681.896 -323.275)" fill="#202020"/>
    <path id="Path_368" data-name="Path 368" d="M735.445,331.923a.7.7,0,1,0-1.406,0v4.28a1.174,1.174,0,0,0-.489.948,1.194,1.194,0,0,0,1.192,1.192,2.072,2.072,0,0,0,.428-.061l1.651,1.651a.591.591,0,0,0,.856,0l.153-.153a.591.591,0,0,0,0-.856l-1.865-1.865a1.237,1.237,0,0,0-.489-.856v-4.28Z" transform="translate(-677.211 -321.346)" fill="#202020"/>
    <path id="Path_369" data-name="Path 369" d="M722.094,336.8a2.4,2.4,0,0,0,.52-1.62,1.646,1.646,0,0,0-.52-1.192,5.316,5.316,0,0,0-1.284-.917v4.616a3.226,3.226,0,0,0,1.284-.886Z" transform="translate(-703.416 -317.541)" fill="#202020"/>
    <path id="Path_370" data-name="Path 370" d="M719.965,331.334a2.29,2.29,0,0,0-.245.917,1.739,1.739,0,0,0,.245.948,3.631,3.631,0,0,0,.581.611v-3.24a2.519,2.519,0,0,0-.581.764Z" transform="translate(-705.658 -322.683)" fill="#202020"/>
    <path id="Path_371" data-name="Path 371" d="M728.557,351.374v-.581a7.1,7.1,0,0,1-1.865-.673,6.123,6.123,0,0,1-1.5-1.1,5.168,5.168,0,0,1-.978-1.376,3.407,3.407,0,0,1-.367-1.528,1.365,1.365,0,0,1,.458-1.1,1.482,1.482,0,0,1,.948-.367,1.342,1.342,0,0,1,1.376,1.1,3.162,3.162,0,0,0,1.926,2.109v-5.747a14.8,14.8,0,0,1-1.376-.795,5.1,5.1,0,0,1-1.1-1.039,5.018,5.018,0,0,1-.734-1.314,4.675,4.675,0,0,1-.275-1.651,4.973,4.973,0,0,1,.275-1.681,5.119,5.119,0,0,1,.764-1.315,5.326,5.326,0,0,1,1.1-.948,4.307,4.307,0,0,1,1.345-.55v-.275c0-.948.4-1.437,1.223-1.437.856,0,1.284.489,1.284,1.437v.275a4.41,4.41,0,0,1,1.376.52,4.185,4.185,0,0,1,1.161.887,3.545,3.545,0,0,1,.795,1.192,3.782,3.782,0,0,1,.306,1.437,1.411,1.411,0,0,1-1.406,1.467.972.972,0,0,1-.856-.306,2.749,2.749,0,0,1-.367-.734c-.092-.275-.183-.55-.306-.856a1.267,1.267,0,0,0-.7-.673v4.28a11.956,11.956,0,0,1,1.743.948,6.816,6.816,0,0,1,1.437,1.162,5.692,5.692,0,0,1,.978,1.437,4.282,4.282,0,0,1,.367,1.773,5.982,5.982,0,0,1-.367,2.17,4.85,4.85,0,0,1-1.009,1.62,5.289,5.289,0,0,1-3.149,1.651v.55a1.116,1.116,0,0,1-1.253,1.253c-.856.03-1.254-.367-1.254-1.223Zm14.979-9.446a13.848,13.848,0,1,0-13.848,13.848,13.855,13.855,0,0,0,13.848-13.848Z" transform="translate(-713.639 -327.805)" fill="#202020"/>
  </g>
</svg>
